<?xml version="1.0" standalone="no"?>
<!DOCTYPE svg PUBLIC "-//W3C//DTD SVG 1.1//EN" "http://www.w3.org/Graphics/SVG/1.1/DTD/svg11.dtd" >
<svg>
<metadata>
Created by FontForge 20120731 at Tue Jul 19 18:18:49 2016
 By www
(URW)++,Copyright 2004 by (URW)++ Design &#38; Development
</metadata>
<defs>
<font id="CaslonGraphiqueW01-D" horiz-adv-x="600" >
  <font-face 
    font-family="CaslonGraphiqueW01-D"
    font-weight="400"
    font-stretch="normal"
    units-per-em="1000"
    panose-1="4 0 5 0 0 0 0 0 0 0"
    ascent="783"
    descent="-217"
    x-height="500"
    cap-height="667"
    bbox="-217 -264 1147 935"
    underline-thickness="98"
    underline-position="-45"
    unicode-range="U+000D-2122"
  />
<missing-glyph horiz-adv-x="0" 
 />
    <glyph glyph-name=".notdef" horiz-adv-x="0" 
 />
    <glyph glyph-name="exclam" unicode="!" horiz-adv-x="290" 
d="M159 221q-1 19 -3.5 36.5t-8.5 35.5t-15 37.5t-22 44.5q-20 37 -32 62.5t-19 43.5t-9.5 31t-2.5 26q0 45 26.5 83t85.5 79q15 -11 26 -19.5t18.5 -15t13.5 -13t12 -13.5q41 -49 41 -95q0 -26 -9 -56t-32 -82q-19 -42 -30 -69t-17 -46.5t-9 -35t-4 -34.5h-10zM158 180
q42 0 69.5 -28t27.5 -70q0 -20 -7.5 -37t-21 -30t-31 -20.5t-36.5 -7.5q-41 0 -69 28t-28 69q0 40 28 68t68 28z" />
    <glyph glyph-name="quotedbl" unicode="&#x22;" horiz-adv-x="497" 
d="M109 400l-89 267h192l-89 -267h-14zM374 400l-89 267h192l-89 -267h-14z" />
    <glyph glyph-name="numbersign" unicode="#" horiz-adv-x="560" 
d="M396 667h20l-46 -257h190l-3 -20h-190l-20 -113h190l-4 -20h-190l-45 -257h-20l45 257h-113l-45 -257h-20l45 257h-190l4 20h190l20 113h-190l3 20h190l45 257h20l-45 -257h113zM234 390l-20 -113h113l20 113h-113z" />
    <glyph glyph-name="dollar" unicode="$" 
d="M304 -147h-13v134q-58 1 -106.5 12.5t-83 32.5t-54 49.5t-19.5 62.5q0 32 22 53.5t55 21.5q51 0 79 -51l7 -14t5 -14t4 -20.5t5 -32.5q3 -38 26.5 -61.5t59.5 -25.5v248l-51 16q-98 32 -144 80.5t-46 118.5q0 61 37 113t101 81q24 11 47.5 16t55.5 7v134h13v-134
q5 1 10 1h7q48 0 90 -10t72.5 -27.5t48.5 -41.5t18 -51q0 -30 -20.5 -50t-50.5 -20q-33 0 -62 24q-13 11 -20 24t-15 37q-8 29 -15 47t-15.5 29t-20 16t-27.5 8v-223l93 -30q90 -29 132 -76t42 -117q0 -60 -33 -112t-91 -84q-32 -18 -64.5 -26.5t-78.5 -10.5v-134zM304 0
q26 1 43 5t31 12q24 14 38.5 40t14.5 56q0 46 -30.5 77t-96.5 53v-243zM291 667q-26 -2 -41 -6t-28 -15q-15 -13 -23.5 -33.5t-8.5 -44.5q0 -44 23.5 -72t77.5 -48v219z" />
    <glyph glyph-name="percent" unicode="%" horiz-adv-x="517" 
d="M497 730l-459 -760h-13l408 680q-29 -23 -51 -32t-46 -9q-20 0 -37 4.5t-40 15.5q17 -23 25 -46t8 -52q0 -31 -10.5 -58t-29 -47t-43.5 -31.5t-53 -11.5q-29 0 -53.5 11.5t-43 31.5t-29 47t-10.5 58t10.5 58t29 47.5t43 32t53.5 11.5q48 0 91 -38q38 -16 82 -16
q41 0 73 14.5t49 39.5l32 50h14zM154 667q-20 0 -32 -37.5t-12 -97.5t12.5 -98t32.5 -38q19 0 31.5 37.5t12.5 96.5q0 62 -12.5 99.5t-32.5 37.5zM359 284q28 0 53 -11.5t43.5 -32t29 -48t10.5 -58.5q0 -30 -10.5 -57t-29 -47t-43.5 -31.5t-53 -11.5q-29 0 -53.5 11.5
t-43 31.5t-29 47t-10.5 58t10.5 58t29 47.5t43 32t53.5 11.5zM357 271q-20 0 -32 -37.5t-12 -97.5t12.5 -98t32.5 -38q19 0 31.5 37.5t12.5 96.5q0 62 -12.5 99.5t-32.5 37.5z" />
    <glyph glyph-name="ampersand" unicode="&#x26;" horiz-adv-x="871" 
d="M864 140q-40 -75 -86 -114t-95 -39q-56 0 -105 27t-108 91q-20 -29 -33.5 -43.5t-30.5 -28.5q-29 -22 -66 -34t-75 -12q-51 0 -95 19t-76.5 52.5t-51.5 78.5t-19 97q0 88 52 161t151 125q5 40 17 64.5t38 47.5q27 23 62 35.5t73 12.5q34 0 62.5 -10.5t49 -29.5t32 -44.5
t11.5 -56.5q0 -76 -78 -175l82 -98q18 53 33.5 97.5t23.5 63.5q38 89 107 89q38 0 63 -27t25 -70q0 -36 -19.5 -60.5t-48.5 -24.5q-17 0 -30.5 7.5t-31.5 26.5q-19 19 -34 19q-9 0 -16.5 -5.5t-16 -19.5t-19.5 -39.5t-26 -65.5q52 -66 108.5 -105.5t100.5 -39.5q38 0 61 31z
M487 373q2 3 4 7q14 23 21 54.5t7 66.5q0 75 -24.5 120.5t-66.5 45.5q-24 0 -39.5 -17t-15.5 -43q0 -19 9 -47t24.5 -59.5t36 -64.5t44.5 -63zM225 507q-28 -26 -40.5 -60t-12.5 -82q0 -44 14.5 -89.5t40.5 -83.5q29 -43 70.5 -66t89.5 -23q20 0 35.5 3.5t35.5 12.5
q-24 20 -61 65.5t-90 120.5q-20 30 -35 56t-24.5 50t-15 47.5t-7.5 48.5z" />
    <glyph glyph-name="quotesingle" unicode="'" horiz-adv-x="240" 
d="M109 400l-89 267h200l-90 -267h-21z" />
    <glyph glyph-name="parenleft" unicode="(" horiz-adv-x="326" 
d="M319 723q-38 -2 -61 -15t-39 -43q-10 -17 -16.5 -36.5t-10.5 -45t-5.5 -58.5t-1.5 -78v-291q0 -45 1.5 -78t5.5 -58t10.5 -44.5t16.5 -37.5q16 -30 39 -43t61 -15v-10q-33 1 -58.5 4.5t-46.5 9.5t-39 16t-37 25q-63 48 -90.5 116.5t-27.5 174.5v171q0 106 27.5 174.5
t90.5 116.5q19 15 37 25t39 16t46.5 9.5t58.5 4.5v-10z" />
    <glyph glyph-name="parenright" unicode=")" horiz-adv-x="326" 
d="M7 -120q38 2 61 15t39 43q10 18 16.5 37.5t10.5 44.5t5.5 58t1.5 78v291q0 45 -1.5 78t-5.5 58.5t-10.5 45t-16.5 36.5q-16 30 -39 43t-61 15v10q33 -1 58.5 -4.5t46.5 -9.5t39 -16t37 -25q63 -48 90.5 -116.5t27.5 -174.5v-171q0 -106 -27.5 -174.5t-90.5 -116.5
q-19 -15 -37 -24.5t-39 -16t-46.5 -10t-58.5 -4.5v10z" />
    <glyph glyph-name="asterisk" unicode="*" horiz-adv-x="358" 
d="M194 480q34 -15 55 -26.5t33 -21t16.5 -18.5t4.5 -20q0 -21 -13.5 -34.5t-33.5 -13.5q-26 0 -39 20.5t-18 71.5q-2 17 -3 24.5t-2 17.5zM164 480q-1 -11 -3 -24t-4 -25.5t-4 -23t-3 -16.5q-5 -20 -18 -32t-32 -12q-20 0 -33.5 14t-13.5 34q0 19 16.5 34.5t55.5 32.5
q8 3 12.5 5t8 4t7.5 4t11 5zM155 508q-13 -2 -28 -4.5t-28.5 -4.5t-24 -3.5t-14.5 -1.5q-24 0 -39 14t-15 36q0 18 14 31.5t32 13.5q16 0 33.5 -12t40.5 -38q8 -9 14.5 -16t14.5 -15zM179 526q-7 12 -10.5 18.5t-10.5 20.5q-3 5 -5.5 10t-5.5 10q-9 17 -12 26.5t-3 20.5
q0 20 14 34t34 14q18 0 32 -13.5t14 -31.5q0 -8 -1.5 -15.5t-6 -18t-12.5 -25.5t-21 -38q-1 -2 -2.5 -4.5t-3.5 -7.5zM203 508q22 24 37 39t26.5 24t20 12.5t17.5 3.5q20 0 34 -13.5t14 -32.5q0 -23 -15 -35.5t-42 -12.5q-11 0 -22 1.5t-29 5.5q-13 2 -16.5 3t-11.5 3
q-2 0 -5 0.5t-8 1.5z" />
    <glyph glyph-name="plus" unicode="+" horiz-adv-x="553" 
d="M10 323v20h257v257h20v-257h257v-20h-257v-257h-20v257h-257z" />
    <glyph glyph-name="comma" unicode="," horiz-adv-x="232" 
d="M82 -145q20 26 28 44t8 38t-7 30.5t-27 21.5q-38 20 -51 37.5t-13 46.5q0 19 7.5 36.5t20.5 30t30.5 20t37.5 7.5q42 0 69 -30.5t27 -78.5q0 -26 -9 -54t-25 -55.5t-38.5 -53t-50.5 -47.5z" />
    <glyph glyph-name="hyphen" unicode="-" horiz-adv-x="262" 
d="M262 215h-262v77h262v-77z" />
    <glyph glyph-name="period" unicode="." horiz-adv-x="233" 
d="M116 180q42 0 69.5 -28t27.5 -70q0 -20 -7.5 -37t-21 -30t-31 -20.5t-36.5 -7.5q-41 0 -69 28t-28 69q0 40 28 68t68 28z" />
    <glyph glyph-name="slash" unicode="/" horiz-adv-x="420" 
d="M426 667l-406 -667h-27l406 667h27z" />
    <glyph glyph-name="zero" unicode="0" 
d="M300 680q28 0 57 -8.5t57 -24.5t53 -38t45 -49q35 -46 51 -102.5t16 -128.5q0 -131 -67 -222q-20 -27 -45 -49t-53 -38t-57 -24.5t-57 -8.5t-57 9t-57 24.5t-53.5 37.5t-44.5 49q-67 91 -67 227q0 68 17 125t50 101q41 55 98.5 87.5t113.5 32.5zM300 667q-37 0 -54.5 -81
t-17.5 -253t17.5 -252.5t54.5 -80.5t54.5 80.5t17.5 248.5q0 175 -17.5 256.5t-54.5 81.5z" />
    <glyph glyph-name="one" unicode="1" 
d="M398 171q0 -35 0.5 -57t2.5 -36.5t5.5 -23t9.5 -16.5q11 -14 26.5 -20t48.5 -8v-10h-376v10q33 2 49 8t26 20q6 8 9.5 16t5.5 21.5t2.5 34.5t0.5 54v253q0 35 -3 55.5t-13.5 31t-31 13.5t-56.5 3v11q34 12 73.5 30.5t79.5 39.5t76.5 43.5t64.5 43.5v-517z" />
    <glyph glyph-name="two" unicode="2" 
d="M78 489q29 98 85 144.5t147 46.5q47 0 87 -14.5t69 -40t45.5 -61t16.5 -77.5q0 -99 -96 -166q-12 -9 -23.5 -15.5t-26 -13.5t-34 -14.5t-47.5 -18.5q-42 -16 -71.5 -29t-51 -26.5t-38.5 -29t-35 -36.5h245q47 0 78 2.5t52 9.5t34 20t24 33h10q-14 -43 -22.5 -69.5
t-15 -49t-13 -46.5t-15.5 -63h-10q-2 13 -10.5 18t-31.5 6h-35q-12 1 -20.5 1h-12.5h-311q3 42 8 70t19.5 51.5t40 48.5t68.5 61q71 61 102.5 110.5t31.5 100.5q0 54 -32.5 86.5t-85.5 32.5q-42 0 -69 -17t-46 -55h-10z" />
    <glyph glyph-name="three" unicode="3" 
d="M231 389q35 8 51 16t29 22q14 16 22.5 37.5t8.5 43.5q0 40 -27.5 66t-70.5 26q-32 0 -54 -12.5t-42 -43.5l-10 3q21 63 68.5 98t113.5 35q39 0 72 -10.5t57 -30t37.5 -46t13.5 -57.5q0 -35 -13.5 -59.5t-44.5 -46.5q104 -60 104 -178q0 -55 -22.5 -103.5t-62 -84.5
t-92.5 -56.5t-113 -20.5q-48 0 -87 10.5t-67 30t-43.5 46.5t-15.5 60q0 42 24.5 68.5t64.5 26.5q35 0 58 -23.5t23 -58.5q0 -8 -2 -20t-5 -27q-5 -25 -5 -42q0 -26 19 -42.5t49 -16.5q48 0 76 44t28 119q0 85 -38 143.5t-104 73.5v10z" />
    <glyph glyph-name="four" unicode="4" 
d="M477 680v-413h40q17 0 28.5 1t21 4.5t17.5 9t17 14.5l9 -4q-17 -26 -29 -51t-20 -51h-84v-67q0 -32 5 -53t18 -34t34 -19t53 -7v-10h-408v10q38 2 54 4.5t28 10.5q19 12 26.5 34t7.5 64v67h-274q-2 5 -6.5 14l-9.5 19t-10.5 19.5t-9.5 16.5q101 103 191 208.5t170 212.5
h131zM295 539q-26 -33 -58 -71t-65 -75.5t-63.5 -70.5t-52.5 -55h239v272z" />
    <glyph glyph-name="five" unicode="5" 
d="M142 545l-12 -81q25 5 47 6.5t52 1.5q69 0 120 -11.5t91 -35.5q51 -32 80.5 -85t29.5 -115q0 -92 -71 -160q-42 -41 -91.5 -59.5t-117.5 -18.5q-106 0 -168 39t-62 107q0 38 23.5 61.5t61.5 23.5q37 0 59.5 -24.5t22.5 -64.5q0 -3 -0.5 -12.5t-1.5 -23.5q-1 -5 -1 -10
v-10q0 -38 18 -55.5t57 -17.5q56 0 89.5 42.5t33.5 113.5q0 80 -54.5 121t-159.5 41q-34 0 -58.5 -3.5t-57.5 -13.5q8 20 17.5 65.5t18 100t15 109t7.5 91.5h303q19 0 32.5 1.5t24 5t19 10t16.5 16.5l10 -3q-17 -28 -31.5 -69t-24.5 -83h-337z" />
    <glyph glyph-name="six" unicode="6" 
d="M449 697q-137 -69 -201 -268q22 7 36.5 9.5t35.5 2.5q53 0 99.5 -17t80.5 -47t53.5 -70t19.5 -86q0 -49 -20.5 -92t-56 -74.5t-83 -49.5t-102.5 -18q-60 0 -111.5 22t-89 61t-58.5 92.5t-21 115.5q0 90 44 170t125 138q111 81 242 119zM310 428q-51 0 -73 -50t-22 -163
q0 -114 22 -164.5t72 -50.5q51 0 73.5 51t22.5 163q0 114 -22.5 164t-72.5 50z" />
    <glyph glyph-name="seven" unicode="7" 
d="M134 700q7 -18 24 -25.5t53 -7.5h337q0 -21 -3 -40t-11 -40.5t-21 -48t-33 -61.5q-45 -80 -76 -143.5t-50.5 -115t-28.5 -94.5t-9 -82q0 -5 0.5 -16.5t2.5 -25.5h-219q3 61 18.5 111t49 99t88.5 101.5t139 118.5q17 14 30.5 25t25 22.5t22.5 23.5t24 28h-232
q-34 0 -55 -0.5t-35.5 -1.5t-25 -3.5t-22.5 -6.5q-18 -6 -31 -16.5t-27 -30.5h-10q9 22 19 52.5t19 62t16.5 62t10.5 53.5h10z" />
    <glyph glyph-name="eight" unicode="8" 
d="M422 393q29 -16 45.5 -27t33.5 -26q30 -28 46 -63t16 -73q0 -45 -21 -84.5t-57.5 -69t-85.5 -46.5t-104 -17t-102 14.5t-81.5 40t-54 60t-19.5 75.5q0 52 29.5 92t92.5 75q-45 29 -65.5 61.5t-20.5 76.5q0 43 18 79.5t50.5 63t77 41t98.5 14.5q42 0 79 -11.5t65 -31.5
t44 -47t16 -58q0 -26 -11 -51.5t-31 -45.5q-5 -5 -10.5 -9.5t-12 -9t-15 -10.5t-20.5 -13zM409 398l3 4.5t4 5.5q17 25 26.5 54.5t9.5 60.5q0 65 -34 104.5t-88 39.5q-45 0 -73.5 -28.5t-28.5 -73.5q0 -57 52 -95q9 -6 14.5 -10.5t15.5 -9.5t26 -13.5t46 -23.5q3 -2 10 -5.5
t17 -9.5zM171 336q-18 -33 -26 -64t-8 -70q0 -38 11.5 -76t31.5 -67q19 -28 49.5 -43.5t66.5 -15.5q54 0 86 32.5t32 86.5q0 25 -7.5 46t-24.5 40t-44 37.5t-66 38.5q-23 12 -37.5 19.5t-25 13t-19 10.5t-19.5 12z" />
    <glyph glyph-name="nine" unicode="9" 
d="M182 -15q41 27 72 55t54 61t39 72.5t28 89.5q-26 -23 -52.5 -32.5t-65.5 -9.5q-45 0 -87 14t-77 41q-74 58 -74 154q0 52 21.5 97.5t59 79.5t87 53.5t106.5 19.5q55 0 109 -21t92 -56q40 -38 61.5 -90.5t21.5 -113.5q0 -176 -166 -305q-54 -42 -108 -70.5t-115 -46.5z
M293 667q-100 0 -100 -212q0 -112 23.5 -164.5t73.5 -52.5q98 0 98 205q0 111 -23.5 167.5t-71.5 56.5z" />
    <glyph glyph-name="colon" unicode=":" horiz-adv-x="260" 
d="M143 485q42 0 69.5 -28t27.5 -70q0 -20 -7.5 -37t-21 -30t-31 -20.5t-36.5 -7.5q-41 0 -69 28t-28 69q0 40 28 68t68 28zM143 180q42 0 69.5 -28t27.5 -70q0 -20 -7.5 -37t-21 -30t-31 -20.5t-36.5 -7.5q-41 0 -69 28t-28 69q0 40 28 68t68 28z" />
    <glyph glyph-name="semicolon" unicode=";" horiz-adv-x="260" 
d="M142 485q42 0 69.5 -28t27.5 -70q0 -20 -7.5 -37t-21 -30t-31 -20.5t-36.5 -7.5q-41 0 -69 28t-28 69q0 40 28 68t68 28zM110 -145q20 26 28 43.5t8 38.5q0 20 -7 30.5t-27 21.5q-23 12 -31.5 17.5t-15.5 13.5q-8 10 -12.5 24t-4.5 28q0 19 7.5 36.5t20.5 30t30.5 20
t37.5 7.5q42 0 69.5 -30.5t27.5 -78.5q0 -26 -9 -53.5t-25 -55t-39 -53t-51 -47.5z" />
    <glyph glyph-name="less" unicode="&#x3c;" horiz-adv-x="500" 
d="M463 568l-207 -127l207 -143v-217l-427 296v10l427 262v-81z" />
    <glyph glyph-name="equal" unicode="=" horiz-adv-x="553" 
d="M543 410v-20h-533v20h533zM543 277v-20h-533v20h533z" />
    <glyph glyph-name="greater" unicode="&#x3e;" horiz-adv-x="500" 
d="M36 163l207 126l-207 144v216l427 -296v-10l-427 -262v82z" />
    <glyph glyph-name="question" unicode="?" horiz-adv-x="571" 
d="M303 215q-10 -11 -17 -11q-9 0 -15.5 11t-6.5 26q0 13 6.5 29.5t21.5 42.5q61 101 61 202q0 32 -8.5 58.5t-23.5 46t-36 30.5t-46 11q-30 0 -48 -14t-18 -38q0 -12 5 -27.5t19 -40.5q16 -29 16 -57q0 -39 -26 -64.5t-66 -25.5q-38 0 -63 26.5t-25 67.5q0 39 20 74
t54.5 61.5t81 41.5t98.5 15q45 0 93 -11t87 -31q42 -21 64.5 -53t22.5 -70q0 -70 -71 -121q-9 -6 -16 -10.5t-17.5 -10t-26.5 -13.5t-43 -21q-54 -27 -78.5 -49t-24.5 -45t22 -29q2 0 4 -1zM293 180q42 0 69.5 -28t27.5 -70q0 -20 -7.5 -37t-21 -30t-31 -20.5t-36.5 -7.5
q-41 0 -69 28t-28 69q0 40 28 68t68 28z" />
    <glyph glyph-name="at" unicode="@" horiz-adv-x="829" 
d="M573 272q-5 -22 -6 -32t-1 -21q0 -46 32 -46q11 0 24 5.5t22 13.5q16 16 30.5 41.5t24.5 56t16 64t6 65.5q0 54 -18.5 98.5t-52.5 76.5t-82 49.5t-106 17.5q-81 0 -146 -33t-110 -97q-35 -50 -54 -114t-19 -131q0 -132 73 -205q35 -35 83 -54t102 -19q26 0 48 3t57 11
v-22q-37 -8 -62 -10.5t-54 -2.5q-80 0 -152.5 27.5t-121.5 75.5q-42 41 -62.5 94t-20.5 116q0 82 33 151.5t91.5 120.5t138 80t172.5 29q78 0 142 -20.5t110 -57t71 -88.5t25 -115q0 -52 -18.5 -97t-50 -78.5t-74.5 -52.5t-92 -19q-96 0 -105 87q-25 -49 -52.5 -68
t-71.5 -19q-124 0 -124 127q0 49 15.5 92.5t42.5 76t63.5 51t77.5 18.5q37 0 55.5 -16t27.5 -54l12 60h105zM437 499q-22 0 -42 -20.5t-35 -56t-23.5 -82.5t-8.5 -99q0 -35 9 -51t29 -16q17 0 35 12.5t32 33.5q10 15 18.5 38.5t15 50.5t10.5 55t4 52q0 44 -10.5 63.5
t-33.5 19.5z" />
    <glyph glyph-name="A" unicode="A" horiz-adv-x="793" 
d="M215 255q-14 -38 -19.5 -65t-5.5 -56q0 -56 26 -88.5t73 -35.5v-10h-309v10q31 3 62 22t60 52t54.5 77.5t45.5 98.5l102 267q-8 15 -17.5 28t-22.5 24q35 16 81.5 56t88.5 92q8 -21 14.5 -38.5t12.5 -33.5t12 -31t13 -32l129 -311q40 -92 65 -145.5t45 -81t39.5 -35.5
t48.5 -9v-10h-403v10q71 3 71 56q0 38 -42 137l-22 52h-202zM311 515l-92 -248h195z" />
    <glyph glyph-name="B" unicode="B" horiz-adv-x="707" 
d="M269 667q57 0 100 -2t76.5 -6.5t59.5 -11.5t47 -17q91 -42 91 -119q0 -42 -25.5 -72.5t-73.5 -47.5q-26 -9 -57.5 -14t-78.5 -7q36 -4 63.5 -8t49 -9t38 -11t31.5 -13q48 -23 73 -59t25 -81q0 -44 -21.5 -79t-61 -59.5t-96.5 -37.5t-128 -13h-374v10q34 3 49.5 8.5
t25.5 19.5q6 8 9.5 16.5t5.5 23t2.5 37t0.5 57.5v324q0 35 -0.5 57.5t-2.5 36.5t-5.5 22.5t-9.5 16.5q-10 14 -26 20t-49 8v10h262zM323 373q46 0 67.5 8t35.5 30q25 38 25 103q0 42 -8.5 70t-26.5 45q-15 14 -36 20t-59 6h-24v-282h26zM297 119q0 -34 2.5 -55t9 -32.5
t19 -15.5t32.5 -4q61 0 89.5 42t28.5 133q0 103 -38 141q-18 19 -42.5 26.5t-69.5 7.5h-31v-243z" />
    <glyph glyph-name="C" unicode="C" horiz-adv-x="669" 
d="M623 406h-10q-17 54 -40.5 98.5t-56.5 83.5q-66 79 -137 79q-72 0 -109 -85t-37 -252q0 -93 14 -156.5t44 -109.5q20 -29 50 -46.5t63 -17.5q39 0 75 27t73 85q25 38 41 76t29 88h10l-9 -286h-10q-3 21 -22 21q-4 0 -7.5 -0.5t-12.5 -2t-27.5 -4.5t-51.5 -9
q-20 -4 -47.5 -6t-47.5 -2q-79 0 -147.5 27t-118.5 74t-79 110.5t-29 137.5q0 72 28 134.5t77 109t114.5 73.5t140.5 27q60 0 135 -18q23 -5 34 -7t20 -2q11 0 16 4t9 15h10z" />
    <glyph glyph-name="D" unicode="D" horiz-adv-x="761" 
d="M7 10q34 3 49.5 8.5t25.5 19.5q6 8 9.5 16.5t5.5 22.5t2.5 36.5t0.5 58.5v324q0 35 -0.5 57.5t-2.5 36.5t-5.5 22.5t-9.5 16.5q-11 14 -26.5 20t-48.5 8v10h348q185 0 288 -100q47 -46 71 -106t24 -131t-26 -131.5t-72 -104.5t-109 -69t-137 -25h-387v10zM297 145
q0 -26 0.5 -44t2 -30t4 -19.5t5.5 -13.5q7 -12 23.5 -19t39.5 -7q42 0 71.5 18t48.5 56.5t27.5 100t8.5 148.5q0 97 -12 158.5t-38 102.5q-21 32 -57 45.5t-97 13.5h-27v-510z" />
    <glyph glyph-name="E" unicode="E" horiz-adv-x="691" 
d="M297 347q77 5 125.5 45t54.5 102h10v-308h-10q-17 72 -64 111.5t-116 39.5v-237q0 -51 12 -69.5t47 -18.5q48 0 97.5 22.5t96.5 64.5q43 38 71.5 82t49.5 103h10l-45 -284h-629v10q34 3 49.5 8.5t25.5 19.5q6 8 9.5 16.5t5.5 22.5t2.5 36.5t0.5 58.5v324q0 35 -0.5 57.5
t-2.5 36.5t-5.5 22.5t-9.5 16.5q-11 14 -26.5 20t-48.5 8v10h589l41 -230h-10q-46 108 -122.5 163t-179.5 55h-28v-308z" />
    <glyph glyph-name="F" unicode="F" horiz-adv-x="626" 
d="M297 336q152 7 179 146h10v-305h-10q-6 31 -23.5 59t-42 48t-54 31.5t-59.5 10.5v-156q0 -31 1.5 -52.5t4.5 -36.5t8 -25t13 -18q7 -8 15.5 -13t19 -8.5t25 -5t34.5 -1.5v-10h-411v10q33 2 48.5 8t26.5 20q6 8 9.5 16.5t5.5 22.5t2.5 36.5t0.5 57.5v325q0 35 -0.5 57.5
t-2.5 36.5t-5.5 22.5t-9.5 16.5q-11 14 -26.5 20t-48.5 8v10h578l42 -248h-10q-17 52 -46.5 95t-68 74t-83.5 48.5t-93 18.5h-29v-319z" />
    <glyph glyph-name="G" unicode="G" horiz-adv-x="726" 
d="M621 412h-10q-34 120 -89.5 187.5t-121.5 67.5q-33 0 -61.5 -19t-46.5 -54q-29 -56 -44 -131.5t-15 -168.5q0 -151 36 -222.5t111 -71.5q49 0 68.5 30t19.5 105v71q0 26 -3.5 44t-13 29t-25 17.5t-39.5 10.5v10h345v-10q-23 -2 -35 -7t-21 -18q-6 -8 -9.5 -16t-5.5 -19.5
t-2.5 -28t-0.5 -40.5v-178h-10q-10 32 -34 32q-8 0 -15.5 -1.5t-31.5 -9.5q-53 -17 -104.5 -25.5t-97.5 -8.5q-70 0 -132 27.5t-108.5 74t-74 109t-27.5 131.5q0 74 28 138t77.5 111.5t115.5 74.5t143 27q16 0 32 -1t34 -3.5t39.5 -6t50.5 -9.5q22 -5 35 -5q18 0 22 18h10z
" />
    <glyph glyph-name="H" unicode="H" horiz-adv-x="810" 
d="M513 358v166q0 39 -3 63t-11 38.5t-22 21.5t-37 10v10h363v-10q-33 -2 -48.5 -8t-26.5 -20q-6 -8 -9.5 -16.5t-5.5 -23t-2.5 -36.5t-0.5 -57v-325q0 -35 0.5 -57t2.5 -36.5t5.5 -23t9.5 -16.5q11 -14 26.5 -20t48.5 -8v-10h-363v10q23 3 37 10t22 21.5t11 38.5t3 63v203
h-216v-203q0 -39 3 -63t11 -38.5t22 -21.5t37 -10v-10h-363v10q33 2 48.5 8t26.5 20q6 8 9.5 16.5t5.5 22.5t2.5 36.5t0.5 57.5v325q0 35 -0.5 57.5t-2.5 36.5t-5.5 22.5t-9.5 16.5q-11 14 -26.5 20t-48.5 8v10h363v-10q-23 -3 -37 -10t-22 -21.5t-11 -38.5t-3 -63v-166h216
z" />
    <glyph glyph-name="I" unicode="I" horiz-adv-x="397" 
d="M390 0h-383v10q33 2 49 8t26 20q6 8 9.5 16.5t5.5 22.5t2.5 36.5t0.5 57.5v325q0 35 -0.5 57.5t-2.5 36.5t-5.5 22.5t-9.5 16.5q-10 14 -26 20t-49 8v10h383v-10q-33 -2 -48.5 -8t-26.5 -20q-6 -8 -9.5 -16.5t-5.5 -22.5t-2.5 -36.5t-0.5 -57.5v-325q0 -35 0.5 -57.5
t2.5 -36.5t5.5 -22.5t9.5 -16.5q11 -14 26.5 -20t48.5 -8v-10z" />
    <glyph glyph-name="J" unicode="J" horiz-adv-x="571" 
d="M194 667h383v-10q-33 -2 -48.5 -8t-26.5 -20q-6 -8 -9.5 -16.5t-5.5 -23t-2.5 -36.5t-0.5 -57v-250q0 -44 -2 -73t-8 -48.5t-16.5 -34t-28.5 -30.5q-39 -34 -94.5 -53.5t-115.5 -19.5q-49 0 -90.5 12.5t-72 34.5t-47.5 53t-17 67q0 42 27 69t69 27q38 0 61.5 -24
t23.5 -63v-9.5t-0.5 -8.5t-2 -13.5t-3.5 -23.5q-6 -36 -6 -51q0 -26 16.5 -41.5t43.5 -15.5q49 0 61 49q2 7 3 14t1.5 19.5t0.5 34v57.5v322q0 35 -0.5 57.5t-2.5 36.5t-5.5 22.5t-9.5 16.5q-11 14 -26.5 20t-48.5 8v10z" />
    <glyph glyph-name="K" unicode="K" horiz-adv-x="789" 
d="M297 338v-167q0 -35 0.5 -57.5t2.5 -36.5t5.5 -22.5t9.5 -16.5q11 -14 26.5 -20t48.5 -8v-10h-383v10q33 2 49 8t26 20q6 8 9.5 16.5t5.5 22.5t2.5 36.5t0.5 57.5v325q0 35 -0.5 57.5t-2.5 36.5t-5.5 22.5t-9.5 16.5q-10 14 -26 20t-49 8v10h383v-10q-33 -2 -48.5 -8
t-26.5 -20q-6 -8 -9.5 -16.5t-5.5 -22.5t-2.5 -36.5t-0.5 -57.5v-151q9 10 22.5 24.5t28.5 31t30 33.5t27 32q40 47 57 82t17 70q0 28 -19 39v10h272v-10q-34 -5 -73.5 -21.5t-80 -41t-80.5 -56t-74 -67.5l143 -215q42 -63 66 -98t38.5 -54.5t24 -29t22.5 -20.5
q27 -22 49.5 -31.5t54.5 -12.5v-10h-317z" />
    <glyph glyph-name="L" unicode="L" horiz-adv-x="670" 
d="M618 0h-611v10q34 3 49.5 8.5t25.5 19.5q6 8 9.5 16.5t5.5 22.5t2.5 36.5t0.5 58.5v324q0 35 -0.5 57.5t-2.5 36.5t-5.5 22.5t-9.5 16.5q-11 14 -26.5 20t-48.5 8v10h383v-10q-33 -2 -48.5 -8t-26.5 -20q-6 -8 -9.5 -16.5t-5.5 -22.5t-2.5 -36.5t-0.5 -57.5v-371
q0 -35 3 -57t11 -34.5t22.5 -17t37.5 -4.5q108 0 202 112q16 19 29 37.5t24.5 39.5t21.5 45.5t19 53.5h10z" />
    <glyph glyph-name="M" unicode="M" horiz-adv-x="973" 
d="M674 667h292v-10q-33 -2 -48.5 -8t-26.5 -20q-6 -8 -9.5 -16.5t-5.5 -23t-2.5 -36.5t-0.5 -57v-325q0 -35 0.5 -57t2.5 -36.5t5.5 -23t9.5 -16.5q11 -14 26.5 -20t48.5 -8v-10h-383v10q33 2 48.5 8t26.5 20q6 8 9.5 16.5t5.5 22.5t2.5 36.5t0.5 57.5v468l-264 -672
l-264 657v-340q0 -77 8.5 -126.5t28.5 -83.5q19 -31 43 -45t69 -19v-10h-317v10q48 8 76 27t47 54q9 17 15 36.5t10 44t5.5 56.5t1.5 73v211q0 31 -1.5 51t-6 33.5t-12 22t-19.5 16.5q-17 11 -37 15.5t-55 6.5v10h338l165 -421z" />
    <glyph glyph-name="N" unicode="N" horiz-adv-x="804" 
d="M663 260v150q0 145 -52 207q-15 19 -32.5 27t-50.5 13v10h296v-10q-21 -2 -36 -6t-27 -11t-21.5 -17.5t-18.5 -25.5q-23 -39 -34 -93.5t-11 -136.5v-400l-528 602v-285q0 -78 8.5 -127.5t28.5 -82.5q19 -32 43.5 -46t68.5 -18v-10h-317v10q43 7 73 26t48 53.5t26 86
t7 125.5l1 181q0 33 -2 55t-8 38t-16.5 28t-27.5 25q-24 16 -47.5 22.5t-53.5 6.5v10h326z" />
    <glyph glyph-name="O" unicode="O" horiz-adv-x="773" 
d="M386 680q133 0 237 -85q127 -102 127 -266q0 -71 -29 -133t-78.5 -108.5t-115.5 -73.5t-141 -27q-133 0 -236 85q-127 102 -127 262q0 79 32 145.5t95 115.5q106 85 236 85zM386 667q-38 0 -68 -21t-44 -58q-17 -44 -25.5 -107.5t-8.5 -146.5q0 -168 34 -255
q14 -37 44 -58t69 -21q38 0 68 21t44 58q17 44 25.5 107t8.5 144q0 86 -8.5 151t-25.5 107q-15 37 -45 58t-68 21z" />
    <glyph glyph-name="P" unicode="P" horiz-adv-x="681" 
d="M297 171q0 -35 0.5 -57t3 -36.5t6.5 -23.5t10 -16q12 -14 30 -20t56 -8v-10h-396v10q33 2 49 8t26 20q6 8 9.5 16.5t5.5 22.5t2.5 36.5t0.5 57.5v325q0 35 -0.5 57.5t-2.5 36.5t-5.5 22.5t-9.5 16.5q-10 14 -26 20t-49 8v10h342q74 0 133 -13t100.5 -37.5t63.5 -60
t22 -79.5q0 -46 -26 -85t-74 -63q-23 -12 -47.5 -20t-53.5 -13t-63.5 -7t-77.5 -2h-29v-116zM322 298q37 0 63 9.5t42.5 31t23.5 56.5t7 85q0 95 -31 135t-103 40h-27v-357h25z" />
    <glyph glyph-name="Q" unicode="Q" horiz-adv-x="773" 
d="M743 -25q-4 -23 -8 -42t-9.5 -34.5t-12 -29.5t-15.5 -27q-26 -40 -64 -61t-85 -21q-57 0 -107 30.5t-102 96.5q-27 35 -44 56t-28 32t-18.5 14t-16.5 3q-15 0 -24.5 -10.5t-9.5 -27.5v-3.5t1 -11.5q1 -4 1 -13q0 -23 -13.5 -37.5t-36.5 -14.5q-19 0 -32 12.5t-13 31.5
q0 17 11 32.5t30 27t44 18.5t53 7q11 0 21.5 -1t29.5 -4q-24 6 -43 13t-36 16t-33 19.5t-33 24.5q-127 103 -127 262q0 160 127 262q105 85 237 85q131 0 236 -85q127 -102 127 -261q0 -160 -127 -262q-105 -85 -237 -85q-15 0 -26.5 1t-31.5 3q26 -6 56 -16t72 -27
q37 -15 62.5 -25t44 -15t33 -7t31.5 -2q42 0 66.5 17t39.5 59h10zM386 667q-38 0 -68 -21t-44 -58q-17 -44 -25.5 -107.5t-8.5 -146.5q0 -168 34 -255q14 -37 44 -58t69 -21q38 0 68 21t44 58q17 44 25.5 107t8.5 144q0 86 -8.5 151t-25.5 107q-15 37 -45 58t-68 21z" />
    <glyph glyph-name="R" unicode="R" horiz-adv-x="794" 
d="M297 171q0 -35 0.5 -57t2.5 -36.5t5.5 -23t9.5 -16.5q11 -14 26.5 -20t48.5 -8v-10h-383v10q33 2 49 8t26 20q6 8 9.5 16.5t5.5 22.5t2.5 36.5t0.5 57.5v325q0 35 -0.5 57.5t-2.5 36.5t-5.5 22.5t-9.5 16.5q-10 14 -26 20t-49 8v10h280q56 0 99 -2.5t77 -8t61 -14
t52 -21.5q44 -23 68.5 -57.5t24.5 -73.5q0 -56 -45 -92.5t-129 -47.5q27 -5 46.5 -12t35.5 -20t30.5 -34t31.5 -53l57 -110q18 -35 31.5 -56t27.5 -32.5t30.5 -16t41.5 -6.5v-10h-293q-21 50 -37.5 89t-30 69t-25 53t-21.5 41q-23 44 -47.5 62t-57.5 18h-18v-161zM325 344
q70 0 102 37t32 118q0 78 -31 118q-15 20 -39 29t-64 9h-28v-311h28z" />
    <glyph glyph-name="S" unicode="S" horiz-adv-x="618" 
d="M521 423q-38 115 -101.5 179.5t-137.5 64.5q-48 0 -77 -26.5t-29 -69.5q0 -23 9 -42.5t26 -32.5q17 -14 50.5 -31t72.5 -32l93 -35q85 -32 125 -78t40 -112q0 -47 -19 -87.5t-52 -70t-78.5 -46.5t-98.5 -17q-38 0 -94 7.5t-121 21.5q-21 5 -31 6.5t-18 1.5
q-15 0 -22.5 -5t-10.5 -19h-10l-10 309h10q17 -57 49 -112t78 -106q45 -50 84 -70.5t89 -20.5q51 0 82 28t31 74q0 43 -33 75t-109 61l-98 38q-95 38 -138 81.5t-43 104.5q0 46 20 86t55 69t82.5 46t102.5 17q16 0 29.5 -1t30 -3t38 -7t54.5 -12q28 -7 45 -7q11 0 16 4.5
t8 18.5h10l11 -250h-10z" />
    <glyph glyph-name="T" unicode="T" horiz-adv-x="676" 
d="M438 171q0 -35 0.5 -57t3 -36.5t6.5 -23t10 -16.5q12 -14 30 -20t56 -8v-10h-409v10q38 2 56 8t30 20q6 7 10 15.5t6.5 23t3 37t0.5 57.5v486q-33 -5 -68 -22.5t-66.5 -43.5t-57 -59t-39.5 -68h-10l29 233q11 -10 21 -16t25.5 -9t39 -4t61.5 -1h337q32 0 53 1t36 4.5
t25.5 9.5t21.5 15l27 -233h-10q-12 34 -37 67t-56.5 59.5t-66.5 44t-68 22.5v-486z" />
    <glyph glyph-name="U" unicode="U" horiz-adv-x="753" 
d="M774 657q-39 -8 -61.5 -31t-39.5 -71q-14 -42 -21 -104.5t-7 -145.5v-77q0 -40 -4 -70.5t-13.5 -53.5t-25 -41t-37.5 -33q-64 -43 -176 -43q-143 0 -225 56q-20 13 -34 29.5t-22 38.5t-11.5 51t-3.5 69v265q0 35 -0.5 57.5t-2.5 36.5t-5.5 22.5t-9.5 16.5q-10 14 -26 20
t-49 8v10h377v-10q-32 -2 -46.5 -8t-23.5 -20q-6 -8 -9 -16.5t-5 -23t-2.5 -36.5t-0.5 -57v-234q0 -39 1 -67t3.5 -48t7 -34.5t11.5 -26.5q17 -30 55.5 -47.5t86.5 -17.5q51 0 89 17.5t60 50.5q8 12 13.5 25t8.5 29.5t4.5 37t1.5 47.5v91q0 162 -26 245q-6 20 -13.5 34.5
t-17.5 25t-23.5 18.5t-31.5 15v10h254v-10z" />
    <glyph glyph-name="V" unicode="V" horiz-adv-x="783" 
d="M525 297q22 49 36 81.5t21.5 57.5t10 45.5t2.5 44.5q0 111 -70 131v10h278v-10q-28 -9 -54.5 -29.5t-53.5 -54t-54.5 -81t-58.5 -111.5l-197 -414l-258 530q-21 43 -38 71.5t-33.5 46.5t-34.5 27.5t-41 14.5v10h383v-10q-32 -5 -45.5 -19t-13.5 -40q0 -10 2 -20t8 -26
t17.5 -41.5t31.5 -67.5l115 -251z" />
    <glyph glyph-name="W" unicode="W" horiz-adv-x="1127" 
d="M573 416l-59 139q-13 29 -23.5 48t-21.5 30.5t-23.5 16.5t-28.5 7v10h362v-10q-54 -8 -54 -58q0 -12 5.5 -32.5t15.5 -43.5l124 -297l25 51q38 78 58.5 146t20.5 119q0 53 -17.5 79t-59.5 36v10h250v-10q-18 -5 -34.5 -16.5t-33 -31t-33 -47.5t-35.5 -67l-245 -528
l-187 432l-214 -432l-238 530q-21 43 -38 71t-33.5 46t-34.5 28t-41 15v10h367v-10q-41 -16 -41 -50q0 -16 9 -38l157 -358z" />
    <glyph glyph-name="X" unicode="X" horiz-adv-x="795" 
d="M662 129q24 -33 43 -55t36 -35.5t34 -20.5t36 -8v-10h-395v10q24 5 34.5 15.5t10.5 27.5q0 10 -3 21t-10.5 25t-20.5 33.5t-32 46.5l-75 104q-73 -89 -73 -176q0 -46 16.5 -68t54.5 -29v-10h-321v10q28 6 65 29t78.5 60.5t85.5 87t86 107.5l-112 154q-47 67 -76.5 106.5
t-52 61t-42 29.5t-46.5 12v10h417v-10q-32 -7 -44.5 -16t-12.5 -28q0 -13 5 -27.5t17 -34.5q1 -3 3 -6t7.5 -11l16.5 -24t31 -45l28 -42q35 48 51 86t16 77q0 28 -8.5 43.5t-31.5 27.5v10h270v-10q-68 -14 -138 -73.5t-150 -170.5z" />
    <glyph glyph-name="Y" unicode="Y" horiz-adv-x="757" 
d="M473 171q0 -35 0.5 -57t2.5 -36.5t5.5 -23t9.5 -16.5q11 -14 26.5 -20t48.5 -8v-10h-383v10q33 2 48.5 8t26.5 20q6 8 9.5 16.5t5.5 22.5t2.5 36.5t0.5 57.5v100l-164 273q-19 31 -34.5 51.5t-30.5 33t-31 19t-36 9.5v10h387v-10q-53 -6 -53 -49q0 -17 8.5 -39.5
t28.5 -54.5l114 -189l34 55q67 107 67 193q0 37 -10 56.5t-33 27.5v10h254v-10q-98 -15 -253 -259l-51 -84v-143z" />
    <glyph glyph-name="Z" unicode="Z" horiz-adv-x="667" 
d="M246 12q53 -3 108.5 17.5t107 59.5t95 93t72.5 118h10l-56 -300h-570l406 655q-48 0 -101.5 -20.5t-103 -56t-91.5 -82.5t-66 -99h-10l64 270h542z" />
    <glyph glyph-name="bracketleft" unicode="[" horiz-adv-x="302" 
d="M295 733v-18h-107v-827h107v-18h-272v863h272z" />
    <glyph glyph-name="backslash" unicode="\" horiz-adv-x="420" 
d="M426 0h-27l-406 667h27z" />
    <glyph glyph-name="bracketright" unicode="]" horiz-adv-x="302" 
d="M7 -130v18h107v827h-107v18h272v-863h-272z" />
    <glyph glyph-name="asciicircum" unicode="^" horiz-adv-x="500" 
d="M453 273l-127 207l-143 -207h-217l296 427h11l262 -427h-82z" />
    <glyph glyph-name="underscore" unicode="_" horiz-adv-x="500" 
d="M501 -93v-98h-503v98h503z" />
    <glyph glyph-name="grave" unicode="`" horiz-adv-x="500" 
d="M302 548l-49 28q-15 8 -31.5 14.5t-42.5 14.5q-46 14 -64.5 30t-18.5 42q0 25 16.5 41.5t40.5 16.5q13 0 23 -3.5t20 -13t20.5 -25.5t24.5 -41q5 -8 12.5 -19t15.5 -22l43 -53z" />
    <glyph glyph-name="a" unicode="a" horiz-adv-x="605" 
d="M616 67q-52 -43 -90 -61.5t-76 -18.5q-82 0 -101 95q-36 -51 -78 -73t-102 -22q-63 0 -102.5 30.5t-39.5 79.5q0 22 7.5 40t24.5 34t45 32t69 33q36 16 80 31t96 30v52q0 51 -3 76.5t-11 37.5q-17 24 -45 24q-22 0 -40.5 -10.5t-27.5 -29.5q-3 -7 -5.5 -12.5t-4 -14
t-3.5 -22.5t-5 -38q-6 -48 -34.5 -75.5t-71.5 -27.5q-31 0 -50.5 19.5t-19.5 50.5q0 62 91 112q28 16 63.5 29.5t72 23.5t73 15.5t68.5 5.5q30 0 52 -6.5t39 -21.5q22 -17 30.5 -42t8.5 -68v-230q0 -29 1 -41.5t6 -21.5q4 -10 14 -15.5t23 -5.5q9 0 17.5 2.5t22.5 10.5z
M349 285q-34 -11 -57 -23t-36.5 -28t-19 -37t-5.5 -49q0 -45 14.5 -69t43.5 -24q28 0 44 20t16 55v155z" />
    <glyph glyph-name="b" unicode="b" horiz-adv-x="621" 
d="M257 454q71 59 146 59q42 0 78 -17.5t62 -49t40.5 -74.5t14.5 -94q0 -62 -21 -115.5t-58.5 -92.5t-88 -61t-110.5 -22q-17 0 -31 1t-30.5 4.5t-38.5 10.5t-55 18q-13 5 -18 6t-12 1q-33 0 -45 -41h-10v552q0 45 -4 66.5t-16 37.5q-11 15 -25.5 21.5t-39.5 7.5l-2 11
q33 7 70.5 16t73.5 18.5t67.5 18.5t52.5 17v-299zM257 108q0 -59 14 -83.5t46 -24.5q94 0 94 240q0 118 -22.5 172t-71.5 54q-17 0 -30.5 -6t-29.5 -22v-330z" />
    <glyph glyph-name="c" unicode="c" horiz-adv-x="542" 
d="M529 177q-85 -190 -252 -190q-55 0 -101.5 19t-80.5 53t-53 80.5t-19 102.5q0 57 21.5 106.5t59.5 86t89 57.5t110 21q44 0 82 -13t66.5 -35t45 -52.5t16.5 -64.5q0 -38 -23.5 -63.5t-58.5 -25.5q-37 0 -60.5 24.5t-23.5 62.5q0 11 2 21.5t8 29.5q5 16 6.5 25t1.5 18
q0 26 -17.5 43t-43.5 17q-23 0 -42.5 -14.5t-34 -39.5t-23 -59.5t-8.5 -73.5q0 -45 12 -81.5t34.5 -62.5t54 -40t70.5 -14q44 0 79.5 16.5t70.5 51.5z" />
    <glyph glyph-name="d" unicode="d" horiz-adv-x="614" 
d="M357 67q-36 -42 -73 -61t-79 -19q-39 0 -72.5 17.5t-58 48.5t-38 73.5t-13.5 92.5q0 61 21.5 114.5t58 93.5t86 63t106.5 23q17 0 29.5 -2.5t32.5 -10.5v39q0 45 -4 66.5t-16 37.5q-11 15 -25.5 21.5t-39.5 7.5l-2 11q34 7 70 15.5t71 17.5t66.5 18.5t56.5 18.5v-559
q0 -37 2.5 -59.5t10.5 -35.5t22.5 -18.5t38.5 -7.5v-10q-37 -10 -65 -18t-55.5 -16.5t-58 -18t-72.5 -23.5v80zM357 444q0 26 -13.5 41t-36.5 15q-48 0 -72.5 -64.5t-24.5 -188.5q0 -105 20.5 -151t65.5 -46q18 0 31 7t30 27v360z" />
    <glyph glyph-name="e" unicode="e" horiz-adv-x="564" 
d="M209 298q1 -186 167 -186q54 0 91 20.5t68 66.5l9 -4q-8 -22 -15.5 -39t-15 -31t-16.5 -26t-19 -25q-35 -42 -84 -64.5t-107 -22.5q-56 0 -104.5 19.5t-84 54t-55.5 81.5t-20 101q0 57 21 106t58 85.5t86.5 57.5t106.5 21q63 0 115.5 -25.5t87.5 -73.5q19 -26 28 -51.5
t14 -64.5h-331zM362 310q0 50 -1.5 77.5t-5.5 47.5q-14 65 -62 65q-41 0 -63 -49t-22 -141h154z" />
    <glyph glyph-name="f" unicode="f" horiz-adv-x="442" 
d="M347 453h-83v-325q0 -39 2.5 -62.5t12 -35.5t27.5 -16t49 -4v-10h-348v10q27 1 42.5 5.5t24 16.5t11 35t2.5 61v325h-58l114 145q36 46 62 74.5t48.5 45t44 22.5t48.5 6q37 0 69.5 -10t56.5 -27t37.5 -40t13.5 -49q0 -32 -22 -53.5t-56 -21.5q-25 0 -45.5 12t-30.5 32
q-5 11 -7 25.5t-4 45.5q-1 25 -3 36t-7 19q-10 17 -28 17q-11 0 -22 -7.5t-19 -19.5q-8 -13 -11.5 -29t-3.5 -43v-133h110z" />
    <glyph glyph-name="g" unicode="g" horiz-adv-x="558" 
d="M303 513q32 -1 67.5 -12t66.5 -29q29 -18 45 -42.5t16 -51.5q0 -31 -18 -57.5t-48.5 -46.5t-72.5 -31.5t-90 -11.5q-31 0 -59 4.5t-60 14.5q-13 -10 -17.5 -18.5t-4.5 -19.5q0 -30 26 -42t91 -12q23 0 68 3q19 1 36 1.5t31 0.5q40 0 74 -10.5t58.5 -30t38 -46t13.5 -58.5
q0 -42 -24 -78t-66.5 -63t-100 -42t-123.5 -15q-103 0 -162.5 26.5t-59.5 71.5q0 57 104 94q-109 25 -109 102q0 40 28 74t88 66q-96 32 -96 113q0 36 27 67.5t76 52.5q29 13 55.5 18.5t68.5 7.5v19q0 72 33 115t90 43q38 0 64 -24t26 -59q0 -32 -20.5 -54.5t-49.5 -22.5
q-17 0 -30.5 6.5t-29.5 23.5q-15 16 -22.5 21t-15.5 5q-18 0 -26 -15t-8 -49v-9h10h12zM268 500q-32 0 -47 -28t-15 -90q0 -72 16 -105t51 -33q33 0 47.5 27.5t14.5 91.5q0 137 -67 137zM155 8q-1 -1 -3 -2q-13 -8 -20 -22.5t-7 -31.5q0 -25 13 -46t37 -36t57 -23.5t73 -8.5
q67 0 109 26.5t42 68.5q0 35 -29.5 54t-83.5 19q-8 0 -23 -0.5t-31 -1.5q-17 -1 -30.5 -1.5t-24.5 -0.5q-22 0 -38.5 1t-40.5 5z" />
    <glyph glyph-name="h" unicode="h" horiz-adv-x="654" 
d="M264 413q34 29 61 48t50.5 30.5t44.5 16.5t44 5q57 0 83.5 -33.5t26.5 -106.5v-265q0 -30 1.5 -48.5t8 -29t18.5 -14.5t32 -6v-10h-283v10q17 2 26 7.5t14 16.5q2 5 3 9.5t2 12t1 20v32.5v239q0 26 -2.5 40.5t-10.5 24.5q-7 10 -19 16t-24 6q-33 0 -77 -37v-289v-31
t1 -20t2 -13t3 -10q5 -11 14 -16.5t26 -7.5v-10h-303v10q27 1 42.5 5.5t24 16.5t11 35t2.5 61v411q0 45 -4 66.5t-16 37.5q-11 15 -25.5 21.5t-39.5 7.5l-2 11q69 14 140 33t124 37v-340z" />
    <glyph glyph-name="i" unicode="i" horiz-adv-x="343" 
d="M0 436q33 7 70.5 17t73.5 20.5t67.5 21t52.5 18.5v-385q0 -38 2.5 -60.5t10 -35t22 -17t38.5 -5.5v-10h-323v10q24 1 38.5 5.5t22 16.5t10 35t2.5 61v164q0 45 -4 67t-16 38q-11 14 -25.5 20.5t-39.5 8.5zM163 758q22 0 42 -8.5t34 -23t22.5 -34t8.5 -42.5
q0 -21 -8.5 -40.5t-23 -33.5t-33.5 -22.5t-41 -8.5t-41.5 8.5t-34 23t-23 34t-8.5 41.5t8.5 41t23 33.5t33.5 23t41 8.5z" />
    <glyph glyph-name="j" unicode="j" horiz-adv-x="343" 
d="M-1 436q33 7 71 17.5t75 21t68.5 20.5t49.5 18v-473q0 -36 -2.5 -62t-9 -45.5t-18 -35t-28.5 -30.5q-35 -31 -82.5 -47.5t-101.5 -16.5q-84 0 -134.5 30.5t-50.5 81.5q0 32 22 52t57 20t58 -23.5t23 -59.5v-9.5t-1 -11.5q-1 -5 -1 -10v-9q0 -23 11.5 -35.5t32.5 -12.5
q13 0 24 6.5t16 17.5q8 16 8 72v380q0 45 -4 67t-16 38q-11 14 -25.5 20.5t-39.5 8.5zM162 757q21 0 39 -8t31.5 -21.5t21.5 -32t8 -39.5q0 -20 -8 -37.5t-21.5 -31t-31.5 -21.5t-38 -8q-42 0 -71 29t-29 71q0 20 8 38t21.5 31.5t31.5 21.5t38 8z" />
    <glyph glyph-name="k" unicode="k" horiz-adv-x="670" 
d="M327 347q67 68 67 112q0 20 -15 31v10h215v-10q-23 -4 -50.5 -14t-56 -23.5t-56.5 -30.5t-51 -35l190 -275q20 -29 35.5 -48.5t29.5 -31.5t27.5 -17t28.5 -5v-10h-264l-163 272v-144q0 -38 2.5 -60.5t10 -35t22 -17t38.5 -5.5v-10h-330v10q27 1 42.5 5.5t24 16.5t11 35
t2.5 61v411q0 45 -4 66.5t-16 37.5q-11 15 -25.5 21.5t-39.5 7.5l-2 11q33 7 71 16t74.5 18.5t68 19t50.5 16.5v-472z" />
    <glyph glyph-name="l" unicode="l" horiz-adv-x="343" 
d="M0 683q33 7 70.5 16t73.5 18.5t67.5 18.5t52.5 17v-625q0 -38 2.5 -60.5t10 -35t22 -17t38.5 -5.5v-10h-323v10q24 1 38.5 5.5t22 16.5t10 35t2.5 61v411q0 45 -4 66.5t-16 37.5q-11 15 -25.5 21.5t-39.5 7.5z" />
    <glyph glyph-name="m" unicode="m" horiz-adv-x="956" 
d="M264 418q95 95 187 95q101 0 119 -95q53 51 97.5 73t92.5 22q25 0 46.5 -8.5t37.5 -23.5q17 -17 24.5 -43t7.5 -67v-263q0 -31 1.5 -49.5t8 -28.5t18.5 -14t32 -6v-10h-284v10q16 2 25.5 6t14.5 14.5t6 29t1 48.5v228q0 35 -2.5 53t-9.5 29q-6 10 -18 16t-26 6
q-17 0 -34 -8.5t-39 -28.5v-295q0 -30 1 -48.5t6 -29t14.5 -14.5t25.5 -6v-10h-270v10q17 2 26 7.5t14 16.5q4 9 5 22.5t1 51.5v228q0 33 -2.5 50.5t-10.5 28.5q-14 24 -45 24q-18 0 -34 -8t-37 -28v-295q0 -30 1 -48.5t6 -29t14.5 -14.5t24.5 -6v-10h-303v10q27 1 42.5 5.5
t24 16.5t11 35t2.5 61v164q0 45 -4 67t-16 38q-11 14 -25.5 20.5t-39.5 8.5l-2 10q36 8 64.5 15.5t57 15.5t62 19t80.5 27v-95z" />
    <glyph glyph-name="n" unicode="n" horiz-adv-x="651" 
d="M264 418q26 27 48.5 45t44 29t43 16t46.5 5q34 0 61 -11t41 -31q13 -17 18 -40.5t5 -63.5v-259q0 -31 1.5 -49.5t8 -28.5t18.5 -14t32 -6v-10h-283v10q17 2 26 7.5t14 16.5q4 9 5 22.5t1 51.5v189q0 30 -0.5 49.5t-1.5 32t-3.5 20t-5.5 13.5q-6 11 -18 18t-26 7
q-36 0 -75 -35v-294q0 -30 1 -48.5t6 -29t14.5 -14.5t24.5 -6v-10h-303v10q27 1 42.5 5.5t24 16.5t11 35t2.5 61v164q0 45 -4 67t-16 38q-11 14 -25.5 20.5t-39.5 8.5l-2 10q34 7 66 15.5t64 18t65 20t69 23.5v-95z" />
    <glyph glyph-name="o" unicode="o" horiz-adv-x="599" 
d="M299 513q106 0 186 -67q47 -39 69 -88t22 -112q0 -54 -21.5 -101t-59 -82.5t-88 -55.5t-108.5 -20t-108.5 20.5t-87.5 55.5t-58.5 83t-21.5 104q0 55 21.5 103.5t58.5 83.5t87.5 55.5t108.5 20.5zM299 500q-41 0 -61 -44q-11 -23 -16.5 -78t-5.5 -128q0 -88 7.5 -143.5
t22.5 -76.5q19 -30 54 -30q41 0 61 44q11 22 16.5 77t5.5 127q0 179 -30 223q-20 29 -54 29z" />
    <glyph glyph-name="p" unicode="p" horiz-adv-x="615" 
d="M257 448q41 35 76.5 50t73.5 15q41 0 75 -17.5t58.5 -49t38 -75t13.5 -96.5q0 -60 -18.5 -112.5t-50.5 -91.5t-75 -61.5t-93 -22.5q-29 0 -50.5 8t-47.5 28v-92q0 -38 3 -60.5t12 -35t26 -17t46 -5.5v-10h-357v10q34 2 49 8t26 20q6 8 9.5 16.5t5.5 22.5t2.5 36.5
t0.5 57.5v318q0 45 -4 67t-16 38q-11 14 -25.5 20.5t-39.5 8.5l-2 10q33 7 71 17.5t74 21t67.5 20.5t51.5 18v-65zM257 39q21 -21 49 -21q47 0 73 58.5t26 164.5q0 101 -23.5 158.5t-65.5 57.5q-13 0 -25.5 -5t-33.5 -19v-394z" />
    <glyph glyph-name="q" unicode="q" horiz-adv-x="612" 
d="M532 513v-582q0 -38 2.5 -60.5t11 -35t24 -17t42.5 -5.5v-10h-344v10q32 2 47 6.5t24 15.5q10 11 13 30t3 66v118q-37 -35 -67 -48.5t-72 -13.5q-43 0 -78.5 15t-61 43t-39.5 66.5t-14 85.5q0 64 22.5 121.5t61 100.5t89.5 68.5t108 25.5q13 0 24.5 -1t26.5 -3.5
t34.5 -7.5t49.5 -13q33 -9 47 -9q13 0 20.5 7t15.5 27h10zM355 376q0 37 -2 61.5t-7.5 38t-14.5 19t-23 5.5q-25 0 -44.5 -18t-29.5 -49q-11 -35 -17.5 -85.5t-6.5 -106.5q0 -206 86 -206q29 0 59 31v310z" />
    <glyph glyph-name="r" unicode="r" horiz-adv-x="483" 
d="M256 360q30 80 66 116.5t84 36.5q19 0 35.5 -6.5t29 -18.5t19.5 -28t7 -34q0 -36 -22.5 -60t-54.5 -24q-28 0 -47 17q-3 2 -5 4t-4.5 5t-7 9t-12.5 17q-16 20 -31 20q-19 0 -31 -21q-6 -10 -9.5 -20.5t-5.5 -26t-2.5 -38t-0.5 -55.5v-125q0 -38 2.5 -61t11 -35t24 -16.5
t42.5 -5.5v-10h-337v10q27 1 42.5 5.5t24 16.5t11 35t2.5 61v164q0 45 -4 67t-16 38q-11 14 -25.5 20.5t-39.5 8.5l-2 10q40 9 69 16.5t56 15.5t57.5 18.5t73.5 26.5v-153z" />
    <glyph glyph-name="s" unicode="s" horiz-adv-x="510" 
d="M445 320h-10q-16 39 -38 72t-47 57t-50.5 37.5t-49.5 13.5q-29 0 -49.5 -19.5t-20.5 -47.5q0 -60 94 -91l68 -22q80 -26 116 -62t36 -90q0 -39 -16.5 -72.5t-46 -57.5t-70.5 -37.5t-89 -13.5q-37 0 -96.5 14t-125.5 39l-10 199h10q24 -55 52.5 -99t59.5 -75t63.5 -48
t64.5 -17q34 0 54 20t20 52t-21 52.5t-73 40.5l-49 17q-95 34 -136.5 73t-41.5 94q0 35 16.5 65t45 52t68 34.5t85.5 12.5q38 0 80 -6.5t97 -22.5z" />
    <glyph glyph-name="t" unicode="t" horiz-adv-x="382" 
d="M383 500l-25 -47h-101v-288q0 -57 19 -81.5t64 -24.5q14 0 26.5 2.5t30.5 8.5l6 -8q-56 -41 -96.5 -58t-82.5 -17q-29 0 -54.5 8.5t-44.5 23.5q-25 21 -35 51t-10 84v299h-123q44 19 86.5 46.5t81.5 60t72.5 69t59.5 74.5v-203h126z" />
    <glyph glyph-name="u" unicode="u" horiz-adv-x="646" 
d="M389 81l-39 -34.5t-27 -19.5q-29 -20 -61 -30t-63 -10q-29 0 -56 12t-41 31q-12 17 -17 39.5t-5 64.5v223q0 35 -3 57.5t-11.5 35.5t-23 18t-38.5 7v10q19 0 50 3t66.5 6.5t71.5 8.5t65 10v-362q0 -27 2.5 -41.5t8.5 -25.5q7 -11 20 -18t29 -7q19 0 35.5 9t36.5 29v260
q0 35 -3 57.5t-11.5 35.5t-23 18t-38.5 7v10q19 0 50 3t66.5 6.5t71.5 8.5t65 10v-331q0 -32 3 -52.5t11.5 -33.5t22.5 -19t35 -9v-10q-35 -6 -62 -13t-61 -18l-126 -40v94z" />
    <glyph glyph-name="v" unicode="v" horiz-adv-x="578" 
d="M400 234q43 85 43 161q0 38 -8 59t-28 36v10h191v-10q-36 -11 -72.5 -57t-80.5 -135l-158 -325l-203 413q-14 27 -25 45t-22 29.5t-24.5 18t-32.5 11.5v10h327v-10q-45 -9 -45 -42q0 -21 26 -77l89 -186z" />
    <glyph glyph-name="w" unicode="w" horiz-adv-x="946" 
d="M456 354q-20 44 -33.5 70t-25 40t-23.5 19t-29 7v10h315v-10q-42 -6 -42 -42q0 -8 1.5 -16t6 -20.5t13 -31.5t21.5 -48l64 -141q22 47 35.5 78t20.5 54t9.5 41.5t2.5 40.5q0 38 -11.5 57t-40.5 28v10h226v-10q-48 -11 -97 -70t-100 -165l-134 -282l-171 368l-173 -368
l-194 397q-17 36 -30.5 58.5t-26.5 36t-27.5 19t-32.5 6.5v10h309v-10q-28 -4 -28 -31q0 -21 22 -68l96 -200z" />
    <glyph glyph-name="x" unicode="x" horiz-adv-x="636" 
d="M541 109q22 -31 36 -49t25 -27.5t23 -14t31 -8.5v-10h-348v10q44 13 44 47q0 7 -1 13t-5.5 15t-13.5 22t-24 36l-50 72q-34 -44 -48 -77.5t-14 -68.5q0 -23 7.5 -36t24.5 -23v-10h-248v10q42 7 113 63.5t157 151.5l-127 171q-36 50 -61.5 71t-54.5 23v10h319v-10
q-23 -9 -23 -30q0 -11 8.5 -27.5t28.5 -43.5l37 -53q31 36 42 57.5t11 45.5q0 36 -28 51v10h206v-10q-18 -4 -45 -19t-57.5 -37.5t-62 -50.5t-58.5 -58z" />
    <glyph glyph-name="y" unicode="y" horiz-adv-x="594" 
d="M378 186q22 43 36 73.5t22 54t11 43.5t3 42q0 42 -14 62t-48 29v10h227v-10q-20 -3 -38.5 -15t-38.5 -35.5t-42.5 -59t-48.5 -85.5l-176 -356q-38 -77 -81.5 -113t-97.5 -36q-52 0 -84.5 27.5t-32.5 72.5q0 38 25 62.5t63 24.5q26 0 44 -10.5t39 -37.5q15 -20 25 -27.5
t23 -7.5q15 0 31 11t27 29q3 5 5.5 9t5.5 9.5t7.5 14.5t11.5 24l-199 404q-13 28 -23.5 45.5t-21.5 28t-25 15t-33 6.5v10h328v-10q-44 -3 -44 -43q0 -28 22 -72z" />
    <glyph glyph-name="z" unicode="z" horiz-adv-x="566" 
d="M224 12q39 1 81.5 19t83 49.5t77.5 74.5t64 93l9 -3l-75 -265q-11 6 -19 10t-17.5 6.5t-22 3t-30.5 0.5h-362l307 488q-43 -7 -85.5 -25.5t-79.5 -45t-66 -58t-45 -65.5l-9 2l66 232q10 -17 22.5 -22.5t43.5 -5.5h363z" />
    <glyph glyph-name="braceleft" unicode="{" horiz-adv-x="290" 
d="M-13 324q37 4 50 22.5t13 66.5v16.5t-0.5 16.5t-1 27t-1.5 47q0 6 0.5 20t2 30.5t3 32.5t3.5 25q8 49 37.5 77t75.5 28h115v-18q-29 -2 -43 -8t-25 -23q-7 -11 -11 -21.5t-6.5 -26t-3 -40t-0.5 -63.5l1 -70q3 -36 -2 -61.5t-19 -42t-39 -26.5t-63 -16v-3q46 -5 76.5 -25
t38.5 -52q3 -13 4 -25t1 -35l1 -171q1 -65 22 -92.5t68 -25.5v-18h-124q-23 0 -47 12t-39 32q-29 36 -29 115v11v17.5t0.5 36.5t1.5 68q1 23 1 39v24q0 43 -13.5 61t-47.5 21v17z" />
    <glyph glyph-name="bar" unicode="|" horiz-adv-x="500" 
d="M316 667v-834h-132v834h132z" />
    <glyph glyph-name="braceright" unicode="}" horiz-adv-x="290" 
d="M304 307q-34 -3 -47.5 -21t-13.5 -61v-11v-18.5t0.5 -39.5t1.5 -74q1 -19 1 -32v-21q0 -79 -29 -115q-15 -20 -39 -32t-47 -12h-124v18q40 -1 59.5 16.5t27.5 59.5q1 9 1.5 15.5t1 13.5t0.5 15v20l1 90v77q-3 104 120 119v3q-41 5 -66 17t-42 33q-8 12 -11.5 26t-3.5 37
v103q1 52 -2.5 87t-13.5 56t-27.5 30t-44.5 9v18h115q34 0 62.5 -18.5t41.5 -50.5q3 -7 6 -23.5t5.5 -37t4 -42t1.5 -38.5q0 -3 -0.5 -21t-1.5 -45v-44q0 -48 13 -66.5t50 -22.5v-17z" />
    <glyph glyph-name="asciitilde" unicode="~" horiz-adv-x="667" 
d="M520 716q-10 -20 -25.5 -43.5t-32.5 -43.5q-16 -19 -33 -26.5t-43 -7.5q-8 0 -14.5 0.5t-15.5 3.5t-23 8t-36 14q-13 5 -29 8.5t-28 3.5q-17 0 -29.5 -6t-27.5 -22l-9 -9l-28 17q37 67 65 94.5t62 27.5q14 0 29 -4t46 -15q56 -19 79 -19q32 0 64 36z" />
    <glyph glyph-name="Euro" unicode="&#x20ac;" 
d="M506 376l-9 -15h-252q-1 -10 -1 -17v-15v-10t1 -9h221l-8 -15h-213q2 -69 9.5 -114t21.5 -80q19 -47 47 -74t58 -27q29 0 64 33.5t65 90.5q8 15 13.5 26t10 22.5t8.5 25t9 33.5h10l-8 -239h-8q-2 17 -18 17q-4 0 -7 -0.5t-11 -2l-24 -4.5t-44 -9q-17 -3 -40.5 -5
t-40.5 -2q-62 0 -116.5 23t-97 64.5t-69.5 98t-34 123.5h-38l9 15h28q-1 8 -1 13.5v12.5v11.5t1 13.5h-37l9 15h29q6 66 33 121.5t69 96t96.5 63.5t116.5 23q22 0 51.5 -4t61.5 -11q19 -5 29 -6.5t18 -1.5q15 0 20 16h9l13 -221h-10q-8 23 -21 50t-27 50q-35 55 -71 85
t-65 30q-26 0 -49.5 -20.5t-37.5 -54.5q-8 -21 -13.5 -43t-9.5 -47.5t-7 -56.5t-4 -69h261z" />
    <glyph glyph-name="quotesinglbase" unicode="&#x201a;" horiz-adv-x="227" 
d="M103 -146q25 34 25 71q0 24 -9.5 38t-34.5 28q-37 19 -50.5 37t-13.5 48q0 19 7 35.5t19 29t28.5 19.5t35.5 7q42 0 69.5 -31.5t27.5 -78.5q0 -49 -25.5 -105t-70.5 -103z" />
    <glyph glyph-name="florin" unicode="&#x192;" 
d="M399 453h-84l-80 -413q-7 -36 -14.5 -62t-18 -45.5t-25 -35t-34.5 -30.5q-41 -31 -91 -47.5t-104 -16.5q-77 0 -121 25.5t-44 70.5q0 38 27 63t67 25q30 0 48 -18t18 -48q0 -8 -1.5 -16t-4.5 -22q-4 -12 -5 -19.5t-1 -13.5q0 -34 36 -34q12 0 24.5 6.5t19.5 16.5
q6 10 11 26.5t11 46.5l106 541h-59l142 145q45 46 77 74.5t57.5 45t48 22.5t49.5 6q34 0 62 -8t48.5 -22.5t32 -35t11.5 -44.5q0 -19 -7.5 -35.5t-20 -29t-30 -19.5t-36.5 -7q-32 0 -51 17.5t-19 49.5q0 8 1 18t4 30q4 23 4 36q0 17 -7.5 26.5t-20.5 9.5q-11 0 -23.5 -7.5
t-22.5 -19.5q-11 -13 -17.5 -29t-11.5 -43l-26 -133h110z" />
    <glyph glyph-name="quotedblbase" unicode="&#x201e;" horiz-adv-x="435" 
d="M103 -146q25 34 25 71q0 24 -9.5 38t-34.5 28q-37 19 -50.5 37t-13.5 48q0 19 7 35.5t19 29t28.5 19.5t35.5 7q42 0 69.5 -31.5t27.5 -78.5q0 -49 -25.5 -105t-70.5 -103zM310 -146q25 34 25 71q0 24 -9.5 38t-34.5 28q-37 19 -50.5 37t-13.5 48q0 19 7 35.5t19 29
t28.5 19.5t35.5 7q21 0 39 -8.5t31 -23.5t20.5 -35t7.5 -43q0 -49 -25.5 -105t-70.5 -103z" />
    <glyph glyph-name="ellipsis" unicode="&#x2026;" horiz-adv-x="887" 
d="M116 186q42 0 69.5 -28t27.5 -70q0 -20 -7.5 -37t-21 -30t-31 -20.5t-36.5 -7.5q-41 0 -69 28t-28 69q0 40 28 68t68 28zM443 186q42 0 69.5 -28t27.5 -70q0 -20 -7.5 -37t-21 -30t-31 -20.5t-36.5 -7.5q-41 0 -69 28t-28 69q0 40 28 68t68 28zM769 186q42 0 69.5 -28
t27.5 -70q0 -20 -7.5 -37t-21 -30t-31 -20.5t-36.5 -7.5q-41 0 -69 28t-28 69q0 40 28 68t68 28z" />
    <glyph glyph-name="dagger" unicode="&#x2020;" horiz-adv-x="439" 
d="M203 424q-17 -2 -36.5 -11.5t-46.5 -28.5q-29 -19 -52 -19q-26 0 -43.5 19t-17.5 48t17.5 48.5t43.5 19.5q8 0 14 -1t13.5 -4.5t17.5 -9.5t25 -16q21 -14 39.5 -21t35.5 -9q-4 17 -12 33t-24 39q-11 16 -18 27.5t-11 21t-5.5 18t-1.5 18.5q0 37 22 60.5t57 23.5t57 -23.5
t22 -60.5q0 -20 -7.5 -37t-29.5 -48q-15 -22 -23 -38.5t-12 -33.5q20 2 42 12t51 30q28 19 51 19q26 0 43.5 -19.5t17.5 -48.5t-17.5 -48t-43.5 -19q-8 0 -13.5 1t-13 4t-17.5 9t-26 17q-42 27 -75 30q6 -53 58 -148q2 -2 2.5 -5t2.5 -6q-15 -54 -26 -108t-18 -110.5
t-10.5 -117t-3.5 -128.5h-27q0 61 -3.5 118.5t-11 113.5t-18.5 113t-27 119q12 16 23.5 36.5t21 42.5t16 43t8.5 37z" />
    <glyph glyph-name="daggerdbl" unicode="&#x2021;" horiz-adv-x="439" 
d="M203 424q-17 -2 -36.5 -11.5t-46.5 -28.5q-29 -19 -52 -19q-26 0 -43.5 19t-17.5 48t17.5 48.5t43.5 19.5q8 0 14 -1t13.5 -4.5t17.5 -9.5t25 -16q23 -14 39 -20.5t36 -9.5q-4 17 -12 33t-24 39q-11 16 -18 27.5t-11 21t-5.5 18t-1.5 18.5q0 37 22 60.5t57 23.5t57 -23.5
t22 -60.5q0 -20 -7.5 -37t-29.5 -48q-15 -22 -23 -38.5t-12 -33.5q20 2 42 12t51 30q28 19 51 19q26 0 43.5 -19.5t17.5 -48.5t-17.5 -48t-43.5 -19q-8 0 -13.5 1t-13 4t-17.5 9t-26 17q-42 27 -75 30q6 -53 58 -148q2 -2 2.5 -5t2.5 -6l-5 -11l-15 -28q-18 -34 -29.5 -66.5
t-13.5 -55.5q20 2 42.5 12t51.5 30q28 19 51 19q26 0 43.5 -19t17.5 -48t-17.5 -48.5t-43.5 -19.5q-8 0 -13.5 1t-13 4t-17.5 9t-26 17q-40 26 -74 30q4 -19 12 -38t23 -44q11 -18 18.5 -32t11.5 -25t5.5 -21t1.5 -22q0 -48 -22 -78t-57 -30t-57 30t-22 78q0 12 1.5 22
t5.5 21t11 25t18 32q30 49 35 81l-10 -2q-31 -4 -82 -39q-29 -19 -52 -19q-26 0 -43.5 19.5t-17.5 48.5t17.5 48t43.5 19q8 0 14 -1t13.5 -4.5t17.5 -9.5t25 -16q42 -27 75 -30q-2 17 -8 38t-15.5 43t-21 43t-24.5 37q12 16 23.5 36.5t21 42.5t16 43t8.5 37z" />
    <glyph glyph-name="circumflex" unicode="&#x2c6;" horiz-adv-x="500" 
d="M410 580l-160 52l-160 -52l-7 7l136 128h61l136 -128z" />
    <glyph glyph-name="perthousand" unicode="&#x2030;" horiz-adv-x="848" 
d="M497 730l-459 -760h-13l408 680q-29 -23 -51 -32t-46 -9q-20 0 -37 4.5t-40 15.5q33 -42 33 -98q0 -31 -10.5 -58t-29 -47t-43.5 -31.5t-53 -11.5q-29 0 -53.5 11.5t-43 32t-29 47.5t-10.5 58t10.5 58t29 47t43 31.5t53.5 11.5q25 0 46.5 -9t44.5 -29q22 -9 40 -12.5
t42 -3.5q41 0 73 14.5t49 39.5l32 50h14zM154 667q-20 0 -32 -37.5t-12 -97.5t12.5 -98t32.5 -38q19 0 31.5 37.5t12.5 96.5q0 62 -12.5 99.5t-32.5 37.5zM359 284q28 0 53 -11.5t43.5 -32t29 -48t10.5 -58.5q0 -30 -10.5 -57t-29 -47t-43.5 -31.5t-53 -11.5
q-29 0 -53.5 11.5t-43 31.5t-29 47t-10.5 58t10.5 58t29 47.5t43 32t53.5 11.5zM357 271q-20 0 -32 -37.5t-12 -97.5t12.5 -98t32.5 -38q19 0 31.5 37.5t12.5 96.5q0 62 -12.5 99.5t-32.5 37.5zM692 284q28 0 53 -11.5t43.5 -32t29 -48t10.5 -58.5q0 -30 -10.5 -57t-29 -47
t-43.5 -31.5t-53 -11.5q-29 0 -53.5 11.5t-43 31.5t-29 47t-10.5 58t10.5 58t29 47.5t43 32t53.5 11.5zM690 271q-20 0 -32 -37.5t-12 -97.5t12.5 -98t32.5 -38q19 0 31.5 37.5t12.5 96.5q0 62 -12.5 99.5t-32.5 37.5z" />
    <glyph glyph-name="Scaron" unicode="&#x160;" horiz-adv-x="618" 
d="M521 423q-38 115 -101.5 179.5t-137.5 64.5q-48 0 -77 -26.5t-29 -69.5q0 -23 9 -42.5t26 -32.5q17 -14 50.5 -31t72.5 -32l93 -35q85 -32 125 -78t40 -112q0 -47 -19 -87.5t-52 -70t-78.5 -46.5t-98.5 -17q-38 0 -94 7.5t-121 21.5q-21 5 -31 6.5t-18 1.5
q-15 0 -22.5 -5t-10.5 -19h-10l-10 309h10q17 -57 49 -112t78 -106q45 -50 84 -70.5t89 -20.5q51 0 82 28t31 74q0 43 -33 75t-109 61l-98 38q-95 38 -138 81.5t-43 104.5q0 46 20 86t55 69t82.5 46t102.5 17q16 0 29.5 -1t30 -3t38 -7t54.5 -12q28 -7 45 -7q11 0 16 4.5
t8 18.5h10l11 -250h-10zM343 739h-67l-150 140l8 9l175 -57l176 57l8 -9z" />
    <glyph glyph-name="guilsinglleft" unicode="&#x2039;" horiz-adv-x="185" 
d="M165 399l-70 -146l70 -145l-4 -10l-161 155l161 156z" />
    <glyph glyph-name="OE" unicode="&#x152;" horiz-adv-x="1084" 
d="M690 347q77 5 125.5 45t54.5 102h10v-308h-10q-17 72 -64 111.5t-116 39.5v-237q0 -51 12 -69.5t47 -18.5q48 0 97.5 22.5t96.5 64.5q43 38 71.5 82t49.5 103h10l-45 -284h-543q-26 -5 -42 -7.5t-27 -3.5t-20 -1.5t-21 -0.5q-70 0 -138.5 28.5t-120.5 79.5
q-50 48 -73.5 105.5t-23.5 129.5q0 160 118 259q51 44 115.5 67.5t130.5 23.5q26 0 49.5 -3t52.5 -10h503l41 -230h-10q-46 108 -122.5 163t-179.5 55h-28v-308zM493 540q0 41 -6.5 62t-24.5 38q-14 13 -34 20t-41 7q-150 0 -150 -346q0 -100 12 -172t33 -102
q35 -47 100 -47q76 0 101 66q5 16 7.5 46.5t2.5 91.5v336z" />
    <glyph glyph-name="quoteleft" unicode="&#x2018;" horiz-adv-x="227" 
d="M125 748q-25 -34 -25 -71q0 -24 9.5 -38t34.5 -28q36 -19 49.5 -37t13.5 -48q0 -19 -7 -35.5t-19 -29t-28.5 -19.5t-35.5 -7q-42 0 -69.5 31.5t-27.5 78.5q0 49 25.5 105t70.5 103z" />
    <glyph glyph-name="quoteright" unicode="&#x2019;" horiz-adv-x="227" 
d="M103 440q25 35 25 72q0 24 -9.5 38t-34.5 27q-37 19 -50.5 37.5t-13.5 47.5q0 38 26 64.5t64 26.5q42 0 69.5 -31.5t27.5 -78.5q0 -49 -25.5 -104.5t-70.5 -103.5z" />
    <glyph glyph-name="quotedblleft" unicode="&#x201c;" horiz-adv-x="435" 
d="M332 748q-25 -34 -25 -71q0 -24 9.5 -38t34.5 -28q37 -19 50.5 -37t13.5 -48q0 -19 -7 -35.5t-19 -29t-28.5 -19.5t-35.5 -7q-21 0 -39 8.5t-31 23.5t-20.5 35t-7.5 43q0 49 25.5 105t70.5 103zM125 748q-25 -34 -25 -71q0 -24 9.5 -38t34.5 -28q36 -19 49.5 -37
t13.5 -48q0 -19 -7 -35.5t-19 -29t-28.5 -19.5t-35.5 -7q-42 0 -69.5 31.5t-27.5 78.5q0 49 25.5 105t70.5 103z" />
    <glyph glyph-name="quotedblright" unicode="&#x201d;" horiz-adv-x="435" 
d="M103 440q25 35 25 72q0 24 -9.5 38t-34.5 27q-37 19 -50.5 37.5t-13.5 47.5q0 38 26 64.5t64 26.5q42 0 69.5 -31.5t27.5 -78.5q0 -49 -25.5 -104.5t-70.5 -103.5zM310 440q25 35 25 72q0 24 -9.5 38t-34.5 27q-37 19 -50.5 37.5t-13.5 47.5q0 19 7 35.5t19 29t28.5 19.5
t35.5 7q21 0 39 -8.5t31 -23.5t20.5 -35t7.5 -43q0 -49 -25.5 -104.5t-70.5 -103.5z" />
    <glyph glyph-name="bullet" unicode="&#x2022;" horiz-adv-x="667" 
d="M337 477q28 0 52.5 -11t43 -30t29.5 -44t11 -53q0 -29 -11 -54.5t-29.5 -44t-44 -29.5t-53.5 -11q-29 0 -54 11t-44 29.5t-30 43.5t-11 54t11 54.5t30 44t44.5 29.5t55.5 11z" />
    <glyph glyph-name="endash" unicode="&#x2013;" horiz-adv-x="703" 
d="M663 215h-623v77h623v-77z" />
    <glyph glyph-name="emdash" unicode="&#x2014;" horiz-adv-x="787" 
d="M787 215h-787v77h787v-77z" />
    <glyph glyph-name="tilde" unicode="&#x2dc;" horiz-adv-x="500" 
d="M416 698q-10 -55 -34 -85t-59 -30q-8 0 -15.5 1t-17.5 3.5t-24 6.5t-33 11q-23 7 -38 12t-25 7.5t-16.5 3.5t-12.5 1q-31 0 -48 -43h-10q8 59 33.5 92t63.5 33q8 0 14.5 -0.5t16 -3t25.5 -7.5t43 -14q28 -10 53 -16t36 -6q14 0 22 7t16 27h10z" />
    <glyph glyph-name="trademark" unicode="&#x2122;" horiz-adv-x="1083" 
d="M290 371q0 -20 0.5 -33t1.5 -21t3.5 -13t5.5 -9q8 -8 18.5 -11t36.5 -5v-12h-262v12q26 2 36.5 5t18.5 11q3 4 5.5 9t3.5 13t1.5 21t0.5 33v283q-20 -3 -40.5 -14t-39 -26t-33.5 -34t-23 -39h-14l20 148q7 -8 13.5 -12t16 -6.5t24.5 -3t40 -0.5h208q21 0 34.5 1t22.5 3
t16 6.5t15 11.5l18 -148h-13q-7 19 -21.5 38t-33 34.5t-39.5 26.5t-41 14v-283zM877 667h188v-12q-20 -2 -31.5 -5t-17.5 -12t-7.5 -26.5t-1.5 -48.5v-192q0 -31 1.5 -48.5t7.5 -26.5t17.5 -12.5t31.5 -4.5v-12h-246v12q20 1 31.5 4t17.5 12t7.5 27t1.5 49v256l-160 -386
l-159 378v-181q0 -45 5.5 -73.5t16.5 -48.5q11 -18 26 -26t44 -11v-12h-204v12q28 4 46.5 14.5t29.5 30t15.5 49.5t4.5 75v124q0 36 -4 49t-18 21q-11 6 -23.5 8.5t-35.5 4.5v12h216l100 -241z" />
    <glyph glyph-name="scaron" unicode="&#x161;" horiz-adv-x="510" 
d="M445 320h-10q-16 39 -38 72t-47 57t-50.5 37.5t-49.5 13.5q-29 0 -49.5 -19.5t-20.5 -47.5q0 -60 94 -91l68 -22q80 -26 116 -62t36 -90q0 -39 -16.5 -72.5t-46 -57.5t-70.5 -37.5t-89 -13.5q-37 0 -96.5 14t-125.5 39l-10 199h10q24 -55 52.5 -99t59.5 -75t63.5 -48
t64.5 -17q34 0 54 20t20 52t-21 52.5t-73 40.5l-49 17q-95 34 -136.5 73t-41.5 94q0 35 16.5 65t45 52t68 34.5t85.5 12.5q38 0 80 -6.5t97 -22.5zM95 714l160 -52l160 52l7 -7l-136 -128h-61l-136 128z" />
    <glyph glyph-name="guilsinglright" unicode="&#x203a;" horiz-adv-x="185" 
d="M185 253l-161 -155l-4 10l70 145l-70 146l4 10z" />
    <glyph glyph-name="oe" unicode="&#x153;" horiz-adv-x="935" 
d="M575 298q2 -91 44 -138t120 -47q57 0 97 21t70 67l9 -4q-12 -29 -21.5 -50t-19 -37t-20 -29t-22.5 -25q-72 -69 -179 -69q-51 0 -93 15t-81 47q-44 -32 -85.5 -47t-90.5 -15q-58 0 -109 20.5t-89 56.5t-60 83.5t-22 101.5q0 55 21.5 103t59 84t88 57t107.5 21
q53 0 96 -15.5t92 -53.5q23 19 44 32t42 21.5t43 12t48 3.5q58 0 109 -24t84 -68q20 -26 31 -53.5t18 -70.5h-331zM297 501q-23 0 -38 -13t-25 -42t-14 -76.5t-4 -116.5q0 -73 4 -121.5t14 -78t26 -41.5t40 -12q23 0 39 12.5t25.5 41.5t14 76.5t4.5 117.5q0 73 -4 121.5
t-14 77.5t-26.5 41.5t-41.5 12.5zM729 310q0 102 -16.5 146.5t-52.5 44.5q-44 0 -64.5 -46t-19.5 -145h153z" />
    <glyph glyph-name="Ydieresis" unicode="&#x178;" horiz-adv-x="757" 
d="M473 171q0 -35 0.5 -57t2.5 -36.5t5.5 -23t9.5 -16.5q11 -14 26.5 -20t48.5 -8v-10h-383v10q33 2 48.5 8t26.5 20q6 8 9.5 16.5t5.5 22.5t2.5 36.5t0.5 57.5v100l-164 273q-19 31 -34.5 51.5t-30.5 33t-31 19t-36 9.5v10h387v-10q-53 -6 -53 -49q0 -17 8.5 -39.5
t28.5 -54.5l114 -189l34 55q67 107 67 193q0 37 -10 56.5t-33 27.5v10h254v-10q-98 -15 -253 -259l-51 -84v-143zM293 901q38 0 63 -25.5t25 -63.5q0 -18 -7 -33.5t-19 -27t-27.5 -18.5t-33.5 -7q-37 0 -62.5 25.5t-25.5 62.5q0 36 25.5 61.5t61.5 25.5zM529 901
q38 0 63 -25.5t25 -63.5q0 -18 -7 -33.5t-19 -27t-27.5 -18.5t-33.5 -7q-37 0 -62.5 25.5t-25.5 62.5q0 36 25.5 61.5t61.5 25.5z" />
    <glyph glyph-name="exclamdown" unicode="&#xa1;" horiz-adv-x="290" 
d="M131 465q1 -38 12 -71t37 -82l31.5 -63t19.5 -43t9.5 -31.5t2.5 -26.5q0 -44 -26.5 -82t-85.5 -79q-30 22 -44 34t-26 27q-41 47 -41 95q0 13 2 26t7 29.5t13 36.5t20 46q19 43 30 69.5t17 45.5t8.5 34t3.5 35h10zM132 701q40 0 68 -28t28 -69q0 -40 -28 -68t-68 -28
q-42 0 -69.5 28t-27.5 70q0 19 7.5 36.5t21 30.5t31 20.5t37.5 7.5z" />
    <glyph glyph-name="cent" unicode="&#xa2;" 
d="M316 -50h-13v133q-47 2 -82.5 13.5t-68.5 36.5q-48 36 -74.5 90t-26.5 116t26 116.5t74 92.5q16 13 31.5 22.5t33 16.5t38.5 12t49 9v135h13v-134q8 1 14 1h10q41 0 76.5 -12t62 -32.5t41.5 -48.5t15 -61q0 -38 -22 -62.5t-57 -24.5q-40 0 -63 24t-23 65q0 23 4 42
l3.5 24.5t1.5 15.5q0 26 -17 41.5t-46 15.5v-358q26 -12 44 -16t45 -4q45 0 77 13t57 41l10 -3q-22 -49 -45 -83t-50.5 -56t-61 -33.5t-76.5 -14.5v-133zM303 595q-43 -11 -62.5 -47.5t-19.5 -105.5t20 -116t62 -79v348z" />
    <glyph glyph-name="sterling" unicode="&#xa3;" 
d="M434 359h-137q15 -41 15 -83q0 -29 -7 -56.5t-23 -57.5q11 -2 29 -4t42 -6q42 -5 65.5 -7.5t43.5 -2.5q30 0 51 7.5t35.5 24.5t22.5 44.5t12 67.5h10q-2 -66 -12.5 -113.5t-32.5 -88.5q-27 -51 -64 -74t-91 -23q-47 0 -89 16t-85 51q-29 -35 -57 -51t-62 -16
q-38 0 -62.5 20t-24.5 50q0 26 17.5 49t48.5 38q22 10 46.5 14t68.5 4q-4 21 -8.5 38.5t-11.5 35t-17.5 37t-25.5 45.5q-7 12 -11 20t-9 21h-59v42h43q-7 17 -9.5 29.5t-2.5 29.5q0 45 18.5 85t50.5 70t73.5 47.5t88.5 17.5q39 0 74.5 -12t62.5 -32t43 -46.5t16 -56.5
q0 -32 -21 -52.5t-53 -20.5q-35 0 -56.5 26.5t-21.5 70.5q0 17 3 35t3 28q0 20 -16 33.5t-40 13.5q-38 0 -61.5 -28t-23.5 -73q0 -14 2 -26t7.5 -28t15 -37.5t25.5 -53.5l9 -20h152v-42zM179 78q-2 2 -6 5q-19 12 -42.5 19.5t-42.5 7.5q-29 0 -49 -15t-20 -36
q0 -23 19.5 -38.5t48.5 -15.5q35 0 56.5 17.5t35.5 55.5z" />
    <glyph glyph-name="currency" unicode="&#xa4;" horiz-adv-x="553" 
d="M71 114l-14 14l90 90q-44 50 -44 115t44 116l-90 89l14 15l90 -90q52 44 115 44q64 0 116 -44l89 90l14 -15l-89 -89q44 -52 44 -116t-44 -115l89 -90l-14 -14l-90 90q-52 -44 -115 -44q-64 0 -115 44zM277 489q-33 0 -61.5 -12t-49.5 -33t-33 -49.5t-12 -60.5t12 -60.5
t33 -49.5t49 -33.5t60 -12.5q33 0 61.5 12t50 33t33.5 49.5t12 61.5q0 32 -12.5 60t-33.5 49t-49 33.5t-60 12.5z" />
    <glyph glyph-name="yen" unicode="&#xa5;" horiz-adv-x="784" 
d="M486 171q0 -35 0.5 -57t2.5 -36.5t5.5 -23t9.5 -16.5q11 -14 26.5 -20t48.5 -8v-10h-383v10q33 2 48.5 8t26.5 20q6 8 9.5 16.5t5.5 22.5t2.5 36.5t0.5 57.5v89h-129v13h127l-96 161h-126v13h118l-58 97q-19 31 -34.5 51.5t-30.5 33t-31 19t-36 9.5v10h387v-10
q-53 -6 -53 -49q0 -17 8.5 -39.5t28.5 -54.5l40 -67h144q17 38 24 66t7 60q0 37 -10 56.5t-33 27.5v10h254v-10q-24 -5 -47.5 -18.5t-49.5 -38t-57 -62.5t-68 -91h150v-13h-159q-8 -12 -12.5 -19t-9.5 -17l-51 -84v-41h137v-13h-137v-89zM412 434l66 -109l34 55q6 10 13 23
t17 31h-130z" />
    <glyph glyph-name="brokenbar" unicode="&#xa6;" horiz-adv-x="500" 
d="M316 667v-368h-132v368h132zM316 153v-320h-132v320h132z" />
    <glyph glyph-name="section" unicode="&#xa7;" 
d="M500 480h-10q-15 41 -36 75.5t-45.5 59t-51 38.5t-51.5 14q-30 0 -50 -18.5t-20 -46.5q0 -23 14.5 -38t49.5 -32l151 -70q56 -26 81.5 -58t25.5 -75q0 -45 -28.5 -84t-90.5 -81q44 -29 62.5 -61.5t18.5 -78.5q0 -80 -58 -125t-161 -45q-29 0 -53.5 2t-49.5 7.5t-51.5 14
t-58.5 20.5l-16 189h10q16 -51 33.5 -84.5t46.5 -65.5q61 -70 125 -70q35 0 59 23.5t24 58.5q0 13 -3.5 23.5t-12 20t-23.5 19t-38 20.5l-170 84q-81 40 -81 116q0 53 27.5 91.5t88.5 73.5q-35 29 -48.5 54t-13.5 60q0 36 15.5 67t43.5 53.5t65.5 35.5t81.5 13
q43 0 88.5 -11t99.5 -36zM174 387q-38 -18 -38 -47q0 -15 11 -25.5t45 -27.5l231 -113q38 20 38 44q0 21 -27 38q-9 6 -24.5 14.5t-32 17.5t-33 17t-26.5 13z" />
    <glyph glyph-name="dieresis" unicode="&#xa8;" horiz-adv-x="500" 
d="M142 727q34 0 57 -23t23 -57q0 -32 -23.5 -55.5t-55.5 -23.5q-33 0 -56.5 23.5t-23.5 56.5q0 32 23.5 55.5t55.5 23.5zM357 727q34 0 57 -23t23 -57q0 -32 -23.5 -55.5t-55.5 -23.5q-33 0 -56.5 23.5t-23.5 56.5q0 32 23.5 55.5t55.5 23.5z" />
    <glyph glyph-name="copyright" unicode="&#xa9;" horiz-adv-x="740" 
d="M517 377h-12q-23 71 -60 113.5t-78 42.5q-42 0 -63 -50.5t-21 -148.5q0 -93 25.5 -143.5t73.5 -50.5q19 0 38 12.5t36 34.5t31 52.5t23 66.5h12l-5 -178h-13q-1 8 -2.5 10t-7.5 2q-4 0 -12.5 -1t-29.5 -6t-39 -6.5t-35 -1.5q-48 0 -90 16.5t-72.5 45t-48 67.5t-17.5 84
q0 44 17 82t47 66.5t70 45t86 16.5q33 0 82 -11q13 -3 19.5 -4t11.5 -1q6 0 8.5 2t4.5 9h11zM370 680q72 0 135 -27t110 -74t74 -110t27 -135q0 -73 -27.5 -136t-74.5 -110t-111.5 -74t-137.5 -27q-70 0 -132.5 27.5t-109 74.5t-73.5 110.5t-27 134.5q0 72 27 135t74.5 110
t110.5 74t135 27zM370 660q-68 0 -127.5 -25.5t-104 -70t-70 -104t-25.5 -126.5t25.5 -126.5t70 -104t103 -70.5t124.5 -26q69 0 129 25.5t105 69.5t70.5 103.5t25.5 128.5q0 67 -26 126.5t-70 104t-103.5 70t-126.5 25.5z" />
    <glyph glyph-name="ordfeminine" unicode="&#xaa;" horiz-adv-x="408" 
d="M394 409q-35 -28 -59 -39t-49 -11q-53 0 -65 50q-41 -50 -109 -50q-42 0 -67.5 19t-25.5 49q0 18 10.5 33t34 29.5t61.5 28.5t94 30v28q0 47 -6.5 63t-26.5 16q-21 0 -32 -13t-15 -42q-3 -27 -5.5 -36t-10.5 -18q-10 -13 -24.5 -20.5t-30.5 -7.5q-21 0 -34.5 12.5
t-13.5 32.5q0 39 58 70q18 9 40.5 17t45.5 14t45.5 9.5t42.5 3.5q85 0 85 -86v-136q0 -28 4.5 -37t18.5 -9q6 0 11 2t15 7zM219 534q-38 -12 -52 -28t-14 -48q0 -52 32 -52q34 0 34 41v87z" />
    <glyph glyph-name="guillemotleft" unicode="&#xab;" horiz-adv-x="309" 
d="M289 397l-70 -145l70 -146l-4 -10l-161 156l161 155zM165 400l-70 -145l70 -145l-4 -10l-161 155l161 156z" />
    <glyph glyph-name="logicalnot" unicode="&#xac;" horiz-adv-x="500" 
d="M265 178h-239v89h449v-267h-210v178z" />
    <glyph glyph-name="uni00AD" unicode="&#xad;" horiz-adv-x="262" 
d="M262 215h-262v77h262v-77z" />
    <glyph glyph-name="registered" unicode="&#xae;" horiz-adv-x="740" 
d="M370 680q72 0 135 -27t110.5 -74t74.5 -110t27 -135q0 -73 -27 -136t-74.5 -110t-111.5 -74t-138 -27q-71 0 -133 27.5t-109 74.5t-74 110t-27 134q0 72 27 135t74.5 110.5t110.5 74.5t135 27zM569 211q10 -20 18 -32t15 -19t15.5 -10t20.5 -4q59 86 59 187
q0 68 -25.5 127.5t-70 104t-104 70t-127.5 25.5t-127.5 -25.5t-103.5 -70t-70 -104t-26 -127.5t25.5 -127t70 -103.5t104 -70t127.5 -25.5q77 0 143 32.5t116 93.5h-162q-8 19 -14.5 34t-12.5 28.5l-12 27t-14 30.5q-22 46 -37.5 62.5t-39.5 16.5h-7v-93q0 -24 0.5 -39
t3 -24t6 -14t9.5 -9t12.5 -5t24.5 -3v-12h-237v12q21 2 28 4t14 8q4 4 7 9t4.5 13.5t2 22.5t0.5 37v195q0 24 -0.5 39.5t-3 24.5t-6 13.5t-9.5 8.5t-12 5t-25 3v12h172q34 0 60 -1.5t46.5 -4.5t37 -8.5t31.5 -13.5q26 -14 41.5 -35.5t15.5 -46.5q0 -63 -89 -84
q23 -5 38 -20.5t33 -49.5zM344 346q40 0 58 21t18 69t-17.5 69t-58.5 21h-14v-180h14z" />
    <glyph glyph-name="macron" unicode="&#xaf;" horiz-adv-x="500" 
d="M416 640h-333v13h333v-13z" />
    <glyph glyph-name="degree" unicode="&#xb0;" horiz-adv-x="400" 
d="M201 674q36 0 67.5 -13.5t55 -37t37 -55t13.5 -67.5t-13.5 -68t-37.5 -55.5t-56 -37t-69 -13.5q-35 0 -66 14t-54.5 37.5t-37 55t-13.5 67.5t13.5 67.5t37.5 55t55.5 37t67.5 13.5zM201 656q-33 0 -61.5 -12t-49.5 -33t-33 -49.5t-12 -60.5t12 -60.5t33 -49.5t49 -33.5
t60 -12.5q33 0 61.5 12t50 33t33.5 49.5t12 61.5q0 32 -12.5 60t-33.5 49t-49 33.5t-60 12.5z" />
    <glyph glyph-name="plusminus" unicode="&#xb1;" horiz-adv-x="553" 
d="M10 323v20h257v257h20v-257h257v-20h-257v-257h-20v257h-257zM543 20v-20h-533v20h533z" />
    <glyph glyph-name="uni00B2" unicode="&#xb2;" horiz-adv-x="427" 
d="M65 555q20 62 57.5 90.5t99.5 28.5q31 0 58 -8.5t46.5 -24t30.5 -37t11 -46.5q0 -61 -64 -101q-8 -5 -15.5 -9t-17.5 -8t-23 -9t-32 -11q-27 -9 -45.5 -16.5t-32 -15t-24 -15.5t-21.5 -19h155q31 0 51.5 1.5t34 5.5t21.5 11.5t16 19.5h12q-10 -26 -15.5 -42t-10 -29.5
t-9 -28.5t-10.5 -40h-11q-1 8 -6 11t-20 3l-23 1h-22h-208q2 26 5.5 43t13 32t26.5 30t46 36q48 37 67.5 65t19.5 58t-20.5 48.5t-54.5 18.5q-27 0 -44.5 -10t-29.5 -33h-12z" />
    <glyph glyph-name="uni00B3" unicode="&#xb3;" horiz-adv-x="427" 
d="M168 501q24 5 34.5 10t18.5 13q20 18 20 46q0 22 -17.5 36.5t-44.5 14.5q-21 0 -34.5 -7.5t-27.5 -25.5l-11 2q14 41 46.5 62.5t77.5 21.5q26 0 48.5 -6.5t38.5 -18.5t25 -28t9 -35q0 -39 -36 -62q32 -17 49.5 -44t17.5 -62q0 -33 -15.5 -62t-41.5 -50.5t-61.5 -34
t-75.5 -12.5q-65 0 -104.5 24.5t-39.5 64.5q0 26 17 42.5t44 16.5q24 0 40.5 -14.5t16.5 -36.5q0 -8 -5 -28q-3 -14 -3 -24q0 -14 12 -23t30 -9q30 0 48 25.5t18 67.5q0 50 -25 84t-69 42v10z" />
    <glyph glyph-name="acute" unicode="&#xb4;" horiz-adv-x="500" 
d="M230 611q8 10 13 17t9 13.5t8.5 14.5t12.5 22q31 57 75 57q23 0 39.5 -17t16.5 -41q0 -26 -18.5 -42t-64.5 -30q-26 -8 -42.5 -14.5t-32.5 -14.5l-48 -28l-10 10z" />
    <glyph glyph-name="uni00B5" unicode="&#xb5;" horiz-adv-x="507" 
d="M541 33l-161 -45q-3 -1 -7 -1q-21 0 -35.5 14t-27.5 46q-38 -63 -108 -63q-38 0 -60.5 17t-43.5 63q-1 -4 -1 -6.5v-4.5q0 -12 2 -24t6.5 -27.5t13 -36.5t21.5 -51q16 -37 16 -54q0 -26 -22.5 -44t-57.5 -18q-38 0 -61 18t-23 48q0 12 2.5 31t7.5 39q7 31 13.5 67.5
t10.5 74t6.5 73.5t2.5 68v240h176v-288q1 -29 1.5 -44.5t1.5 -23.5l1.5 -12t2.5 -9q4 -10 13.5 -17t17.5 -7q10 0 21 8t28 28v365h175v-314q0 -28 1.5 -45t7 -26.5t14.5 -13t24 -3.5h15l6 1v-23z" />
    <glyph glyph-name="paragraph" unicode="&#xb6;" horiz-adv-x="520" 
d="M244 321h-39q-96 0 -147 44t-51 126q0 52 22.5 91.5t64.5 59.5q24 11 62 18t82 7h269v-100h-107v-831h-27v831h-100v-831h-29v585z" />
    <glyph glyph-name="periodcentered" unicode="&#xb7;" horiz-adv-x="233" 
d="M116 351q42 0 69.5 -28t27.5 -70q0 -20 -7.5 -37t-21 -30t-31 -20.5t-36.5 -7.5q-41 0 -69 28t-28 69q0 40 28 68t68 28z" />
    <glyph glyph-name="cedilla" unicode="&#xb8;" horiz-adv-x="500" 
d="M286 0q-3 -12 -5.5 -20.5t-7.5 -18.5q40 -4 61.5 -23.5t21.5 -52.5q0 -35 -25 -59.5t-61 -24.5q-23 0 -41.5 11t-18.5 25q0 13 13 13q11 0 20 -16q7 -12 12.5 -16t15.5 -4q14 0 22.5 9.5t8.5 24.5q0 23 -18 38.5t-45 15.5h-10.5t-12.5 -2q22 23 37 50.5t20 49.5h13z" />
    <glyph glyph-name="uni00B9" unicode="&#xb9;" horiz-adv-x="427" 
d="M282 371q0 -31 1.5 -49t7.5 -27t18.5 -12.5t34.5 -4.5v-11h-255l1 11q21 1 33 4t18.5 12t8 26.5t1.5 46.5v149q0 20 -2 31.5t-8.5 17.5t-20 7.5t-37.5 1.5v11q25 8 52 19t53 24t50 26.5t44 26.5v-310z" />
    <glyph glyph-name="ordmasculine" unicode="&#xba;" horiz-adv-x="364" 
d="M182 677q38 0 70 -12t55.5 -34t37 -51.5t13.5 -63.5q0 -33 -13.5 -61.5t-37.5 -50t-56 -33.5t-69 -12t-69 12t-55.5 33.5t-37 50.5t-13.5 63q0 33 13.5 62t37 50.5t55.5 34t69 12.5zM182 662q-26 0 -36.5 -32t-10.5 -112t10.5 -112t37.5 -32q26 0 36.5 32t10.5 111
q0 81 -10.5 113t-37.5 32z" />
    <glyph glyph-name="guillemotright" unicode="&#xbb;" horiz-adv-x="309" 
d="M185 252l-161 -156l-4 10l70 146l-70 145l4 10zM309 255l-161 -155l-4 10l71 145l-71 145l4 11z" />
    <glyph glyph-name="onequarter" unicode="&#xbc;" horiz-adv-x="913" 
d="M282 371q0 -31 1.5 -49t7.5 -27t18.5 -12.5t34.5 -4.5v-11h-255l1 11q21 1 33 4t18.5 12t8 26.5t1.5 46.5v149q0 20 -2 31.5t-8.5 17.5t-20 7.5t-37.5 1.5v11q25 8 52 19t53 24t50 26.5t44 26.5v-310zM673 667l-406 -667h-27l407 667h26zM815 406v-243h24q23 0 32 3
t23 14l11 -4q-13 -17 -21 -32t-14 -32h-55v-36q0 -38 14.5 -51t57.5 -14v-11h-273v11q24 1 39 3.5t23 9.5t11 19.5t3 32.5v36h-180q-3 8 -11.5 22t-14.5 22q69 63 127.5 123.5t113.5 126.5h90zM690 313q-16 -18 -35 -38t-39 -40.5t-39.5 -39t-34.5 -32.5h148v150z" />
    <glyph glyph-name="onehalf" unicode="&#xbd;" horiz-adv-x="913" 
d="M282 371q0 -31 1.5 -49t7.5 -27t18.5 -12.5t34.5 -4.5v-11h-255l1 11q21 1 33 4t18.5 12t8 26.5t1.5 46.5v149q0 20 -2 31.5t-8.5 17.5t-20 7.5t-37.5 1.5v11q25 8 52 19t53 24t50 26.5t44 26.5v-310zM673 667l-406 -667h-27l407 667h26zM552 288q19 62 56.5 90.5
t100.5 28.5q31 0 58 -8.5t46.5 -24t30.5 -37t11 -46.5q0 -61 -64 -101q-8 -5 -16 -9t-17.5 -8t-22.5 -9t-32 -11q-27 -9 -45.5 -16.5t-32.5 -15t-24.5 -15.5t-21.5 -19h156q31 0 51.5 1.5t33.5 5.5t21.5 11.5t15.5 19.5h12q-10 -26 -15.5 -42t-10 -29.5t-8.5 -28.5t-11 -40
h-11q-1 8 -5.5 11t-19.5 3l-24 1h-21h-208q1 26 5 43.5t13.5 32t26.5 29.5t46 36q47 36 67 65t20 58q0 30 -21 48.5t-54 18.5q-52 0 -75 -43h-11z" />
    <glyph glyph-name="threequarters" unicode="&#xbe;" horiz-adv-x="913" 
d="M168 501q24 5 34.5 10t18.5 13q20 18 20 46q0 22 -17.5 36.5t-44.5 14.5q-21 0 -34.5 -7.5t-27.5 -25.5l-11 2q14 41 46.5 62.5t77.5 21.5q26 0 48.5 -6.5t38.5 -18.5t25 -28t9 -35q0 -39 -36 -62q32 -17 49.5 -44t17.5 -62q0 -33 -15.5 -62t-41.5 -50.5t-61.5 -34
t-75.5 -12.5q-65 0 -104.5 24.5t-39.5 64.5q0 26 17 42.5t44 16.5q24 0 40.5 -14.5t16.5 -36.5q0 -8 -5 -28q-3 -14 -3 -24q0 -14 12 -23t30 -9q30 0 48 25.5t18 67.5q0 50 -25 84t-69 42v10zM673 667l-407 -667h-26l406 667h27zM814 406v-243h24q23 0 32 3t23 14l11 -4
q-13 -17 -21 -32t-14 -32h-55v-36q0 -38 14.5 -51t57.5 -14v-11h-273v11q24 1 39 3.5t23 9.5t11 19.5t3 32.5v36h-180q-3 8 -11.5 22t-14.5 22q69 63 127.5 123.5t113.5 126.5h90zM689 313q-16 -18 -35 -38t-39 -40.5t-39.5 -39t-34.5 -32.5h148v150z" />
    <glyph glyph-name="questiondown" unicode="&#xbf;" horiz-adv-x="571" 
d="M268 452q8 11 16 11q10 0 16.5 -11t6.5 -26q0 -13 -6.5 -29.5t-21.5 -42.5q-61 -101 -61 -202q0 -32 8.5 -58.5t23.5 -46t36 -30.5t46 -11q30 0 48 14t18 38q0 12 -5 27.5t-19 40.5q-16 29 -16 57q0 39 26 64.5t66 25.5q38 0 63 -26.5t25 -67.5q0 -39 -20 -74
t-54.5 -61.5t-81 -41.5t-98.5 -15q-45 0 -93 11t-87 31q-42 21 -64.5 53t-22.5 70q0 70 71 121q9 6 16 10.5t17.5 10t26.5 13.5t43 21q54 27 78.5 49t24.5 45q0 14 -5.5 20t-20.5 10zM278 681q40 0 68 -28t28 -69q0 -40 -28 -68t-68 -28q-42 0 -69.5 28t-27.5 70
q0 19 7.5 36.5t21 30.5t31 20.5t37.5 7.5z" />
    <glyph glyph-name="Agrave" unicode="&#xc0;" horiz-adv-x="793" 
d="M215 255q-14 -38 -19.5 -65t-5.5 -56q0 -56 26 -88.5t73 -35.5v-10h-309v10q31 3 62 22t60 52t54.5 77.5t45.5 98.5l102 267q-8 15 -17.5 28t-22.5 24q35 16 81.5 56t88.5 92q8 -21 14.5 -38.5t12.5 -33.5t12 -31t13 -32l129 -311q40 -92 65 -145.5t45 -81t39.5 -35.5
t48.5 -9v-10h-403v10q71 3 71 56q0 38 -42 137l-22 52h-202zM311 515l-92 -248h195zM455 720l-48 27q-16 8 -33 15t-42 15q-45 14 -64 30t-19 42q0 25 16.5 41.5t40.5 16.5q13 0 23.5 -3.5t20 -13t20 -25.5t24.5 -41q5 -8 13 -19l16 -22l42 -53z" />
    <glyph glyph-name="Aacute" unicode="&#xc1;" horiz-adv-x="793" 
d="M215 255q-14 -38 -19.5 -65t-5.5 -56q0 -56 26 -88.5t73 -35.5v-10h-309v10q31 3 62 22t60 52t54.5 77.5t45.5 98.5l102 267q-8 15 -17.5 28t-22.5 24q35 16 81.5 56t88.5 92q8 -21 14.5 -38.5t12.5 -33.5t12 -31t13 -32l129 -311q40 -92 65 -145.5t45 -81t39.5 -35.5
t48.5 -9v-10h-403v10q71 3 71 56q0 38 -42 137l-22 52h-202zM311 515l-92 -248h195zM377 783q8 10 13 16.5t9 13t8.5 14.5t12.5 22q31 58 74 58q24 0 40.5 -17t16.5 -41q0 -26 -19 -42t-64 -30q-25 -8 -42 -15t-33 -15l-48 -27l-10 10z" />
    <glyph glyph-name="Acircumflex" unicode="&#xc2;" horiz-adv-x="793" 
d="M215 255q-14 -38 -19.5 -65t-5.5 -56q0 -56 26 -88.5t73 -35.5v-10h-309v10q31 3 62 22t60 52t54.5 77.5t45.5 98.5l102 267q-8 15 -17.5 28t-22.5 24q35 16 81.5 56t88.5 92q8 -21 14.5 -38.5t12.5 -33.5t12 -31t13 -32l129 -311q40 -92 65 -145.5t45 -81t39.5 -35.5
t48.5 -9v-10h-403v10q71 3 71 56q0 38 -42 137l-22 52h-202zM311 515l-92 -248h195zM573 739l-176 57l-176 -57l-8 9l150 140h67l150 -140z" />
    <glyph glyph-name="Atilde" unicode="&#xc3;" horiz-adv-x="793" 
d="M215 255q-14 -38 -19.5 -65t-5.5 -56q0 -56 26 -88.5t73 -35.5v-10h-309v10q31 3 62 22t60 52t54.5 77.5t45.5 98.5l102 267q-8 15 -17.5 28t-22.5 24q35 16 81.5 56t88.5 92q8 -21 14.5 -38.5t12.5 -33.5t12 -31t13 -32l129 -311q40 -92 65 -145.5t45 -81t39.5 -35.5
t48.5 -9v-10h-403v10q71 3 71 56q0 38 -42 137l-22 52h-202zM311 515l-92 -248h195zM580 864q-11 -55 -37.5 -85t-64.5 -30q-9 0 -18 1t-20 3.5t-26 6.5t-36 11q-24 7 -40.5 12t-27.5 8t-18.5 4t-14.5 1q-34 0 -53 -44h-11q9 60 37 93t70 33q9 0 16 -0.5t17.5 -3t28 -8
t47.5 -14.5q29 -9 58 -15.5t40 -6.5q15 0 23.5 7t18.5 27h11z" />
    <glyph glyph-name="Adieresis" unicode="&#xc4;" horiz-adv-x="793" 
d="M215 255q-14 -38 -19.5 -65t-5.5 -56q0 -56 26 -88.5t73 -35.5v-10h-309v10q31 3 62 22t60 52t54.5 77.5t45.5 98.5l102 267q-8 15 -17.5 28t-22.5 24q35 16 81.5 56t88.5 92q8 -21 14.5 -38.5t12.5 -33.5t12 -31t13 -32l129 -311q40 -92 65 -145.5t45 -81t39.5 -35.5
t48.5 -9v-10h-403v10q71 3 71 56q0 38 -42 137l-22 52h-202zM311 515l-92 -248h195zM278 901q38 0 63 -25.5t25 -63.5q0 -18 -7 -33.5t-19 -27t-27.5 -18.5t-33.5 -7q-37 0 -62.5 25.5t-25.5 62.5q0 36 25.5 61.5t61.5 25.5zM514 901q38 0 63 -25.5t25 -63.5q0 -18 -7 -33.5
t-19 -27t-27.5 -18.5t-33.5 -7q-37 0 -62.5 25.5t-25.5 62.5q0 36 25.5 61.5t61.5 25.5z" />
    <glyph glyph-name="Aring" unicode="&#xc5;" horiz-adv-x="793" 
d="M215 255q-14 -38 -19.5 -65t-5.5 -56q0 -56 26 -88.5t73 -35.5v-10h-309v10q31 3 62 22t60 52t54.5 77.5t45.5 98.5l102 267q-8 15 -17.5 28t-22.5 24q35 16 81.5 56t88.5 92q8 -21 14.5 -38.5t12.5 -33.5t12 -31t13 -32l129 -311q40 -92 65 -145.5t45 -81t39.5 -35.5
t48.5 -9v-10h-403v10q71 3 71 56q0 38 -42 137l-22 52h-202zM311 515l-92 -248h195zM396 935q22 0 41.5 -8t34 -21.5t22.5 -32.5t8 -40t-8.5 -39t-22.5 -31.5t-33.5 -21.5t-40.5 -8q-22 0 -41.5 8t-33.5 21.5t-22.5 32t-8.5 39.5t8 39.5t22.5 32t33.5 21.5t41 8zM396 920
q-22 0 -32 -20.5t-10 -65.5t10 -65.5t32 -20.5q23 0 33 20t10 65q0 46 -10 66.5t-33 20.5z" />
    <glyph glyph-name="AE" unicode="&#xc6;" horiz-adv-x="1069" 
d="M214 256q-9 -27 -14.5 -45t-8.5 -31.5t-4 -25t-1 -24.5q0 -109 105 -120v-10h-311v10q63 8 119.5 74t101.5 183l151 390h-73v10h695l41 -230h-10q-46 108 -122 163t-179 55h-28v-308q77 6 125 45.5t54 101.5h10v-308h-10q-17 72 -64 111.5t-115 39.5v-237q0 -51 12 -69.5
t47 -18.5q48 0 97 22.5t96 64.5q43 38 72 82t49 104h10l-45 -285h-643v10q39 3 57 8.5t30 19.5q7 7 11 15.5t6 23t3 37t1 57.5v85h-265zM479 496q0 35 -0.5 57.5t-2.5 36.5t-5.5 22.5t-9.5 16.5q-21 28 -82 28h-14l-148 -389h262v228z" />
    <glyph glyph-name="Ccedilla" unicode="&#xc7;" horiz-adv-x="669" 
d="M613 -10q-3 21 -22 21q-4 0 -7.5 -0.5t-12.5 -2t-27.5 -4.5t-51.5 -9q-20 -4 -47.5 -6t-47.5 -2h-13.5t-16.5 1q-2 -11 -4 -16.5t-7 -14.5q45 -4 68.5 -25.5t23.5 -58.5q0 -39 -27 -65.5t-68 -26.5q-26 0 -46 12t-20 28q0 6 4.5 10t9.5 4q12 0 22 -17q8 -13 14.5 -17.5
t17.5 -4.5q15 0 24.5 10t9.5 27q0 26 -20 42.5t-50 16.5h-11t-14 -2q20 21 37 49t23 50q-74 9 -134.5 38.5t-104.5 75.5t-68 105.5t-24 127.5q0 72 28 134.5t77 109t114.5 73.5t140.5 27q60 0 135 -18q23 -5 34 -7t20 -2q11 0 16 4t9 15h10l16 -266h-10q-17 54 -40.5 98.5
t-56.5 83.5q-66 79 -137 79q-72 0 -109 -85t-37 -252q0 -93 14 -156.5t44 -109.5q20 -29 50 -46.5t63 -17.5q39 0 75 27t73 85q25 38 41 76t29 88h10l-9 -286h-10z" />
    <glyph glyph-name="Egrave" unicode="&#xc8;" horiz-adv-x="691" 
d="M297 347q77 5 125.5 45t54.5 102h10v-308h-10q-17 72 -64 111.5t-116 39.5v-237q0 -51 12 -69.5t47 -18.5q48 0 97.5 22.5t96.5 64.5q43 38 71.5 82t49.5 103h10l-45 -284h-629v10q34 3 49.5 8.5t25.5 19.5q6 8 9.5 16.5t5.5 22.5t2.5 36.5t0.5 58.5v324q0 35 -0.5 57.5
t-2.5 36.5t-5.5 22.5t-9.5 16.5q-11 14 -26.5 20t-48.5 8v10h589l41 -230h-10q-46 108 -122.5 163t-179.5 55h-28v-308zM398 720l-49 27q-16 9 -32.5 15.5t-42.5 14.5q-45 14 -63.5 30t-18.5 42q0 24 16.5 41t39.5 17q13 0 23.5 -3.5t20.5 -13t20.5 -25.5t24.5 -41
q4 -8 12 -19.5t16 -21.5l43 -53z" />
    <glyph glyph-name="Eacute" unicode="&#xc9;" horiz-adv-x="691" 
d="M297 347q77 5 125.5 45t54.5 102h10v-308h-10q-17 72 -64 111.5t-116 39.5v-237q0 -51 12 -69.5t47 -18.5q48 0 97.5 22.5t96.5 64.5q43 38 71.5 82t49.5 103h10l-45 -284h-629v10q34 3 49.5 8.5t25.5 19.5q6 8 9.5 16.5t5.5 22.5t2.5 36.5t0.5 58.5v324q0 35 -0.5 57.5
t-2.5 36.5t-5.5 22.5t-9.5 16.5q-11 14 -26.5 20t-48.5 8v10h589l41 -230h-10q-46 108 -122.5 163t-179.5 55h-28v-308zM326 783q8 10 13 16.5t9 13t8.5 14.5t12.5 22q31 58 75 58q23 0 39.5 -17t16.5 -41q0 -26 -19 -42t-64 -30q-26 -8 -42.5 -15t-32.5 -15l-48 -27l-10 10
z" />
    <glyph glyph-name="Ecircumflex" unicode="&#xca;" horiz-adv-x="691" 
d="M297 347q77 5 125.5 45t54.5 102h10v-308h-10q-17 72 -64 111.5t-116 39.5v-237q0 -51 12 -69.5t47 -18.5q48 0 97.5 22.5t96.5 64.5q43 38 71.5 82t49.5 103h10l-45 -284h-629v10q34 3 49.5 8.5t25.5 19.5q6 8 9.5 16.5t5.5 22.5t2.5 36.5t0.5 58.5v324q0 35 -0.5 57.5
t-2.5 36.5t-5.5 22.5t-9.5 16.5q-11 14 -26.5 20t-48.5 8v10h589l41 -230h-10q-46 108 -122.5 163t-179.5 55h-28v-308zM522 739l-176 57l-176 -57l-7 9l149 140h68l149 -140z" />
    <glyph glyph-name="Edieresis" unicode="&#xcb;" horiz-adv-x="691" 
d="M297 347q77 5 125.5 45t54.5 102h10v-308h-10q-17 72 -64 111.5t-116 39.5v-237q0 -51 12 -69.5t47 -18.5q48 0 97.5 22.5t96.5 64.5q43 38 71.5 82t49.5 103h10l-45 -284h-629v10q34 3 49.5 8.5t25.5 19.5q6 8 9.5 16.5t5.5 22.5t2.5 36.5t0.5 58.5v324q0 35 -0.5 57.5
t-2.5 36.5t-5.5 22.5t-9.5 16.5q-11 14 -26.5 20t-48.5 8v10h589l41 -230h-10q-46 108 -122.5 163t-179.5 55h-28v-308zM227 901q38 0 63 -25.5t25 -63.5q0 -18 -7 -33.5t-19 -27t-27.5 -18.5t-33.5 -7q-37 0 -62.5 25.5t-25.5 62.5q0 36 25.5 61.5t61.5 25.5zM463 901
q38 0 63 -25.5t25 -63.5q0 -18 -7 -33.5t-19 -27t-27.5 -18.5t-33.5 -7q-37 0 -62.5 25.5t-25.5 62.5q0 36 25.5 61.5t61.5 25.5z" />
    <glyph glyph-name="Igrave" unicode="&#xcc;" horiz-adv-x="397" 
d="M390 0h-383v10q33 2 49 8t26 20q6 8 9.5 16.5t5.5 22.5t2.5 36.5t0.5 57.5v325q0 35 -0.5 57.5t-2.5 36.5t-5.5 22.5t-9.5 16.5q-10 14 -26 20t-49 8v10h383v-10q-33 -2 -48.5 -8t-26.5 -20q-6 -8 -9.5 -16.5t-5.5 -22.5t-2.5 -36.5t-0.5 -57.5v-325q0 -35 0.5 -57.5
t2.5 -36.5t5.5 -22.5t9.5 -16.5q11 -14 26.5 -20t48.5 -8v-10zM251 720l-49 27q-16 9 -32.5 15.5t-42.5 14.5q-45 14 -63.5 30t-18.5 42q0 24 16.5 41t39.5 17q13 0 23.5 -3.5t20.5 -13t20.5 -25.5t24.5 -41l12.5 -20t15.5 -21l42 -53z" />
    <glyph glyph-name="Iacute" unicode="&#xcd;" horiz-adv-x="397" 
d="M390 0h-383v10q33 2 49 8t26 20q6 8 9.5 16.5t5.5 22.5t2.5 36.5t0.5 57.5v325q0 35 -0.5 57.5t-2.5 36.5t-5.5 22.5t-9.5 16.5q-10 14 -26 20t-49 8v10h383v-10q-33 -2 -48.5 -8t-26.5 -20q-6 -8 -9.5 -16.5t-5.5 -22.5t-2.5 -36.5t-0.5 -57.5v-325q0 -35 0.5 -57.5
t2.5 -36.5t5.5 -22.5t9.5 -16.5q11 -14 26.5 -20t48.5 -8v-10zM179 783q8 10 13 16.5t9 13t8.5 14.5t12.5 22q31 58 74 58q24 0 40.5 -17t16.5 -41q0 -26 -19 -42t-64 -30q-25 -8 -42 -15t-33 -15l-48 -27l-10 10z" />
    <glyph glyph-name="Icircumflex" unicode="&#xce;" horiz-adv-x="397" 
d="M390 0h-383v10q33 2 49 8t26 20q6 8 9.5 16.5t5.5 22.5t2.5 36.5t0.5 57.5v325q0 35 -0.5 57.5t-2.5 36.5t-5.5 22.5t-9.5 16.5q-10 14 -26 20t-49 8v10h383v-10q-33 -2 -48.5 -8t-26.5 -20q-6 -8 -9.5 -16.5t-5.5 -22.5t-2.5 -36.5t-0.5 -57.5v-325q0 -35 0.5 -57.5
t2.5 -36.5t5.5 -22.5t9.5 -16.5q11 -14 26.5 -20t48.5 -8v-10zM375 739l-176 57l-176 -57l-8 9l150 140h67l150 -140z" />
    <glyph glyph-name="Idieresis" unicode="&#xcf;" horiz-adv-x="397" 
d="M390 0h-383v10q33 2 48.5 8t26.5 20q6 8 9.5 16.5t5.5 22.5t2.5 36.5t0.5 57.5v325q0 35 -0.5 57.5t-2.5 36.5t-5.5 22.5t-9.5 16.5q-11 14 -26.5 20t-48.5 8v10h383v-10q-33 -2 -48.5 -8t-26.5 -20q-6 -8 -9.5 -16.5t-5.5 -22.5t-2.5 -36.5t-0.5 -57.5v-325
q0 -35 0.5 -57.5t2.5 -36.5t5.5 -22.5t9.5 -16.5q11 -14 26.5 -20t48.5 -8v-10zM86 901q38 0 63 -25.5t25 -63.5q0 -18 -7 -33.5t-19 -27t-27.5 -18.5t-33.5 -7q-37 0 -62.5 25.5t-25.5 62.5q0 36 25.5 61.5t61.5 25.5zM309 901q38 0 63 -25.5t25 -63.5q0 -18 -7 -33.5
t-19 -27t-27.5 -18.5t-33.5 -7q-37 0 -62.5 25.5t-25.5 62.5q0 36 25.5 61.5t61.5 25.5z" />
    <glyph glyph-name="Eth" unicode="&#xd0;" horiz-adv-x="761" 
d="M7 347v12h93v137q0 35 -0.5 57.5t-2.5 36.5t-5.5 22.5t-9.5 16.5q-11 14 -26 20t-49 8v10h348q94 0 164.5 -24.5t123.5 -75.5q47 -46 71 -106.5t24 -130.5q0 -71 -26 -131.5t-72 -104.5t-109 -69t-137 -25h-387v10q34 3 49.5 8.5t25.5 19.5q6 8 9.5 16.5t5.5 22.5
t2.5 36.5t0.5 57.5v176h-93zM297 145q0 -26 0.5 -44t2 -30t4 -19.5t5.5 -13.5q7 -12 23.5 -19t39.5 -7q42 0 71.5 18t48.5 56.5t27.5 100t8.5 148.5q0 97 -12 158t-38 103q-20 32 -56.5 45.5t-97.5 13.5h-27v-296h117v-12h-117v-202z" />
    <glyph glyph-name="Ntilde" unicode="&#xd1;" horiz-adv-x="804" 
d="M663 260v150q0 145 -52 207q-15 19 -32.5 27t-50.5 13v10h296v-10q-21 -2 -36 -6t-27 -11t-21.5 -17.5t-18.5 -25.5q-23 -39 -34 -93.5t-11 -136.5v-400l-528 602v-285q0 -78 8.5 -127.5t28.5 -82.5q19 -32 43.5 -46t68.5 -18v-10h-317v10q43 7 73 26t48 53.5t26 86
t7 125.5l1 181q0 33 -2 55t-8 38t-16.5 28t-27.5 25q-24 16 -47.5 22.5t-53.5 6.5v10h326zM585 864q-11 -55 -37.5 -85t-64.5 -30q-18 0 -38 4t-61 18q-24 7 -40.5 12t-28 8t-19 4t-14.5 1q-34 0 -52 -44h-11q8 60 36 93t70 33q9 0 16 -0.5t17.5 -3t28 -8t47.5 -14.5
t58.5 -15.5t40.5 -6.5q14 0 23 7t18 27h11z" />
    <glyph glyph-name="Ograve" unicode="&#xd2;" horiz-adv-x="773" 
d="M386 680q133 0 237 -85q127 -102 127 -266q0 -71 -29 -133t-78.5 -108.5t-115.5 -73.5t-141 -27q-133 0 -236 85q-127 102 -127 262q0 79 32 145.5t95 115.5q106 85 236 85zM386 667q-38 0 -68 -21t-44 -58q-17 -44 -25.5 -107.5t-8.5 -146.5q0 -168 34 -255
q14 -37 44 -58t69 -21q38 0 68 21t44 58q17 44 25.5 107t8.5 144q0 86 -8.5 151t-25.5 107q-15 37 -45 58t-68 21zM439 720l-49 27q-16 8 -32.5 15t-42.5 15q-45 14 -64 30t-19 42q0 24 16.5 41t40.5 17q13 0 23.5 -3.5t20.5 -13t20.5 -25.5t24.5 -41q4 -8 12 -19l16 -22
l42 -53z" />
    <glyph glyph-name="Oacute" unicode="&#xd3;" horiz-adv-x="773" 
d="M386 680q133 0 237 -85q127 -102 127 -266q0 -71 -29 -133t-78.5 -108.5t-115.5 -73.5t-141 -27q-133 0 -236 85q-127 102 -127 262q0 79 32 145.5t95 115.5q106 85 236 85zM386 667q-38 0 -68 -21t-44 -58q-17 -44 -25.5 -107.5t-8.5 -146.5q0 -168 34 -255
q14 -37 44 -58t69 -21q38 0 68 21t44 58q17 44 25.5 107t8.5 144q0 86 -8.5 151t-25.5 107q-15 37 -45 58t-68 21zM367 783q8 10 13 16.5t9 13t8.5 14.5t11.5 22q32 58 75 58q23 0 39.5 -17t16.5 -41q0 -26 -18.5 -42t-63.5 -30q-26 -8 -42.5 -14.5t-32.5 -15.5l-49 -27
l-9 10z" />
    <glyph glyph-name="Ocircumflex" unicode="&#xd4;" horiz-adv-x="773" 
d="M386 680q133 0 237 -85q127 -102 127 -266q0 -71 -29 -133t-78.5 -108.5t-115.5 -73.5t-141 -27q-133 0 -236 85q-127 102 -127 262q0 79 32 145.5t95 115.5q106 85 236 85zM386 667q-38 0 -68 -21t-44 -58q-17 -44 -25.5 -107.5t-8.5 -146.5q0 -168 34 -255
q14 -37 44 -58t69 -21q38 0 68 21t44 58q17 44 25.5 107t8.5 144q0 86 -8.5 151t-25.5 107q-15 37 -45 58t-68 21zM562 739l-176 57l-175 -57l-8 9l150 140h67l150 -140z" />
    <glyph glyph-name="Otilde" unicode="&#xd5;" horiz-adv-x="773" 
d="M386 680q133 0 237 -85q127 -102 127 -266q0 -71 -29 -133t-78.5 -108.5t-115.5 -73.5t-141 -27q-133 0 -236 85q-127 102 -127 262q0 79 32 145.5t95 115.5q106 85 236 85zM386 667q-38 0 -68 -21t-44 -58q-17 -44 -25.5 -107.5t-8.5 -146.5q0 -168 34 -255
q14 -37 44 -58t69 -21q38 0 68 21t44 58q17 44 25.5 107t8.5 144q0 86 -8.5 151t-25.5 107q-15 37 -45 58t-68 21zM570 864q-11 -55 -38 -85t-65 -30q-9 0 -17.5 1t-19.5 3.5t-26 6.5t-36 11q-24 7 -40.5 12t-27.5 8t-18.5 4t-14.5 1q-34 0 -53 -44h-11q8 60 36.5 93
t70.5 33q9 0 16 -0.5t17.5 -3t27.5 -8t47 -14.5t59 -15.5t40 -6.5q15 0 23.5 7t18.5 27h11z" />
    <glyph glyph-name="Odieresis" unicode="&#xd6;" horiz-adv-x="773" 
d="M386 680q133 0 237 -85q127 -102 127 -266q0 -71 -29 -133t-78.5 -108.5t-115.5 -73.5t-141 -27q-133 0 -236 85q-127 102 -127 262q0 79 32 145.5t95 115.5q106 85 236 85zM386 667q-38 0 -68 -21t-44 -58q-17 -44 -25.5 -107.5t-8.5 -146.5q0 -168 34 -255
q14 -37 44 -58t69 -21q38 0 68 21t44 58q17 44 25.5 107t8.5 144q0 86 -8.5 151t-25.5 107q-15 37 -45 58t-68 21zM267 901q38 0 63 -25.5t25 -63.5q0 -18 -7 -33.5t-19 -27t-27.5 -18.5t-33.5 -7q-37 0 -62.5 25.5t-25.5 62.5q0 36 25.5 61.5t61.5 25.5zM504 901
q38 0 63 -25.5t25 -63.5q0 -18 -7 -33.5t-19 -27t-27.5 -18.5t-33.5 -7q-37 0 -62.5 25.5t-25.5 62.5q0 36 25.5 61.5t61.5 25.5z" />
    <glyph glyph-name="multiply" unicode="&#xd7;" horiz-adv-x="553" 
d="M57 100l-14 14l219 219l-219 220l14 14l219 -220l220 220l14 -14l-220 -220l220 -219l-14 -14l-220 219z" />
    <glyph glyph-name="Oslash" unicode="&#xd8;" horiz-adv-x="737" 
d="M125 0h-17l42 57q-75 57 -110 123.5t-35 152.5q0 160 127 262q103 85 236 85q55 0 102 -13t95 -42l34 47h16l-39 -54q81 -59 118.5 -126.5t37.5 -157.5q0 -160 -127 -262q-103 -85 -238 -85q-56 0 -103.5 14.5t-102.5 48.5zM235 152q16 -80 47.5 -116t85.5 -36
q38 0 68.5 21t44.5 58q17 44 25.5 107.5t8.5 145.5q0 51 -3.5 98.5t-9.5 85.5zM498 534q-17 69 -47.5 101t-81.5 32q-38 0 -68.5 -21t-44.5 -58q-34 -87 -34 -257q0 -43 2.5 -82t7.5 -79z" />
    <glyph glyph-name="Ugrave" unicode="&#xd9;" horiz-adv-x="753" 
d="M774 657q-39 -8 -61.5 -31t-39.5 -71q-14 -42 -21 -104.5t-7 -145.5v-77q0 -40 -4 -70.5t-13.5 -53.5t-25 -41t-37.5 -33q-64 -43 -176 -43q-143 0 -225 56q-20 13 -34 29.5t-22 38.5t-11.5 51t-3.5 69v265q0 35 -0.5 57.5t-2.5 36.5t-5.5 22.5t-9.5 16.5q-10 14 -26 20
t-49 8v10h377v-10q-32 -2 -46.5 -8t-23.5 -20q-6 -8 -9 -16.5t-5 -23t-2.5 -36.5t-0.5 -57v-234q0 -39 1 -67t3.5 -48t7 -34.5t11.5 -26.5q17 -30 55.5 -47.5t86.5 -17.5q51 0 89 17.5t60 50.5q8 12 13.5 25t8.5 29.5t4.5 37t1.5 47.5v91q0 162 -26 245q-6 20 -13.5 34.5
t-17.5 25t-23.5 18.5t-31.5 15v10h254v-10zM462 720l-48 27q-16 8 -33 15t-42 15q-45 14 -64 30t-19 42q0 24 16.5 41t40.5 17q13 0 23.5 -3.5t20 -13t20 -25.5t24.5 -41q5 -8 12.5 -19.5t15.5 -21.5l43 -53z" />
    <glyph glyph-name="Uacute" unicode="&#xda;" horiz-adv-x="753" 
d="M774 657q-39 -8 -61.5 -31t-39.5 -71q-14 -42 -21 -104.5t-7 -145.5v-77q0 -40 -4 -70.5t-13.5 -53.5t-25 -41t-37.5 -33q-64 -43 -176 -43q-143 0 -225 56q-20 13 -34 29.5t-22 38.5t-11.5 51t-3.5 69v265q0 35 -0.5 57.5t-2.5 36.5t-5.5 22.5t-9.5 16.5q-10 14 -26 20
t-49 8v10h377v-10q-32 -2 -46.5 -8t-23.5 -20q-6 -8 -9 -16.5t-5 -23t-2.5 -36.5t-0.5 -57v-234q0 -39 1 -67t3.5 -48t7 -34.5t11.5 -26.5q17 -30 55.5 -47.5t86.5 -17.5q51 0 89 17.5t60 50.5q8 12 13.5 25t8.5 29.5t4.5 37t1.5 47.5v91q0 162 -26 245q-6 20 -13.5 34.5
t-17.5 25t-23.5 18.5t-31.5 15v10h254v-10zM391 783q8 10 12.5 16.5t8.5 13t8.5 14.5t12.5 22q31 58 75 58q23 0 39.5 -17t16.5 -41q0 -26 -19 -42t-64 -30q-25 -8 -41.5 -14.5t-32.5 -15.5l-49 -27l-10 10z" />
    <glyph glyph-name="Ucircumflex" unicode="&#xdb;" horiz-adv-x="753" 
d="M774 657q-39 -8 -61.5 -31t-39.5 -71q-14 -42 -21 -104.5t-7 -145.5v-77q0 -40 -4 -70.5t-13.5 -53.5t-25 -41t-37.5 -33q-64 -43 -176 -43q-143 0 -225 56q-20 13 -34 29.5t-22 38.5t-11.5 51t-3.5 69v265q0 35 -0.5 57.5t-2.5 36.5t-5.5 22.5t-9.5 16.5q-10 14 -26 20
t-49 8v10h377v-10q-32 -2 -46.5 -8t-23.5 -20q-6 -8 -9 -16.5t-5 -23t-2.5 -36.5t-0.5 -57v-234q0 -39 1 -67t3.5 -48t7 -34.5t11.5 -26.5q17 -30 55.5 -47.5t86.5 -17.5q51 0 89 17.5t60 50.5q8 12 13.5 25t8.5 29.5t4.5 37t1.5 47.5v91q0 162 -26 245q-6 20 -13.5 34.5
t-17.5 25t-23.5 18.5t-31.5 15v10h254v-10zM586 739l-176 57l-176 -57l-7 9l149 140h68l149 -140z" />
    <glyph glyph-name="Udieresis" unicode="&#xdc;" horiz-adv-x="753" 
d="M774 657q-39 -8 -61.5 -31t-39.5 -71q-14 -42 -21 -104.5t-7 -145.5v-77q0 -40 -4 -70.5t-13.5 -53.5t-25 -41t-37.5 -33q-64 -43 -176 -43q-143 0 -225 56q-20 13 -34 29.5t-22 38.5t-11.5 51t-3.5 69v265q0 35 -0.5 57.5t-2.5 36.5t-5.5 22.5t-9.5 16.5q-10 14 -26 20
t-49 8v10h377v-10q-32 -2 -46.5 -8t-23.5 -20q-6 -8 -9 -16.5t-5 -23t-2.5 -36.5t-0.5 -57v-234q0 -39 1 -67t3.5 -48t7 -34.5t11.5 -26.5q17 -30 55.5 -47.5t86.5 -17.5q51 0 89 17.5t60 50.5q8 12 13.5 25t8.5 29.5t4.5 37t1.5 47.5v91q0 162 -26 245q-6 20 -13.5 34.5
t-17.5 25t-23.5 18.5t-31.5 15v10h254v-10zM291 901q38 0 63 -25.5t25 -63.5q0 -18 -7 -33.5t-19 -27t-27.5 -18.5t-33.5 -7q-37 0 -62.5 25.5t-25.5 62.5q0 36 25.5 61.5t61.5 25.5zM527 901q38 0 63 -25.5t25 -63.5q0 -18 -7 -33.5t-19 -27t-27.5 -18.5t-33.5 -7
q-37 0 -62.5 25.5t-25.5 62.5q0 36 25.5 61.5t61.5 25.5z" />
    <glyph glyph-name="Yacute" unicode="&#xdd;" horiz-adv-x="757" 
d="M473 171q0 -35 0.5 -57t2.5 -36.5t5.5 -23t9.5 -16.5q11 -14 26.5 -20t48.5 -8v-10h-383v10q33 2 48.5 8t26.5 20q6 8 9.5 16.5t5.5 22.5t2.5 36.5t0.5 57.5v100l-164 273q-19 31 -34.5 51.5t-30.5 33t-31 19t-36 9.5v10h387v-10q-53 -6 -53 -49q0 -17 8.5 -39.5
t28.5 -54.5l114 -189l34 55q67 107 67 193q0 37 -10 56.5t-33 27.5v10h254v-10q-98 -15 -253 -259l-51 -84v-143zM393 783q8 10 12.5 16.5t8.5 13t8.5 14.5t12.5 22q31 58 75 58q23 0 39.5 -17t16.5 -41q0 -26 -19 -42t-64 -30q-25 -8 -41.5 -14.5t-32.5 -15.5l-49 -27
l-10 10z" />
    <glyph glyph-name="Thorn" unicode="&#xde;" horiz-adv-x="684" 
d="M297 153q0 -44 3.5 -71t15 -42.5t32.5 -21.5t55 -8v-10h-396v10q33 2 49 8t26 20q6 8 9.5 16.5t5.5 22.5t2.5 36.5t0.5 57.5v324q0 35 -0.5 57.5t-2.5 37t-5.5 23t-9.5 16.5q-10 14 -25.5 20t-49.5 8v10h383v-10q-28 -3 -46 -10t-28.5 -20.5t-14.5 -36.5t-4 -57h52
q74 0 133 -13t100.5 -37.5t63.5 -60t22 -79.5q0 -46 -26 -85t-74 -62q-23 -12 -47.5 -20t-53.5 -13t-63.5 -7.5t-77.5 -2.5h-29zM322 165q37 0 63 9t42.5 30.5t23.5 56.5t7 85q0 95 -31 135t-103 40h-27v-356h25z" />
    <glyph glyph-name="germandbls" unicode="&#xdf;" horiz-adv-x="701" 
d="M257 0h-277v10q36 2 53.5 6.5t28.5 15.5q5 5 8.5 12t5.5 18t3 27t1 39v385q0 38 3.5 68t11.5 53t21 41.5t31 33.5q53 44 142 44q65 0 121.5 -14.5t98 -40t65 -60.5t23.5 -75q0 -32 -16 -58.5t-42 -40.5q-18 -9 -37 -12.5t-48 -3.5q-14 0 -29 0.5t-38 2.5
q73 -15 121.5 -36t85.5 -53q84 -74 84 -178q0 -43 -15 -79t-42 -62.5t-64.5 -41t-81.5 -14.5q-54 0 -94.5 17t-75.5 55l7 6q24 -19 38.5 -25.5t34.5 -6.5q47 0 73.5 41.5t26.5 115.5q0 80 -25.5 144.5t-69.5 92.5q-22 14 -43 20t-56 7v10q18 0 31 1.5t22 3.5t15.5 6.5
t13.5 10.5q37 33 37 106q0 66 -28 107t-73 41q-11 0 -22 -2t-30 -9v-729z" />
    <glyph glyph-name="agrave" unicode="&#xe0;" horiz-adv-x="605" 
d="M616 67q-52 -43 -90 -61.5t-76 -18.5q-82 0 -101 95q-36 -51 -78 -73t-102 -22q-63 0 -102.5 30.5t-39.5 79.5q0 22 7.5 40t24.5 34t45 32t69 33q36 16 80 31t96 30v52q0 51 -3 76.5t-11 37.5q-17 24 -45 24q-22 0 -40.5 -10.5t-27.5 -29.5q-3 -7 -5.5 -12.5t-4 -14
t-3.5 -22.5t-5 -38q-6 -48 -34.5 -75.5t-71.5 -27.5q-31 0 -50.5 19.5t-19.5 50.5q0 62 91 112q28 16 63.5 29.5t72 23.5t73 15.5t68.5 5.5q30 0 52 -6.5t39 -21.5q22 -17 30.5 -42t8.5 -68v-230q0 -29 1 -41.5t6 -21.5q4 -10 14 -15.5t23 -5.5q9 0 17.5 2.5t22.5 10.5z
M349 285q-34 -11 -57 -23t-36.5 -28t-19 -37t-5.5 -49q0 -45 14.5 -69t43.5 -24q28 0 44 20t16 55v155zM355 548l-49 28q-15 8 -31.5 14.5t-42.5 14.5q-46 14 -64.5 30t-18.5 42q0 25 16.5 41.5t40.5 16.5q13 0 23 -3.5t20 -13t20.5 -25.5t24.5 -41q5 -8 12.5 -19t15.5 -22
l43 -53z" />
    <glyph glyph-name="aacute" unicode="&#xe1;" horiz-adv-x="605" 
d="M616 67q-52 -43 -90 -61.5t-76 -18.5q-82 0 -101 95q-36 -51 -78 -73t-102 -22q-63 0 -102.5 30.5t-39.5 79.5q0 22 7.5 40t24.5 34t45 32t69 33q36 16 80 31t96 30v52q0 51 -3 76.5t-11 37.5q-17 24 -45 24q-22 0 -40.5 -10.5t-27.5 -29.5q-3 -7 -5.5 -12.5t-4 -14
t-3.5 -22.5t-5 -38q-6 -48 -34.5 -75.5t-71.5 -27.5q-31 0 -50.5 19.5t-19.5 50.5q0 62 91 112q28 16 63.5 29.5t72 23.5t73 15.5t68.5 5.5q30 0 52 -6.5t39 -21.5q22 -17 30.5 -42t8.5 -68v-230q0 -29 1 -41.5t6 -21.5q4 -10 14 -15.5t23 -5.5q9 0 17.5 2.5t22.5 10.5z
M349 285q-34 -11 -57 -23t-36.5 -28t-19 -37t-5.5 -49q0 -45 14.5 -69t43.5 -24q28 0 44 20t16 55v155zM284 611q8 10 12.5 17t8.5 13.5t8.5 14.5t12.5 22q31 57 75 57q23 0 39.5 -17t16.5 -41q0 -26 -18.5 -42t-64.5 -30q-26 -8 -42.5 -14.5t-31.5 -14.5l-49 -28l-10 10z
" />
    <glyph glyph-name="acircumflex" unicode="&#xe2;" horiz-adv-x="605" 
d="M616 67q-52 -43 -90 -61.5t-76 -18.5q-82 0 -101 95q-36 -51 -78 -73t-102 -22q-63 0 -102.5 30.5t-39.5 79.5q0 22 7.5 40t24.5 34t45 32t69 33q36 16 80 31t96 30v52q0 51 -3 76.5t-11 37.5q-17 24 -45 24q-22 0 -40.5 -10.5t-27.5 -29.5q-3 -7 -5.5 -12.5t-4 -14
t-3.5 -22.5t-5 -38q-6 -48 -34.5 -75.5t-71.5 -27.5q-31 0 -50.5 19.5t-19.5 50.5q0 62 91 112q28 16 63.5 29.5t72 23.5t73 15.5t68.5 5.5q30 0 52 -6.5t39 -21.5q22 -17 30.5 -42t8.5 -68v-230q0 -29 1 -41.5t6 -21.5q4 -10 14 -15.5t23 -5.5q9 0 17.5 2.5t22.5 10.5z
M349 285q-34 -11 -57 -23t-36.5 -28t-19 -37t-5.5 -49q0 -45 14.5 -69t43.5 -24q28 0 44 20t16 55v155zM463 580l-160 52l-160 -52l-7 7l136 128h62l136 -128z" />
    <glyph glyph-name="atilde" unicode="&#xe3;" horiz-adv-x="605" 
d="M616 67q-52 -43 -90 -61.5t-76 -18.5q-82 0 -101 95q-36 -51 -78 -73t-102 -22q-63 0 -102.5 30.5t-39.5 79.5q0 22 7.5 40t24.5 34t45 32t69 33q36 16 80 31t96 30v52q0 51 -3 76.5t-11 37.5q-17 24 -45 24q-22 0 -40.5 -10.5t-27.5 -29.5q-3 -7 -5.5 -12.5t-4 -14
t-3.5 -22.5t-5 -38q-6 -48 -34.5 -75.5t-71.5 -27.5q-31 0 -50.5 19.5t-19.5 50.5q0 62 91 112q28 16 63.5 29.5t72 23.5t73 15.5t68.5 5.5q30 0 52 -6.5t39 -21.5q22 -17 30.5 -42t8.5 -68v-230q0 -29 1 -41.5t6 -21.5q4 -10 14 -15.5t23 -5.5q9 0 17.5 2.5t22.5 10.5z
M349 285q-34 -11 -57 -23t-36.5 -28t-19 -37t-5.5 -49q0 -45 14.5 -69t43.5 -24q28 0 44 20t16 55v155zM470 698q-10 -55 -34 -85t-59 -30q-8 0 -16 1t-18 3.5t-23.5 6.5t-33.5 11q-23 7 -38 12t-24.5 7.5t-16.5 3.5t-13 1q-31 0 -48 -43h-10q8 59 33.5 92t63.5 33
q8 0 14.5 -0.5t16 -3t25.5 -7.5t43 -14q28 -10 53.5 -16t36.5 -6q14 0 21.5 7t16.5 27h10z" />
    <glyph glyph-name="adieresis" unicode="&#xe4;" horiz-adv-x="605" 
d="M616 67q-52 -43 -90 -61.5t-76 -18.5q-82 0 -101 95q-36 -51 -78 -73t-102 -22q-63 0 -102.5 30.5t-39.5 79.5q0 22 7.5 40t24.5 34t45 32t69 33q36 16 80 31t96 30v52q0 51 -3 76.5t-11 37.5q-17 24 -45 24q-22 0 -40.5 -10.5t-27.5 -29.5q-3 -7 -5.5 -12.5t-4 -14
t-3.5 -22.5t-5 -38q-6 -48 -34.5 -75.5t-71.5 -27.5q-31 0 -50.5 19.5t-19.5 50.5q0 62 91 112q28 16 63.5 29.5t72 23.5t73 15.5t68.5 5.5q30 0 52 -6.5t39 -21.5q22 -17 30.5 -42t8.5 -68v-230q0 -29 1 -41.5t6 -21.5q4 -10 14 -15.5t23 -5.5q9 0 17.5 2.5t22.5 10.5z
M349 285q-34 -11 -57 -23t-36.5 -28t-19 -37t-5.5 -49q0 -45 14.5 -69t43.5 -24q28 0 44 20t16 55v155zM195 727q34 0 57 -23t23 -57q0 -32 -23.5 -55.5t-55.5 -23.5q-33 0 -56.5 23.5t-23.5 56.5q0 32 23.5 55.5t55.5 23.5zM409 727q34 0 57 -23t23 -57q0 -32 -23.5 -55.5
t-55.5 -23.5q-33 0 -56.5 23.5t-23.5 56.5q0 32 23.5 55.5t55.5 23.5z" />
    <glyph glyph-name="aring" unicode="&#xe5;" horiz-adv-x="605" 
d="M616 67q-52 -43 -90 -61.5t-76 -18.5q-82 0 -101 95q-36 -51 -78 -73t-102 -22q-63 0 -102.5 30.5t-39.5 79.5q0 22 7.5 40t24.5 34t45 32t69 33q36 16 80 31t96 30v52q0 51 -3 76.5t-11 37.5q-17 24 -45 24q-22 0 -40.5 -10.5t-27.5 -29.5q-3 -7 -5.5 -12.5t-4 -14
t-3.5 -22.5t-5 -38q-6 -48 -34.5 -75.5t-71.5 -27.5q-31 0 -50.5 19.5t-19.5 50.5q0 62 91 112q28 16 63.5 29.5t72 23.5t73 15.5t68.5 5.5q30 0 52 -6.5t39 -21.5q22 -17 30.5 -42t8.5 -68v-230q0 -29 1 -41.5t6 -21.5q4 -10 14 -15.5t23 -5.5q9 0 17.5 2.5t22.5 10.5z
M349 285q-34 -11 -57 -23t-36.5 -28t-19 -37t-5.5 -49q0 -45 14.5 -69t43.5 -24q28 0 44 20t16 55v155zM303 750q20 0 37.5 -7t30.5 -20t20.5 -30t7.5 -36q0 -37 -28 -63.5t-68 -26.5q-20 0 -37.5 7t-30.5 19.5t-20.5 29.5t-7.5 36q0 38 28 64.5t68 26.5zM303 737
q-20 0 -29.5 -18.5t-9.5 -59.5q0 -42 9.5 -60.5t29.5 -18.5t29.5 18.5t9.5 59.5q0 42 -9.5 60.5t-29.5 18.5z" />
    <glyph glyph-name="ae" unicode="&#xe6;" horiz-adv-x="892" 
d="M535 294q0 -89 42 -137t120 -48q54 0 92.5 20t72.5 65l10 -4q-10 -23 -18 -39t-15.5 -29t-15 -24t-16.5 -23q-34 -43 -83.5 -65.5t-112.5 -22.5q-59 0 -104.5 18.5t-85.5 57.5q-48 -21 -85.5 -35.5t-68 -23.5t-56 -13t-49.5 -4q-59 0 -97 30t-38 78q0 29 17 54.5t54.5 49
t98.5 47.5t150 50v52q0 40 -3 66.5t-10.5 42.5t-19 23t-29.5 7q-20 0 -36.5 -9t-25.5 -25q-11 -19 -19 -73q-3 -20 -5.5 -34t-5.5 -24t-8 -18t-12 -16q-13 -16 -32.5 -24.5t-42.5 -8.5q-32 0 -51 19t-19 50q0 35 22 62.5t73 54.5q30 16 64 29.5t68 23t66.5 14.5t60.5 5
q36 0 60.5 -9t47.5 -30q38 21 68 30t65 9q56 0 107.5 -25t85.5 -68q23 -29 33.5 -57.5t12.5 -68.5h-327zM347 284q-38 -13 -57 -23t-32 -24q-31 -34 -31 -119q0 -50 13 -72t42 -22q14 0 28.5 6.5t22.5 17.5q4 6 7 11.5t4.5 13.5t2 20t0.5 30v161zM688 306q0 28 -0.5 47.5
t-1.5 34.5t-2.5 27t-4.5 24q-12 61 -58 61q-43 0 -64 -47t-22 -147h153z" />
    <glyph glyph-name="ccedilla" unicode="&#xe7;" horiz-adv-x="542" 
d="M529 177q-39 -92 -102.5 -141t-142.5 -50q-2 -7 -4 -12t-6 -13q40 -4 61.5 -23.5t21.5 -52.5q0 -35 -25 -59.5t-61 -24.5q-23 0 -41.5 11t-18.5 25q0 13 13 13q11 0 20 -16q7 -12 12.5 -16t15.5 -4q14 0 22.5 9.5t8.5 24.5q0 23 -18 38.5t-45 15.5h-9.5t-12.5 -2
q17 20 31.5 43t21.5 43q-85 3 -147 47q-46 32 -73.5 89t-27.5 120q0 57 21.5 106.5t59.5 86t89 57.5t110 21q44 0 82 -13t66.5 -35t45 -52.5t16.5 -64.5q0 -38 -23.5 -63.5t-58.5 -25.5q-37 0 -60.5 24.5t-23.5 62.5q0 11 2 21.5t8 29.5q5 16 6.5 25t1.5 18q0 26 -17.5 43
t-43.5 17q-23 0 -42.5 -14.5t-34 -39.5t-23 -59.5t-8.5 -73.5q0 -45 12 -81.5t34.5 -62.5t54 -40t70.5 -14q44 0 79.5 16.5t70.5 51.5z" />
    <glyph glyph-name="egrave" unicode="&#xe8;" horiz-adv-x="564" 
d="M209 298q1 -186 167 -186q54 0 91 20.5t68 66.5l9 -4q-8 -22 -15.5 -39t-15 -31t-16.5 -26t-19 -25q-35 -42 -84 -64.5t-107 -22.5q-56 0 -104.5 19.5t-84 54t-55.5 81.5t-20 101q0 57 21 106t58 85.5t86.5 57.5t106.5 21q63 0 115.5 -25.5t87.5 -73.5q19 -26 28 -51.5
t14 -64.5h-331zM362 310q0 50 -1.5 77.5t-5.5 47.5q-14 65 -62 65q-41 0 -63 -49t-22 -141h154zM341 548l-49 28q-16 8 -32.5 14.5t-42.5 14.5q-45 14 -63.5 30t-18.5 42q0 25 16.5 41.5t39.5 16.5q13 0 23.5 -3.5t20.5 -13t20.5 -25.5t24.5 -41q4 -8 12 -19.5t16 -21.5
l42 -53z" />
    <glyph glyph-name="eacute" unicode="&#xe9;" horiz-adv-x="564" 
d="M209 298q1 -186 167 -186q54 0 91 20.5t68 66.5l9 -4q-8 -22 -15.5 -39t-15 -31t-16.5 -26t-19 -25q-35 -42 -84 -64.5t-107 -22.5q-56 0 -104.5 19.5t-84 54t-55.5 81.5t-20 101q0 57 21 106t58 85.5t86.5 57.5t106.5 21q63 0 115.5 -25.5t87.5 -73.5q19 -26 28 -51.5
t14 -64.5h-331zM362 310q0 50 -1.5 77.5t-5.5 47.5q-14 65 -62 65q-41 0 -63 -49t-22 -141h154zM269 611q8 10 12.5 16.5t8.5 13t8.5 15t12.5 22.5q32 57 75 57q24 0 40.5 -17t16.5 -41q0 -26 -19 -42t-64 -30q-26 -8 -43 -14.5t-32 -14.5l-49 -28l-9 10z" />
    <glyph glyph-name="ecircumflex" unicode="&#xea;" horiz-adv-x="564" 
d="M209 298q1 -186 167 -186q54 0 91 20.5t68 66.5l9 -4q-8 -22 -15.5 -39t-15 -31t-16.5 -26t-19 -25q-35 -42 -84 -64.5t-107 -22.5q-56 0 -104.5 19.5t-84 54t-55.5 81.5t-20 101q0 57 21 106t58 85.5t86.5 57.5t106.5 21q63 0 115.5 -25.5t87.5 -73.5q19 -26 28 -51.5
t14 -64.5h-331zM362 310q0 50 -1.5 77.5t-5.5 47.5q-14 65 -62 65q-41 0 -63 -49t-22 -141h154zM448 580l-159 52l-160 -52l-7 7l136 128h61l136 -128z" />
    <glyph glyph-name="edieresis" unicode="&#xeb;" horiz-adv-x="564" 
d="M209 298q1 -186 167 -186q54 0 91 20.5t68 66.5l9 -4q-8 -22 -15.5 -39t-15 -31t-16.5 -26t-19 -25q-35 -42 -84 -64.5t-107 -22.5q-56 0 -104.5 19.5t-84 54t-55.5 81.5t-20 101q0 57 21 106t58 85.5t86.5 57.5t106.5 21q63 0 115.5 -25.5t87.5 -73.5q19 -26 28 -51.5
t14 -64.5h-331zM362 310q0 50 -1.5 77.5t-5.5 47.5q-14 65 -62 65q-41 0 -63 -49t-22 -141h154zM180 727q34 0 57 -23t23 -57q0 -32 -23.5 -55.5t-55.5 -23.5q-33 0 -56.5 23.5t-23.5 56.5q0 32 23.5 55.5t55.5 23.5zM395 727q34 0 57 -23t23 -57q0 -32 -23.5 -55.5
t-55.5 -23.5q-33 0 -56.5 23.5t-23.5 56.5q0 32 23.5 55.5t55.5 23.5z" />
    <glyph glyph-name="igrave" unicode="&#xec;" horiz-adv-x="343" 
d="M0 436q33 7 70.5 17t73.5 20.5t67.5 21t52.5 18.5v-385q0 -38 2.5 -60.5t10 -35t22 -17t38.5 -5.5v-10h-323v10q24 1 38.5 5.5t22 16.5t10 35t2.5 61v164q0 45 -4 67t-16 38q-11 14 -25.5 20.5t-39.5 8.5zM224 548l-49 28q-16 8 -32.5 14.5t-42.5 14.5q-45 14 -63.5 30
t-18.5 42q0 24 16.5 41t39.5 17q13 0 23.5 -3.5t20.5 -13t20.5 -25.5t24.5 -41q4 -8 12 -19.5t16 -21.5l42 -53z" />
    <glyph glyph-name="iacute" unicode="&#xed;" horiz-adv-x="343" 
d="M0 436q33 7 70.5 17t73.5 20.5t67.5 21t52.5 18.5v-385q0 -38 2.5 -60.5t10 -35t22 -17t38.5 -5.5v-10h-323v10q24 1 38.5 5.5t22 16.5t10 35t2.5 61v164q0 45 -4 67t-16 38q-11 14 -25.5 20.5t-39.5 8.5zM152 611q8 10 13 17t9 13.5t8.5 14.5t12.5 22q31 57 74 57
q24 0 40.5 -16.5t16.5 -41.5q0 -26 -18.5 -42t-64.5 -30q-26 -8 -43 -14.5t-32 -14.5l-48 -28l-10 10z" />
    <glyph glyph-name="icircumflex" unicode="&#xee;" horiz-adv-x="343" 
d="M0 436q33 7 70.5 17t73.5 20.5t67.5 21t52.5 18.5v-385q0 -38 2.5 -60.5t10 -35t22 -17t38.5 -5.5v-10h-323v10q24 1 38.5 5.5t22 16.5t10 35t2.5 61v164q0 45 -4 67t-16 38q-11 14 -25.5 20.5t-39.5 8.5zM332 580l-160 52l-160 -52l-7 7l136 128h61l136 -128z" />
    <glyph glyph-name="idieresis" unicode="&#xef;" horiz-adv-x="343" 
d="M0 436q33 7 70.5 17t73.5 20.5t67.5 21t52.5 18.5v-385q0 -38 2.5 -60.5t10 -35t22 -17t38.5 -5.5v-10h-323v10q24 1 38.5 5.5t22 16.5t10 35t2.5 61v164q0 45 -4 67t-16 38q-11 14 -25.5 20.5t-39.5 8.5zM70 727q34 0 57 -23t23 -57q0 -32 -23.5 -55.5t-55.5 -23.5
q-33 0 -56.5 23.5t-23.5 56.5q0 32 23.5 55.5t55.5 23.5zM271 727q34 0 57 -23t23 -57q0 -32 -23.5 -55.5t-55.5 -23.5q-33 0 -56.5 23.5t-23.5 56.5q0 32 23.5 55.5t55.5 23.5z" />
    <glyph glyph-name="eth" unicode="&#xf0;" horiz-adv-x="599" 
d="M175 552l-8 11l112 88q-18 28 -36 50t-49 55l6 8q37 -20 64.5 -37.5t59.5 -41.5l105 83l9 -11l-104 -80q45 -37 83 -78.5t72 -90.5q87 -127 87 -255q0 -57 -21 -105.5t-58 -84t-87.5 -56t-109.5 -20.5t-109.5 20.5t-87.5 55.5t-58.5 83t-21.5 104q0 55 21.5 103.5
t58.5 83.5t87 55.5t108 20.5q11 0 20.5 -0.5t25.5 -2.5q-25 77 -58 129zM299 500q-41 0 -61 -44q-11 -23 -16.5 -78t-5.5 -128q0 -88 7.5 -143.5t22.5 -76.5q19 -30 54 -30q41 0 61 44q11 22 16.5 77t5.5 127q0 179 -30 223q-20 29 -54 29z" />
    <glyph glyph-name="ntilde" unicode="&#xf1;" horiz-adv-x="651" 
d="M264 418q26 27 48.5 45t44 29t43 16t46.5 5q34 0 61 -11t41 -31q13 -17 18 -40.5t5 -63.5v-259q0 -31 1.5 -49.5t8 -28.5t18.5 -14t32 -6v-10h-283v10q17 2 26 7.5t14 16.5q4 9 5 22.5t1 51.5v189q0 30 -0.5 49.5t-1.5 32t-3.5 20t-5.5 13.5q-6 11 -18 18t-26 7
q-36 0 -75 -35v-294q0 -30 1 -48.5t6 -29t14.5 -14.5t24.5 -6v-10h-303v10q27 1 42.5 5.5t24 16.5t11 35t2.5 61v164q0 45 -4 67t-16 38q-11 14 -25.5 20.5t-39.5 8.5l-2 10q34 7 66 15.5t64 18t65 20t69 23.5v-95zM512 698q-10 -55 -34 -85t-59 -30q-8 0 -15.5 1t-17.5 3.5
t-24 6.5t-33 11q-23 7 -38 12t-25 7.5t-16.5 3.5t-12.5 1q-32 0 -48 -43h-10q8 59 33.5 92t63.5 33q8 0 14 -0.5t16 -3t25.5 -7.5t43.5 -14q27 -10 52.5 -16t36.5 -6q14 0 21.5 7t16.5 27h10z" />
    <glyph glyph-name="ograve" unicode="&#xf2;" horiz-adv-x="599" 
d="M299 513q106 0 186 -67q47 -39 69 -88t22 -112q0 -54 -21.5 -101t-59 -82.5t-88 -55.5t-108.5 -20t-108.5 20.5t-87.5 55.5t-58.5 83t-21.5 104q0 55 21.5 103.5t58.5 83.5t87.5 55.5t108.5 20.5zM299 500q-41 0 -61 -44q-11 -23 -16.5 -78t-5.5 -128q0 -88 7.5 -143.5
t22.5 -76.5q19 -30 54 -30q41 0 61 44q11 22 16.5 77t5.5 127q0 179 -30 223q-20 29 -54 29zM351 548l-48 28q-16 8 -32.5 14.5t-42.5 14.5q-45 14 -64 30t-19 42q0 25 16.5 41.5t40.5 16.5q13 0 23.5 -3.5t20 -13t20 -25.5t24.5 -41q5 -8 13 -19.5t16 -21.5l42 -53z" />
    <glyph glyph-name="oacute" unicode="&#xf3;" horiz-adv-x="599" 
d="M299 513q106 0 186 -67q47 -39 69 -88t22 -112q0 -54 -21.5 -101t-59 -82.5t-88 -55.5t-108.5 -20t-108.5 20.5t-87.5 55.5t-58.5 83t-21.5 104q0 55 21.5 103.5t58.5 83.5t87.5 55.5t108.5 20.5zM299 500q-41 0 -61 -44q-11 -23 -16.5 -78t-5.5 -128q0 -88 7.5 -143.5
t22.5 -76.5q19 -30 54 -30q41 0 61 44q11 22 16.5 77t5.5 127q0 179 -30 223q-20 29 -54 29zM280 611q8 10 12.5 16.5t8.5 13t8.5 15t12.5 22.5q31 57 75 57q23 0 39.5 -17t16.5 -41q0 -26 -18.5 -42t-63.5 -30q-27 -8 -43.5 -14.5t-31.5 -14.5l-49 -28l-10 10z" />
    <glyph glyph-name="ocircumflex" unicode="&#xf4;" horiz-adv-x="599" 
d="M299 513q106 0 186 -67q47 -39 69 -88t22 -112q0 -54 -21.5 -101t-59 -82.5t-88 -55.5t-108.5 -20t-108.5 20.5t-87.5 55.5t-58.5 83t-21.5 104q0 55 21.5 103.5t58.5 83.5t87.5 55.5t108.5 20.5zM299 500q-41 0 -61 -44q-11 -23 -16.5 -78t-5.5 -128q0 -88 7.5 -143.5
t22.5 -76.5q19 -30 54 -30q41 0 61 44q11 22 16.5 77t5.5 127q0 179 -30 223q-20 29 -54 29zM459 580l-160 52l-160 -52l-6 7l136 128h61l136 -128z" />
    <glyph glyph-name="otilde" unicode="&#xf5;" horiz-adv-x="599" 
d="M299 513q106 0 186 -67q47 -39 69 -88t22 -112q0 -54 -21.5 -101t-59 -82.5t-88 -55.5t-108.5 -20t-108.5 20.5t-87.5 55.5t-58.5 83t-21.5 104q0 55 21.5 103.5t58.5 83.5t87.5 55.5t108.5 20.5zM299 500q-41 0 -61 -44q-11 -23 -16.5 -78t-5.5 -128q0 -88 7.5 -143.5
t22.5 -76.5q19 -30 54 -30q41 0 61 44q11 22 16.5 77t5.5 127q0 179 -30 223q-20 29 -54 29zM466 698q-10 -55 -34 -85t-59 -30q-8 0 -16 1t-18 3.5t-23.5 6.5t-32.5 11q-23 7 -38 12t-25 7.5t-17 3.5t-13 1q-31 0 -47 -43h-10q8 59 33.5 92t63.5 33q8 0 14 -0.5t15.5 -3
t25.5 -7.5t43 -14q28 -10 53.5 -16t36.5 -6q14 0 21.5 7t16.5 27h10z" />
    <glyph glyph-name="odieresis" unicode="&#xf6;" horiz-adv-x="599" 
d="M299 513q106 0 186 -67q47 -39 69 -88t22 -112q0 -54 -21.5 -101t-59 -82.5t-88 -55.5t-108.5 -20t-108.5 20.5t-87.5 55.5t-58.5 83t-21.5 104q0 55 21.5 103.5t58.5 83.5t87.5 55.5t108.5 20.5zM299 500q-41 0 -61 -44q-11 -23 -16.5 -78t-5.5 -128q0 -88 7.5 -143.5
t22.5 -76.5q19 -30 54 -30q41 0 61 44q11 22 16.5 77t5.5 127q0 179 -30 223q-20 29 -54 29zM191 727q34 0 57 -23t23 -57q0 -32 -23.5 -55.5t-55.5 -23.5q-33 0 -56.5 23.5t-23.5 56.5q0 32 23.5 55.5t55.5 23.5zM406 727q34 0 57 -23t23 -57q0 -32 -23.5 -55.5
t-55.5 -23.5q-33 0 -56.5 23.5t-23.5 56.5q0 32 23.5 55.5t55.5 23.5z" />
    <glyph glyph-name="divide" unicode="&#xf7;" horiz-adv-x="553" 
d="M543 343v-20h-533v20h533zM277 600q28 0 47 -19.5t19 -46.5q0 -28 -19.5 -47.5t-46.5 -19.5q-28 0 -47.5 19.5t-19.5 46.5q0 29 19.5 48t47.5 19zM277 200q28 0 47 -19.5t19 -46.5q0 -28 -19.5 -47.5t-46.5 -19.5q-28 0 -47.5 19.5t-19.5 46.5q0 29 19.5 48t47.5 19z" />
    <glyph glyph-name="oslash" unicode="&#xf8;" horiz-adv-x="599" 
d="M97 -24h-16l46 64q-54 42 -79 92t-25 115q0 55 21 103.5t58.5 83.5t87.5 55.5t109 20.5q40 0 74.5 -8.5t67.5 -27.5l42 58h15l-46 -65q66 -46 95 -97.5t29 -123.5q0 -56 -21.5 -104t-58.5 -83t-88 -55.5t-109 -20.5q-46 0 -83.5 11.5t-78.5 37.5zM220 146
q5 -82 23.5 -116t56.5 -34q43 0 61 44q11 23 16.5 78t5.5 132q0 29 -1 54.5t-4 60.5zM376 383q-8 62 -25.5 88t-51.5 26q-43 0 -61 -44q-5 -11 -9 -30.5t-7 -46t-4.5 -57t-1.5 -63.5q0 -4 0.5 -23t2.5 -67z" />
    <glyph glyph-name="ugrave" unicode="&#xf9;" horiz-adv-x="646" 
d="M389 81l-39 -34.5t-27 -19.5q-29 -20 -61 -30t-63 -10q-29 0 -56 12t-41 31q-12 17 -17 39.5t-5 64.5v223q0 35 -3 57.5t-11.5 35.5t-23 18t-38.5 7v10q19 0 50 3t66.5 6.5t71.5 8.5t65 10v-362q0 -27 2.5 -41.5t8.5 -25.5q7 -11 20 -18t29 -7q19 0 35.5 9t36.5 29v260
q0 35 -3 57.5t-11.5 35.5t-23 18t-38.5 7v10q19 0 50 3t66.5 6.5t71.5 8.5t65 10v-331q0 -32 3 -52.5t11.5 -33.5t22.5 -19t35 -9v-10q-35 -6 -62 -13t-61 -18l-126 -40v94zM375 548l-49 28q-15 8 -31.5 14.5t-42.5 14.5q-45 14 -64 30t-19 42q0 24 16.5 41t39.5 17
q13 0 23.5 -3.5t20.5 -13t20.5 -25.5t24.5 -41q4 -8 12 -19l16 -22l43 -53z" />
    <glyph glyph-name="uacute" unicode="&#xfa;" horiz-adv-x="646" 
d="M389 81l-39 -34.5t-27 -19.5q-29 -20 -61 -30t-63 -10q-29 0 -56 12t-41 31q-12 17 -17 39.5t-5 64.5v223q0 35 -3 57.5t-11.5 35.5t-23 18t-38.5 7v10q19 0 50 3t66.5 6.5t71.5 8.5t65 10v-362q0 -27 2.5 -41.5t8.5 -25.5q7 -11 20 -18t29 -7q19 0 35.5 9t36.5 29v260
q0 35 -3 57.5t-11.5 35.5t-23 18t-38.5 7v10q19 0 50 3t66.5 6.5t71.5 8.5t65 10v-331q0 -32 3 -52.5t11.5 -33.5t22.5 -19t35 -9v-10q-35 -6 -62 -13t-61 -18l-126 -40v94zM304 611q8 10 12.5 17t8.5 13.5t8.5 14.5t12.5 22q31 57 75 57q23 0 39.5 -17t16.5 -41
q0 -26 -18.5 -42t-64.5 -30q-26 -8 -42.5 -14.5t-32.5 -14.5l-48 -28l-10 10z" />
    <glyph glyph-name="ucircumflex" unicode="&#xfb;" horiz-adv-x="646" 
d="M389 81l-39 -34.5t-27 -19.5q-29 -20 -61 -30t-63 -10q-29 0 -56 12t-41 31q-12 17 -17 39.5t-5 64.5v223q0 35 -3 57.5t-11.5 35.5t-23 18t-38.5 7v10q19 0 50 3t66.5 6.5t71.5 8.5t65 10v-362q0 -27 2.5 -41.5t8.5 -25.5q7 -11 20 -18t29 -7q19 0 35.5 9t36.5 29v260
q0 35 -3 57.5t-11.5 35.5t-23 18t-38.5 7v10q19 0 50 3t66.5 6.5t71.5 8.5t65 10v-331q0 -32 3 -52.5t11.5 -33.5t22.5 -19t35 -9v-10q-35 -6 -62 -13t-61 -18l-126 -40v94zM483 580l-160 52l-160 -52l-7 7l136 128h61l137 -128z" />
    <glyph glyph-name="udieresis" unicode="&#xfc;" horiz-adv-x="646" 
d="M389 81l-39 -34.5t-27 -19.5q-29 -20 -61 -30t-63 -10q-29 0 -56 12t-41 31q-12 17 -17 39.5t-5 64.5v223q0 35 -3 57.5t-11.5 35.5t-23 18t-38.5 7v10q19 0 50 3t66.5 6.5t71.5 8.5t65 10v-362q0 -27 2.5 -41.5t8.5 -25.5q7 -11 20 -18t29 -7q19 0 35.5 9t36.5 29v260
q0 35 -3 57.5t-11.5 35.5t-23 18t-38.5 7v10q19 0 50 3t66.5 6.5t71.5 8.5t65 10v-331q0 -32 3 -52.5t11.5 -33.5t22.5 -19t35 -9v-10q-35 -6 -62 -13t-61 -18l-126 -40v94zM214 727q34 0 57 -23t23 -57q0 -32 -23.5 -55.5t-55.5 -23.5q-33 0 -56.5 23.5t-23.5 56.5
q0 32 23.5 55.5t55.5 23.5zM429 727q34 0 57 -23t23 -57q0 -32 -23.5 -55.5t-55.5 -23.5q-33 0 -56.5 23.5t-23.5 56.5q0 32 23.5 55.5t55.5 23.5z" />
    <glyph glyph-name="yacute" unicode="&#xfd;" horiz-adv-x="594" 
d="M378 186q22 43 36 73.5t22 54t11 43.5t3 42q0 42 -14 62t-48 29v10h227v-10q-20 -3 -38.5 -15t-38.5 -35.5t-42.5 -59t-48.5 -85.5l-176 -356q-38 -77 -81.5 -113t-97.5 -36q-52 0 -84.5 27.5t-32.5 72.5q0 38 25 62.5t63 24.5q26 0 44 -10.5t39 -37.5q15 -20 25 -27.5
t23 -7.5q15 0 31 11t27 29q3 5 5.5 9t5.5 9.5t7.5 14.5t11.5 24l-199 404q-13 28 -23.5 45.5t-21.5 28t-25 15t-33 6.5v10h328v-10q-44 -3 -44 -43q0 -28 22 -72zM278 611q8 10 12.5 16.5t8.5 13t8.5 15t12.5 22.5q32 57 75 57q24 0 40.5 -17t16.5 -41q0 -26 -19 -42
t-64 -30q-26 -8 -43 -14.5t-32 -14.5l-49 -28l-9 10z" />
    <glyph glyph-name="thorn" unicode="&#xfe;" horiz-adv-x="615" 
d="M257 448q41 35 76.5 50t73.5 15q41 0 75 -17.5t58.5 -49t38 -75t13.5 -96.5q0 -60 -18.5 -112.5t-50.5 -91.5t-75 -61.5t-93 -22.5q-29 0 -50.5 8t-47.5 28v-92q0 -38 3 -60.5t12 -35t26 -17t46 -5.5v-10h-357v10q34 2 49 8t26 20q6 8 9.5 16.5t5.5 22.5t2.5 36.5
t0.5 57.5v565q0 45 -4 66.5t-16 37.5q-11 15 -25.5 21.5t-39.5 7.5l-2 11q69 14 140 33t124 37v-305zM257 39q21 -21 49 -21q47 0 73 58.5t26 164.5q0 101 -23.5 158.5t-65.5 57.5q-13 0 -25.5 -5t-33.5 -19v-394z" />
    <glyph glyph-name="ydieresis" unicode="&#xff;" horiz-adv-x="594" 
d="M378 186q22 43 36 73.5t22 54t11 43.5t3 42q0 42 -14 62t-48 29v10h227v-10q-20 -3 -38.5 -15t-38.5 -35.5t-42.5 -59t-48.5 -85.5l-176 -356q-38 -77 -81.5 -113t-97.5 -36q-52 0 -84.5 27.5t-32.5 72.5q0 38 25 62.5t63 24.5q26 0 44 -10.5t39 -37.5q15 -20 25 -27.5
t23 -7.5q15 0 31 11t27 29q3 5 5.5 9t5.5 9.5t7.5 14.5t11.5 24l-199 404q-13 28 -23.5 45.5t-21.5 28t-25 15t-33 6.5v10h328v-10q-44 -3 -44 -43q0 -28 22 -72zM189 727q34 0 57 -23t23 -57q0 -32 -23.5 -55.5t-55.5 -23.5q-33 0 -56.5 23.5t-23.5 56.5q0 32 23.5 55.5
t55.5 23.5zM404 727q34 0 57 -23t23 -57q0 -32 -23.5 -55.5t-55.5 -23.5q-33 0 -56.5 23.5t-23.5 56.5q0 32 23.5 55.5t55.5 23.5z" />
    <glyph glyph-name="Zcaron" unicode="&#x17d;" horiz-adv-x="667" 
d="M246 12q53 -3 108.5 17.5t107 59.5t95 93t72.5 118h10l-56 -300h-570l406 655q-48 0 -101.5 -20.5t-103 -56t-91.5 -82.5t-66 -99h-10l64 270h542zM400 739h-67l-150 140l8 9l176 -57l175 57l8 -9z" />
    <glyph glyph-name="zcaron" unicode="&#x17e;" horiz-adv-x="566" 
d="M224 12q39 1 81.5 19t83 49.5t77.5 74.5t64 93l9 -3l-75 -265q-11 6 -19 10t-17.5 6.5t-22 3t-30.5 0.5h-362l307 488q-43 -7 -85.5 -25.5t-79.5 -45t-66 -58t-45 -65.5l-9 2l66 232q10 -17 22.5 -22.5t43.5 -5.5h363zM156 714l160 -52l160 52l7 -7l-136 -128h-61
l-136 128z" />
    <glyph glyph-name="uni00A0" unicode="&#xa0;" horiz-adv-x="250" 
 />
    <glyph glyph-name="uni000D" unicode="&#xd;" horiz-adv-x="0" 
 />
    <glyph glyph-name="space" unicode=" " horiz-adv-x="250" 
 />
    <glyph glyph-name="glyph220" horiz-adv-x="0" 
 />
    </font>
</defs>
</svg>
