<?xml version="1.0" encoding="UTF-8" standalone="no"?>
<!DOCTYPE svg  PUBLIC '-//W3C//DTD SVG 1.1//EN'  'http://www.w3.org/Graphics/SVG/1.1/DTD/svg11.dtd'>
<svg version="1.1" xmlns="http://www.w3.org/2000/svg">
<defs>
<font id="AtlasGrotesk-Black" horiz-adv-x="600">
<font-face unicode-range="U+0020-FB02" font-weight="900" bbox="-220 -242 1284 1211" ascent="800" cap-height="765" units-per-em="1000" x-height="541" underline-thickness="50" panose-1="0 0 0 0 0 0 0 0 0 0" font-family="AtlasGrotesk" underline-position="-150" descent="-200"/>
<missing-glyph horiz-adv-x="500"/>
<glyph glyph-name="f_f" d="M276 408v-408h-191v408h-66v133h66v39q0 114 54.5 160.5t156.5 46.5q24 0 46.5 -1.5t33.5 -3.5l11 -1v-131q-17 3 -42 3q-35 0 -52 -18t-17 -61v-33h187v47q0 114 54.5 160.5t156.5 46.5q24 0 46.5 -1.5t33.5 -3.5l11 -1v-131q-17 3 -42 3q-35 0 -52 -18t-17 -61v-41h93 v-133h-93v-408h-191v408h-187z" horiz-adv-x="756" unicode="ff"/>
<glyph glyph-name="fi" d="M276 408v-408h-191v408h-66v133h66v47q0 114 53.5 160.5t151.5 46.5q24 0 45.5 -1.5t30.5 -3.5l9 -1v-131q-16 3 -36 3q-63 0 -63 -79v-41h93v-133h-93zM432 0v541h196v-541h-196zM432 619v169h196v-169h-196z" horiz-adv-x="682" unicode="fi"/>
<glyph glyph-name="fl" d="M276 408v-408h-191v408h-66v133h66v47q0 114 53.5 160.5t151.5 46.5q24 0 45.5 -1.5t30.5 -3.5l9 -1v-131q-16 3 -36 3q-63 0 -63 -79v-41h93v-133h-93zM432 0v788h196v-788h-196z" horiz-adv-x="682" unicode="fl"/>
<glyph glyph-name=".notdef" horiz-adv-x="500"/>
<glyph glyph-name=".null" horiz-adv-x="0"/>
<glyph glyph-name="nonmarkingreturn" horiz-adv-x="333"/>
<glyph glyph-name="space" horiz-adv-x="205" unicode=" "/>
<glyph glyph-name="exclam" d="M281 0h-206v170h206v-170zM108 246l-43 542h227l-44 -542h-140z" horiz-adv-x="357" unicode="!"/>
<glyph glyph-name="quotedbl" d="M98 482l-20 283h164l-27 -283h-117zM328 482l-20 283h164l-27 -283h-117z" horiz-adv-x="550" unicode='&quot;'/>
<glyph glyph-name="numbersign" d="M132 99l24 169h-106v105h122l20 142h-112v105h127l22 145h99l-21 -145h100l22 145h100l-22 -145h110v-105h-125l-20 -142h115v-105h-131l-24 -169h-100l24 169h-101l-24 -169h-99zM271 373h101l21 142h-101z" horiz-adv-x="667" unicode="#"/>
<glyph glyph-name="dollar" d="M375 -116h-72v103q-124 7 -196 65t-77 164h192q8 -70 81 -86v162l-42 7q-108 18 -167 68.5t-59 153.5q0 93 70.5 155t197.5 70v82h72v-82q240 -14 260 -214h-192q-2 26 -19 48t-49 31v-153l42 -7q234 -37 234 -211q0 -113 -71.5 -179t-204.5 -74v-103zM375 128l4 1 q38 7 57 27.5t19 49.5q0 30 -19.5 46.5t-60.5 26.5v-151zM303 470v143q-73 -10 -73 -67t73 -76z" horiz-adv-x="682" unicode="$"/>
<glyph glyph-name="percent" d="M690 90q27 0 42.5 21.5t15.5 62.5t-15.5 63t-42.5 22q-57 0 -57 -85q0 -84 57 -84zM691 -7q-77 0 -127.5 47.5t-50.5 133.5t51 133t127 47q77 0 128 -46.5t51 -133.5q0 -86 -51.5 -133.5t-127.5 -47.5zM227 478q58 0 58 84q0 85 -58 85q-56 0 -56 -85q0 -84 56 -84z M228 381q-77 0 -127.5 47.5t-50.5 133.5t51.5 133t126.5 47q77 0 128.5 -47t51.5 -133t-52 -133.5t-128 -47.5zM135 -40l527 821h130l-527 -821h-130z" horiz-adv-x="922" unicode="%"/>
<glyph glyph-name="ampersand" d="M750 0h-42q-65 0 -98.5 12.5t-74.5 51.5q-90 -80 -207 -80q-132 0 -207 61t-75 166q0 68 37 121.5t115 101.5q-39 40 -55 76.5t-16 86.5q0 83 64 137t177 54q107 0 167 -47t60 -124q0 -65 -36.5 -111t-114.5 -104l89 -96q14 26 62 122h167l-36.5 -73t-47 -92t-40.5 -70 q31 -33 46 -39.5t66 -6.5v-147zM280 337l-3 -3q-44 -42 -44 -100q0 -47 32 -78t82 -31q47 0 91 42zM297 594q0 -26 11.5 -47.5t43.5 -53.5q41 30 62 54.5t21 55.5q0 32 -18.5 49t-49.5 17q-32 0 -51 -21t-19 -54z" horiz-adv-x="805" unicode="&amp;"/>
<glyph glyph-name="quotesingle" d="M98 482l-20 283h164l-27 -283h-117z" horiz-adv-x="320" unicode="&apos;"/>
<glyph glyph-name="parenleft" d="M369 -130h-139q-176 205 -176 459t176 459h139q-145 -233 -145 -459q0 -224 145 -459z" horiz-adv-x="372" unicode="("/>
<glyph glyph-name="parenright" d="M3 -130q145 235 145 459q0 226 -145 459h138q176 -202 176 -459t-176 -459h-138z" horiz-adv-x="358" unicode=")"/>
<glyph glyph-name="asterisk" d="M230 533h-4l-55 -117l-108 73l100 89v4l-130 14l41 127l114 -67l2 2l-29 130h133l-28 -132l2 -2l114 67l41 -127l-130 -14v-4l100 -89l-108 -73z" horiz-adv-x="455" unicode="*"/>
<glyph glyph-name="plus" d="M390 290v-198h-149v198h-190v136h190v196h149v-196h191v-136h-191z" horiz-adv-x="633" unicode="+"/>
<glyph glyph-name="comma" d="M35 -117l62 296h192l-126 -296h-128z" horiz-adv-x="319" unicode=","/>
<glyph glyph-name="hyphen" d="M55 237v144h330v-144h-330z" horiz-adv-x="440" unicode="-"/>
<glyph glyph-name="period" d="M62 0v179h195v-179h-195z" horiz-adv-x="319" unicode="."/>
<glyph glyph-name="slash" d="M-24 -130l454 918h141l-454 -918h-141z" horiz-adv-x="572" unicode="/"/>
<glyph glyph-name="zero" d="M358 131q50 0 77 54t27 184q0 240 -104 240q-103 0 -103 -240q0 -136 25.5 -187t77.5 -51zM40 367q0 189 85.5 286t232.5 97q321 0 321 -383q0 -190 -84 -285.5t-237 -95.5q-318 0 -318 381z" horiz-adv-x="719" unicode="0"/>
<glyph glyph-name="one" d="M153 0v488h-144v122h18q69 0 106 29q39 31 39 102h177v-741h-196z" horiz-adv-x="432" unicode="1"/>
<glyph glyph-name="two" d="M241 484h-194q2 127 76 197.5t217 70.5q138 0 205.5 -59t67.5 -156q0 -77 -37.5 -132t-130.5 -139l-124 -112v-2h291v-152h-578v105l266 249q62 58 86 96t24 75q0 41 -20.5 63.5t-56.5 22.5q-38 0 -65 -29t-27 -98z" horiz-adv-x="652" unicode="2"/>
<glyph glyph-name="three" d="M330 312h-81v127h60q43 0 69.5 23t26.5 64q0 38 -25.5 60.5t-58.5 22.5q-82 0 -88 -88h-190q2 44 17.5 82.5t46.5 73t88 55t134 20.5q131 0 202.5 -56.5t71.5 -141.5q0 -63 -31.5 -106.5t-93.5 -60.5v-3q143 -33 143 -177q0 -93 -76.5 -157.5t-214.5 -64.5 q-78 0 -136 19.5t-90.5 54.5t-49 74t-19.5 86h203q4 -43 29 -65t62 -22q43 0 69 25.5t26 65.5t-25.5 64.5t-68.5 24.5z" horiz-adv-x="662" unicode="3"/>
<glyph glyph-name="four" d="M662 156h-86v-156h-193v156h-352v131l309 454h236v-440h86v-145zM212 299h176v289h-2q-13 -39 -41 -82z" horiz-adv-x="688" unicode="4"/>
<glyph glyph-name="five" d="M422 242q0 51 -25.5 80.5t-71.5 29.5q-69 0 -104 -48h-163l40 437h469v-152h-322l-15 -163h2q23 28 64 47t92 19q108 0 169 -65.5t61 -180.5q0 -109 -76.5 -185t-217.5 -76q-81 0 -138.5 19t-88 54t-45 73t-17.5 86h189q10 -85 95 -85q47 0 75 30t28 80z" horiz-adv-x="656" unicode="5"/>
<glyph glyph-name="six" d="M351 128q37 0 64 29t27 84q0 53 -25.5 82.5t-65.5 29.5q-42 0 -66.5 -28.5t-24.5 -83.5q0 -56 26.5 -84.5t64.5 -28.5zM620 557h-182q-15 58 -74 58q-51 0 -84.5 -49.5t-36.5 -164.5h4q21 44 65 67.5t102 23.5q98 0 161.5 -64t63.5 -175q0 -114 -75.5 -191t-217.5 -77 t-224 90t-82 264q0 200 87.5 306.5t239.5 106.5q122 0 183 -54.5t70 -140.5z" horiz-adv-x="674" unicode="6"/>
<glyph glyph-name="seven" d="M67 0l269 589h-321v152h543v-106l-291 -635h-200z" horiz-adv-x="578" unicode="7"/>
<glyph glyph-name="eight" d="M337 112q45 0 74.5 26.5t29.5 73.5q0 49 -28.5 74.5t-75.5 25.5t-75.5 -25.5t-28.5 -74.5q0 -47 29.5 -73.5t74.5 -26.5zM337 620q-39 0 -63.5 -23t-24.5 -67q0 -43 24.5 -66.5t63.5 -23.5t63.5 23.5t24.5 66.5q0 44 -24.5 67t-63.5 23zM63 548q0 93 70.5 148.5 t203.5 55.5t203.5 -55.5t70.5 -149.5q0 -115 -118 -158v-4q145 -35 145 -179q0 -95 -84 -158.5t-217 -63.5q-141 0 -221 61t-80 161q0 142 145 179v4q-118 41 -118 159z" horiz-adv-x="674" unicode="8"/>
<glyph glyph-name="nine" d="M46 185h180q13 -59 83 -59q57 0 87.5 55t33.5 154h-4q-19 -38 -60.5 -59.5t-93.5 -21.5q-103 0 -172 64t-69 175q0 109 78.5 184t219.5 75q143 0 222.5 -94.5t79.5 -271.5q0 -193 -90 -297t-237 -104q-117 0 -182.5 55t-75.5 145zM325 602q-38 0 -67 -26.5t-29 -78.5 q0 -50 28 -78t68 -28q41 0 68 27t27 79q0 50 -28.5 77.5t-66.5 27.5z" horiz-adv-x="671" unicode="9"/>
<glyph glyph-name="colon" d="M255 0h-191v179h191v-179zM64 348v179h191v-179h-191z" horiz-adv-x="319" unicode=":"/>
<glyph glyph-name="semicolon" d="M163 -117h-128l62 296h192zM98 348v179h191v-179h-191z" horiz-adv-x="344" unicode=";"/>
<glyph glyph-name="less" d="M567 31l-512 264v77l512 265v-153l-293 -146l293 -148v-159z" horiz-adv-x="633" unicode="&lt;"/>
<glyph glyph-name="equal" d="M561 177h-490v136h490v-136zM71 395v136h490v-136h-490z" horiz-adv-x="633" unicode="="/>
<glyph glyph-name="greater" d="M66 637l512 -264v-77l-512 -265v153l293 146l-293 148v159z" horiz-adv-x="633" unicode="&gt;"/>
<glyph glyph-name="question" d="M414 0h-206v170h206v-170zM400 575q0 72 -83 72q-97 0 -98 -123h-189q-1 123 74 197.5t218 74.5q139 0 205 -57.5t66 -156.5q0 -62 -23.5 -105t-77.5 -87l-84 -69q-14 -11 -14 -36v-39h-167v64q0 47 8.5 68t45.5 51l61 49q22 20 31.5 29t18 27.5t8.5 40.5z" horiz-adv-x="621" unicode="?"/>
<glyph glyph-name="at" d="M473 159q30 0 55.5 29t34.5 77l9 45q3 15 3 28q0 32 -15 52t-39 20q-48 0 -75 -54.5t-27 -115.5q0 -81 54 -81zM714 52q-58 0 -97 26.5t-45 74.5h-3q-52 -97 -155 -97q-72 0 -113.5 50t-41.5 134q0 108 63.5 189.5t161.5 81.5q45 0 73.5 -19.5t39.5 -48.5h2l11 52h156 l-62 -283q-3 -15 -3 -26q0 -54 54 -54q52 0 87.5 54t35.5 156q0 143 -100 237.5t-254 94.5q-164 0 -279 -118.5t-115 -291.5t104 -278t264 -105q153 0 257 84l44 -46q-124 -104 -308 -104q-191 0 -314 124.5t-123 324.5q0 204 136 340t336 136q188 0 310.5 -109.5 t122.5 -282.5q0 -147 -68 -221.5t-177 -74.5z" horiz-adv-x="1009" unicode="@"/>
<glyph glyph-name="A" d="M555 0l-44 138h-266l-45 -138h-191l265 765h224l268 -765h-211zM378 598q0 -1 -1 -6.5t-3 -16t-5.5 -24t-8.5 -33t-11 -40.5l-58 -195h174l-57 194q-10 35 -17 65t-9 43l-2 13h-2z" horiz-adv-x="775" unicode="A"/>
<glyph glyph-name="B" d="M265 140h128q53 0 80.5 22.5t27.5 74.5q0 43 -28.5 66.5t-79.5 23.5h-128v-187zM265 452h103q102 0 102 89q0 43 -26.5 66t-75.5 23h-103v-178zM413 0h-351v765h327q145 0 212 -49.5t67 -150.5q0 -60 -40 -100.5t-89 -52.5v-4q75 -13 121 -60t46 -124q0 -102 -78 -163 t-215 -61z" horiz-adv-x="731" unicode="B"/>
<glyph glyph-name="C" d="M401 629q-60 0 -101 -63.5t-41 -188.5q0 -120 38 -183t104 -63q51 0 83.5 34t38.5 106h206q-5 -133 -91 -210t-232 -77q-187 0 -276.5 101.5t-89.5 281.5q0 193 93.5 301t267.5 108q158 0 241 -76.5t88 -210.5h-207q-4 69 -38 104.5t-84 35.5z" horiz-adv-x="765" unicode="C"/>
<glyph glyph-name="D" d="M265 147h60q92 0 139.5 54.5t47.5 186.5q0 125 -46.5 178.5t-135.5 53.5h-65v-473zM62 0v765h276q182 0 285.5 -93t103.5 -280q0 -190 -105 -291t-284 -101h-276z" horiz-adv-x="767" unicode="D"/>
<glyph glyph-name="E" d="M62 0v765h512v-148h-309v-165h299v-144h-299v-162h320v-146h-523z" horiz-adv-x="633" unicode="E"/>
<glyph glyph-name="F" d="M265 279v-279h-203v765h495v-148h-292v-192h281v-146h-281z" horiz-adv-x="597" unicode="F"/>
<glyph glyph-name="G" d="M410 634q-73 0 -113.5 -63t-40.5 -191q0 -138 41 -196t117 -58q62 0 98.5 37t44.5 104l2 16h-159v137h346v-420h-157v100h-3q-62 -116 -214 -116q-166 0 -249 105t-83 277q0 187 100 298.5t270 111.5q147 0 229.5 -66.5t95.5 -191.5h-204q-7 52 -38.5 84t-82.5 32z" horiz-adv-x="800" unicode="G"/>
<glyph glyph-name="H" d="M265 304v-304h-203v765h203v-310h258v310h205v-765h-205v304h-258z" horiz-adv-x="790" unicode="H"/>
<glyph glyph-name="I" d="M62 0v765h203v-765h-203z" horiz-adv-x="327" unicode="I"/>
<glyph glyph-name="J" d="M111 -3h-74v158h45q76 0 100 30.5t24 97.5v482h200v-508q0 -145 -74.5 -202.5t-220.5 -57.5z" horiz-adv-x="461" unicode="J"/>
<glyph glyph-name="K" d="M265 223v-223h-203v765h203v-304l236 304h221l-265 -318l273 -447h-230l-178 292z" horiz-adv-x="747" unicode="K"/>
<glyph glyph-name="L" d="M62 0v765h203v-613h303v-152h-506z" horiz-adv-x="613" unicode="L"/>
<glyph glyph-name="M" d="M62 0v765h291l108 -338q9 -27 16.5 -57t10.5 -46l3 -17h3q11 59 30 121l105 337h291v-765h-199v567h-3q-20 -87 -49 -184l-116 -383h-141l-120 383q-14 44 -25.5 89.5t-16.5 69.5l-5 24h-3v-566h-180z" horiz-adv-x="982" unicode="M"/>
<glyph glyph-name="N" d="M62 0v765h215l197 -331q20 -35 36 -68.5t22 -49.5l6 -16h3v465h182v-765h-202l-207 343q-21 34 -38 69t-24 52l-7 18h-3v-482h-180z" horiz-adv-x="785" unicode="N"/>
<glyph glyph-name="O" d="M411 128q150 0 150 252q0 123 -41 188.5t-109 65.5q-150 0 -150 -254q0 -129 35.5 -190.5t114.5 -61.5zM40 380q0 181 99.5 288.5t272.5 107.5q180 0 274.5 -104.5t94.5 -291.5q0 -183 -97.5 -289.5t-271.5 -106.5q-184 0 -278 104.5t-94 291.5z" horiz-adv-x="821" unicode="O"/>
<glyph glyph-name="P" d="M265 391h83q111 0 111 118q0 115 -110 115h-84v-233zM330 246h-65v-246h-203v765h286q141 0 224.5 -61.5t83.5 -191.5q0 -72 -25.5 -125t-71 -83t-102.5 -44t-127 -14z" horiz-adv-x="683" unicode="P"/>
<glyph glyph-name="Q" d="M411 125q78 0 114 61t36 192q0 127 -40 191.5t-110 64.5q-73 0 -111.5 -65t-38.5 -191q0 -130 35.5 -191.5t114.5 -61.5zM40 380q0 185 98 290.5t274 105.5q177 0 273 -106t96 -290q0 -109 -37 -193t-101 -119v-5q55 -14 84.5 -39.5t56.5 -78.5l-182 -95 q-37 77 -74.5 108t-102.5 31h-16q-184 0 -276.5 102t-92.5 289z" horiz-adv-x="821" unicode="Q"/>
<glyph glyph-name="R" d="M491 0l-137 273h-89v-273h-203v765h311q95 0 157 -25q143 -57 143 -205q0 -76 -39.5 -129t-100.5 -81v-2l173 -323h-215zM265 411h80q53 0 87.5 26.5t34.5 84.5q0 32 -12 55t-31.5 34t-38 15.5t-38.5 4.5h-82v-220z" horiz-adv-x="726" unicode="R"/>
<glyph glyph-name="S" d="M645 556h-207q-2 31 -25.5 53.5t-65.5 22.5q-40 0 -65 -18.5t-25 -51.5q0 -32 19.5 -50t67.5 -27l120 -22q98 -18 150 -72t52 -140q0 -131 -84.5 -199t-238.5 -68q-304 0 -316 237h211q5 -44 33.5 -68.5t76.5 -24.5q50 0 78.5 22.5t28.5 57.5t-21.5 52.5t-75.5 27.5 l-118 23q-83 17 -138 72t-55 148q0 109 78.5 177t222.5 68q152 0 223 -59.5t74 -160.5z" horiz-adv-x="691" unicode="S"/>
<glyph glyph-name="T" d="M640 765v-155h-205v-610h-203v610h-205v155h613z" horiz-adv-x="667" unicode="T"/>
<glyph glyph-name="U" d="M56 274v491h203l-1 -450q0 -98 24 -130q34 -43 98 -43q70 0 103 43q20 27 20 108v22v450h200v-491q0 -142 -87.5 -216t-237.5 -74t-236 74t-86 216z" horiz-adv-x="759" unicode="U"/>
<glyph glyph-name="V" d="M258 0l-249 765h211l136 -460q10 -32 15.5 -60t6.5 -40l1 -12h2q4 40 24 111l139 461h192l-247 -765h-231z" horiz-adv-x="745" unicode="V"/>
<glyph glyph-name="W" d="M404 0h-198l-194 765h210l83 -378q8 -34 13 -67t6 -49l2 -16h2q5 55 26 131l104 379h172l106 -378q9 -34 16.5 -67t10.5 -49l3 -16h1q5 55 21 131l81 379h183l-193 -765h-192l-108 408q-9 34 -14.5 64t-6.5 43l-2 13h-2q-3 -43 -23 -119z" horiz-adv-x="1064" unicode="W"/>
<glyph glyph-name="X" d="M11 0l250 395l-232 370h230l127 -219h1l127 219h210l-233 -364l256 -401h-237l-146 248h-1l-143 -248h-209z" horiz-adv-x="758" unicode="X"/>
<glyph glyph-name="Y" d="M259 0v319l-248 446h220l137 -273h2l134 273h205l-247 -444v-321h-203z" horiz-adv-x="720" unicode="Y"/>
<glyph glyph-name="Z" d="M48 613v152h573v-135l-356 -477h360v-153h-595v135l357 478h-339z" horiz-adv-x="660" unicode="Z"/>
<glyph glyph-name="bracketleft" d="M90 -130v918h289v-112h-132v-694h132v-112h-289z" horiz-adv-x="404" unicode="["/>
<glyph glyph-name="backslash" d="M455 -130l-454 918h141l454 -918h-141z" horiz-adv-x="572" unicode="\"/>
<glyph glyph-name="bracketright" d="M314 788v-918h-289v112h132v694h-132v112h289z" horiz-adv-x="404" unicode="]"/>
<glyph glyph-name="asciicircum" d="M297 788l156 -299h-125l-97 163h-1l-93 -163h-117l155 299h122z" horiz-adv-x="473" unicode="^"/>
<glyph glyph-name="underscore" d="M-2 -190v115h390v-115h-390z" horiz-adv-x="386" unicode="_"/>
<glyph glyph-name="grave" d="M241 788l49 -180h-150l-88 180h189z" horiz-adv-x="369" unicode="`"/>
<glyph glyph-name="a" d="M226 374h-187q5 85 71 132t177 47q141 0 197 -55t56 -169v-170q0 -16 9 -22.5t31 -6.5v-130h-75q-61 0 -91 12t-45 52h-3q-59 -69 -158 -69q-87 0 -138 43.5t-51 120.5q0 92 82 135q27 15 70.5 23t72.5 10t106 5v32q0 68 -61 68q-60 0 -63 -58zM270 110q36 0 59 29.5 t23 79.5v19q-90 -5 -117 -23q-24 -16 -24 -48q0 -24 16 -40.5t43 -16.5z" horiz-adv-x="601" unicode="a"/>
<glyph glyph-name="b" d="M336 112q44 0 69.5 40t25.5 115q0 156 -95 156q-38 0 -63 -32t-25 -95v-60q0 -57 22.5 -90.5t65.5 -33.5zM54 0v788h196v-324h3q22 38 63 63t98 25q102 0 159 -69.5t57 -213.5q0 -134 -60.5 -208t-171.5 -74q-107 0 -154 81h-2v-68h-188z" horiz-adv-x="665" unicode="b"/>
<glyph glyph-name="c" d="M592 331h-193q-7 97 -77 97q-88 0 -88 -156t88 -156q77 0 80 97h192q0 -109 -75.5 -168t-196.5 -59q-138 0 -213.5 75.5t-75.5 210.5q0 134 77.5 208t212.5 74q124 0 196 -59t73 -164z" horiz-adv-x="627" unicode="c"/>
<glyph glyph-name="d" d="M616 788v-788h-188v74h-2q-54 -88 -157 -88q-117 0 -175.5 70.5t-58.5 205.5q0 139 66.5 214t171.5 75q102 0 145 -76h2v313h196zM422 228v68q0 62 -23.5 94.5t-66.5 32.5q-44 0 -71 -38t-27 -118q0 -155 96 -155q45 0 68.5 32t23.5 84z" horiz-adv-x="670" unicode="d"/>
<glyph glyph-name="e" d="M591 166q-11 -88 -82 -134t-197 -46q-134 0 -206.5 75.5t-72.5 211.5q0 128 75 204.5t204 76.5q143 0 212.5 -77t69.5 -211v-39h-364q4 -63 26 -88.5t63 -25.5q62 0 78 53h194zM395 328l-1 7q-9 103 -82 103q-74 0 -83 -110h166z" horiz-adv-x="629" unicode="e"/>
<glyph glyph-name="f" d="M276 408v-408h-191v408h-66v133h66v47q0 114 54.5 160.5t156.5 46.5q24 0 46.5 -1.5t33.5 -3.5l11 -1v-131q-17 3 -42 3q-35 0 -52 -18t-17 -61v-41h93v-133h-93z" horiz-adv-x="378" unicode="f"/>
<glyph glyph-name="g" d="M327 -199q-264 0 -273 179h189q7 -30 25.5 -44t60.5 -14q50 0 73 28t23 90v74h-3q-40 -92 -150 -92q-237 0 -237 260q0 127 67.5 198t169.5 71q57 0 94.5 -22t55.5 -56h2v68h188v-482q0 -130 -68 -194t-217 -64zM425 246v62q0 55 -25 85t-67 30t-70 -34.5t-28 -106.5 q0 -69 25.5 -105t70.5 -36q42 0 68 29.5t26 75.5z" horiz-adv-x="666" unicode="g"/>
<glyph glyph-name="h" d="M415 0v307q0 58 -14 80q-19 28 -62 28q-89 0 -89 -108v-307h-196v788h196v-332h2q20 40 63.5 67.5t106.5 27.5q104 0 146.5 -53t42.5 -160v-338h-196z" horiz-adv-x="659" unicode="h"/>
<glyph glyph-name="i" d="M54 0v541h196v-541h-196zM54 619v169h196v-169h-196z" horiz-adv-x="304" unicode="i"/>
<glyph glyph-name="j" d="M44 -210q-25 0 -47 3t-31 5l-9 3v129q13 -5 35 -5q36 0 52 18.5t16 59.5v538h196v-537q0 -118 -56 -166t-156 -48zM60 619v169h196v-169h-196z" horiz-adv-x="310" unicode="j"/>
<glyph glyph-name="k" d="M246 128v-128h-192v788h192v-449l163 202h202l-181 -217l182 -324h-207l-106 195z" horiz-adv-x="620" unicode="k"/>
<glyph glyph-name="l" d="M54 0v788h196v-788h-196z" horiz-adv-x="304" unicode="l"/>
<glyph glyph-name="m" d="M54 0v541h189v-88h2q58 98 171 98q76 0 115 -29.5t56 -82.5h2q21 45 65.5 78.5t114.5 33.5q101 0 144 -53t43 -160v-338h-196v307q0 58 -14 80q-19 28 -60 28q-39 0 -61 -27.5t-22 -80.5v-307h-196v307q0 58 -14 80q-19 28 -60 28q-39 0 -61 -27.5t-22 -80.5v-307h-196z " horiz-adv-x="1004" unicode="m"/>
<glyph glyph-name="n" d="M415 0v307q0 58 -14 80q-19 28 -62 28q-89 0 -89 -108v-307h-196v541h189v-88h2q58 98 177 98q104 0 146.5 -53t42.5 -160v-338h-196z" horiz-adv-x="659" unicode="n"/>
<glyph glyph-name="o" d="M324 427q-88 0 -88 -157t88 -157q87 0 87 157t-87 157zM324 -14q-134 0 -212.5 75t-78.5 209q0 136 77.5 210t213.5 74q129 0 209.5 -74.5t80.5 -209.5q0 -132 -80.5 -208t-209.5 -76z" horiz-adv-x="647" unicode="o"/>
<glyph glyph-name="p" d="M54 -188v729h188v-87h2q20 39 64 68.5t106 29.5q102 0 159 -69.5t57 -213.5q0 -130 -62.5 -206t-173.5 -76q-96 0 -141 74h-3v-249h-196zM248 236q0 -57 22.5 -90.5t65.5 -33.5q44 0 69.5 40t25.5 115q0 156 -95 156q-38 0 -63 -32t-25 -95v-60z" horiz-adv-x="665" unicode="p"/>
<glyph glyph-name="q" d="M330 112q45 0 68.5 32t23.5 84v68q0 62 -23.5 94.5t-66.5 32.5q-44 0 -71 -38t-27 -118q0 -155 96 -155zM616 541v-729h-196v248h-2q-18 -29 -55.5 -51.5t-93.5 -22.5q-234 0 -234 276q0 139 66.5 214t171.5 75q103 0 153 -79h2v69h188z" horiz-adv-x="670" unicode="q"/>
<glyph glyph-name="r" d="M54 0v541h185v-121h2q23 67 73.5 98t108.5 31h9v-170h-34q-79 0 -114.5 -26t-35.5 -100v-253h-194z" horiz-adv-x="447" unicode="r"/>
<glyph glyph-name="s" d="M508 382h-170q-2 22 -17.5 37.5t-44.5 15.5q-59 0 -59 -41q0 -18 11.5 -28.5t41.5 -14.5l96 -13q73 -9 115 -48.5t42 -111.5q0 -92 -68 -143t-179 -51q-239 0 -251 175h177q3 -56 74 -56q69 0 69 45q0 19 -13 28.5t-42 13.5l-88 11q-164 21 -164 168q0 77 60 131t178 54 q114 0 170.5 -46.5t61.5 -125.5z" horiz-adv-x="553" unicode="s"/>
<glyph glyph-name="t" d="M117 690h165v-149h114v-133h-111v-196q0 -41 16 -59.5t54 -18.5l38 3v-137q-54 -7 -117 -7q-184 0 -184 181v234h-71v133h20q50 0 63 18.5t13 88.5v42z" horiz-adv-x="421" unicode="t"/>
<glyph glyph-name="u" d="M244 541v-308q0 -54 15 -77q18 -29 61 -29q83 0 83 116v298h196v-541h-189v85h-2q-53 -94 -168 -94q-104 0 -148 49t-44 149v352h196z" horiz-adv-x="653" unicode="u"/>
<glyph glyph-name="v" d="M201 0l-195 541h196l71 -235q9 -30 17 -64.5t12 -53.5l4 -20h2q12 71 32 138l69 235h189l-196 -541h-201z" horiz-adv-x="604" unicode="v"/>
<glyph glyph-name="w" d="M164 0l-152 541h185l54 -225q7 -29 13 -63.5t8 -54.5l2 -19h3q11 71 30 137l63 225h149l64 -225q8 -30 15.5 -64t11.5 -54l3 -19h4q12 71 27 137l52 225h167l-151 -541h-185l-48 160q-10 33 -19.5 80.5t-14.5 78.5l-5 31h-2q-23 -117 -45 -189l-49 -161h-180z" horiz-adv-x="875" unicode="w"/>
<glyph glyph-name="x" d="M5 0l183 283l-169 258h207l80 -139h1l69 139h205l-168 -258l186 -283h-210l-93 160h-1l-84 -160h-206z" horiz-adv-x="604" unicode="x"/>
<glyph glyph-name="y" d="M215 -4l-209 545h203l76 -257q8 -27 14 -56t8 -44l2 -16h2q5 55 22 116l70 257h190l-187 -549q-35 -101 -91 -146t-166 -45q-30 0 -53 2t-31 4l-8 2v138q20 -5 59 -5q81 0 97 48z" horiz-adv-x="599" unicode="y"/>
<glyph glyph-name="z" d="M48 403v138h475v-116l-246 -285h250v-140h-488v117l248 286h-239z" horiz-adv-x="559" unicode="z"/>
<glyph glyph-name="braceleft" d="M83 263h-33v128h33q29 0 40 14.5t11 49.5v126q0 121 67 166t220 45v-108q-79 0 -107.5 -24.5t-28.5 -87.5v-109q0 -114 -83 -132v-4q83 -19 83 -138v-103q0 -63 28.5 -87.5t107.5 -24.5v-108q-153 0 -220 43t-67 155v135q0 35 -11 49.5t-40 14.5z" horiz-adv-x="446" unicode="{"/>
<glyph glyph-name="bar" d="M79 -130v918h127v-918h-127z" horiz-adv-x="289" unicode="|"/>
<glyph glyph-name="braceright" d="M396 395v-128h-33q-29 0 -40 -14.5t-11 -49.5v-126q0 -121 -67 -166t-220 -45v108q79 0 107.5 24.5t28.5 87.5v109q0 114 83 132v4q-83 19 -83 138v103q0 63 -28.5 87.5t-107.5 24.5v108q153 0 220 -43t67 -155v-135q0 -35 11 -49.5t40 -14.5h33z" horiz-adv-x="446" unicode="}"/>
<glyph glyph-name="asciitilde" d="M15 234q0 81 32.5 135t96.5 54q33 0 91 -23.5t75 -23.5q36 0 39 47h109q0 -84 -28 -136.5t-91 -52.5q-33 0 -90.5 23.5t-74.5 23.5q-35 0 -38 -47h-121z" horiz-adv-x="473" unicode="~"/>
<glyph glyph-name="uni00A0" horiz-adv-x="205" unicode=" "/>
<glyph glyph-name="exclamdown" d="M76 677h206v-170h-206v170zM249 431l43 -542h-227l44 542h140z" horiz-adv-x="357" unicode="¡"/>
<glyph glyph-name="cent" d="M427 213h179q0 -100 -64 -158t-171 -67v-104h-72v103q-121 10 -187.5 84.5t-66.5 200.5q0 125 67.5 198t186.5 83v82h72v-82q108 -9 170 -67t63 -155h-180q-7 77 -53 96v-311q53 19 56 97zM299 116v312q-66 -25 -66 -156q0 -132 66 -156z" horiz-adv-x="639" unicode="¢"/>
<glyph glyph-name="sterling" d="M600 151v-151h-553v105l25 16q43 28 65.5 58t22.5 72q0 20 -6 44h-134v110h97l-14 42q-17 51 -17 93q0 95 71 153.5t194 58.5q262 0 262 -215v-8h-197q0 97 -68 97q-70 0 -70 -81q0 -33 13 -79l18 -61h162v-110h-135v-12q0 -72 -73 -127l-4 -3v-2h341z" horiz-adv-x="661" unicode="£"/>
<glyph glyph-name="currency" d="M314 267q35 0 56 22.5t21 58.5t-21 59t-56 23q-34 0 -55 -23t-21 -59t21 -58.5t55 -22.5zM126 348q0 40 14 76l-107 105l102 102l105 -108q34 14 74 14q38 0 76 -15l106 109l102 -102l-109 -107q14 -34 14 -74t-14 -74l110 -107l-102 -102l-107 109q-36 -14 -76 -14 q-38 0 -74 13l-105 -108l-102 102l107 104q-14 36 -14 77z" horiz-adv-x="631" unicode="¤"/>
<glyph glyph-name="yen" d="M246 0v130h-197v80h197v75h-199v80h197l-224 376h215l115 -214h2l112 214h199l-223 -376h197v-80h-198v-75h200v-80h-200v-130h-193z" horiz-adv-x="683" unicode="¥"/>
<glyph glyph-name="brokenbar" d="M206 -130h-127v405h127v-405zM206 788v-406h-127v406h127z" horiz-adv-x="289" unicode="¦"/>
<glyph glyph-name="section" d="M36 333q0 101 100 138v1q-56 42 -56 124q0 83 65.5 131.5t170.5 48.5q228 0 240 -175h-173q-3 56 -64 56q-64 0 -64 -41q0 -25 14.5 -35.5t62.5 -30.5l134 -55q78 -32 108.5 -69.5t30.5 -100.5q0 -98 -99 -133v-2q55 -40 55 -110q0 -96 -66.5 -145t-175.5 -49 q-233 0 -246 175h169q1 -26 22 -41t55 -15q30 0 49 11.5t19 33.5q0 18 -13 30.5t-42 23.5l-156 63q-72 29 -106 63t-34 103zM203 364q0 -16 11.5 -29t25 -20t40.5 -18l79 -33l35 -15q22 4 33 17.5t11 30.5q0 21 -16 35.5t-60 32.5l-86 36l-29 12q-22 -3 -33 -17.5t-11 -31.5 z" horiz-adv-x="641" unicode="§"/>
<glyph glyph-name="dieresis" d="M-3 631v157h160v-157h-160zM212 631v157h160v-157h-160z" horiz-adv-x="369" unicode="¨"/>
<glyph glyph-name="copyright" d="M654 341q0 -84 -56 -129t-146 -45q-103 0 -159 57.5t-56 161.5q0 102 58 158.5t158 56.5q91 0 144.5 -45t54.5 -126h-143q-5 75 -57 75q-66 0 -66 -119q0 -120 66 -120q57 0 59 75h143zM449 41q141 0 235.5 97.5t94.5 241.5t-94.5 242t-235.5 98t-235 -97.5t-94 -242.5 q0 -144 94 -241.5t235 -97.5zM55 380q0 169 112.5 283t281.5 114t282 -114t113 -283q0 -168 -113 -282t-282 -114t-281.5 113.5t-112.5 282.5z" horiz-adv-x="899" unicode="©"/>
<glyph glyph-name="ordfeminine" d="M223 609h-170q3 67 60.5 105t144.5 38q117 0 163 -45t46 -134v-117q0 -16 6.5 -22t21.5 -6v-108h-66q-50 0 -76 8t-41 41h-3q-41 -54 -123 -54q-64 0 -105 36t-41 93q0 73 64 107q31 17 72 22.5t128 8.5v22q0 19 -11 29.5t-28 10.5q-38 0 -42 -35zM247 422q29 0 43.5 19 t14.5 49v13q-59 -2 -77 -13q-17 -11 -17 -32q0 -17 10 -26.5t26 -9.5z" horiz-adv-x="530" unicode="ª"/>
<glyph glyph-name="guillemotleft" d="M129 464h134l-94 -206l96 -201h-135l-104 204zM355 464h134l-94 -206l95 -201h-134l-104 204z" horiz-adv-x="524" unicode="«"/>
<glyph glyph-name="logicalnot" d="M581 92h-149v198h-381v136h530v-334z" horiz-adv-x="633" unicode="¬"/>
<glyph glyph-name="registered" d="M228 536v-84h-62v225h107q32 0 55.5 -17t23.5 -52q0 -23 -13 -39t-32 -23l48 -94h-66l-39 84h-22zM228 578h23q39 0 39 32q0 29 -38 29h-24v-61zM256 377q74 0 123.5 51.5t49.5 128.5t-49.5 129t-123.5 52t-123 -52t-49 -129t49 -128.5t123 -51.5zM40 557q0 93 61.5 156 t154.5 63t155 -63t62 -156t-62 -155.5t-155 -62.5t-154.5 62.5t-61.5 155.5z" horiz-adv-x="513" unicode="®"/>
<glyph glyph-name="macron" d="M0 631v120h369v-120h-369z" horiz-adv-x="369" unicode="¯"/>
<glyph glyph-name="degree" d="M222 513q35 0 56 22.5t21 58.5t-21 59t-56 23q-34 0 -55 -23t-21 -59t21 -58.5t55 -22.5zM51 594q0 74 48.5 123t122.5 49q75 0 123.5 -49t48.5 -123t-48.5 -122.5t-123.5 -48.5q-74 0 -122.5 48.5t-48.5 122.5z" horiz-adv-x="445" unicode="°"/>
<glyph glyph-name="plusminus" d="M51 0v136h530v-136h-530zM390 380v-158h-149v158h-190v136h190v156h149v-156h191v-136h-191z" horiz-adv-x="633" unicode="±"/>
<glyph glyph-name="twosuperior" d="M166 658h-132q2 77 49.5 120.5t141.5 43.5q91 0 136 -35.5t45 -94.5q0 -47 -25 -80.5t-81 -76.5l-64 -49v-3h171v-99h-377v67l184 155q31 26 42 42t11 36q0 44 -42 44q-58 0 -59 -70z" horiz-adv-x="444" unicode="²"/>
<glyph glyph-name="threesuperior" d="M224 564h-55v77h42q23 0 38 11.5t15 33.5q0 21 -13 32.5t-33 11.5q-24 0 -35.5 -13.5t-12.5 -30.5h-133q4 56 47.5 97t143.5 41q83 0 128.5 -33.5t45.5 -83.5q0 -80 -89 -97v-2q100 -15 100 -102q0 -55 -49.5 -93t-139.5 -38q-100 0 -144 39.5t-45 98.5h137 q1 -20 14.5 -31t34.5 -11q27 0 41 13.5t14 34.5q0 20 -14 32.5t-38 12.5z" horiz-adv-x="450" unicode="³"/>
<glyph glyph-name="acute" d="M82 608l49 180h189l-88 -180h-150z" horiz-adv-x="369" unicode="´"/>
<glyph glyph-name="paragraph" d="M256 360q-101 2 -161 54t-60 150q0 101 63.5 151t169.5 50h97v-765h-109v360zM446 765h109v-765h-109v765z" horiz-adv-x="617" unicode="¶"/>
<glyph glyph-name="periodcentered" d="M62 275v179h195v-179h-195z" horiz-adv-x="319" unicode="·"/>
<glyph glyph-name="cedilla" d="M242 35h57l-31 -70h2q14 9 42 9q39 0 65.5 -26t26.5 -69q0 -42 -33 -71.5t-97 -29.5q-53 0 -84.5 25t-33.5 60h88q9 -20 32 -20q32 0 32 29t-32 29q-18 0 -28 -13h-70z" horiz-adv-x="536" unicode="¸"/>
<glyph glyph-name="onesuperior" d="M117 384v268h-96v91h15q42 0 67 15q25 17 25 57h127v-431h-138z" horiz-adv-x="317" unicode="¹"/>
<glyph glyph-name="ordmasculine" d="M280 633q-37 0 -48.5 -28t-11.5 -75q0 -103 59 -103q37 0 48.5 28t11.5 75q0 103 -59 103zM280 309q-107 0 -171 57.5t-64 163.5q0 108 62.5 164.5t172.5 56.5q101 0 167.5 -57t66.5 -164q0 -104 -65.5 -162.5t-168.5 -58.5z" horiz-adv-x="559" unicode="º"/>
<glyph glyph-name="guillemotright" d="M405 57h-134l94 206l-95 201h134l104 -203zM170 57h-135l95 206l-96 201h135l103 -203z" horiz-adv-x="534" unicode="»"/>
<glyph glyph-name="onequarter" d="M872 85h-55v-85h-125v85h-230v88l192 258h163v-248h55v-98zM581 176h115v176h-3q-13 -38 -38 -73zM78 -40l547 821h128l-547 -821h-128zM117 334v268h-96v91h15q42 0 67 15q25 17 25 57h127v-431h-138z" horiz-adv-x="900" unicode="¼"/>
<glyph glyph-name="onehalf" d="M661 274h-132q2 77 49.5 120.5t141.5 43.5q91 0 136 -35.5t45 -94.5q0 -47 -25 -80.5t-81 -76.5l-64 -49v-3h171v-99h-377v67l184 155q31 26 42 42t11 36q0 44 -42 44q-58 0 -59 -70zM76 -40l547 821h128l-547 -821h-128zM117 334v268h-96v91h15q42 0 67 15q25 17 25 57 h127v-431h-138z" horiz-adv-x="939" unicode="½"/>
<glyph glyph-name="threequarters" d="M947 85h-55v-85h-125v85h-230v88l192 258h163v-248h55v-98zM656 176h115v176h-3q-13 -38 -38 -73zM170 -40l547 821h128l-547 -821h-128zM224 514h-55v77h42q23 0 38 11.5t15 33.5q0 21 -13 32.5t-33 11.5q-24 0 -35.5 -13.5t-12.5 -30.5h-133q4 56 47.5 97t143.5 41 q83 0 128.5 -33.5t45.5 -83.5q0 -80 -89 -97v-2q100 -15 100 -102q0 -55 -49.5 -93t-139.5 -38q-100 0 -144 39.5t-45 98.5h137q1 -20 14.5 -31t34.5 -11q27 0 41 13.5t14 34.5q0 20 -14 32.5t-38 12.5z" horiz-adv-x="975" unicode="¾"/>
<glyph glyph-name="questiondown" d="M209 677h206v-170h-206v170zM223 102q0 -72 83 -72q97 0 98 123h189q1 -123 -74 -197.5t-218 -74.5q-139 0 -205 57.5t-66 156.5q0 62 23.5 105t77.5 87l84 69q14 11 14 36v39h167v-64q0 -47 -8.5 -68t-45.5 -51l-61 -49q-22 -20 -31.5 -29t-18 -27.5t-8.5 -40.5z" horiz-adv-x="621" unicode="¿"/>
<glyph glyph-name="Agrave" d="M390 960l66 -133h-145l-108 133h187zM555 0l-44 138h-266l-45 -138h-191l265 765h224l268 -765h-211zM378 598q0 -1 -1 -6.5t-3 -16t-5.5 -24t-8.5 -33t-11 -40.5l-58 -195h174l-57 194q-10 35 -17 65t-9 43l-2 13h-2z" horiz-adv-x="775" unicode="À"/>
<glyph glyph-name="Aacute" d="M308 827l66 133h187l-108 -133h-145zM555 0l-44 138h-266l-45 -138h-191l265 765h224l268 -765h-211zM378 598q0 -1 -1 -6.5t-3 -16t-5.5 -24t-8.5 -33t-11 -40.5l-58 -195h174l-57 194q-10 35 -17 65t-9 43l-2 13h-2z" horiz-adv-x="775" unicode="Á"/>
<glyph glyph-name="Acircumflex" d="M468 960l109 -133h-132l-61 45h-1l-58 -45h-124l109 133h158zM555 0l-44 138h-266l-45 -138h-191l265 765h224l268 -765h-211zM378 598q0 -1 -1 -6.5t-3 -16t-5.5 -24t-8.5 -33t-11 -40.5l-58 -195h174l-57 194q-10 35 -17 65t-9 43l-2 13h-2z" horiz-adv-x="775" unicode="Â"/>
<glyph glyph-name="Atilde" d="M189 815q3 78 30 122t93 44q33 0 77.5 -23.5t63.5 -23.5q33 0 50 47h79q-3 -79 -30 -122.5t-93 -43.5q-33 0 -77.5 23t-63.5 23q-33 0 -48 -46h-81zM555 0l-44 138h-266l-45 -138h-191l265 765h224l268 -765h-211zM378 598q0 -1 -1 -6.5t-3 -16t-5.5 -24t-8.5 -33 t-11 -40.5l-58 -195h174l-57 194q-10 35 -17 65t-9 43l-2 13h-2z" horiz-adv-x="775" unicode="Ã"/>
<glyph glyph-name="Adieresis" d="M201 831v157h160v-157h-160zM416 831v157h160v-157h-160zM555 0l-44 138h-266l-45 -138h-191l265 765h224l268 -765h-211zM378 598q0 -1 -1 -6.5t-3 -16t-5.5 -24t-8.5 -33t-11 -40.5l-58 -195h174l-57 194q-10 35 -17 65t-9 43l-2 13h-2z" horiz-adv-x="775" unicode="Ä"/>
<glyph glyph-name="Aring" d="M385 981q-25 0 -39 -16.5t-14 -44.5q0 -27 14.5 -43.5t39.5 -16.5q24 0 38 16.5t14 43.5q0 28 -14 44.5t-39 16.5zM385 790q-66 0 -104.5 36t-38.5 95q0 58 40 95t104 37q67 0 105 -36t38 -96q0 -59 -40 -95t-104 -36zM555 0l-44 138h-266l-45 -138h-191l265 765h224 l268 -765h-211zM378 598q0 -1 -1 -6.5t-3 -16t-5.5 -24t-8.5 -33t-11 -40.5l-58 -195h174l-57 194q-10 35 -17 65t-9 43l-2 13h-2z" horiz-adv-x="775" unicode="Å"/>
<glyph glyph-name="AE" d="M285 158l-74 -158h-210l383 765h657v-148h-309v-165h299v-144h-299v-162h320v-146h-523v158h-244zM529 303v314h-29l-147 -314h176z" horiz-adv-x="1100" unicode="Æ"/>
<glyph glyph-name="Ccedilla" d="M382 -242q-53 0 -84.5 25t-33.5 60h88q9 -20 32 -20q32 0 32 29t-32 29q-18 0 -28 -13h-70l52 120q-152 18 -225 117t-73 262q0 193 93.5 301t267.5 108q158 0 241 -76.5t88 -210.5h-207q-4 70 -36 105t-86 35q-60 0 -101 -63.5t-41 -188.5q0 -120 38 -183t104 -63 q55 0 85.5 33.5t36.5 106.5h206q-5 -133 -91 -210t-232 -77h-13l-17 -39h2q14 9 42 9q39 0 65.5 -26t26.5 -69q0 -42 -33 -71.5t-97 -29.5z" horiz-adv-x="765" unicode="Ç"/>
<glyph glyph-name="Egrave" d="M328 960l66 -133h-145l-108 133h187zM62 0v765h512v-148h-309v-165h299v-144h-299v-162h320v-146h-523z" horiz-adv-x="633" unicode="È"/>
<glyph glyph-name="Eacute" d="M246 827l66 133h187l-108 -133h-145zM62 0v765h512v-148h-309v-165h299v-144h-299v-162h320v-146h-523z" horiz-adv-x="633" unicode="É"/>
<glyph glyph-name="Ecircumflex" d="M406 960l109 -133h-132l-61 45h-1l-58 -45h-124l109 133h158zM62 0v765h512v-148h-309v-165h299v-144h-299v-162h320v-146h-523z" horiz-adv-x="633" unicode="Ê"/>
<glyph glyph-name="Edieresis" d="M136 831v157h160v-157h-160zM351 831v157h160v-157h-160zM62 0v765h512v-148h-309v-165h299v-144h-299v-162h320v-146h-523z" horiz-adv-x="633" unicode="Ë"/>
<glyph glyph-name="Igrave" d="M168 960l66 -133h-145l-108 133h187zM62 0v765h203v-765h-203z" horiz-adv-x="327" unicode="Ì"/>
<glyph glyph-name="Iacute" d="M86 827l66 133h187l-108 -133h-145zM62 0v765h203v-765h-203z" horiz-adv-x="327" unicode="Í"/>
<glyph glyph-name="Icircumflex" d="M246 960l109 -133h-132l-61 45h-1l-58 -45h-124l109 133h158zM62 0v765h203v-765h-203z" horiz-adv-x="327" unicode="Î"/>
<glyph glyph-name="Idieresis" d="M-24 831v157h160v-157h-160zM191 831v157h160v-157h-160zM62 0v765h203v-765h-203z" horiz-adv-x="327" unicode="Ï"/>
<glyph glyph-name="Eth" d="M291 147h60q92 0 139.5 54.5t47.5 186.5q0 125 -46.5 178.5t-135.5 53.5h-65v-173h138v-129h-138v-171zM364 0h-276v318h-70v129h70v318h276q182 0 285.5 -93t103.5 -280q0 -190 -105 -291t-284 -101z" horiz-adv-x="793" unicode="Ð"/>
<glyph glyph-name="Ntilde" d="M196 815q3 78 30 122t93 44q33 0 77.5 -23.5t63.5 -23.5q33 0 50 47h79q-3 -79 -30 -122.5t-93 -43.5q-33 0 -77.5 23t-63.5 23q-33 0 -48 -46h-81zM62 0v765h215l197 -331q20 -35 36 -68.5t22 -49.5l6 -16h3v465h182v-765h-202l-207 343q-21 34 -38 69t-24 52l-7 18h-3 v-482h-180z" horiz-adv-x="785" unicode="Ñ"/>
<glyph glyph-name="Ograve" d="M415 960l66 -133h-145l-108 133h187zM411 128q150 0 150 252q0 123 -41 188.5t-109 65.5q-150 0 -150 -254q0 -129 35.5 -190.5t114.5 -61.5zM40 380q0 181 99.5 288.5t272.5 107.5q180 0 274.5 -104.5t94.5 -291.5q0 -183 -97.5 -289.5t-271.5 -106.5q-184 0 -278 104.5 t-94 291.5z" horiz-adv-x="821" unicode="Ò"/>
<glyph glyph-name="Oacute" d="M333 827l66 133h187l-108 -133h-145zM411 128q150 0 150 252q0 123 -41 188.5t-109 65.5q-150 0 -150 -254q0 -129 35.5 -190.5t114.5 -61.5zM40 380q0 181 99.5 288.5t272.5 107.5q180 0 274.5 -104.5t94.5 -291.5q0 -183 -97.5 -289.5t-271.5 -106.5q-184 0 -278 104.5 t-94 291.5z" horiz-adv-x="821" unicode="Ó"/>
<glyph glyph-name="Ocircumflex" d="M493 960l109 -133h-132l-61 45h-1l-58 -45h-124l109 133h158zM411 128q150 0 150 252q0 123 -41 188.5t-109 65.5q-150 0 -150 -254q0 -129 35.5 -190.5t114.5 -61.5zM40 380q0 181 99.5 288.5t272.5 107.5q180 0 274.5 -104.5t94.5 -291.5q0 -183 -97.5 -289.5 t-271.5 -106.5q-184 0 -278 104.5t-94 291.5z" horiz-adv-x="821" unicode="Ô"/>
<glyph glyph-name="Otilde" d="M214 815q3 78 30 122t93 44q33 0 77.5 -23.5t63.5 -23.5q33 0 50 47h79q-3 -79 -30 -122.5t-93 -43.5q-33 0 -77.5 23t-63.5 23q-33 0 -48 -46h-81zM411 128q150 0 150 252q0 123 -41 188.5t-109 65.5q-150 0 -150 -254q0 -129 35.5 -190.5t114.5 -61.5zM40 380 q0 181 99.5 288.5t272.5 107.5q180 0 274.5 -104.5t94.5 -291.5q0 -183 -97.5 -289.5t-271.5 -106.5q-184 0 -278 104.5t-94 291.5z" horiz-adv-x="821" unicode="Õ"/>
<glyph glyph-name="Odieresis" d="M223 831v157h160v-157h-160zM438 831v157h160v-157h-160zM411 128q150 0 150 252q0 123 -41 188.5t-109 65.5q-150 0 -150 -254q0 -129 35.5 -190.5t114.5 -61.5zM40 380q0 181 99.5 288.5t272.5 107.5q180 0 274.5 -104.5t94.5 -291.5q0 -183 -97.5 -289.5 t-271.5 -106.5q-184 0 -278 104.5t-94 291.5z" horiz-adv-x="821" unicode="Ö"/>
<glyph glyph-name="multiply" d="M151 81l-102 102l167 165l-167 165l102 102l165 -167l164 167l102 -102l-166 -165l167 -165l-102 -102l-165 167z" horiz-adv-x="633" unicode="×"/>
<glyph glyph-name="Oslash" d="M781 380q0 -183 -97.5 -289.5t-271.5 -106.5q-134 0 -223 57l-54 -66h-119l105 128q-81 102 -81 277q0 181 99.5 288.5t272.5 107.5q128 0 214 -54l58 71h119l-108 -132q86 -103 86 -281zM411 124q156 0 156 256q0 60 -10 112l-259 -318q37 -50 113 -50zM411 638 q-156 0 -156 -258q0 -65 6 -105l256 313q-39 50 -106 50z" horiz-adv-x="821" unicode="Ø"/>
<glyph glyph-name="Ugrave" d="M384 960l66 -133h-145l-108 133h187zM56 274v491h203l-1 -450q0 -98 24 -130q34 -43 98 -43q70 0 103 43q20 27 20 108v22v450h200v-491q0 -142 -87.5 -216t-237.5 -74t-236 74t-86 216z" horiz-adv-x="759" unicode="Ù"/>
<glyph glyph-name="Uacute" d="M302 827l66 133h187l-108 -133h-145zM56 274v491h203l-1 -450q0 -98 24 -130q34 -43 98 -43q70 0 103 43q20 27 20 108v22v450h200v-491q0 -142 -87.5 -216t-237.5 -74t-236 74t-86 216z" horiz-adv-x="759" unicode="Ú"/>
<glyph glyph-name="Ucircumflex" d="M462 960l109 -133h-132l-61 45h-1l-58 -45h-124l109 133h158zM56 274v491h203l-1 -450q0 -98 24 -130q34 -43 98 -43q70 0 103 43q20 27 20 108v22v450h200v-491q0 -142 -87.5 -216t-237.5 -74t-236 74t-86 216z" horiz-adv-x="759" unicode="Û"/>
<glyph glyph-name="Udieresis" d="M192 831v157h160v-157h-160zM407 831v157h160v-157h-160zM56 274v491h203l-1 -450q0 -98 24 -130q34 -43 98 -43q70 0 103 43q20 27 20 108v22v450h200v-491q0 -142 -87.5 -216t-237.5 -74t-236 74t-86 216z" horiz-adv-x="759" unicode="Ü"/>
<glyph glyph-name="Yacute" d="M293 827l66 133h187l-108 -133h-145zM259 0v319l-248 446h220l137 -273h2l134 273h205l-247 -444v-321h-203z" horiz-adv-x="720" unicode="Ý"/>
<glyph glyph-name="Thorn" d="M370 155h-105v-155h-203v765h203v-141h117q126 0 200 -55t74 -174q0 -240 -286 -240zM348 292h6q51 2 80 27.5t29 73.5q0 98 -114 98h-84v-199h83z" horiz-adv-x="683" unicode="Þ"/>
<glyph glyph-name="germandbls" d="M54 0v550q0 114 69 179.5t220 65.5q119 0 184 -58t65 -147q0 -72 -35 -113t-83 -55v-4q75 -15 120.5 -65.5t45.5 -129.5q0 -107 -76 -165t-215 -58h-41v136h28q46 0 73 25t27 76t-30 81.5t-74 30.5h-13v135h13q82 0 82 99q0 90 -82 90q-35 0 -58.5 -24.5t-23.5 -73.5 v-575h-196z" horiz-adv-x="671" unicode="ß"/>
<glyph glyph-name="agrave" d="M332 788l49 -180h-150l-88 180h189zM226 374h-187q5 85 71 132t177 47q141 0 197 -55t56 -169v-170q0 -16 9 -22.5t31 -6.5v-130h-75q-61 0 -91 12t-45 52h-3q-59 -69 -158 -69q-87 0 -138 43.5t-51 120.5q0 92 82 135q27 15 70.5 23t72.5 10t106 5v32q0 68 -61 68 q-60 0 -63 -58zM270 110q36 0 59 29.5t23 79.5v19q-90 -5 -117 -23q-24 -16 -24 -48q0 -24 16 -40.5t43 -16.5z" horiz-adv-x="601" unicode="à"/>
<glyph glyph-name="aacute" d="M211 608l49 180h189l-88 -180h-150zM226 374h-187q5 85 71 132t177 47q141 0 197 -55t56 -169v-170q0 -16 9 -22.5t31 -6.5v-130h-75q-61 0 -91 12t-45 52h-3q-59 -69 -158 -69q-87 0 -138 43.5t-51 120.5q0 92 82 135q27 15 70.5 23t72.5 10t106 5v32q0 68 -61 68 q-60 0 -63 -58zM270 110q36 0 59 29.5t23 79.5v19q-90 -5 -117 -23q-24 -16 -24 -48q0 -24 16 -40.5t43 -16.5z" horiz-adv-x="601" unicode="á"/>
<glyph glyph-name="acircumflex" d="M374 788l112 -180h-125l-63 64h-1l-60 -64h-117l112 180h142zM226 374h-187q5 85 71 132t177 47q141 0 197 -55t56 -169v-170q0 -16 9 -22.5t31 -6.5v-130h-75q-61 0 -91 12t-45 52h-3q-59 -69 -158 -69q-87 0 -138 43.5t-51 120.5q0 92 82 135q27 15 70.5 23t72.5 10 t106 5v32q0 68 -61 68q-60 0 -63 -58zM270 110q36 0 59 29.5t23 79.5v19q-90 -5 -117 -23q-24 -16 -24 -48q0 -24 16 -40.5t43 -16.5z" horiz-adv-x="601" unicode="â"/>
<glyph glyph-name="atilde" d="M102 608q0 180 125 180q33 0 75.5 -22.5t61.5 -22.5q37 0 52 45h79q0 -180 -125 -180q-33 0 -75.5 22.5t-61.5 22.5q-37 0 -50 -45h-81zM226 374h-187q5 85 71 132t177 47q141 0 197 -55t56 -169v-170q0 -16 9 -22.5t31 -6.5v-130h-75q-61 0 -91 12t-45 52h-3 q-59 -69 -158 -69q-87 0 -138 43.5t-51 120.5q0 92 82 135q27 15 70.5 23t72.5 10t106 5v32q0 68 -61 68q-60 0 -63 -58zM270 110q36 0 59 29.5t23 79.5v19q-90 -5 -117 -23q-24 -16 -24 -48q0 -24 16 -40.5t43 -16.5z" horiz-adv-x="601" unicode="ã"/>
<glyph glyph-name="adieresis" d="M111 631v157h160v-157h-160zM326 631v157h160v-157h-160zM226 374h-187q5 85 71 132t177 47q141 0 197 -55t56 -169v-170q0 -16 9 -22.5t31 -6.5v-130h-75q-61 0 -91 12t-45 52h-3q-59 -69 -158 -69q-87 0 -138 43.5t-51 120.5q0 92 82 135q27 15 70.5 23t72.5 10t106 5 v32q0 68 -61 68q-60 0 -63 -58zM270 110q36 0 59 29.5t23 79.5v19q-90 -5 -117 -23q-24 -16 -24 -48q0 -24 16 -40.5t43 -16.5z" horiz-adv-x="601" unicode="ä"/>
<glyph glyph-name="aring" d="M298 781q-25 0 -39 -16.5t-14 -44.5q0 -27 14.5 -43.5t39.5 -16.5q24 0 38 16.5t14 43.5q0 28 -14 44.5t-39 16.5zM298 590q-66 0 -104.5 36t-38.5 95q0 58 40 95t104 37q67 0 105 -36t38 -96q0 -59 -40 -95t-104 -36zM226 374h-187q5 85 71 132t177 47q141 0 197 -55 t56 -169v-170q0 -16 9 -22.5t31 -6.5v-130h-75q-61 0 -91 12t-45 52h-3q-59 -69 -158 -69q-87 0 -138 43.5t-51 120.5q0 92 82 135q27 15 70.5 23t72.5 10t106 5v32q0 68 -61 68q-60 0 -63 -58zM270 110q36 0 59 29.5t23 79.5v19q-90 -5 -117 -23q-24 -16 -24 -48 q0 -24 16 -40.5t43 -16.5z" horiz-adv-x="601" unicode="å"/>
<glyph glyph-name="ae" d="M898 166q-11 -88 -81 -134t-191 -46q-157 0 -217 92h-2q-67 -83 -199 -83q-87 0 -138 43.5t-51 120.5q0 92 82 135q40 21 95 27.5t154 8.5v34q0 68 -61 68q-60 0 -63 -58h-187q5 85 70.5 132t177.5 47q115 0 165 -57h2q56 58 165 58q144 0 213.5 -77t69.5 -211v-39h-365 q4 -63 26 -88.5t63 -25.5q62 0 78 53h194zM270 110q36 0 59 29.5t23 79.5v16q-86 0 -117 -20q-24 -16 -24 -48q0 -25 16.5 -41t42.5 -16zM702 328l-1 7q-9 103 -82 103q-74 0 -83 -110h166z" horiz-adv-x="936" unicode="æ"/>
<glyph glyph-name="ccedilla" d="M320 -242q-53 0 -84.5 25t-33.5 60h88q9 -20 32 -20q32 0 32 29t-32 29q-18 0 -28 -13h-70l52 120q-116 13 -179.5 86.5t-63.5 197.5q0 134 77.5 208t212.5 74q124 0 196 -59t73 -164h-193q-7 97 -77 97q-88 0 -88 -156t88 -156q77 0 80 97h192q0 -107 -72.5 -166 t-189.5 -61l-18 -41h2q13 9 42 9q39 0 65.5 -26t26.5 -69q0 -42 -33 -71.5t-97 -29.5z" horiz-adv-x="627" unicode="ç"/>
<glyph glyph-name="egrave" d="M347 788l49 -180h-150l-88 180h189zM591 166q-11 -88 -82 -134t-197 -46q-134 0 -206.5 75.5t-72.5 211.5q0 128 75 204.5t204 76.5q143 0 212.5 -77t69.5 -211v-39h-364q4 -63 26 -88.5t63 -25.5q62 0 78 53h194zM395 328l-1 7q-9 103 -82 103q-74 0 -83 -110h166z" horiz-adv-x="629" unicode="è"/>
<glyph glyph-name="eacute" d="M226 608l49 180h189l-88 -180h-150zM591 166q-11 -88 -82 -134t-197 -46q-134 0 -206.5 75.5t-72.5 211.5q0 128 75 204.5t204 76.5q143 0 212.5 -77t69.5 -211v-39h-364q4 -63 26 -88.5t63 -25.5q62 0 78 53h194zM395 328l-1 7q-9 103 -82 103q-74 0 -83 -110h166z" horiz-adv-x="629" unicode="é"/>
<glyph glyph-name="ecircumflex" d="M389 788l112 -180h-125l-63 64h-1l-60 -64h-117l112 180h142zM591 166q-11 -88 -82 -134t-197 -46q-134 0 -206.5 75.5t-72.5 211.5q0 128 75 204.5t204 76.5q143 0 212.5 -77t69.5 -211v-39h-364q4 -63 26 -88.5t63 -25.5q62 0 78 53h194zM395 328l-1 7q-9 103 -82 103 q-74 0 -83 -110h166z" horiz-adv-x="629" unicode="ê"/>
<glyph glyph-name="edieresis" d="M126 631v157h160v-157h-160zM341 631v157h160v-157h-160zM591 166q-11 -88 -82 -134t-197 -46q-134 0 -206.5 75.5t-72.5 211.5q0 128 75 204.5t204 76.5q143 0 212.5 -77t69.5 -211v-39h-364q4 -63 26 -88.5t63 -25.5q62 0 78 53h194zM395 328l-1 7q-9 103 -82 103 q-74 0 -83 -110h166z" horiz-adv-x="629" unicode="ë"/>
<glyph glyph-name="igrave" d="M186 788l49 -180h-150l-88 180h189zM54 0v541h196v-541h-196z" horiz-adv-x="304" unicode="ì"/>
<glyph glyph-name="iacute" d="M65 608l49 180h189l-88 -180h-150zM54 0v541h196v-541h-196z" horiz-adv-x="304" unicode="í"/>
<glyph glyph-name="icircumflex" d="M217 788l101 -180h-112l-57 64h-1l-54 -64h-105l101 180h127zM54 0v541h196v-541h-196z" horiz-adv-x="304" unicode="î"/>
<glyph glyph-name="idieresis" d="M-17 631v157h144v-157h-144zM177 631v157h144v-157h-144zM54 0v541h196v-541h-196z" horiz-adv-x="304" unicode="ï"/>
<glyph glyph-name="eth" d="M323 430q-50 0 -68.5 -41t-18.5 -124q0 -152 86 -152q49 0 68 40.5t19 112.5q0 164 -86 164zM322 -14q-135 0 -212 71.5t-77 207.5q0 130 65 206.5t171 76.5q38 0 60.5 -11t46.5 -34h2q-32 60 -104 112l-131 -53l-27 68l85 35q-31 19 -111 63l138 69q74 -25 140 -64 l106 43l27 -68l-63 -26q174 -145 174 -384q0 -160 -78 -236t-212 -76z" horiz-adv-x="650" unicode="ð"/>
<glyph glyph-name="ntilde" d="M140 608q0 180 125 180q33 0 75.5 -22.5t61.5 -22.5q37 0 52 45h79q0 -180 -125 -180q-33 0 -75.5 22.5t-61.5 22.5q-37 0 -50 -45h-81zM415 0v307q0 58 -14 80q-19 28 -62 28q-89 0 -89 -108v-307h-196v541h189v-88h2q58 98 177 98q104 0 146.5 -53t42.5 -160v-338h-196 z" horiz-adv-x="659" unicode="ñ"/>
<glyph glyph-name="ograve" d="M357 788l49 -180h-150l-88 180h189zM324 427q-88 0 -88 -157t88 -157q87 0 87 157t-87 157zM324 -14q-134 0 -212.5 75t-78.5 209q0 136 77.5 210t213.5 74q129 0 209.5 -74.5t80.5 -209.5q0 -132 -80.5 -208t-209.5 -76z" horiz-adv-x="647" unicode="ò"/>
<glyph glyph-name="oacute" d="M236 608l49 180h189l-88 -180h-150zM324 427q-88 0 -88 -157t88 -157q87 0 87 157t-87 157zM324 -14q-134 0 -212.5 75t-78.5 209q0 136 77.5 210t213.5 74q129 0 209.5 -74.5t80.5 -209.5q0 -132 -80.5 -208t-209.5 -76z" horiz-adv-x="647" unicode="ó"/>
<glyph glyph-name="ocircumflex" d="M399 788l112 -180h-125l-63 64h-1l-60 -64h-117l112 180h142zM324 427q-88 0 -88 -157t88 -157q87 0 87 157t-87 157zM324 -14q-134 0 -212.5 75t-78.5 209q0 136 77.5 210t213.5 74q129 0 209.5 -74.5t80.5 -209.5q0 -132 -80.5 -208t-209.5 -76z" horiz-adv-x="647" unicode="ô"/>
<glyph glyph-name="otilde" d="M127 608q0 180 125 180q33 0 75.5 -22.5t61.5 -22.5q37 0 52 45h79q0 -180 -125 -180q-33 0 -75.5 22.5t-61.5 22.5q-37 0 -50 -45h-81zM324 427q-88 0 -88 -157t88 -157q87 0 87 157t-87 157zM324 -14q-134 0 -212.5 75t-78.5 209q0 136 77.5 210t213.5 74 q129 0 209.5 -74.5t80.5 -209.5q0 -132 -80.5 -208t-209.5 -76z" horiz-adv-x="647" unicode="õ"/>
<glyph glyph-name="odieresis" d="M136 631v157h160v-157h-160zM351 631v157h160v-157h-160zM324 427q-88 0 -88 -157t88 -157q87 0 87 157t-87 157zM324 -14q-134 0 -212.5 75t-78.5 209q0 136 77.5 210t213.5 74q129 0 209.5 -74.5t80.5 -209.5q0 -132 -80.5 -208t-209.5 -76z" horiz-adv-x="647" unicode="ö"/>
<glyph glyph-name="divide" d="M408 56h-184v169h184v-169zM71 290v136h490v-136h-490zM224 488v169h184v-169h-184z" horiz-adv-x="633" unicode="÷"/>
<glyph glyph-name="oslash" d="M614 270q0 -132 -80.5 -208t-209.5 -76q-89 0 -155 34l-53 -64h-105l93 112q-71 74 -71 202q0 136 77.5 210t213.5 74q88 0 153 -35l54 65h105l-94 -113q72 -77 72 -201zM324 109q96 0 96 161q0 26 -3 50l-154 -186q23 -25 61 -25zM324 431q-97 0 -97 -161q0 -26 3 -50 l154 187q-22 24 -60 24z" horiz-adv-x="647" unicode="ø"/>
<glyph glyph-name="ugrave" d="M357 788l49 -180h-150l-88 180h189zM244 541v-308q0 -54 15 -77q18 -29 61 -29q83 0 83 116v298h196v-541h-189v85h-2q-53 -94 -168 -94q-104 0 -148 49t-44 149v352h196z" horiz-adv-x="653" unicode="ù"/>
<glyph glyph-name="uacute" d="M236 608l49 180h189l-88 -180h-150zM244 541v-308q0 -54 15 -77q18 -29 61 -29q83 0 83 116v298h196v-541h-189v85h-2q-53 -94 -168 -94q-104 0 -148 49t-44 149v352h196z" horiz-adv-x="653" unicode="ú"/>
<glyph glyph-name="ucircumflex" d="M399 788l112 -180h-125l-63 64h-1l-60 -64h-117l112 180h142zM244 541v-308q0 -54 15 -77q18 -29 61 -29q83 0 83 116v298h196v-541h-189v85h-2q-53 -94 -168 -94q-104 0 -148 49t-44 149v352h196z" horiz-adv-x="653" unicode="û"/>
<glyph glyph-name="udieresis" d="M139 631v157h160v-157h-160zM354 631v157h160v-157h-160zM244 541v-308q0 -54 15 -77q18 -29 61 -29q83 0 83 116v298h196v-541h-189v85h-2q-53 -94 -168 -94q-104 0 -148 49t-44 149v352h196z" horiz-adv-x="653" unicode="ü"/>
<glyph glyph-name="yacute" d="M224 608l49 180h189l-88 -180h-150zM215 -4l-209 545h203l76 -257q8 -27 14 -56t8 -44l2 -16h2q5 55 22 116l70 257h190l-187 -549q-35 -101 -91 -146t-166 -45q-30 0 -53 2t-31 4l-8 2v138q20 -5 59 -5q81 0 97 48z" horiz-adv-x="599" unicode="ý"/>
<glyph glyph-name="thorn" d="M54 -188v976h196v-324h3q22 38 63 63t98 25q102 0 159 -69.5t57 -213.5q0 -130 -62.5 -206t-173.5 -76q-96 0 -141 74h-3v-249h-196zM248 236q0 -57 22.5 -90.5t65.5 -33.5q44 0 69.5 40t25.5 115q0 156 -95 156q-38 0 -63 -32t-25 -95v-60z" horiz-adv-x="665" unicode="þ"/>
<glyph glyph-name="ydieresis" d="M124 631v157h160v-157h-160zM339 631v157h160v-157h-160zM215 -4l-209 545h203l76 -257q8 -27 14 -56t8 -44l2 -16h2q5 55 22 116l70 257h190l-187 -549q-35 -101 -91 -146t-166 -45q-30 0 -53 2t-31 4l-8 2v138q20 -5 59 -5q81 0 97 48z" horiz-adv-x="599" unicode="ÿ"/>
<glyph glyph-name="Amacron" d="M201 831v120h369v-120h-369zM555 0l-44 138h-266l-45 -138h-191l265 765h224l268 -765h-211zM378 598q0 -1 -1 -6.5t-3 -16t-5.5 -24t-8.5 -33t-11 -40.5l-58 -195h174l-57 194q-10 35 -17 65t-9 43l-2 13h-2z" horiz-adv-x="775" unicode="Ā"/>
<glyph glyph-name="amacron" d="M114 631v120h369v-120h-369zM226 374h-187q5 85 71 132t177 47q141 0 197 -55t56 -169v-170q0 -16 9 -22.5t31 -6.5v-130h-75q-61 0 -91 12t-45 52h-3q-59 -69 -158 -69q-87 0 -138 43.5t-51 120.5q0 92 82 135q27 15 70.5 23t72.5 10t106 5v32q0 68 -61 68 q-60 0 -63 -58zM270 110q36 0 59 29.5t23 79.5v19q-90 -5 -117 -23q-24 -16 -24 -48q0 -24 16 -40.5t43 -16.5z" horiz-adv-x="601" unicode="ā"/>
<glyph glyph-name="Abreve" d="M385 807q-78 0 -126.5 40.5t-48.5 125.5h121q1 -25 17 -40t40 -15t40.5 15t17.5 40h115q0 -85 -48.5 -125.5t-127.5 -40.5zM555 0l-44 138h-266l-45 -138h-191l265 765h224l268 -765h-211zM378 598q0 -1 -1 -6.5t-3 -16t-5.5 -24t-8.5 -33t-11 -40.5l-58 -195h174 l-57 194q-10 35 -17 65t-9 43l-2 13h-2z" horiz-adv-x="775" unicode="Ă"/>
<glyph glyph-name="abreve" d="M298 603q-78 0 -126.5 46t-48.5 139h124q0 -30 14.5 -46t39.5 -16t39.5 16t14.5 46h119q0 -93 -49 -139t-127 -46zM226 374h-187q5 85 71 132t177 47q141 0 197 -55t56 -169v-170q0 -16 9 -22.5t31 -6.5v-130h-75q-61 0 -91 12t-45 52h-3q-59 -69 -158 -69 q-87 0 -138 43.5t-51 120.5q0 92 82 135q27 15 70.5 23t72.5 10t106 5v32q0 68 -61 68q-60 0 -63 -58zM270 110q36 0 59 29.5t23 79.5v19q-90 -5 -117 -23q-24 -16 -24 -48q0 -24 16 -40.5t43 -16.5z" horiz-adv-x="601" unicode="ă"/>
<glyph glyph-name="Aogonek" d="M291 283h174l-57 194q-10 35 -17 65t-9 43l-2 13h-2q-6 -43 -29 -120zM9 0l265 765h224l265 -757q-60 -31 -60 -63q0 -29 44 -29v-104h-35q-84 0 -117 23.5t-33 65.5q0 65 82 99h-89l-44 138h-267l-44 -138h-191z" horiz-adv-x="775" unicode="Ą"/>
<glyph glyph-name="aogonek" d="M270 110q36 0 59 29.5t23 79.5v19q-90 -5 -117 -23q-24 -16 -24 -48q0 -24 16 -40.5t43 -16.5zM226 374h-187q5 85 71 132t177 47q141 0 197 -55t56 -169v-170q0 -16 9 -22.5t31 -6.5v-130q-44 -29 -44 -55q0 -29 44 -29v-104h-35q-84 0 -117 23.5t-33 65.5q0 68 85 96v3 q-32 2 -49.5 6t-34.5 18t-27 40h-3q-59 -69 -158 -69q-87 0 -138 43.5t-51 120.5q0 92 82 135q27 15 70.5 23t72.5 10t106 5v32q0 68 -61 68q-60 0 -63 -58z" horiz-adv-x="601" unicode="ą"/>
<glyph glyph-name="Cacute" d="M331 827l66 133h187l-108 -133h-145zM401 629q-60 0 -101 -63.5t-41 -188.5q0 -120 38 -183t104 -63q51 0 83.5 34t38.5 106h206q-5 -133 -91 -210t-232 -77q-187 0 -276.5 101.5t-89.5 281.5q0 193 93.5 301t267.5 108q158 0 241 -76.5t88 -210.5h-207q-4 69 -38 104.5 t-84 35.5z" horiz-adv-x="765" unicode="Ć"/>
<glyph glyph-name="cacute" d="M240 608l49 180h189l-88 -180h-150zM592 331h-193q-7 97 -77 97q-88 0 -88 -156t88 -156q77 0 80 97h192q0 -109 -75.5 -168t-196.5 -59q-138 0 -213.5 75.5t-75.5 210.5q0 134 77.5 208t212.5 74q124 0 196 -59t73 -164z" horiz-adv-x="627" unicode="ć"/>
<glyph glyph-name="Ccircumflex" d="M491 960l109 -133h-132l-61 45h-1l-58 -45h-124l109 133h158zM401 629q-60 0 -101 -63.5t-41 -188.5q0 -120 38 -183t104 -63q51 0 83.5 34t38.5 106h206q-5 -133 -91 -210t-232 -77q-187 0 -276.5 101.5t-89.5 281.5q0 193 93.5 301t267.5 108q158 0 241 -76.5 t88 -210.5h-207q-4 69 -38 104.5t-84 35.5z" horiz-adv-x="765" unicode="Ĉ"/>
<glyph glyph-name="ccircumflex" d="M403 788l112 -180h-125l-63 64h-1l-60 -64h-117l112 180h142zM592 331h-193q-7 97 -77 97q-88 0 -88 -156t88 -156q77 0 80 97h192q0 -109 -75.5 -168t-196.5 -59q-138 0 -213.5 75.5t-75.5 210.5q0 134 77.5 208t212.5 74q124 0 196 -59t73 -164z" horiz-adv-x="627" unicode="ĉ"/>
<glyph glyph-name="Cdotaccent" d="M328 831v157h160v-157h-160zM401 629q-60 0 -101 -63.5t-41 -188.5q0 -120 38 -183t104 -63q51 0 83.5 34t38.5 106h206q-5 -133 -91 -210t-232 -77q-187 0 -276.5 101.5t-89.5 281.5q0 193 93.5 301t267.5 108q158 0 241 -76.5t88 -210.5h-207q-4 69 -38 104.5t-84 35.5 z" horiz-adv-x="765" unicode="Ċ"/>
<glyph glyph-name="cdotaccent" d="M247 631v157h160v-157h-160zM592 331h-193q-7 97 -77 97q-88 0 -88 -156t88 -156q77 0 80 97h192q0 -109 -75.5 -168t-196.5 -59q-138 0 -213.5 75.5t-75.5 210.5q0 134 77.5 208t212.5 74q124 0 196 -59t73 -164z" horiz-adv-x="627" unicode="ċ"/>
<glyph glyph-name="Ccaron" d="M323 827l-109 133h132l61 -45h1l58 45h124l-109 -133h-158zM401 629q-60 0 -101 -63.5t-41 -188.5q0 -120 38 -183t104 -63q51 0 83.5 34t38.5 106h206q-5 -133 -91 -210t-232 -77q-187 0 -276.5 101.5t-89.5 281.5q0 193 93.5 301t267.5 108q158 0 241 -76.5t88 -210.5 h-207q-4 69 -38 104.5t-84 35.5z" horiz-adv-x="765" unicode="Č"/>
<glyph glyph-name="ccaron" d="M250 608l-112 180h125l63 -64h1l60 64h117l-112 -180h-142zM592 331h-193q-7 97 -77 97q-88 0 -88 -156t88 -156q77 0 80 97h192q0 -109 -75.5 -168t-196.5 -59q-138 0 -213.5 75.5t-75.5 210.5q0 134 77.5 208t212.5 74q124 0 196 -59t73 -164z" horiz-adv-x="627" unicode="č"/>
<glyph glyph-name="Dcaron" d="M269 827l-109 133h132l61 -45h1l58 45h124l-109 -133h-158zM265 147h60q92 0 139.5 54.5t47.5 186.5q0 125 -46.5 178.5t-135.5 53.5h-65v-473zM62 0v765h276q182 0 285.5 -93t103.5 -280q0 -190 -105 -291t-284 -101h-276z" horiz-adv-x="767" unicode="Ď"/>
<glyph glyph-name="dcaron" d="M681 588v200h146l-60 -200h-86zM616 788v-788h-188v74h-2q-54 -88 -157 -88q-117 0 -175.5 70.5t-58.5 205.5q0 139 66.5 214t171.5 75q102 0 145 -76h2v313h196zM422 228v68q0 62 -23.5 94.5t-66.5 32.5q-44 0 -71 -38t-27 -118q0 -155 96 -155q45 0 68.5 32t23.5 84z " horiz-adv-x="670" unicode="ď"/>
<glyph glyph-name="Dcroat" d="M291 147h60q92 0 139.5 54.5t47.5 186.5q0 125 -46.5 178.5t-135.5 53.5h-65v-173h138v-129h-138v-171zM364 0h-276v318h-70v129h70v318h276q182 0 285.5 -93t103.5 -280q0 -190 -105 -291t-284 -101z" horiz-adv-x="793" unicode="Đ"/>
<glyph glyph-name="dcroat" d="M426 74q-54 -88 -157 -88q-117 0 -175.5 70.5t-58.5 205.5q0 139 66.5 214t171.5 75q102 0 145 -76h2v123h-145v109h145v81h196v-81h80v-109h-80v-598h-188v74h-2zM422 228v68q0 62 -23.5 94.5t-66.5 32.5q-44 0 -71 -38t-27 -118q0 -155 96 -155q45 0 68.5 32t23.5 84z " horiz-adv-x="670" unicode="đ"/>
<glyph glyph-name="Emacron" d="M139 831v120h369v-120h-369zM62 0v765h512v-148h-309v-165h299v-144h-299v-162h320v-146h-523z" horiz-adv-x="633" unicode="Ē"/>
<glyph glyph-name="emacron" d="M129 631v120h369v-120h-369zM591 166q-11 -88 -82 -134t-197 -46q-134 0 -206.5 75.5t-72.5 211.5q0 128 75 204.5t204 76.5q143 0 212.5 -77t69.5 -211v-39h-364q4 -63 26 -88.5t63 -25.5q62 0 78 53h194zM395 328l-1 7q-9 103 -82 103q-74 0 -83 -110h166z" horiz-adv-x="629" unicode="ē"/>
<glyph glyph-name="Ebreve" d="M323 807q-78 0 -126.5 40.5t-48.5 125.5h121q1 -25 17 -40t40 -15t40.5 15t17.5 40h115q0 -85 -48.5 -125.5t-127.5 -40.5zM62 0v765h512v-148h-309v-165h299v-144h-299v-162h320v-146h-523z" horiz-adv-x="633" unicode="Ĕ"/>
<glyph glyph-name="ebreve" d="M313 603q-78 0 -126.5 46t-48.5 139h124q0 -30 14.5 -46t39.5 -16t39.5 16t14.5 46h119q0 -93 -49 -139t-127 -46zM591 166q-11 -88 -82 -134t-197 -46q-134 0 -206.5 75.5t-72.5 211.5q0 128 75 204.5t204 76.5q143 0 212.5 -77t69.5 -211v-39h-364q4 -63 26 -88.5 t63 -25.5q62 0 78 53h194zM395 328l-1 7q-9 103 -82 103q-74 0 -83 -110h166z" horiz-adv-x="629" unicode="ĕ"/>
<glyph glyph-name="Edotaccent" d="M243 831v157h160v-157h-160zM62 0v765h512v-148h-309v-165h299v-144h-299v-162h320v-146h-523z" horiz-adv-x="633" unicode="Ė"/>
<glyph glyph-name="edotaccent" d="M233 631v157h160v-157h-160zM591 166q-11 -88 -82 -134t-197 -46q-134 0 -206.5 75.5t-72.5 211.5q0 128 75 204.5t204 76.5q143 0 212.5 -77t69.5 -211v-39h-364q4 -63 26 -88.5t63 -25.5q62 0 78 53h194zM395 328l-1 7q-9 103 -82 103q-74 0 -83 -110h166z" horiz-adv-x="629" unicode="ė"/>
<glyph glyph-name="Eogonek" d="M585 -84v-104h-35q-84 0 -117 23.5t-33 65.5q0 65 82 99h-420v765h512v-148h-309v-165h299v-144h-299v-162h320v-146q-44 -29 -44 -55q0 -29 44 -29z" horiz-adv-x="633" unicode="Ę"/>
<glyph glyph-name="eogonek" d="M229 328h166q-7 110 -83 110t-83 -110zM397 166h194q-11 -79 -70 -126q-43 -34 -63 -55.5t-20 -39.5q0 -29 44 -29v-104h-35q-150 0 -150 88q0 32 22 53t76 40v2q-56 -9 -83 -9q-134 0 -206.5 75.5t-72.5 211.5q0 128 75 204.5t204 76.5q143 0 212.5 -77t69.5 -211v-39 h-364q4 -63 26 -88.5t63 -25.5q62 0 78 53z" horiz-adv-x="629" unicode="ę"/>
<glyph glyph-name="Ecaron" d="M238 827l-109 133h132l61 -45h1l58 45h124l-109 -133h-158zM62 0v765h512v-148h-309v-165h299v-144h-299v-162h320v-146h-523z" horiz-adv-x="633" unicode="Ě"/>
<glyph glyph-name="ecaron" d="M236 608l-112 180h125l63 -64h1l60 64h117l-112 -180h-142zM591 166q-11 -88 -82 -134t-197 -46q-134 0 -206.5 75.5t-72.5 211.5q0 128 75 204.5t204 76.5q143 0 212.5 -77t69.5 -211v-39h-364q4 -63 26 -88.5t63 -25.5q62 0 78 53h194zM395 328l-1 7q-9 103 -82 103 q-74 0 -83 -110h166z" horiz-adv-x="629" unicode="ě"/>
<glyph glyph-name="Gcircumflex" d="M476 960l109 -133h-132l-61 45h-1l-58 -45h-124l109 133h158zM410 634q-73 0 -113.5 -63t-40.5 -191q0 -138 41 -196t117 -58q62 0 98.5 37t44.5 104l2 16h-159v137h346v-420h-157v100h-3q-62 -116 -214 -116q-166 0 -249 105t-83 277q0 187 100 298.5t270 111.5 q147 0 229.5 -66.5t95.5 -191.5h-204q-7 52 -38.5 84t-82.5 32z" horiz-adv-x="800" unicode="Ĝ"/>
<glyph glyph-name="gcircumflex" d="M381 788l112 -180h-125l-63 64h-1l-60 -64h-117l112 180h142zM327 -199q-264 0 -273 179h189q7 -30 25.5 -44t60.5 -14q50 0 73 28t23 90v74h-3q-40 -92 -150 -92q-237 0 -237 260q0 127 67.5 198t169.5 71q57 0 94.5 -22t55.5 -56h2v68h188v-482q0 -130 -68 -194 t-217 -64zM425 246v62q0 55 -25 85t-67 30t-70 -34.5t-28 -106.5q0 -69 25.5 -105t70.5 -36q42 0 68 29.5t26 75.5z" horiz-adv-x="666" unicode="ĝ"/>
<glyph glyph-name="Gbreve" d="M399 807q-78 0 -126.5 40.5t-48.5 125.5h121q1 -25 17 -40t40 -15t40.5 15t17.5 40h115q0 -85 -48.5 -125.5t-127.5 -40.5zM410 634q-73 0 -113.5 -63t-40.5 -191q0 -138 41 -196t117 -58q62 0 98.5 37t44.5 104l2 16h-159v137h346v-420h-157v100h-3q-62 -116 -214 -116 q-166 0 -249 105t-83 277q0 187 100 298.5t270 111.5q147 0 229.5 -66.5t95.5 -191.5h-204q-7 52 -38.5 84t-82.5 32z" horiz-adv-x="800" unicode="Ğ"/>
<glyph glyph-name="gbreve" d="M305 603q-78 0 -126.5 46t-48.5 139h124q0 -30 14.5 -46t39.5 -16t39.5 16t14.5 46h119q0 -93 -49 -139t-127 -46zM327 -199q-264 0 -273 179h189q7 -30 25.5 -44t60.5 -14q50 0 73 28t23 90v74h-3q-40 -92 -150 -92q-237 0 -237 260q0 127 67.5 198t169.5 71 q57 0 94.5 -22t55.5 -56h2v68h188v-482q0 -130 -68 -194t-217 -64zM425 246v62q0 55 -25 85t-67 30t-70 -34.5t-28 -106.5q0 -69 25.5 -105t70.5 -36q42 0 68 29.5t26 75.5z" horiz-adv-x="666" unicode="ğ"/>
<glyph glyph-name="Gdotaccent" d="M320 831v157h160v-157h-160zM410 634q-73 0 -113.5 -63t-40.5 -191q0 -138 41 -196t117 -58q62 0 98.5 37t44.5 104l2 16h-159v137h346v-420h-157v100h-3q-62 -116 -214 -116q-166 0 -249 105t-83 277q0 187 100 298.5t270 111.5q147 0 229.5 -66.5t95.5 -191.5h-204 q-7 52 -38.5 84t-82.5 32z" horiz-adv-x="800" unicode="Ġ"/>
<glyph glyph-name="gdotaccent" d="M225 631v157h160v-157h-160zM327 -199q-264 0 -273 179h189q7 -30 25.5 -44t60.5 -14q50 0 73 28t23 90v74h-3q-40 -92 -150 -92q-237 0 -237 260q0 127 67.5 198t169.5 71q57 0 94.5 -22t55.5 -56h2v68h188v-482q0 -130 -68 -194t-217 -64zM425 246v62q0 55 -25 85 t-67 30t-70 -34.5t-28 -106.5q0 -69 25.5 -105t70.5 -36q42 0 68 29.5t26 75.5z" horiz-adv-x="666" unicode="ġ"/>
<glyph glyph-name="Gcommaaccent" d="M275 -228l26 166h185l-79 -166h-132zM410 634q-73 0 -113.5 -63t-40.5 -191q0 -138 41 -196t117 -58q62 0 98.5 37t44.5 104l2 16h-159v137h346v-420h-157v100h-3q-62 -116 -214 -116q-166 0 -249 105t-83 277q0 187 100 298.5t270 111.5q147 0 229.5 -66.5t95.5 -191.5 h-204q-7 52 -38.5 84t-82.5 32z" horiz-adv-x="800" unicode="Ģ"/>
<glyph glyph-name="gcommaaccent" d="M416 788l-29 -180h-189l88 180h130zM327 -199q-264 0 -273 179h189q7 -30 25.5 -44t60.5 -14q50 0 73 28t23 90v74h-3q-40 -92 -150 -92q-237 0 -237 260q0 127 67.5 198t169.5 71q57 0 94.5 -22t55.5 -56h2v68h188v-482q0 -130 -68 -194t-217 -64zM425 246v62 q0 55 -25 85t-67 30t-70 -34.5t-28 -106.5q0 -69 25.5 -105t70.5 -36q42 0 68 29.5t26 75.5z" horiz-adv-x="666" unicode="ģ"/>
<glyph glyph-name="Hcircumflex" d="M478 960l109 -133h-132l-61 45h-1l-58 -45h-124l109 133h158zM265 304v-304h-203v765h203v-310h258v310h205v-765h-205v304h-258z" horiz-adv-x="790" unicode="Ĥ"/>
<glyph glyph-name="hcircumflex" d="M415 960l109 -133h-132l-61 45h-1l-58 -45h-124l109 133h158zM415 0v307q0 58 -14 80q-19 28 -62 28q-89 0 -89 -108v-307h-196v788h196v-332h2q20 40 63.5 67.5t106.5 27.5q104 0 146.5 -53t42.5 -160v-338h-196z" horiz-adv-x="659" unicode="ĥ"/>
<glyph glyph-name="Hbar" d="M265 304v-304h-203v560h-71v110h71v95h203v-95h258v95h205v-95h71v-110h-71v-560h-205v304h-258zM523 455v105h-258v-105h258z" horiz-adv-x="790" unicode="Ħ"/>
<glyph glyph-name="hbar" d="M250 307v-307h-196v598h-80v109h80v81h196v-81h145v-109h-145v-142h2q20 40 63.5 67.5t106.5 27.5q104 0 146.5 -53t42.5 -160v-338h-196v307q0 58 -14 80q-19 28 -62 28q-89 0 -89 -108z" horiz-adv-x="659" unicode="ħ"/>
<glyph glyph-name="Itilde" d="M-33 815q3 78 30 122t93 44q33 0 77.5 -23.5t63.5 -23.5q33 0 50 47h79q-3 -79 -30 -122.5t-93 -43.5q-33 0 -77.5 23t-63.5 23q-33 0 -48 -46h-81zM62 0v765h203v-765h-203z" horiz-adv-x="327" unicode="Ĩ"/>
<glyph glyph-name="itilde" d="M-15 608q0 180 106 180q28 0 64.5 -22.5t52.5 -22.5q31 0 44 45h67q0 -180 -106 -180q-28 0 -64.5 22.5t-52.5 22.5q-31 0 -42 -45h-69zM54 0v541h196v-541h-196z" horiz-adv-x="304" unicode="ĩ"/>
<glyph glyph-name="Imacron" d="M-21 831v120h369v-120h-369zM62 0v765h203v-765h-203z" horiz-adv-x="327" unicode="Ī"/>
<glyph glyph-name="imacron" d="M5 631v120h295v-120h-295zM54 0v541h196v-541h-196z" horiz-adv-x="304" unicode="ī"/>
<glyph glyph-name="Ibreve" d="M163 807q-78 0 -126.5 40.5t-48.5 125.5h121q1 -25 17 -40t40 -15t40.5 15t17.5 40h115q0 -85 -48.5 -125.5t-127.5 -40.5zM62 0v765h203v-765h-203z" horiz-adv-x="327" unicode="Ĭ"/>
<glyph glyph-name="ibreve" d="M152 603q-70 0 -114 46t-44 139h112q0 -62 48 -62q22 0 35.5 16t13.5 46h107q0 -93 -44 -139t-114 -46zM54 0v541h196v-541h-196z" horiz-adv-x="304" unicode="ĭ"/>
<glyph glyph-name="Iogonek" d="M62 0v765h203v-751q-64 -40 -64 -69t44 -29v-104h-35q-84 0 -117 23.5t-33 65.5q0 65 82 99h-80z" horiz-adv-x="327" unicode="Į"/>
<glyph glyph-name="iogonek" d="M54 0v541h196v-533q-59 -31 -59 -63q0 -29 44 -29v-104h-35q-84 0 -117 23.5t-33 65.5q0 65 84 99h-80zM54 619v169h196v-169h-196z" horiz-adv-x="304" unicode="į"/>
<glyph glyph-name="Idotaccent" d="M83 831v157h160v-157h-160zM62 0v765h203v-765h-203z" horiz-adv-x="327" unicode="İ"/>
<glyph glyph-name="dotlessi" d="M54 0v541h196v-541h-196z" horiz-adv-x="304" unicode="ı"/>
<glyph glyph-name="IJ" d="M62 0v765h203v-765h-203zM438 -3h-64v158h35q76 0 100 30.5t24 97.5v482h200v-508q0 -145 -74.5 -202.5t-220.5 -57.5z" horiz-adv-x="788" unicode="Ĳ"/>
<glyph glyph-name="ij" d="M348 -210q-25 0 -47 3t-31 5l-9 3v129q13 -5 35 -5q36 0 52 18.5t16 59.5v538h196v-537q0 -118 -56 -166t-156 -48zM364 619v169h196v-169h-196zM54 0v541h196v-541h-196zM54 619v169h196v-169h-196z" horiz-adv-x="614" unicode="ĳ"/>
<glyph glyph-name="Jcircumflex" d="M390 960l109 -133h-132l-61 45h-1l-58 -45h-124l109 133h158zM111 -3h-74v158h45q76 0 100 30.5t24 97.5v482h200v-508q0 -145 -74.5 -202.5t-220.5 -57.5z" horiz-adv-x="461" unicode="Ĵ"/>
<glyph glyph-name="jcircumflex" d="M219 788l101 -180h-112l-57 64h-1l-54 -64h-105l101 180h127zM-43 -199v129q13 -5 35 -5q36 0 52 18.5t16 59.5v538h196v-537q0 -118 -56 -166t-156 -48q-25 0 -47 3t-31 5z" horiz-adv-x="310" unicode="ĵ"/>
<glyph glyph-name="Kcommaaccent" d="M270 -228l26 166h185l-79 -166h-132zM265 223v-223h-203v765h203v-304l236 304h221l-265 -318l273 -447h-230l-178 292z" horiz-adv-x="747" unicode="Ķ"/>
<glyph glyph-name="kcommaaccent" d="M215 -228l26 166h185l-79 -166h-132zM246 128v-128h-192v788h192v-449l163 202h202l-181 -217l182 -324h-207l-106 195z" horiz-adv-x="620" unicode="ķ"/>
<glyph glyph-name="kgreenlandic" d="M246 128v-128h-192v541h192v-202l163 202h202l-181 -217l182 -324h-207l-106 195z" horiz-adv-x="620" unicode="ĸ"/>
<glyph glyph-name="Lacute" d="M91 827l66 133h187l-108 -133h-145zM62 0v765h203v-613h303v-152h-506z" horiz-adv-x="613" unicode="Ĺ"/>
<glyph glyph-name="lacute" d="M68 827l66 133h187l-108 -133h-145zM54 0v788h196v-788h-196z" horiz-adv-x="304" unicode="ĺ"/>
<glyph glyph-name="Lcommaaccent" d="M197 -228l26 166h185l-79 -166h-132zM62 0v765h203v-613h303v-152h-506z" horiz-adv-x="613" unicode="Ļ"/>
<glyph glyph-name="lcommaaccent" d="M34 -228l26 166h185l-79 -166h-132zM54 0v788h196v-788h-196z" horiz-adv-x="304" unicode="ļ"/>
<glyph glyph-name="Lcaron" d="M62 0v765h203v-613h303v-152h-506zM352 568l10 220h146l-70 -220h-86z" horiz-adv-x="613" unicode="Ľ"/>
<glyph glyph-name="lcaron" d="M315 588v200h146l-60 -200h-86zM54 0v788h196v-788h-196z" horiz-adv-x="304" unicode="ľ"/>
<glyph glyph-name="Ldot" d="M370 343v179h195v-179h-195zM62 0v765h203v-613h303v-152h-506z" horiz-adv-x="613" unicode="Ŀ"/>
<glyph glyph-name="ldot" d="M352 315v179h195v-179h-195zM54 0v788h196v-788h-196z" horiz-adv-x="595" unicode="ŀ"/>
<glyph glyph-name="Lslash" d="M62 0v248l-78 -27v139l78 27v378h203v-306l208 73v-139l-208 -73v-168h303v-152h-506z" horiz-adv-x="613" unicode="Ł"/>
<glyph glyph-name="lslash" d="M250 0h-196v279l-70 -38v139l70 38v370h196v-264l70 38v-139l-70 -38v-385z" horiz-adv-x="304" unicode="ł"/>
<glyph glyph-name="Nacute" d="M315 827l66 133h187l-108 -133h-145zM62 0v765h215l197 -331q20 -35 36 -68.5t22 -49.5l6 -16h3v465h182v-765h-202l-207 343q-21 34 -38 69t-24 52l-7 18h-3v-482h-180z" horiz-adv-x="785" unicode="Ń"/>
<glyph glyph-name="nacute" d="M275 608l49 180h189l-88 -180h-150zM415 0v307q0 58 -14 80q-19 28 -62 28q-89 0 -89 -108v-307h-196v541h189v-88h2q58 98 177 98q104 0 146.5 -53t42.5 -160v-338h-196z" horiz-adv-x="659" unicode="ń"/>
<glyph glyph-name="Ncommaaccent" d="M274 -228l26 166h185l-79 -166h-132zM62 0v765h215l197 -331q20 -35 36 -68.5t22 -49.5l6 -16h3v465h182v-765h-202l-207 343q-21 34 -38 69t-24 52l-7 18h-3v-482h-180z" horiz-adv-x="785" unicode="Ņ"/>
<glyph glyph-name="ncommaaccent" d="M213 -228l26 166h185l-79 -166h-132zM415 0v307q0 58 -14 80q-19 28 -62 28q-89 0 -89 -108v-307h-196v541h189v-88h2q58 98 177 98q104 0 146.5 -53t42.5 -160v-338h-196z" horiz-adv-x="659" unicode="ņ"/>
<glyph glyph-name="Ncaron" d="M307 827l-109 133h132l61 -45h1l58 45h124l-109 -133h-158zM62 0v765h215l197 -331q20 -35 36 -68.5t22 -49.5l6 -16h3v465h182v-765h-202l-207 343q-21 34 -38 69t-24 52l-7 18h-3v-482h-180z" horiz-adv-x="785" unicode="Ň"/>
<glyph glyph-name="ncaron" d="M285 608l-112 180h125l63 -64h1l60 64h117l-112 -180h-142zM415 0v307q0 58 -14 80q-19 28 -62 28q-89 0 -89 -108v-307h-196v541h189v-88h2q58 98 177 98q104 0 146.5 -53t42.5 -160v-338h-196z" horiz-adv-x="659" unicode="ň"/>
<glyph glyph-name="napostrophe" d="M0 622l26 166h185l-79 -166h-132zM415 0v307q0 58 -14 80q-19 28 -62 28q-89 0 -89 -108v-307h-196v541h189v-88h2q58 98 177 98q104 0 146.5 -53t42.5 -160v-338h-196z" horiz-adv-x="659" unicode="ŉ"/>
<glyph glyph-name="Eng" d="M428 -188h-74v148h45q88 0 119 46l-204 337q-21 34 -38 69t-24 52l-7 18h-3v-482h-180v765h215l197 -331q20 -35 36 -68.5t22 -49.5l6 -16h3v465h182v-693q0 -145 -74.5 -202.5t-220.5 -57.5z" horiz-adv-x="785" unicode="Ŋ"/>
<glyph glyph-name="eng" d="M399 -210q-25 0 -47 3t-31 5l-9 3v129q13 -5 35 -5q36 0 52 18.5t16 59.5v304q0 58 -14 80q-19 28 -62 28q-89 0 -89 -108v-307h-196v541h189v-88h2q58 98 177 98q104 0 146.5 -53t42.5 -160v-334q0 -118 -56 -166t-156 -48z" horiz-adv-x="659" unicode="ŋ"/>
<glyph glyph-name="Omacron" d="M226 831v120h369v-120h-369zM411 128q150 0 150 252q0 123 -41 188.5t-109 65.5q-150 0 -150 -254q0 -129 35.5 -190.5t114.5 -61.5zM40 380q0 181 99.5 288.5t272.5 107.5q180 0 274.5 -104.5t94.5 -291.5q0 -183 -97.5 -289.5t-271.5 -106.5q-184 0 -278 104.5 t-94 291.5z" horiz-adv-x="821" unicode="Ō"/>
<glyph glyph-name="omacron" d="M139 631v120h369v-120h-369zM324 427q-88 0 -88 -157t88 -157q87 0 87 157t-87 157zM324 -14q-134 0 -212.5 75t-78.5 209q0 136 77.5 210t213.5 74q129 0 209.5 -74.5t80.5 -209.5q0 -132 -80.5 -208t-209.5 -76z" horiz-adv-x="647" unicode="ō"/>
<glyph glyph-name="Obreve" d="M410 807q-78 0 -126.5 40.5t-48.5 125.5h121q1 -25 17 -40t40 -15t40.5 15t17.5 40h115q0 -85 -48.5 -125.5t-127.5 -40.5zM411 128q150 0 150 252q0 123 -41 188.5t-109 65.5q-150 0 -150 -254q0 -129 35.5 -190.5t114.5 -61.5zM40 380q0 181 99.5 288.5t272.5 107.5 q180 0 274.5 -104.5t94.5 -291.5q0 -183 -97.5 -289.5t-271.5 -106.5q-184 0 -278 104.5t-94 291.5z" horiz-adv-x="821" unicode="Ŏ"/>
<glyph glyph-name="obreve" d="M323 603q-78 0 -126.5 46t-48.5 139h124q0 -30 14.5 -46t39.5 -16t39.5 16t14.5 46h119q0 -93 -49 -139t-127 -46zM324 427q-88 0 -88 -157t88 -157q87 0 87 157t-87 157zM324 -14q-134 0 -212.5 75t-78.5 209q0 136 77.5 210t213.5 74q129 0 209.5 -74.5t80.5 -209.5 q0 -132 -80.5 -208t-209.5 -76z" horiz-adv-x="647" unicode="ŏ"/>
<glyph glyph-name="Ohungarumlaut" d="M257 827l16 133h144l-50 -133h-110zM436 827l36 133h144l-70 -133h-110zM411 128q150 0 150 252q0 123 -41 188.5t-109 65.5q-150 0 -150 -254q0 -129 35.5 -190.5t114.5 -61.5zM40 380q0 181 99.5 288.5t272.5 107.5q180 0 274.5 -104.5t94.5 -291.5 q0 -183 -97.5 -289.5t-271.5 -106.5q-184 0 -278 104.5t-94 291.5z" horiz-adv-x="821" unicode="Ő"/>
<glyph glyph-name="ohungarumlaut" d="M172 608l31 180h147l-65 -180h-113zM348 608l51 180h147l-85 -180h-113zM324 427q-88 0 -88 -157t88 -157q87 0 87 157t-87 157zM324 -14q-134 0 -212.5 75t-78.5 209q0 136 77.5 210t213.5 74q129 0 209.5 -74.5t80.5 -209.5q0 -132 -80.5 -208t-209.5 -76z" horiz-adv-x="647" unicode="ő"/>
<glyph glyph-name="OE" d="M555 65q-59 -79 -189 -79q-153 0 -240 102t-87 292q0 189 94.5 292.5t245.5 103.5q122 0 176 -86h2v75h512v-148h-309v-165h299v-144h-299v-162h320v-146h-523v65h-2zM557 317v110q0 102 -37 154.5t-106 52.5t-111 -61.5t-42 -192.5q0 -252 150 -252q71 0 108.5 51.5 t37.5 137.5z" horiz-adv-x="1128" unicode="Œ"/>
<glyph glyph-name="oe" d="M957 166q-11 -88 -82 -134t-197 -46q-116 0 -177 61q-64 -61 -177 -61q-134 0 -212.5 75t-78.5 209q0 136 77.5 210t213.5 74q115 0 179 -62q62 62 175 62q143 0 212.5 -77t69.5 -211v-39h-364q4 -63 26 -88.5t63 -25.5q62 0 78 53h194zM324 427q-88 0 -88 -157t88 -157 q87 0 87 157t-87 157zM761 328l-1 7q-9 103 -82 103q-74 0 -83 -110h166z" horiz-adv-x="995" unicode="œ"/>
<glyph glyph-name="Racute" d="M287 827l66 133h187l-108 -133h-145zM491 0l-137 273h-89v-273h-203v765h311q95 0 157 -25q143 -57 143 -205q0 -76 -39.5 -129t-100.5 -81v-2l173 -323h-215zM265 411h80q53 0 87.5 26.5t34.5 84.5q0 32 -12 55t-31.5 34t-38 15.5t-38.5 4.5h-82v-220z" horiz-adv-x="726" unicode="Ŕ"/>
<glyph glyph-name="racute" d="M156 608l49 180h189l-88 -180h-150zM54 0v541h185v-121h2q23 67 73.5 98t108.5 31h9v-170h-34q-79 0 -114.5 -26t-35.5 -100v-253h-194z" horiz-adv-x="447" unicode="ŕ"/>
<glyph glyph-name="Rcommaaccent" d="M246 -228l26 166h185l-79 -166h-132zM491 0l-137 273h-89v-273h-203v765h311q95 0 157 -25q143 -57 143 -205q0 -76 -39.5 -129t-100.5 -81v-2l173 -323h-215zM265 411h80q53 0 87.5 26.5t34.5 84.5q0 32 -12 55t-31.5 34t-38 15.5t-38.5 4.5h-82v-220z" horiz-adv-x="726" unicode="Ŗ"/>
<glyph glyph-name="rcommaaccent" d="M30 -228l26 166h185l-79 -166h-132zM54 0v541h185v-121h2q23 67 73.5 98t108.5 31h9v-170h-34q-79 0 -114.5 -26t-35.5 -100v-253h-194z" horiz-adv-x="447" unicode="ŗ"/>
<glyph glyph-name="Rcaron" d="M279 827l-109 133h132l61 -45h1l58 45h124l-109 -133h-158zM491 0l-137 273h-89v-273h-203v765h311q95 0 157 -25q143 -57 143 -205q0 -76 -39.5 -129t-100.5 -81v-2l173 -323h-215zM265 411h80q53 0 87.5 26.5t34.5 84.5q0 32 -12 55t-31.5 34t-38 15.5t-38.5 4.5h-82 v-220z" horiz-adv-x="726" unicode="Ř"/>
<glyph glyph-name="rcaron" d="M166 608l-112 180h125l63 -64h1l60 64h117l-112 -180h-142zM54 0v541h185v-121h2q23 67 73.5 98t108.5 31h9v-170h-34q-79 0 -114.5 -26t-35.5 -100v-253h-194z" horiz-adv-x="447" unicode="ř"/>
<glyph glyph-name="Sacute" d="M269 827l66 133h187l-108 -133h-145zM645 556h-207q-2 31 -25.5 53.5t-65.5 22.5q-40 0 -65 -18.5t-25 -51.5q0 -32 19.5 -50t67.5 -27l120 -22q98 -18 150 -72t52 -140q0 -131 -84.5 -199t-238.5 -68q-304 0 -316 237h211q5 -44 33.5 -68.5t76.5 -24.5q50 0 78.5 22.5 t28.5 57.5t-21.5 52.5t-75.5 27.5l-118 23q-83 17 -138 72t-55 148q0 109 78.5 177t222.5 68q152 0 223 -59.5t74 -160.5z" horiz-adv-x="691" unicode="Ś"/>
<glyph glyph-name="sacute" d="M187 608l49 180h189l-88 -180h-150zM508 382h-170q-2 22 -17.5 37.5t-44.5 15.5q-59 0 -59 -41q0 -18 11.5 -28.5t41.5 -14.5l96 -13q73 -9 115 -48.5t42 -111.5q0 -92 -68 -143t-179 -51q-239 0 -251 175h177q3 -56 74 -56q69 0 69 45q0 19 -13 28.5t-42 13.5l-88 11 q-164 21 -164 168q0 77 60 131t178 54q114 0 170.5 -46.5t61.5 -125.5z" horiz-adv-x="553" unicode="ś"/>
<glyph glyph-name="Scircumflex" d="M429 960l109 -133h-132l-61 45h-1l-58 -45h-124l109 133h158zM645 556h-207q-2 31 -25.5 53.5t-65.5 22.5q-40 0 -65 -18.5t-25 -51.5q0 -32 19.5 -50t67.5 -27l120 -22q98 -18 150 -72t52 -140q0 -131 -84.5 -199t-238.5 -68q-304 0 -316 237h211q5 -44 33.5 -68.5 t76.5 -24.5q50 0 78.5 22.5t28.5 57.5t-21.5 52.5t-75.5 27.5l-118 23q-83 17 -138 72t-55 148q0 109 78.5 177t222.5 68q152 0 223 -59.5t74 -160.5z" horiz-adv-x="691" unicode="Ŝ"/>
<glyph glyph-name="scircumflex" d="M350 788l112 -180h-125l-63 64h-1l-60 -64h-117l112 180h142zM508 382h-170q-2 22 -17.5 37.5t-44.5 15.5q-59 0 -59 -41q0 -18 11.5 -28.5t41.5 -14.5l96 -13q73 -9 115 -48.5t42 -111.5q0 -92 -68 -143t-179 -51q-239 0 -251 175h177q3 -56 74 -56q69 0 69 45 q0 19 -13 28.5t-42 13.5l-88 11q-164 21 -164 168q0 77 60 131t178 54q114 0 170.5 -46.5t61.5 -125.5z" horiz-adv-x="553" unicode="ŝ"/>
<glyph glyph-name="Scedilla" d="M348 -242q-53 0 -84.5 25t-33.5 60h88q9 -20 32 -20q32 0 32 29t-32 29q-18 0 -28 -13h-70l51 117q-266 16 -276 236h211q5 -44 33.5 -68.5t76.5 -24.5q50 0 78.5 22.5t28.5 57.5t-21.5 52.5t-75.5 27.5l-118 23q-83 17 -138 72t-55 148q0 109 78.5 177t222.5 68 q152 0 223 -59.5t74 -160.5h-207q-2 31 -25.5 53.5t-65.5 22.5q-40 0 -65 -18.5t-25 -51.5q0 -32 19.5 -50t67.5 -27l120 -22q98 -18 150 -72t52 -140q0 -127 -80 -195t-227 -72l-17 -39h2q14 9 42 9q39 0 65.5 -26t26.5 -69q0 -42 -33 -71.5t-97 -29.5z" horiz-adv-x="691" unicode="Ş"/>
<glyph glyph-name="scedilla" d="M269 -242q-53 0 -84.5 25t-33.5 60h88q9 -20 32 -20q32 0 32 29t-32 29q-18 0 -28 -13h-70l51 118q-189 17 -199 173h177q3 -56 74 -56q69 0 69 45q0 19 -13 28.5t-42 13.5l-88 11q-164 21 -164 168q0 77 60 131t178 54q114 0 170.5 -46.5t61.5 -125.5h-170 q-2 22 -17.5 37.5t-44.5 15.5q-59 0 -59 -41q0 -18 11.5 -28.5t41.5 -14.5l96 -13q73 -9 115 -48.5t42 -111.5q0 -92 -67.5 -143t-175.5 -51l-17 -39h2q13 9 42 9q39 0 65.5 -26t26.5 -69q0 -42 -33 -71.5t-97 -29.5z" horiz-adv-x="553" unicode="ş"/>
<glyph glyph-name="Scaron" d="M261 827l-109 133h132l61 -45h1l58 45h124l-109 -133h-158zM645 556h-207q-2 31 -25.5 53.5t-65.5 22.5q-40 0 -65 -18.5t-25 -51.5q0 -32 19.5 -50t67.5 -27l120 -22q98 -18 150 -72t52 -140q0 -131 -84.5 -199t-238.5 -68q-304 0 -316 237h211q5 -44 33.5 -68.5 t76.5 -24.5q50 0 78.5 22.5t28.5 57.5t-21.5 52.5t-75.5 27.5l-118 23q-83 17 -138 72t-55 148q0 109 78.5 177t222.5 68q152 0 223 -59.5t74 -160.5z" horiz-adv-x="691" unicode="Š"/>
<glyph glyph-name="scaron" d="M197 608l-112 180h125l63 -64h1l60 64h117l-112 -180h-142zM508 382h-170q-2 22 -17.5 37.5t-44.5 15.5q-59 0 -59 -41q0 -18 11.5 -28.5t41.5 -14.5l96 -13q73 -9 115 -48.5t42 -111.5q0 -92 -68 -143t-179 -51q-239 0 -251 175h177q3 -56 74 -56q69 0 69 45 q0 19 -13 28.5t-42 13.5l-88 11q-164 21 -164 168q0 77 60 131t178 54q114 0 170.5 -46.5t61.5 -125.5z" horiz-adv-x="553" unicode="š"/>
<glyph glyph-name="Tcommaaccent" d="M215 -228l26 166h185l-79 -166h-132zM640 765v-155h-205v-610h-203v610h-205v155h613z" horiz-adv-x="667" unicode="Ţ"/>
<glyph glyph-name="tcommaaccent" d="M136 -228l26 166h185l-79 -166h-132zM117 690h165v-149h114v-133h-111v-196q0 -41 16 -59.5t54 -18.5l38 3v-137q-54 -7 -117 -7q-184 0 -184 181v234h-71v133h20q50 0 63 18.5t13 88.5v42z" horiz-adv-x="421" unicode="ţ"/>
<glyph glyph-name="Tcaron" d="M257 827l-109 133h132l61 -45h1l58 45h124l-109 -133h-158zM640 765v-155h-205v-610h-203v610h-205v155h613z" horiz-adv-x="667" unicode="Ť"/>
<glyph glyph-name="tcaron" d="M367 588v200h146l-60 -200h-86zM117 690h165v-149h114v-133h-111v-196q0 -41 16 -59.5t54 -18.5l38 3v-137q-54 -7 -117 -7q-184 0 -184 181v234h-71v133h20q50 0 63 18.5t13 88.5v42z" horiz-adv-x="421" unicode="ť"/>
<glyph glyph-name="Tbar" d="M435 343v-343h-203v343h-165v117h165v150h-205v155h613v-155h-205v-150h165v-117h-165z" horiz-adv-x="667" unicode="Ŧ"/>
<glyph glyph-name="tbar" d="M393 0q-54 -7 -117 -7q-184 0 -184 181v45h-71v113h71v84h-71v125h20q50 0 63 18.5t13 88.5v42h165v-149h114v-125h-111v-84h111v-113h-111v-7q0 -41 16 -59.5t54 -18.5l38 3v-137z" horiz-adv-x="421" unicode="ŧ"/>
<glyph glyph-name="Utilde" d="M183 815q3 78 30 122t93 44q33 0 77.5 -23.5t63.5 -23.5q33 0 50 47h79q-3 -79 -30 -122.5t-93 -43.5q-33 0 -77.5 23t-63.5 23q-33 0 -48 -46h-81zM56 274v491h203l-1 -450q0 -98 24 -130q34 -43 98 -43q70 0 103 43q20 27 20 108v22v450h200v-491q0 -142 -87.5 -216 t-237.5 -74t-236 74t-86 216z" horiz-adv-x="759" unicode="Ũ"/>
<glyph glyph-name="utilde" d="M127 608q0 180 125 180q33 0 75.5 -22.5t61.5 -22.5q37 0 52 45h79q0 -180 -125 -180q-33 0 -75.5 22.5t-61.5 22.5q-37 0 -50 -45h-81zM244 541v-308q0 -54 15 -77q18 -29 61 -29q83 0 83 116v298h196v-541h-189v85h-2q-53 -94 -168 -94q-104 0 -148 49t-44 149v352h196 z" horiz-adv-x="653" unicode="ũ"/>
<glyph glyph-name="Umacron" d="M195 831v120h369v-120h-369zM56 274v491h203l-1 -450q0 -98 24 -130q34 -43 98 -43q70 0 103 43q20 27 20 108v22v450h200v-491q0 -142 -87.5 -216t-237.5 -74t-236 74t-86 216z" horiz-adv-x="759" unicode="Ū"/>
<glyph glyph-name="umacron" d="M139 631v120h369v-120h-369zM244 541v-308q0 -54 15 -77q18 -29 61 -29q83 0 83 116v298h196v-541h-189v85h-2q-53 -94 -168 -94q-104 0 -148 49t-44 149v352h196z" horiz-adv-x="653" unicode="ū"/>
<glyph glyph-name="Ubreve" d="M379 807q-78 0 -126.5 40.5t-48.5 125.5h121q1 -25 17 -40t40 -15t40.5 15t17.5 40h115q0 -85 -48.5 -125.5t-127.5 -40.5zM56 274v491h203l-1 -450q0 -98 24 -130q34 -43 98 -43q70 0 103 43q20 27 20 108v22v450h200v-491q0 -142 -87.5 -216t-237.5 -74t-236 74 t-86 216z" horiz-adv-x="759" unicode="Ŭ"/>
<glyph glyph-name="ubreve" d="M323 603q-78 0 -126.5 46t-48.5 139h124q0 -30 14.5 -46t39.5 -16t39.5 16t14.5 46h119q0 -93 -49 -139t-127 -46zM244 541v-308q0 -54 15 -77q18 -29 61 -29q83 0 83 116v298h196v-541h-189v85h-2q-53 -94 -168 -94q-104 0 -148 49t-44 149v352h196z" horiz-adv-x="653" unicode="ŭ"/>
<glyph glyph-name="Uring" d="M379 981q-25 0 -39 -16.5t-14 -44.5q0 -27 14.5 -43.5t39.5 -16.5q24 0 38 16.5t14 43.5q0 28 -14 44.5t-39 16.5zM379 790q-66 0 -104.5 36t-38.5 95q0 58 40 95t104 37q67 0 105 -36t38 -96q0 -59 -40 -95t-104 -36zM56 274v491h203l-1 -450q0 -98 24 -130 q34 -43 98 -43q70 0 103 43q20 27 20 108v22v450h200v-491q0 -142 -87.5 -216t-237.5 -74t-236 74t-86 216z" horiz-adv-x="759" unicode="Ů"/>
<glyph glyph-name="uring" d="M323 781q-25 0 -39 -16.5t-14 -44.5q0 -27 14.5 -43.5t39.5 -16.5q24 0 38 16.5t14 43.5q0 28 -14 44.5t-39 16.5zM323 590q-66 0 -104.5 36t-38.5 95q0 58 40 95t104 37q67 0 105 -36t38 -96q0 -59 -40 -95t-104 -36zM244 541v-308q0 -54 15 -77q18 -29 61 -29 q83 0 83 116v298h196v-541h-189v85h-2q-53 -94 -168 -94q-104 0 -148 49t-44 149v352h196z" horiz-adv-x="653" unicode="ů"/>
<glyph glyph-name="Uhungarumlaut" d="M226 827l16 133h144l-50 -133h-110zM405 827l36 133h144l-70 -133h-110zM56 274v491h203l-1 -450q0 -98 24 -130q34 -43 98 -43q70 0 103 43q20 27 20 108v22v450h200v-491q0 -142 -87.5 -216t-237.5 -74t-236 74t-86 216z" horiz-adv-x="759" unicode="Ű"/>
<glyph glyph-name="uhungarumlaut" d="M172 608l31 180h147l-65 -180h-113zM348 608l51 180h147l-85 -180h-113zM244 541v-308q0 -54 15 -77q18 -29 61 -29q83 0 83 116v298h196v-541h-189v85h-2q-53 -94 -168 -94q-104 0 -148 49t-44 149v352h196z" horiz-adv-x="653" unicode="ű"/>
<glyph glyph-name="Uogonek" d="M56 274v491h203l-1 -450q0 -99 24 -130q33 -43 98 -43q71 0 103 43q20 28 20 101v29v450h200v-491q0 -118 -61 -189t-152 -86q-87 -15 -87 -54q0 -29 44 -29v-104h-35q-84 0 -117 23.5t-33 65.5q0 59 75 87q-133 9 -207 81t-74 205z" horiz-adv-x="759" unicode="Ų"/>
<glyph glyph-name="uogonek" d="M410 0v85h-2q-53 -94 -168 -94q-104 0 -148 49t-44 149v352h196v-308q0 -54 15 -77q18 -29 61 -29q83 0 83 116v298h196v-533q-59 -31 -59 -63q0 -29 44 -29v-104h-35q-84 0 -117 23.5t-33 65.5q0 65 84 99h-73z" horiz-adv-x="653" unicode="ų"/>
<glyph glyph-name="Wcircumflex" d="M631 960l109 -133h-132l-61 45h-1l-58 -45h-124l109 133h158zM404 0h-198l-194 765h210l83 -378q8 -34 13 -67t6 -49l2 -16h2q5 55 26 131l104 379h172l106 -378q9 -34 16.5 -67t10.5 -49l3 -16h1q5 55 21 131l81 379h183l-193 -765h-192l-108 408q-9 34 -14.5 64 t-6.5 43l-2 13h-2q-3 -43 -23 -119z" horiz-adv-x="1064" unicode="Ŵ"/>
<glyph glyph-name="wcircumflex" d="M521 788l112 -180h-125l-63 64h-1l-60 -64h-117l112 180h142zM164 0l-152 541h185l54 -225q7 -29 13 -63.5t8 -54.5l2 -19h3q11 71 30 137l63 225h149l64 -225q8 -30 15.5 -64t11.5 -54l3 -19h4q12 71 27 137l52 225h167l-151 -541h-185l-48 160q-10 33 -19.5 80.5 t-14.5 78.5l-5 31h-2q-23 -117 -45 -189l-49 -161h-180z" horiz-adv-x="875" unicode="ŵ"/>
<glyph glyph-name="Ycircumflex" d="M453 960l109 -133h-132l-61 45h-1l-58 -45h-124l109 133h158zM259 0v319l-248 446h220l137 -273h2l134 273h205l-247 -444v-321h-203z" horiz-adv-x="720" unicode="Ŷ"/>
<glyph glyph-name="ycircumflex" d="M387 788l112 -180h-125l-63 64h-1l-60 -64h-117l112 180h142zM215 -4l-209 545h203l76 -257q8 -27 14 -56t8 -44l2 -16h2q5 55 22 116l70 257h190l-187 -549q-35 -101 -91 -146t-166 -45q-30 0 -53 2t-31 4l-8 2v138q20 -5 59 -5q81 0 97 48z" horiz-adv-x="599" unicode="ŷ"/>
<glyph glyph-name="Ydieresis" d="M183 831v157h160v-157h-160zM398 831v157h160v-157h-160zM259 0v319l-248 446h220l137 -273h2l134 273h205l-247 -444v-321h-203z" horiz-adv-x="720" unicode="Ÿ"/>
<glyph glyph-name="Zacute" d="M260 827l66 133h187l-108 -133h-145zM48 613v152h573v-135l-356 -477h360v-153h-595v135l357 478h-339z" horiz-adv-x="660" unicode="Ź"/>
<glyph glyph-name="zacute" d="M196 608l49 180h189l-88 -180h-150zM48 403v138h475v-116l-246 -285h250v-140h-488v117l248 286h-239z" horiz-adv-x="559" unicode="ź"/>
<glyph glyph-name="Zdotaccent" d="M257 831v157h160v-157h-160zM48 613v152h573v-135l-356 -477h360v-153h-595v135l357 478h-339z" horiz-adv-x="660" unicode="Ż"/>
<glyph glyph-name="zdotaccent" d="M203 631v157h160v-157h-160zM48 403v138h475v-116l-246 -285h250v-140h-488v117l248 286h-239z" horiz-adv-x="559" unicode="ż"/>
<glyph glyph-name="Zcaron" d="M252 827l-109 133h132l61 -45h1l58 45h124l-109 -133h-158zM48 613v152h573v-135l-356 -477h360v-153h-595v135l357 478h-339z" horiz-adv-x="660" unicode="Ž"/>
<glyph glyph-name="zcaron" d="M206 608l-112 180h125l63 -64h1l60 64h117l-112 -180h-142zM48 403v138h475v-116l-246 -285h250v-140h-488v117l248 286h-239z" horiz-adv-x="559" unicode="ž"/>
<glyph glyph-name="florin" d="M326 338l-69 -527h-187l65 527h-100v133h117l9 76q17 141 77.5 194.5t159.5 53.5l85 -6v-138q-13 3 -38 3q-39 0 -61.5 -21t-30.5 -86l-10 -76h112v-133h-129z" horiz-adv-x="508" unicode="ƒ"/>
<glyph glyph-name="Aringacute" d="M308 1078l66 133h187l-108 -133h-145zM385 981q-25 0 -39 -16.5t-14 -44.5q0 -27 14.5 -43.5t39.5 -16.5q24 0 38 16.5t14 43.5q0 28 -14 44.5t-39 16.5zM385 790q-66 0 -104.5 36t-38.5 95q0 58 40 95t104 37q67 0 105 -36t38 -96q0 -59 -40 -95t-104 -36zM555 0 l-44 138h-266l-45 -138h-191l265 765h224l268 -765h-211zM378 598q0 -1 -1 -6.5t-3 -16t-5.5 -24t-8.5 -33t-11 -40.5l-58 -195h174l-57 194q-10 35 -17 65t-9 43l-2 13h-2z" horiz-adv-x="775" unicode="Ǻ"/>
<glyph glyph-name="aringacute" d="M237 876l66 133h187l-108 -133h-145zM305 774q-25 0 -39 -16.5t-14 -44.5q0 -27 14.5 -43.5t39.5 -16.5q24 0 38 16.5t14 43.5q0 28 -14 44.5t-39 16.5zM305 583q-66 0 -104.5 36t-38.5 95q0 58 40 95t104 37q67 0 105 -36t38 -96q0 -59 -40 -95t-104 -36zM226 374h-187 q5 85 71 132t177 47q141 0 197 -55t56 -169v-170q0 -16 9 -22.5t31 -6.5v-130h-75q-61 0 -91 12t-45 52h-3q-59 -69 -158 -69q-87 0 -138 43.5t-51 120.5q0 92 82 135q27 15 70.5 23t72.5 10t106 5v32q0 68 -61 68q-60 0 -63 -58zM270 110q36 0 59 29.5t23 79.5v19 q-90 -5 -117 -23q-24 -16 -24 -48q0 -24 16 -40.5t43 -16.5z" horiz-adv-x="601" unicode="ǻ"/>
<glyph glyph-name="AEacute" d="M561 827l66 133h187l-108 -133h-145zM285 158l-74 -158h-210l383 765h657v-148h-309v-165h299v-144h-299v-162h320v-146h-523v158h-244zM529 303v314h-29l-147 -314h176z" horiz-adv-x="1100" unicode="Ǽ"/>
<glyph glyph-name="aeacute" d="M373 608l49 180h189l-88 -180h-150zM898 166q-11 -88 -81 -134t-191 -46q-157 0 -217 92h-2q-67 -83 -199 -83q-87 0 -138 43.5t-51 120.5q0 92 82 135q40 21 95 27.5t154 8.5v34q0 68 -61 68q-60 0 -63 -58h-187q5 85 70.5 132t177.5 47q115 0 165 -57h2q56 58 165 58 q144 0 213.5 -77t69.5 -211v-39h-365q4 -63 26 -88.5t63 -25.5q62 0 78 53h194zM270 110q36 0 59 29.5t23 79.5v16q-86 0 -117 -20q-24 -16 -24 -48q0 -25 16.5 -41t42.5 -16zM702 328l-1 7q-9 103 -82 103q-74 0 -83 -110h166z" horiz-adv-x="936" unicode="ǽ"/>
<glyph glyph-name="Oslashacute" d="M332 827l66 133h187l-108 -133h-145zM781 380q0 -183 -97.5 -289.5t-271.5 -106.5q-134 0 -223 57l-54 -66h-119l105 128q-81 102 -81 277q0 181 99.5 288.5t272.5 107.5q128 0 214 -54l58 71h119l-108 -132q86 -103 86 -281zM411 124q156 0 156 256q0 60 -10 112 l-259 -318q37 -50 113 -50zM411 638q-156 0 -156 -258q0 -65 6 -105l256 313q-39 50 -106 50z" horiz-adv-x="821" unicode="Ǿ"/>
<glyph glyph-name="oslashacute" d="M241 608l49 180h189l-88 -180h-150zM614 270q0 -132 -80.5 -208t-209.5 -76q-89 0 -155 34l-53 -64h-105l93 112q-71 74 -71 202q0 136 77.5 210t213.5 74q88 0 153 -35l54 65h105l-94 -113q72 -77 72 -201zM324 109q96 0 96 161q0 26 -3 50l-154 -186q23 -25 61 -25z M324 431q-97 0 -97 -161q0 -26 3 -50l154 187q-22 24 -60 24z" horiz-adv-x="647" unicode="ǿ"/>
<glyph glyph-name="Scommaaccent" d="M228 -228l26 166h185l-79 -166h-132zM645 556h-207q-2 31 -25.5 53.5t-65.5 22.5q-40 0 -65 -18.5t-25 -51.5q0 -32 19.5 -50t67.5 -27l120 -22q98 -18 150 -72t52 -140q0 -131 -84.5 -199t-238.5 -68q-304 0 -316 237h211q5 -44 33.5 -68.5t76.5 -24.5q50 0 78.5 22.5 t28.5 57.5t-21.5 52.5t-75.5 27.5l-118 23q-83 17 -138 72t-55 148q0 109 78.5 177t222.5 68q152 0 223 -59.5t74 -160.5z" horiz-adv-x="691" unicode="Ș"/>
<glyph glyph-name="scommaaccent" d="M156 -228l26 166h185l-79 -166h-132zM508 382h-170q-2 22 -17.5 37.5t-44.5 15.5q-59 0 -59 -41q0 -18 11.5 -28.5t41.5 -14.5l96 -13q73 -9 115 -48.5t42 -111.5q0 -92 -68 -143t-179 -51q-239 0 -251 175h177q3 -56 74 -56q69 0 69 45q0 19 -13 28.5t-42 13.5l-88 11 q-164 21 -164 168q0 77 60 131t178 54q114 0 170.5 -46.5t61.5 -125.5z" horiz-adv-x="553" unicode="ș"/>
<glyph glyph-name="uni021A" d="M215 -228l26 166h185l-79 -166h-132zM640 765v-155h-205v-610h-203v610h-205v155h613z" horiz-adv-x="667" unicode="Ț"/>
<glyph glyph-name="uni021B" d="M136 -228l26 166h185l-79 -166h-132zM117 690h165v-149h114v-133h-111v-196q0 -41 16 -59.5t54 -18.5l38 3v-137q-54 -7 -117 -7q-184 0 -184 181v234h-71v133h20q50 0 63 18.5t13 88.5v42z" horiz-adv-x="421" unicode="ț"/>
<glyph glyph-name="uni0237" d="M-43 -199v129q13 -5 35 -5q36 0 52 18.5t16 59.5v538h196v-537q0 -118 -56 -166t-156 -48q-25 0 -47 3t-31 5z" horiz-adv-x="310" unicode="ȷ"/>
<glyph glyph-name="circumflex" d="M256 788l112 -180h-125l-63 64h-1l-60 -64h-117l112 180h142z" horiz-adv-x="369" unicode="ˆ"/>
<glyph glyph-name="caron" d="M114 608l-112 180h125l63 -64h1l60 64h117l-112 -180h-142z" horiz-adv-x="369" unicode="ˇ"/>
<glyph glyph-name="breve" d="M184 603q-78 0 -126.5 46t-48.5 139h124q0 -30 14.5 -46t39.5 -16t39.5 16t14.5 46h119q0 -93 -49 -139t-127 -46z" horiz-adv-x="369" unicode="˘"/>
<glyph glyph-name="dotaccent" d="M105 631v157h160v-157h-160z" horiz-adv-x="369" unicode="˙"/>
<glyph glyph-name="ring" d="M188 781q-25 0 -39 -16.5t-14 -44.5q0 -27 14.5 -43.5t39.5 -16.5q24 0 38 16.5t14 43.5q0 28 -14 44.5t-39 16.5zM188 590q-66 0 -104.5 36t-38.5 95q0 58 40 95t104 37q67 0 105 -36t38 -96q0 -59 -40 -95t-104 -36z" horiz-adv-x="369" unicode="˚"/>
<glyph glyph-name="ogonek" d="M202 14l59 -14q-44 -29 -44 -55q0 -29 44 -29v-104h-35q-84 0 -117 23.5t-33 65.5q0 35 29 65.5t97 47.5z" horiz-adv-x="369" unicode="˛"/>
<glyph glyph-name="tilde" d="M-12 608q0 180 125 180q33 0 75.5 -22.5t61.5 -22.5q37 0 52 45h79q0 -180 -125 -180q-33 0 -75.5 22.5t-61.5 22.5q-37 0 -50 -45h-81z" horiz-adv-x="369" unicode="˜"/>
<glyph glyph-name="hungarumlaut" d="M43 608l31 180h147l-65 -180h-113zM219 608l51 180h147l-85 -180h-113z" horiz-adv-x="437" unicode="˝"/>
<glyph glyph-name="Wgrave" d="M553 960l66 -133h-145l-108 133h187zM404 0h-198l-194 765h210l83 -378q8 -34 13 -67t6 -49l2 -16h2q5 55 26 131l104 379h172l106 -378q9 -34 16.5 -67t10.5 -49l3 -16h1q5 55 21 131l81 379h183l-193 -765h-192l-108 408q-9 34 -14.5 64t-6.5 43l-2 13h-2 q-3 -43 -23 -119z" horiz-adv-x="1064" unicode="Ẁ"/>
<glyph glyph-name="wgrave" d="M479 788l49 -180h-150l-88 180h189zM164 0l-152 541h185l54 -225q7 -29 13 -63.5t8 -54.5l2 -19h3q11 71 30 137l63 225h149l64 -225q8 -30 15.5 -64t11.5 -54l3 -19h4q12 71 27 137l52 225h167l-151 -541h-185l-48 160q-10 33 -19.5 80.5t-14.5 78.5l-5 31h-2 q-23 -117 -45 -189l-49 -161h-180z" horiz-adv-x="875" unicode="ẁ"/>
<glyph glyph-name="Wacute" d="M471 827l66 133h187l-108 -133h-145zM404 0h-198l-194 765h210l83 -378q8 -34 13 -67t6 -49l2 -16h2q5 55 26 131l104 379h172l106 -378q9 -34 16.5 -67t10.5 -49l3 -16h1q5 55 21 131l81 379h183l-193 -765h-192l-108 408q-9 34 -14.5 64t-6.5 43l-2 13h-2 q-3 -43 -23 -119z" horiz-adv-x="1064" unicode="Ẃ"/>
<glyph glyph-name="wacute" d="M358 608l49 180h189l-88 -180h-150zM164 0l-152 541h185l54 -225q7 -29 13 -63.5t8 -54.5l2 -19h3q11 71 30 137l63 225h149l64 -225q8 -30 15.5 -64t11.5 -54l3 -19h4q12 71 27 137l52 225h167l-151 -541h-185l-48 160q-10 33 -19.5 80.5t-14.5 78.5l-5 31h-2 q-23 -117 -45 -189l-49 -161h-180z" horiz-adv-x="875" unicode="ẃ"/>
<glyph glyph-name="Wdieresis" d="M361 831v157h160v-157h-160zM576 831v157h160v-157h-160zM404 0h-198l-194 765h210l83 -378q8 -34 13 -67t6 -49l2 -16h2q5 55 26 131l104 379h172l106 -378q9 -34 16.5 -67t10.5 -49l3 -16h1q5 55 21 131l81 379h183l-193 -765h-192l-108 408q-9 34 -14.5 64t-6.5 43 l-2 13h-2q-3 -43 -23 -119z" horiz-adv-x="1064" unicode="Ẅ"/>
<glyph glyph-name="wdieresis" d="M258 631v157h160v-157h-160zM473 631v157h160v-157h-160zM164 0l-152 541h185l54 -225q7 -29 13 -63.5t8 -54.5l2 -19h3q11 71 30 137l63 225h149l64 -225q8 -30 15.5 -64t11.5 -54l3 -19h4q12 71 27 137l52 225h167l-151 -541h-185l-48 160q-10 33 -19.5 80.5 t-14.5 78.5l-5 31h-2q-23 -117 -45 -189l-49 -161h-180z" horiz-adv-x="875" unicode="ẅ"/>
<glyph glyph-name="Ygrave" d="M375 960l66 -133h-145l-108 133h187zM259 0v319l-248 446h220l137 -273h2l134 273h205l-247 -444v-321h-203z" horiz-adv-x="720" unicode="Ỳ"/>
<glyph glyph-name="ygrave" d="M345 788l49 -180h-150l-88 180h189zM215 -4l-209 545h203l76 -257q8 -27 14 -56t8 -44l2 -16h2q5 55 22 116l70 257h190l-187 -549q-35 -101 -91 -146t-166 -45q-30 0 -53 2t-31 4l-8 2v138q20 -5 59 -5q81 0 97 48z" horiz-adv-x="599" unicode="ỳ"/>
<glyph glyph-name="uni2009" horiz-adv-x="20" unicode=" "/>
<glyph glyph-name="endash" d="M55 237v135h400v-135h-400z" horiz-adv-x="510" unicode="–"/>
<glyph glyph-name="emdash" d="M55 240v129h780v-129h-780z" horiz-adv-x="890" unicode="—"/>
<glyph glyph-name="quoteleft" d="M287 765l-68 -283h-189l136 283h121z" horiz-adv-x="322" unicode="‘"/>
<glyph glyph-name="quoteright" d="M35 482l68 283h189l-136 -283h-121z" horiz-adv-x="322" unicode="’"/>
<glyph glyph-name="quotesinglbase" d="M35 -113l68 283h189l-136 -283h-121z" horiz-adv-x="322" unicode="‚"/>
<glyph glyph-name="quotedblleft" d="M284 765l-68 -283h-184l131 283h121zM514 765l-68 -283h-184l131 283h121z" horiz-adv-x="550" unicode="“"/>
<glyph glyph-name="quotedblright" d="M40 482l68 283h184l-131 -283h-121zM270 482l68 283h184l-131 -283h-121z" horiz-adv-x="550" unicode="”"/>
<glyph glyph-name="quotedblbase" d="M35 -113l68 283h184l-131 -283h-121zM265 -113l68 283h184l-131 -283h-121z" horiz-adv-x="547" unicode="„"/>
<glyph glyph-name="dagger" d="M235 537v-247h-131v247h-84v126h84v102h131v-102h84v-126h-84z" horiz-adv-x="339" unicode="†"/>
<glyph glyph-name="daggerdbl" d="M235 392v-102h-131v102h-84v108h84v55h-84v108h84v102h131v-102h84v-108h-84v-55h84v-108h-84z" horiz-adv-x="339" unicode="‡"/>
<glyph glyph-name="bullet" d="M172 178q-56 0 -91.5 35.5t-35.5 94.5q0 56 37.5 93t90.5 37q57 0 92.5 -36.5t35.5 -93.5q0 -58 -37 -94t-92 -36z" horiz-adv-x="346" unicode="•"/>
<glyph glyph-name="ellipsis" d="M62 0v179h195v-179h-195zM381 0v179h195v-179h-195zM700 0v179h195v-179h-195z" horiz-adv-x="957" unicode="…"/>
<glyph glyph-name="perthousand" d="M690 90q27 0 42.5 21.5t15.5 62.5t-15.5 63t-42.5 22q-57 0 -57 -85q0 -84 57 -84zM1104 90q27 0 42.5 21.5t15.5 62.5t-15.5 63t-42.5 22q-57 0 -57 -85q0 -84 57 -84zM691 -7q-77 0 -127.5 47.5t-50.5 133.5t51 133t127 47q77 0 128 -46.5t51 -133.5 q0 -86 -51.5 -133.5t-127.5 -47.5zM1105 -7q-77 0 -127.5 47.5t-50.5 133.5t51 133t127 47q77 0 128 -46.5t51 -133.5q0 -86 -51.5 -133.5t-127.5 -47.5zM227 478q58 0 58 84q0 85 -58 85q-56 0 -56 -85q0 -84 56 -84zM228 381q-77 0 -127.5 47.5t-50.5 133.5t51.5 133 t126.5 47q77 0 128.5 -47t51.5 -133t-52 -133.5t-128 -47.5zM135 -40l527 821h130l-527 -821h-130z" horiz-adv-x="1336" unicode="‰"/>
<glyph glyph-name="uni2032" d="M55 482l28 283h189l-96 -283h-121z" horiz-adv-x="322" unicode="′"/>
<glyph glyph-name="uni2033" d="M60 482l28 283h184l-91 -283h-121zM290 482l28 283h184l-91 -283h-121z" horiz-adv-x="550" unicode="″"/>
<glyph glyph-name="guilsinglleft" d="M129 464h134l-94 -206l96 -201h-135l-104 204z" horiz-adv-x="299" unicode="‹"/>
<glyph glyph-name="guilsinglright" d="M169 57h-134l94 206l-95 201h134l104 -203z" horiz-adv-x="298" unicode="›"/>
<glyph glyph-name="fraction" d="M-220 -40l547 821h128l-547 -821h-128z" horiz-adv-x="235" unicode="⁄"/>
<glyph glyph-name="Euro" d="M698 220q-2 -103 -77.5 -168.5t-213.5 -65.5q-262 0 -304 264h-76v80h68q-1 12 -1 37q0 26 1 38h-70v80h79q23 131 103 198t213 67q137 0 208 -67.5t77 -171.5h-203q-9 107 -92 107q-46 0 -72.5 -30t-35.5 -103h149v-80h-156v-36q0 -27 1 -39h157v-80h-152 q10 -73 36 -100.5t73 -27.5q83 0 92 98h196z" horiz-adv-x="743" unicode="€"/>
<glyph glyph-name="trademark" d="M301 459v306h140l44 -145l11 -49h3q4 22 12 49l43 145h139v-306h-84v217h-3q-7 -27 -19 -62l-52 -155h-78l-53 154l-18 63h-3v-217h-82zM275 765v-75h-90v-231h-85v231h-90v75h265z" horiz-adv-x="721" unicode="™"/>
<glyph glyph-name="onethird" d="M717 180h-55v77h42q23 0 38 11.5t15 33.5q0 21 -13 32.5t-33 11.5q-24 0 -35.5 -13.5t-12.5 -30.5h-133q4 56 47.5 97t143.5 41q83 0 128.5 -33.5t45.5 -83.5q0 -80 -89 -97v-2q100 -15 100 -102q0 -55 -49.5 -93t-139.5 -38q-100 0 -144 39.5t-45 98.5h137 q1 -20 14.5 -31t34.5 -11q27 0 41 13.5t14 34.5q0 20 -14 32.5t-38 12.5zM71 -40l547 821h128l-547 -821h-128zM117 334v268h-96v91h15q42 0 67 15q25 17 25 57h127v-431h-138z" horiz-adv-x="943" unicode="⅓"/>
<glyph glyph-name="twothirds" d="M820 180h-55v77h42q23 0 38 11.5t15 33.5q0 21 -13 32.5t-33 11.5q-24 0 -35.5 -13.5t-12.5 -30.5h-133q4 56 47.5 97t143.5 41q83 0 128.5 -33.5t45.5 -83.5q0 -80 -89 -97v-2q100 -15 100 -102q0 -55 -49.5 -93t-139.5 -38q-100 0 -144 39.5t-45 98.5h137 q1 -20 14.5 -31t34.5 -11q27 0 41 13.5t14 34.5q0 20 -14 32.5t-38 12.5zM194 -40l547 821h128l-547 -821h-128zM166 608h-132q2 77 49.5 120.5t141.5 43.5q91 0 136 -35.5t45 -94.5q0 -47 -25 -80.5t-81 -76.5l-64 -49v-3h171v-99h-377v67l184 155q31 26 42 42t11 36 q0 44 -42 44q-58 0 -59 -70z" horiz-adv-x="1046" unicode="⅔"/>
<glyph glyph-name="oneeighth" d="M710 72q26 0 43 15.5t17 41.5q0 28 -16 42.5t-44 14.5q-61 0 -61 -57q0 -26 17 -41.5t44 -15.5zM710 358q-50 0 -50 -49q0 -24 13.5 -37t36.5 -13t36.5 13t13.5 37q0 49 -50 49zM531 319q0 56 45.5 87.5t133.5 31.5t133 -32t45 -88q0 -66 -64 -92v-2q82 -22 82 -100 q0 -60 -51 -96.5t-145 -36.5q-196 0 -196 133q0 75 81 100v2q-64 24 -64 93zM68 -40l547 821h128l-547 -821h-128zM117 334v268h-96v91h15q42 0 67 15q25 17 25 57h127v-431h-138z" horiz-adv-x="934" unicode="⅛"/>
<glyph glyph-name="threeeighths" d="M784 72q26 0 43 15.5t17 41.5q0 28 -16 42.5t-44 14.5q-61 0 -61 -57q0 -26 17 -41.5t44 -15.5zM784 358q-50 0 -50 -49q0 -24 13.5 -37t36.5 -13t36.5 13t13.5 37q0 49 -50 49zM605 319q0 56 45.5 87.5t133.5 31.5t133 -32t45 -88q0 -66 -64 -92v-2q82 -22 82 -100 q0 -60 -51 -96.5t-145 -36.5q-196 0 -196 133q0 75 81 100v2q-64 24 -64 93zM162 -40l547 821h128l-547 -821h-128zM224 514h-55v77h42q23 0 38 11.5t15 33.5q0 21 -13 32.5t-33 11.5q-24 0 -35.5 -13.5t-12.5 -30.5h-133q4 56 47.5 97t143.5 41q83 0 128.5 -33.5 t45.5 -83.5q0 -80 -89 -97v-2q100 -15 100 -102q0 -55 -49.5 -93t-139.5 -38q-100 0 -144 39.5t-45 98.5h137q1 -20 14.5 -31t34.5 -11q27 0 41 13.5t14 34.5q0 20 -14 32.5t-38 12.5z" horiz-adv-x="1008" unicode="⅜"/>
<glyph glyph-name="fiveeighths" d="M781 72q26 0 43 15.5t17 41.5q0 28 -16 42.5t-44 14.5q-61 0 -61 -57q0 -26 17 -41.5t44 -15.5zM781 358q-50 0 -50 -49q0 -24 13.5 -37t36.5 -13t36.5 13t13.5 37q0 49 -50 49zM602 319q0 56 45.5 87.5t133.5 31.5t133 -32t45 -88q0 -66 -64 -92v-2q82 -22 82 -100 q0 -60 -51 -96.5t-145 -36.5q-196 0 -196 133q0 75 81 100v2q-64 24 -64 93zM153 -40l547 821h128l-547 -821h-128zM276 474q0 24 -15 39.5t-39 15.5q-33 0 -54 -25h-120l19 261h312v-101h-209l-8 -97h2q32 49 105 49q66 0 103 -34.5t37 -97.5q0 -70 -47 -114.5t-143 -44.5 q-178 0 -186 138h136q1 -20 16 -31.5t36 -11.5q25 0 40 15t15 39z" horiz-adv-x="1005" unicode="⅝"/>
<glyph glyph-name="seveneighths" d="M713 72q26 0 43 15.5t17 41.5q0 28 -16 42.5t-44 14.5q-61 0 -61 -57q0 -26 17 -41.5t44 -15.5zM713 358q-50 0 -50 -49q0 -24 13.5 -37t36.5 -13t36.5 13t13.5 37q0 49 -50 49zM534 319q0 56 45.5 87.5t133.5 31.5t133 -32t45 -88q0 -66 -64 -92v-2q82 -22 82 -100 q0 -60 -51 -96.5t-145 -36.5q-196 0 -196 133q0 75 81 100v2q-64 24 -64 93zM65 -40l547 821h128l-547 -821h-128zM59 334l163 330h-193v101h353v-70l-179 -361h-144z" horiz-adv-x="937" unicode="⅞"/>
<glyph glyph-name="minus" d="M71 290v136h490v-136h-490z" horiz-adv-x="633" unicode="−"/>
<glyph glyph-name="approxequal" d="M65 164q0 79 38.5 131.5t108.5 52.5q34 0 108 -19.5t95 -19.5q40 0 43 44h109q0 -82 -33.5 -133t-103.5 -51q-34 0 -108 19.5t-94 19.5q-39 0 -42 -44h-121zM65 382q0 79 38.5 131.5t108.5 52.5q34 0 108 -19.5t95 -19.5q40 0 43 44h109q0 -82 -33.5 -133t-103.5 -51 q-34 0 -108 19.5t-94 19.5q-39 0 -42 -44h-121z" horiz-adv-x="633" unicode="≈"/>
<glyph glyph-name="notequal" d="M292 177l-43 -98h-101l43 98h-120v136h180l37 82h-217v136h277l46 105h101l-46 -105h112v-136h-172l-37 -82h209v-136h-269z" horiz-adv-x="633" unicode="≠"/>
<glyph glyph-name="lessequal" d="M567 0h-512v136h512v-136zM567 186l-512 237v90l512 238v-147l-297 -131l297 -134v-153z" horiz-adv-x="633" unicode="≤"/>
<glyph glyph-name="greaterequal" d="M578 0h-512v136h512v-136zM66 751l512 -237v-90l-512 -238v147l297 131l-297 134v153z" horiz-adv-x="633" unicode="≥"/>
<glyph glyph-name="uni24C5" d="M407 382h50q76 0 76 63q0 61 -75 61h-51v-124zM407 168h-125v429h193q82 0 129 -39.5t47 -110.5q0 -76 -47 -116t-129 -40h-68v-123zM449 41q141 0 235.5 97.5t94.5 241.5t-94.5 242t-235.5 98t-235 -97.5t-94 -242.5q0 -144 94 -241.5t235 -97.5zM55 380 q0 169 112.5 283t281.5 114t282 -114t113 -283q0 -168 -113 -282t-282 -114t-281.5 113.5t-112.5 282.5z" horiz-adv-x="899" unicode="Ⓟ"/>
<glyph glyph-name="quotedblright.sc" d="M40 361l68 283h184l-131 -283h-121zM270 361l68 283h184l-131 -283h-121z" horiz-adv-x="550"/>
<glyph glyph-name="Ibreve.sc" d="M162 693q-78 0 -126.5 46t-48.5 139h124q0 -30 14.5 -46t39.5 -16t39.5 16t14.5 46h119q0 -93 -49 -139t-127 -46zM64 0v644h196v-644h-196z" horiz-adv-x="324"/>
<glyph glyph-name="exclamdown.uc" d="M76 765h206v-170h-206v170zM249 519l43 -542h-227l44 542h140z" horiz-adv-x="357"/>
<glyph glyph-name="hyphen.uc" d="M55 282v144h330v-144h-330z" horiz-adv-x="440"/>
<glyph glyph-name="endash.uc" d="M55 282v135h400v-135h-400z" horiz-adv-x="510"/>
<glyph glyph-name="emdash.uc" d="M55 285v129h780v-129h-780z" horiz-adv-x="890"/>
<glyph glyph-name="guilsinglleft.uc" d="M129 524h134l-94 -206l96 -201h-135l-104 204z" horiz-adv-x="299"/>
<glyph glyph-name="guilsinglright.uc" d="M169 117h-134l94 206l-95 201h134l104 -203z" horiz-adv-x="298"/>
<glyph glyph-name="guillemotleft.uc" d="M129 524h134l-94 -206l96 -201h-135l-104 204zM355 524h134l-94 -206l95 -201h-134l-104 204z" horiz-adv-x="524"/>
<glyph glyph-name="guillemotright.uc" d="M415 117h-134l94 206l-95 201h134l104 -203zM180 117h-135l95 206l-96 201h135l103 -203z" horiz-adv-x="544"/>
<glyph glyph-name="parenleft.uc" d="M369 -100h-139q-176 205 -176 459t176 459h139q-145 -233 -145 -459q0 -224 145 -459z" horiz-adv-x="372"/>
<glyph glyph-name="parenright.uc" d="M3 -100q145 235 145 459q0 226 -145 459h138q176 -202 176 -459t-176 -459h-138z" horiz-adv-x="358"/>
<glyph glyph-name="space_uni0326" d="M90 -208l26 166h185l-79 -166h-132z" horiz-adv-x="369"/>
<glyph glyph-name="grave.uc" d="M209 960l66 -133h-145l-108 133h187z" horiz-adv-x="369"/>
<glyph glyph-name="bracketleft.uc" d="M90 -100v918h289v-112h-132v-694h132v-112h-289z" horiz-adv-x="404"/>
<glyph glyph-name="bracketright.uc" d="M314 818v-918h-289v112h132v694h-132v112h289z" horiz-adv-x="404"/>
<glyph glyph-name="braceleft.uc" d="M83 293h-33v128h33q29 0 40 14.5t11 49.5v126q0 121 67 166t220 45v-108q-79 0 -107.5 -24.5t-28.5 -87.5v-109q0 -114 -83 -132v-4q83 -19 83 -138v-103q0 -63 28.5 -87.5t107.5 -24.5v-108q-153 0 -220 43t-67 155v135q0 35 -11 49.5t-40 14.5z" horiz-adv-x="446"/>
<glyph glyph-name="braceright.uc" d="M396 425v-128h-33q-29 0 -40 -14.5t-11 -49.5v-126q0 -121 -67 -166t-220 -45v108q79 0 107.5 24.5t28.5 87.5v109q0 114 83 132v4q-83 19 -83 138v103q0 63 -28.5 87.5t-107.5 24.5v108q153 0 220 -43t67 -155v-135q0 -35 11 -49.5t40 -14.5h33z" horiz-adv-x="446"/>
<glyph glyph-name="slash.uc" d="M-24 -100l454 918h141l-454 -918h-141z" horiz-adv-x="572"/>
<glyph glyph-name="backslash.uc" d="M455 -100l-454 918h141l454 -918h-141z" horiz-adv-x="572"/>
<glyph glyph-name="bar.uc" d="M79 -100v918h127v-918h-127z" horiz-adv-x="289"/>
<glyph glyph-name="acute.uc" d="M93 827l66 133h187l-108 -133h-145z" horiz-adv-x="369"/>
<glyph glyph-name="at.uc" d="M473 231q30 0 55.5 29t34.5 77l9 45q3 15 3 28q0 32 -15 52t-39 20q-48 0 -75 -54.5t-27 -115.5q0 -81 54 -81zM714 124q-58 0 -97 26.5t-45 74.5h-3q-52 -97 -155 -97q-72 0 -113.5 50t-41.5 134q0 108 63.5 189.5t161.5 81.5q45 0 73.5 -19.5t39.5 -48.5h2l11 52h156 l-62 -283q-3 -15 -3 -26q0 -54 54 -54q52 0 87.5 54t35.5 156q0 143 -100 237.5t-254 94.5q-164 0 -279 -118.5t-115 -291.5t104 -278t264 -105q153 0 257 84l44 -46q-124 -104 -308 -104q-191 0 -314 124.5t-123 324.5q0 204 136 340t336 136q188 0 310.5 -109.5 t122.5 -282.5q0 -147 -68 -221.5t-177 -74.5z" horiz-adv-x="1029"/>
<glyph glyph-name="f.short" d="M276 408v-408h-191v408h-66v133h66v47q0 114 54.5 160.5t156.5 46.5q24 0 46.5 -1.5t33.5 -3.5l11 -1v-131q-17 3 -42 3q-35 0 -52 -18t-17 -61v-41h93v-133h-93z" horiz-adv-x="378"/>
<glyph glyph-name="f_f.short" d="M276 408v-408h-191v408h-66v133h66v39q0 114 54.5 160.5t156.5 46.5q24 0 46.5 -1.5t33.5 -3.5l11 -1v-131q-17 3 -42 3q-35 0 -52 -18t-17 -61v-33h187v47q0 114 54.5 160.5t156.5 46.5q24 0 46.5 -1.5t33.5 -3.5l11 -1v-131q-17 3 -42 3q-35 0 -52 -18t-17 -61v-41h93 v-133h-93v-408h-191v408h-187z" horiz-adv-x="756"/>
<glyph glyph-name="macron.uc" d="M0 831v120h369v-120h-369z" horiz-adv-x="369"/>
<glyph glyph-name="circumflex.uc" d="M264 960l109 -133h-132l-61 45h-1l-58 -45h-124l109 133h158z" horiz-adv-x="369"/>
<glyph glyph-name="caron.uc" d="M106 827l-109 133h132l61 -45h1l58 45h124l-109 -133h-158z" horiz-adv-x="369"/>
<glyph glyph-name="breve.uc" d="M184 807q-78 0 -126.5 40.5t-48.5 125.5h121q1 -25 17 -40t40 -15t40.5 15t17.5 40h115q0 -85 -48.5 -125.5t-127.5 -40.5z" horiz-adv-x="369"/>
<glyph glyph-name="caron.alt" d="M126 588v200h146l-60 -200h-86z" horiz-adv-x="369"/>
<glyph glyph-name="dotaccent.uc" d="M105 831v157h160v-157h-160z" horiz-adv-x="369"/>
<glyph glyph-name="ring.uc" d="M188 981q-25 0 -39 -16.5t-14 -44.5q0 -27 14.5 -43.5t39.5 -16.5q24 0 38 16.5t14 43.5q0 28 -14 44.5t-39 16.5zM188 790q-66 0 -104.5 36t-38.5 95q0 58 40 95t104 37q67 0 105 -36t38 -96q0 -59 -40 -95t-104 -36z" horiz-adv-x="369"/>
<glyph glyph-name="sterling.tab" d="M569 151v-151h-532v105l45 31q63 44 63 109q0 25 -7 50h-106v110h65l-9 23q-24 63 -24 115q0 97 71.5 153t187.5 56q134 0 190.5 -58t60.5 -165h-182q-3 97 -68 97q-70 0 -70 -82q0 -34 13 -78l18 -61h152v-110h-126v-11q0 -72 -68 -125l-8 -6v-2h334z"/>
<glyph glyph-name="tilde.uc" d="M-12 815q3 78 30 122t93 44q33 0 77.5 -23.5t63.5 -23.5q33 0 50 47h79q-3 -79 -30 -122.5t-93 -43.5q-33 0 -77.5 23t-63.5 23q-33 0 -48 -46h-81z" horiz-adv-x="369"/>
<glyph glyph-name="cent.tab" d="M399 213h169q0 -101 -60 -159t-165 -66v-104h-72v103q-120 10 -182 84t-62 201q0 125 63.5 197.5t180.5 83.5v82h72v-82q106 -9 163.5 -66.5t59.5 -155.5h-170q-7 79 -53 99v-317q53 21 56 100zM271 113v318q-66 -26 -66 -159q0 -134 66 -159z"/>
<glyph glyph-name="plus.tab" d="M374 290v-198h-149v198h-190v136h190v196h149v-196h191v-136h-191z"/>
<glyph glyph-name="minus.tab" d="M55 290v136h490v-136h-490z"/>
<glyph glyph-name="multiply.tab" d="M135 81l-102 102l167 165l-167 165l102 102l165 -167l164 167l102 -102l-166 -165l167 -165l-102 -102l-165 167z"/>
<glyph glyph-name="divide.tab" d="M392 56h-184v169h184v-169zM55 290v136h490v-136h-490zM208 488v169h184v-169h-184z"/>
<glyph glyph-name="equal.tab" d="M545 177h-490v136h490v-136zM55 395v136h490v-136h-490z"/>
<glyph glyph-name="less.tab" d="M556 31l-512 264v77l512 265v-153l-293 -146l293 -148v-159z"/>
<glyph glyph-name="greater.tab" d="M44 637l512 -264v-77l-512 -265v153l293 146l-293 148v159z"/>
<glyph glyph-name="florin.tab" d="M381 338l-69 -527h-187l65 527h-100v133h117l9 76q17 141 77.5 194.5t159.5 53.5l85 -6v-138q-13 3 -38 3q-39 0 -61.5 -21t-30.5 -86l-10 -76h112v-133h-129z"/>
<glyph glyph-name="plusminus.tab" d="M35 0v136h530v-136h-530zM374 380v-158h-149v158h-190v136h190v156h149v-156h191v-136h-191z"/>
<glyph glyph-name="notequal.tab" d="M276 177l-43 -98h-101l43 98h-120v136h180l37 82h-217v136h277l46 105h101l-46 -105h112v-136h-172l-37 -82h209v-136h-269z"/>
<glyph glyph-name="approxequal.tab" d="M49 164q0 79 38.5 131.5t108.5 52.5q34 0 108 -19.5t95 -19.5q40 0 43 44h109q0 -82 -33.5 -133t-103.5 -51q-34 0 -108 19.5t-94 19.5q-39 0 -42 -44h-121zM49 382q0 79 38.5 131.5t108.5 52.5q34 0 108 -19.5t95 -19.5q40 0 43 44h109q0 -82 -33.5 -133t-103.5 -51 q-34 0 -108 19.5t-94 19.5q-39 0 -42 -44h-121z"/>
<glyph glyph-name="lessequal.tab" d="M556 0h-512v136h512v-136zM556 186l-512 237v90l512 238v-147l-297 -131l297 -134v-153z"/>
<glyph glyph-name="greaterequal.tab" d="M556 0h-512v136h512v-136zM44 751l512 -237v-90l-512 -238v147l297 131l-297 134v153z"/>
<glyph glyph-name="period.tab" d="M52 0v179h195v-179h-195z" horiz-adv-x="300"/>
<glyph glyph-name="comma.tab" d="M18 -117l62 296h192l-126 -296h-128z" horiz-adv-x="300"/>
<glyph glyph-name="colon.tab" d="M245 0h-191v179h191v-179zM54 348v179h191v-179h-191z" horiz-adv-x="300"/>
<glyph glyph-name="semicolon.tab" d="M136 -117h-128l62 296h192zM71 348v179h191v-179h-191z" horiz-adv-x="300"/>
<glyph glyph-name="hungarumlaut.uc" d="M49 827l16 133h144l-50 -133h-110zM228 827l36 133h144l-70 -133h-110z" horiz-adv-x="437"/>
<glyph glyph-name="currency.tab" d="M298 267q35 0 56 22.5t21 58.5t-21 59t-56 23q-34 0 -55 -23t-21 -59t21 -58.5t55 -22.5zM110 348q0 40 14 76l-107 105l102 102l105 -108q34 14 74 14q38 0 76 -15l106 109l102 -102l-109 -107q14 -34 14 -74t-14 -74l110 -107l-102 -102l-107 109q-36 -14 -76 -14 q-38 0 -74 13l-105 -108l-102 102l107 104q-14 36 -14 77z"/>
<glyph glyph-name="percent.tab" d="M679 90q52 0 52 84q0 85 -52 85q-50 0 -50 -85q0 -84 50 -84zM680 -7q-73 0 -120.5 47.5t-47.5 133.5t48.5 133t119.5 47q72 0 121 -47t49 -133t-49 -133.5t-121 -47.5zM217 478q52 0 52 84q0 85 -52 85q-50 0 -50 -85q0 -84 50 -84zM218 381q-73 0 -120.5 47.5 t-47.5 133.5t48.5 133t119.5 47q72 0 121 -47t49 -133t-49 -133.5t-121 -47.5zM124 -40l527 821h130l-527 -821h-130z" horiz-adv-x="900"/>
<glyph glyph-name="perthousand.tab" d="M618 90q22 0 35.5 21.5t13.5 62.5t-13.5 63t-35.5 22q-48 0 -48 -85q0 -84 48 -84zM990 90q22 0 35.5 21.5t13.5 62.5t-13.5 63t-35.5 22q-48 0 -48 -85q0 -84 48 -84zM619 -7q-69 0 -113.5 47.5t-44.5 133.5q0 87 45 133.5t113 46.5t113.5 -46.5t45.5 -133.5 q0 -86 -45.5 -133.5t-113.5 -47.5zM991 -7q-69 0 -113.5 47.5t-44.5 133.5t45.5 133t112.5 47q68 0 113.5 -46.5t45.5 -133.5q0 -86 -45.5 -133.5t-113.5 -47.5zM207 478q49 0 49 84q0 85 -49 85q-47 0 -47 -85q0 -84 47 -84zM50 562q0 86 45.5 133t112.5 47q68 0 114 -47 t46 -133t-46 -133.5t-114 -47.5q-69 0 -113.5 47.5t-44.5 133.5zM87 -40l527 821h130l-527 -821h-130z" horiz-adv-x="1200"/>
<glyph glyph-name="idotaccent" d="M54 0v541h196v-541h-196zM54 619v169h196v-169h-196z" horiz-adv-x="304"/>
<glyph glyph-name="A.sc" d="M492 0l-36 107h-229l-37 -107h-185l239 644h215l240 -644h-207zM343 493q0 -19 -33 -127l-42 -135h147l-41 136q-12 40 -19 71.5t-9 43.5l-1 11h-2z" horiz-adv-x="704"/>
<glyph glyph-name="AE.sc" d="M261 135l-65 -135h-191l337 644h578v-131h-261v-128h252v-128h-252v-128h272v-129h-462v135h-208zM469 253v260h-24l-126 -260h150z" horiz-adv-x="981"/>
<glyph glyph-name="B.sc" d="M260 122h99q85 0 85 76q0 33 -22.5 52t-61.5 19h-100v-147zM260 383h71q85 0 85 72q0 34 -23 52.5t-64 18.5h-69v-143zM374 0h-310v644h299q123 0 180.5 -39.5t57.5 -122.5q0 -54 -33 -87.5t-77 -47.5v-3q64 -10 104.5 -50t40.5 -105q0 -88 -69.5 -138.5t-192.5 -50.5z " horiz-adv-x="666"/>
<glyph glyph-name="C.sc" d="M366 524q-49 0 -79 -49.5t-30 -154.5q0 -203 105 -203q85 0 92 114h200q-4 -119 -81 -182t-209 -63q-164 0 -240 85.5t-76 236.5q0 161 83.5 253t235.5 92q282 0 288 -246h-201q-4 117 -88 117z" horiz-adv-x="697"/>
<glyph glyph-name="D.sc" d="M260 130h55q68 0 105 45t37 152q0 189 -139 189h-58v-386zM64 0v644h256q161 0 253 -79t92 -235q0 -159 -94.5 -244.5t-252.5 -85.5h-254z" horiz-adv-x="710"/>
<glyph glyph-name="Dcroat.sc" d="M284 130h55q68 0 105 45t37 152q0 189 -139 189h-58v-138h105v-113h-105v-135zM342 0h-254v265h-57v113h57v266h256q161 0 253 -79t92 -235q0 -159 -94.5 -244.5t-252.5 -85.5z" horiz-adv-x="734"/>
<glyph glyph-name="E.sc" d="M64 0v644h459v-131h-263v-128h254v-128h-254v-128h274v-129h-470z" horiz-adv-x="584"/>
<glyph glyph-name="Eng.sc" d="M384 -168h-60v131h47q75 0 96 41l-163 262q-19 31 -35.5 62t-22.5 46l-7 16h-3v-390h-172v644h203l145 -256q19 -31 34 -60t20 -43l6 -14h2v373h175v-588q0 -126 -66.5 -175t-198.5 -49z" horiz-adv-x="713"/>
<glyph glyph-name="Eth.sc" d="M284 130h55q68 0 105 45t37 152q0 189 -139 189h-58v-138h105v-113h-105v-135zM342 0h-254v265h-57v113h57v266h256q161 0 253 -79t92 -235q0 -159 -94.5 -244.5t-252.5 -85.5z" horiz-adv-x="734"/>
<glyph glyph-name="F.sc" d="M260 224v-224h-196v644h457v-135h-261v-153h248v-132h-248z" horiz-adv-x="563"/>
<glyph glyph-name="G.sc" d="M375 527q-122 0 -122 -207t122 -207q51 0 81 28.5t35 80.5l1 10h-121v121h295v-353h-139v83h-3q-53 -96 -181 -96q-152 0 -223.5 88t-71.5 232q0 157 88 251.5t240 94.5q273 0 288 -221h-197q-5 45 -28.5 70t-63.5 25z" horiz-adv-x="726"/>
<glyph glyph-name="H.sc" d="M260 250v-250h-196v644h196v-256h197v256h197v-644h-197v250h-197z" horiz-adv-x="718"/>
<glyph glyph-name="I.sc" d="M64 0v644h196v-644h-196z" horiz-adv-x="324"/>
<glyph glyph-name="IJ.sc" d="M64 0v644h196v-644h-196zM415 -3h-62v141h35q61 0 80 25.5t19 80.5v400h193v-424q0 -124 -67.5 -173.5t-197.5 -49.5z" horiz-adv-x="737"/>
<glyph glyph-name="J.sc" d="M110 -3h-70v141h39q62 0 81 25.5t19 80.5v400h193v-424q0 -124 -66.5 -173.5t-195.5 -49.5z" horiz-adv-x="429"/>
<glyph glyph-name="K.sc" d="M260 181v-181h-196v644h196v-257l208 257h197l-225 -273l230 -371h-219l-142 239z" horiz-adv-x="688"/>
<glyph glyph-name="L.sc" d="M64 0v644h196v-504h248v-140h-444z" horiz-adv-x="568"/>
<glyph glyph-name="M.sc" d="M64 0v644h274l80 -269q7 -23 13.5 -48.5t8.5 -40.5l3 -14h3q9 52 25 104l76 268h280v-644h-188v479h-2q-19 -78 -44 -162l-90 -317h-129l-94 318q-12 38 -22 78t-14 62l-5 21h-3v-479h-172z" horiz-adv-x="891"/>
<glyph glyph-name="N.sc" d="M64 0v644h203l145 -255q19 -31 34 -60.5t20 -43.5l6 -14h2v373h175v-644h-190l-155 266q-20 30 -36 61t-22 47l-7 16h-3v-390h-172z" horiz-adv-x="713"/>
<glyph glyph-name="O.sc" d="M373 115q60 0 88 50.5t28 154.5q0 100 -32 153.5t-84 53.5q-61 0 -88 -51t-27 -156q0 -107 25.5 -156t89.5 -49zM48 320q0 152 85 242.5t240 90.5q162 0 243.5 -88t81.5 -245q0 -153 -84.5 -243t-240.5 -90q-166 0 -245.5 87.5t-79.5 245.5z" horiz-adv-x="746"/>
<glyph glyph-name="OE.sc" d="M492 58q-18 -30 -58.5 -50t-101.5 -20q-134 0 -209 86.5t-75 245.5q0 158 82.5 245.5t214.5 87.5q48 0 89.5 -20t58.5 -55h2v66h449v-131h-261v-128h252v-128h-252v-128h272v-129h-460v58h-3zM495 257v118q0 67 -30 109.5t-80 42.5q-53 0 -88.5 -49t-35.5 -156 q0 -102 31.5 -154.5t89.5 -52.5q54 0 83.5 38t29.5 104z" horiz-adv-x="1005"/>
<glyph glyph-name="Oslash.sc" d="M698 320q0 -153 -84.5 -243t-240.5 -90q-113 0 -191 47l-47 -55h-105l91 108q-73 85 -73 233q0 152 85 242.5t240 90.5q113 0 189 -47l52 62h105l-96 -114q75 -85 75 -234zM373 111q64 0 94.5 51.5t30.5 157.5q0 45 -6 81l-211 -250q28 -40 92 -40zM373 531 q-64 0 -94 -52t-30 -159q0 -49 4 -78l208 245q-31 44 -88 44z" horiz-adv-x="746"/>
<glyph glyph-name="P.sc" d="M260 332h60q47 0 73 24.5t26 72.5q0 90 -99 90h-60v-187zM315 200h-55v-200h-196v644h270q125 0 197 -52t72 -163q0 -122 -74.5 -175.5t-213.5 -53.5z" horiz-adv-x="630"/>
<glyph glyph-name="Q.sc" d="M374 527q-63 0 -89.5 -51.5t-26.5 -157.5q0 -107 26.5 -156.5t89.5 -49.5q61 0 88 49.5t27 156.5q0 102 -31 155.5t-84 53.5zM529 -132q-34 67 -64.5 94t-81.5 27h-11q-323 0 -323 331q0 152 84 242.5t240 90.5h2q159 0 241 -88.5t82 -244.5q0 -93 -33 -162.5t-96 -101.5 v-5q48 -9 75.5 -32.5t46.5 -69.5z" horiz-adv-x="746"/>
<glyph glyph-name="R.sc" d="M443 0l-120 235h-63v-235h-196v644h281q79 0 131 -14q60 -17 102.5 -63.5t42.5 -117.5q0 -127 -123 -176v-2l150 -271h-205zM260 347h59q43 0 72.5 21t29.5 69q0 43 -29 65.5t-71 22.5h-61v-178z" horiz-adv-x="674"/>
<glyph glyph-name="S.sc" d="M571 468h-193q-1 25 -18.5 42t-50.5 17q-29 0 -48.5 -14.5t-19.5 -40.5q0 -47 68 -59l111 -20q81 -14 125.5 -61.5t44.5 -120.5q0 -111 -78 -168t-205 -57q-128 0 -201.5 52.5t-73.5 148.5h194q1 -35 25 -54.5t63 -19.5q40 0 61 17t21 45q0 49 -73 62l-111 20 q-70 12 -116.5 60.5t-46.5 129.5q0 89 69 147.5t194 58.5q134 0 193.5 -48t65.5 -137z" horiz-adv-x="626"/>
<glyph glyph-name="T.sc" d="M564 644v-143h-172v-501h-196v501h-172v143h540z" horiz-adv-x="588"/>
<glyph glyph-name="Tbar.sc" d="M564 644v-143h-172v-117h135v-104h-135v-280h-196v280h-137v104h137v117h-172v143h540z" horiz-adv-x="588"/>
<glyph glyph-name="Thorn.sc" d="M344 129h-84v-129h-196v644h196v-117h95q112 0 176.5 -46.5t64.5 -147.5q0 -204 -252 -204zM321 250h6q40 2 62.5 22.5t22.5 58.5q0 78 -90 78h-62v-159h61z" horiz-adv-x="626"/>
<glyph glyph-name="U.sc" d="M60 233v411h194v-404q0 -52 17 -78q21 -34 75 -34q57 0 77 36q16 28 16 76v404h190v-411q0 -121 -75 -184t-208 -63q-138 0 -212 61t-74 186z" horiz-adv-x="689"/>
<glyph glyph-name="V.sc" d="M220 0l-215 644h205l100 -354q9 -32 15.5 -63t8.5 -46l2 -15h2q8 52 29 125l102 353h186l-213 -644h-222z" horiz-adv-x="660"/>
<glyph glyph-name="W.sc" d="M360 0h-189l-163 644h204l56 -283q6 -28 10 -61t6 -52l1 -18h2q6 58 24 122l80 292h166l81 -292q8 -28 14.5 -58.5t9.5 -47.5l2 -16h2q6 65 18 129l54 285h177l-162 -644h-182l-84 312q-8 29 -13 58.5t-6 45.5l-2 15h-2q-4 -55 -21 -119z" horiz-adv-x="923"/>
<glyph glyph-name="X.sc" d="M8 0l221 329l-199 315h216l102 -182h1l105 182h198l-205 -308l218 -336h-227l-110 195h-2l-117 -195h-201z" horiz-adv-x="680"/>
<glyph glyph-name="Y.sc" d="M214 0v272l-210 372h207l109 -227h2l104 227h193l-209 -371v-273h-196z" horiz-adv-x="623"/>
<glyph glyph-name="Z.sc" d="M54 507v137h502v-122l-292 -384h295v-138h-521v122l292 385h-276z" horiz-adv-x="601"/>
<glyph glyph-name="ampersand.sc" d="M669 0h-39q-61 0 -92.5 10t-68.5 44q-76 -67 -187 -67t-176.5 51t-65.5 138q0 99 132 185q-62 59 -62 132q0 69 58 114.5t160 45.5q96 0 150.5 -40t54.5 -102q0 -24 -8.5 -45.5t-15.5 -34t-32.5 -34.5t-33.5 -27.5t-44 -32.5l66 -66q8 14 25 44.5t24 43.5h169 q-19 -30 -58 -95t-59 -95l6 -6q18 -18 37 -23t60 -5v-135zM246 276l-3 -3q-32 -34 -32 -73q0 -38 26 -62.5t65 -24.5q42 0 76 31zM272 490q0 -21 8.5 -36.5t37.5 -44.5q32 24 47.5 44t15.5 45t-15 38t-39 13q-25 0 -40 -16.5t-15 -42.5z" horiz-adv-x="718"/>
<glyph glyph-name="uni0237.sc" d="M110 -3h-70v141h39q62 0 81 25.5t19 80.5v400h193v-424q0 -124 -66.5 -173.5t-195.5 -49.5z" horiz-adv-x="429"/>
<glyph glyph-name="exclam.sc" d="M271 0h-183v148h183v-148zM113 208l-39 436h211l-40 -436h-132z" horiz-adv-x="359"/>
<glyph glyph-name="exclamdown.sc" d="M246 436l39 -436h-211l40 436h132zM271 644v-148h-183v148h183z" horiz-adv-x="359"/>
<glyph glyph-name="germandbls.sc" d="M1197 468h-193q-1 25 -18.5 42t-50.5 17q-29 0 -48.5 -14.5t-19.5 -40.5q0 -47 68 -59l111 -20q81 -14 125.5 -61.5t44.5 -120.5q0 -111 -78 -168t-205 -57q-128 0 -201.5 52.5t-73.5 148.5h194q1 -35 25 -54.5t63 -19.5q40 0 61 17t21 45q0 49 -73 62l-111 20 q-70 12 -116.5 60.5t-46.5 129.5q0 89 69 147.5t194 58.5q134 0 193.5 -48t65.5 -137zM571 468h-193q-1 25 -18.5 42t-50.5 17q-29 0 -48.5 -14.5t-19.5 -40.5q0 -47 68 -59l111 -20q81 -14 125.5 -61.5t44.5 -120.5q0 -111 -78 -168t-205 -57q-128 0 -201.5 52.5 t-73.5 148.5h194q1 -35 25 -54.5t63 -19.5q40 0 61 17t21 45q0 49 -73 62l-111 20q-70 12 -116.5 60.5t-46.5 129.5q0 89 69 147.5t194 58.5q134 0 193.5 -48t65.5 -137z" horiz-adv-x="1252"/>
<glyph glyph-name="question.sc" d="M189 0v148h183v-148h-183zM361 209h-156v49q0 55 43 89l61 48q27 21 34.5 36t7.5 38q0 26 -18 43t-51 17q-84 0 -84 -95h-168q0 96 65 157.5t190 61.5q117 0 182 -49t65 -131q0 -54 -21.5 -92.5t-66.5 -73.5l-68 -52q-10 -8 -12.5 -14t-2.5 -21v-11z" horiz-adv-x="567"/>
<glyph glyph-name="questiondown.sc" d="M282 -9q-117 0 -182 49t-65 131q0 54 21.5 92.5t66.5 73.5l68 52q10 8 12.5 14t2.5 21v11h156v-49q0 -55 -43 -89l-61 -48q-27 -21 -34.5 -36t-7.5 -38q0 -26 18 -43t51 -17q84 0 84 95h168q0 -96 -65 -157.5t-190 -61.5zM378 644v-148h-183v148h183z" horiz-adv-x="567"/>
<glyph glyph-name="quotedblleft.sc" d="M284 644l-68 -283h-184l131 283h121zM514 644l-68 -283h-184l131 283h121z" horiz-adv-x="550"/>
<glyph glyph-name="space.tab" horiz-adv-x="300"/>
<glyph glyph-name="quoteleft.sc" d="M287 644l-68 -283h-189l136 283h121z" horiz-adv-x="322"/>
<glyph glyph-name="quoteright.sc" d="M35 361l68 283h189l-136 -283h-121z" horiz-adv-x="322"/>
<glyph glyph-name="Lslash.sc" d="M64 0v204l-67 -22v123l67 22v317h196v-251l172 57v-122l-172 -58v-130h248v-140h-444z" horiz-adv-x="568"/>
<glyph glyph-name="AEacute.sc" d="M520 698l49 180h189l-88 -180h-150zM261 135l-65 -135h-191l337 644h578v-131h-261v-128h252v-128h-252v-128h272v-129h-462v135h-208zM469 253v260h-24l-126 -260h150z" horiz-adv-x="981"/>
<glyph glyph-name="Aacute.sc" d="M279 698l49 180h189l-88 -180h-150zM492 0l-36 107h-229l-37 -107h-185l239 644h215l240 -644h-207zM343 493q0 -19 -33 -127l-42 -135h147l-41 136q-12 40 -19 71.5t-9 43.5l-1 11h-2z" horiz-adv-x="704"/>
<glyph glyph-name="Abreve.sc" d="M352 693q-78 0 -126.5 46t-48.5 139h124q0 -30 14.5 -46t39.5 -16t39.5 16t14.5 46h119q0 -93 -49 -139t-127 -46zM492 0l-36 107h-229l-37 -107h-185l239 644h215l240 -644h-207zM343 493q0 -19 -33 -127l-42 -135h147l-41 136q-12 40 -19 71.5t-9 43.5l-1 11h-2z" horiz-adv-x="704"/>
<glyph glyph-name="Acircumflex.sc" d="M428 878l112 -180h-125l-63 64h-1l-60 -64h-117l112 180h142zM492 0l-36 107h-229l-37 -107h-185l239 644h215l240 -644h-207zM343 493q0 -19 -33 -127l-42 -135h147l-41 136q-12 40 -19 71.5t-9 43.5l-1 11h-2z" horiz-adv-x="704"/>
<glyph glyph-name="Adieresis.sc" d="M165 721v157h160v-157h-160zM380 721v157h160v-157h-160zM492 0l-36 107h-229l-37 -107h-185l239 644h215l240 -644h-207zM343 493q0 -19 -33 -127l-42 -135h147l-41 136q-12 40 -19 71.5t-9 43.5l-1 11h-2z" horiz-adv-x="704"/>
<glyph glyph-name="Agrave.sc" d="M386 878l49 -180h-150l-88 180h189zM492 0l-36 107h-229l-37 -107h-185l239 644h215l240 -644h-207zM343 493q0 -19 -33 -127l-42 -135h147l-41 136q-12 40 -19 71.5t-9 43.5l-1 11h-2z" horiz-adv-x="704"/>
<glyph glyph-name="Amacron.sc" d="M168 721v120h369v-120h-369zM492 0l-36 107h-229l-37 -107h-185l239 644h215l240 -644h-207zM343 493q0 -19 -33 -127l-42 -135h147l-41 136q-12 40 -19 71.5t-9 43.5l-1 11h-2z" horiz-adv-x="704"/>
<glyph glyph-name="Aogonek.sc" d="M343 493q0 -19 -33 -127l-42 -135h147l-41 136q-12 40 -19 71.5t-9 43.5l-1 11h-2zM699 -188h-35q-84 0 -117 23.5t-33 65.5q0 58 72 99h-94l-36 107h-229l-37 -107h-185l239 644h215l238 -640q-43 -31 -43 -57q0 -31 45 -31v-104z" horiz-adv-x="704"/>
<glyph glyph-name="Aring.sc" d="M352 871q-25 0 -39 -16.5t-14 -44.5q0 -27 14.5 -43.5t39.5 -16.5q24 0 38 16.5t14 43.5q0 28 -14 44.5t-39 16.5zM352 680q-66 0 -104.5 36t-38.5 95q0 58 40 95t104 37q67 0 105 -36t38 -96q0 -59 -40 -95t-104 -36zM492 0l-36 107h-229l-37 -107h-185l239 644h215 l240 -644h-207zM343 493q0 -19 -33 -127l-42 -135h147l-41 136q-12 40 -19 71.5t-9 43.5l-1 11h-2z" horiz-adv-x="704"/>
<glyph glyph-name="uni01FA.sc" d="M275 983l66 133h187l-108 -133h-145zM352 871q-25 0 -39 -16.5t-14 -44.5q0 -27 14.5 -43.5t39.5 -16.5q24 0 38 16.5t14 43.5q0 28 -14 44.5t-39 16.5zM352 680q-66 0 -104.5 36t-38.5 95q0 58 40 95t104 37q67 0 105 -36t38 -96q0 -59 -40 -95t-104 -36zM492 0l-36 107 h-229l-37 -107h-185l239 644h215l240 -644h-207zM343 493q0 -19 -33 -127l-42 -135h147l-41 136q-12 40 -19 71.5t-9 43.5l-1 11h-2z" horiz-adv-x="704"/>
<glyph glyph-name="Atilde.sc" d="M156 698q0 180 125 180q33 0 75.5 -22.5t61.5 -22.5q37 0 52 45h79q0 -180 -125 -180q-33 0 -75.5 22.5t-61.5 22.5q-37 0 -50 -45h-81zM492 0l-36 107h-229l-37 -107h-185l239 644h215l240 -644h-207zM343 493q0 -19 -33 -127l-42 -135h147l-41 136q-12 40 -19 71.5 t-9 43.5l-1 11h-2z" horiz-adv-x="704"/>
<glyph glyph-name="Cacute.sc" d="M290 698l49 180h189l-88 -180h-150zM366 524q-49 0 -79 -49.5t-30 -154.5q0 -203 105 -203q85 0 92 114h200q-4 -119 -81 -182t-209 -63q-164 0 -240 85.5t-76 236.5q0 161 83.5 253t235.5 92q282 0 288 -246h-201q-4 117 -88 117z" horiz-adv-x="697"/>
<glyph glyph-name="Ccaron.sc" d="M286 698l-112 180h125l63 -64h1l60 64h117l-112 -180h-142zM366 524q-49 0 -79 -49.5t-30 -154.5q0 -203 105 -203q85 0 92 114h200q-4 -119 -81 -182t-209 -63q-164 0 -240 85.5t-76 236.5q0 161 83.5 253t235.5 92q282 0 288 -246h-201q-4 117 -88 117z" horiz-adv-x="697"/>
<glyph glyph-name="Ccedilla.sc" d="M365 -242q-53 0 -84.5 25t-33.5 60h88q9 -20 32 -20q32 0 32 29t-32 29q-18 0 -28 -13h-70l52 120q-273 21 -273 320q0 161 83.5 253t235.5 92q282 0 288 -246h-201q-4 117 -88 117q-49 0 -79 -49.5t-30 -154.5q0 -203 105 -203q85 0 92 114h200q-4 -116 -77.5 -179 t-199.5 -66l-18 -41h2q13 9 42 9q39 0 65.5 -26t26.5 -69q0 -42 -33 -71.5t-97 -29.5z" horiz-adv-x="697"/>
<glyph glyph-name="Ccircumflex.sc" d="M439 878l112 -180h-125l-63 64h-1l-60 -64h-117l112 180h142zM366 524q-49 0 -79 -49.5t-30 -154.5q0 -203 105 -203q85 0 92 114h200q-4 -119 -81 -182t-209 -63q-164 0 -240 85.5t-76 236.5q0 161 83.5 253t235.5 92q282 0 288 -246h-201q-4 117 -88 117z" horiz-adv-x="697"/>
<glyph glyph-name="Cdotaccent.sc" d="M283 721v157h160v-157h-160zM366 524q-49 0 -79 -49.5t-30 -154.5q0 -203 105 -203q85 0 92 114h200q-4 -119 -81 -182t-209 -63q-164 0 -240 85.5t-76 236.5q0 161 83.5 253t235.5 92q282 0 288 -246h-201q-4 117 -88 117z" horiz-adv-x="697"/>
<glyph glyph-name="Dcaron.sc" d="M263 698l-112 180h125l63 -64h1l60 64h117l-112 -180h-142zM260 130h55q68 0 105 45t37 152q0 189 -139 189h-58v-386zM64 0v644h256q161 0 253 -79t92 -235q0 -159 -94.5 -244.5t-252.5 -85.5h-254z" horiz-adv-x="710"/>
<glyph glyph-name="Eacute.sc" d="M226 698l49 180h189l-88 -180h-150zM64 0v644h459v-131h-263v-128h254v-128h-254v-128h274v-129h-470z" horiz-adv-x="584"/>
<glyph glyph-name="Ecaron.sc" d="M222 698l-112 180h125l63 -64h1l60 64h117l-112 -180h-142zM64 0v644h459v-131h-263v-128h254v-128h-254v-128h274v-129h-470z" horiz-adv-x="584"/>
<glyph glyph-name="Ecircumflex.sc" d="M375 878l112 -180h-125l-63 64h-1l-60 -64h-117l112 180h142zM64 0v644h459v-131h-263v-128h254v-128h-254v-128h274v-129h-470z" horiz-adv-x="584"/>
<glyph glyph-name="Edieresis.sc" d="M112 721v157h160v-157h-160zM327 721v157h160v-157h-160zM64 0v644h459v-131h-263v-128h254v-128h-254v-128h274v-129h-470z" horiz-adv-x="584"/>
<glyph glyph-name="Edotaccent.sc" d="M219 721v157h160v-157h-160zM64 0v644h459v-131h-263v-128h254v-128h-254v-128h274v-129h-470z" horiz-adv-x="584"/>
<glyph glyph-name="Egrave.sc" d="M333 878l49 -180h-150l-88 180h189zM64 0v644h459v-131h-263v-128h254v-128h-254v-128h274v-129h-470z" horiz-adv-x="584"/>
<glyph glyph-name="Emacron.sc" d="M115 721v120h369v-120h-369zM64 0v644h459v-131h-263v-128h254v-128h-254v-128h274v-129h-470z" horiz-adv-x="584"/>
<glyph glyph-name="Eogonek.sc" d="M532 -84v-104h-35q-84 0 -117 23.5t-33 65.5q0 65 82 99h-365v644h459v-131h-263v-128h254v-128h-254v-128h274l-1 -129q-45 -28 -45 -55q0 -29 44 -29z" horiz-adv-x="584"/>
<glyph glyph-name="Gbreve.sc" d="M357 693q-78 0 -126.5 46t-48.5 139h124q0 -30 14.5 -46t39.5 -16t39.5 16t14.5 46h119q0 -93 -49 -139t-127 -46zM375 527q-122 0 -122 -207t122 -207q51 0 81 28.5t35 80.5l1 10h-121v121h295v-353h-139v83h-3q-53 -96 -181 -96q-152 0 -223.5 88t-71.5 232 q0 157 88 251.5t240 94.5q273 0 288 -221h-197q-5 45 -28.5 70t-63.5 25z" horiz-adv-x="726"/>
<glyph glyph-name="Gcircumflex.sc" d="M433 878l112 -180h-125l-63 64h-1l-60 -64h-117l112 180h142zM375 527q-122 0 -122 -207t122 -207q51 0 81 28.5t35 80.5l1 10h-121v121h295v-353h-139v83h-3q-53 -96 -181 -96q-152 0 -223.5 88t-71.5 232q0 157 88 251.5t240 94.5q273 0 288 -221h-197q-5 45 -28.5 70 t-63.5 25z" horiz-adv-x="726"/>
<glyph glyph-name="Gcommaaccent.sc" d="M239 -228l26 166h185l-79 -166h-132zM375 527q-122 0 -122 -207t122 -207q51 0 81 28.5t35 80.5l1 10h-121v121h295v-353h-139v83h-3q-53 -96 -181 -96q-152 0 -223.5 88t-71.5 232q0 157 88 251.5t240 94.5q273 0 288 -221h-197q-5 45 -28.5 70t-63.5 25z" horiz-adv-x="726"/>
<glyph glyph-name="Gdotaccent.sc" d="M277 721v157h160v-157h-160zM375 527q-122 0 -122 -207t122 -207q51 0 81 28.5t35 80.5l1 10h-121v121h295v-353h-139v83h-3q-53 -96 -181 -96q-152 0 -223.5 88t-71.5 232q0 157 88 251.5t240 94.5q273 0 288 -221h-197q-5 45 -28.5 70t-63.5 25z" horiz-adv-x="726"/>
<glyph glyph-name="Hcircumflex.sc" d="M435 878l112 -180h-125l-63 64h-1l-60 -64h-117l112 180h142zM260 250v-250h-196v644h196v-256h197v256h197v-644h-197v250h-197z" horiz-adv-x="718"/>
<glyph glyph-name="Iacute.sc" d="M89 698l49 180h189l-88 -180h-150zM64 0v644h196v-644h-196z" horiz-adv-x="324"/>
<glyph glyph-name="questiondown.uc" d="M209 765h206v-170h-206v170zM223 190q0 -72 83 -72q97 0 98 123h189q1 -123 -74 -197.5t-218 -74.5q-139 0 -205 57.5t-66 156.5q0 62 23.5 105t77.5 87l84 69q14 11 14 36v39h167v-64q0 -47 -8.5 -68t-45.5 -51l-61 -49q-22 -20 -31.5 -29t-18 -27.5t-8.5 -40.5z" horiz-adv-x="621"/>
<glyph glyph-name="Icircumflex.sc" d="M238 878l112 -180h-125l-63 64h-1l-60 -64h-117l112 180h142zM64 0v644h196v-644h-196z" horiz-adv-x="324"/>
<glyph glyph-name="Idieresis.sc" d="M-25 721v157h160v-157h-160zM190 721v157h160v-157h-160zM64 0v644h196v-644h-196z" horiz-adv-x="324"/>
<glyph glyph-name="Igrave.sc" d="M196 878l49 -180h-150l-88 180h189zM64 0v644h196v-644h-196z" horiz-adv-x="324"/>
<glyph glyph-name="Imacron.sc" d="M-22 721v120h369v-120h-369zM64 0v644h196v-644h-196z" horiz-adv-x="324"/>
<glyph glyph-name="Iogonek.sc" d="M261 -188h-35q-84 0 -117 23.5t-33 65.5q0 65 82 99h-94v644h196v-644q-43 -29 -43 -55q0 -29 44 -29v-104z" horiz-adv-x="324"/>
<glyph glyph-name="Itilde.sc" d="M-34 698q0 180 125 180q33 0 75.5 -22.5t61.5 -22.5q37 0 52 45h79q0 -180 -125 -180q-33 0 -75.5 22.5t-61.5 22.5q-37 0 -50 -45h-81zM64 0v644h196v-644h-196z" horiz-adv-x="324"/>
<glyph glyph-name="Jcircumflex.sc" d="M352 878l112 -180h-125l-63 64h-1l-60 -64h-117l112 180h142zM110 -3h-70v141h39q62 0 81 25.5t19 80.5v400h193v-424q0 -124 -66.5 -173.5t-195.5 -49.5z" horiz-adv-x="429"/>
<glyph glyph-name="Kcommaaccent.sc" d="M249 -228l26 166h185l-79 -166h-132zM260 181v-181h-196v644h196v-257l208 257h197l-225 -273l230 -371h-219l-142 239z" horiz-adv-x="688"/>
<glyph glyph-name="Lacute.sc" d="M91 698l49 180h189l-88 -180h-150zM64 0v644h196v-504h248v-140h-444z" horiz-adv-x="568"/>
<glyph glyph-name="Lcaron.sc" d="M334 444v200h146l-60 -200h-86zM64 0v644h196v-504h248v-140h-444z" horiz-adv-x="568"/>
<glyph glyph-name="Lcommaaccent.sc" d="M168 -228l26 166h185l-79 -166h-132zM64 0v644h196v-504h248v-140h-444z" horiz-adv-x="568"/>
<glyph glyph-name="Nacute.sc" d="M283 698l49 180h189l-88 -180h-150zM64 0v644h203l145 -255q19 -31 34 -60.5t20 -43.5l6 -14h2v373h175v-644h-190l-155 266q-20 30 -36 61t-22 47l-7 16h-3v-390h-172z" horiz-adv-x="713"/>
<glyph glyph-name="Ncaron.sc" d="M279 698l-112 180h125l63 -64h1l60 64h117l-112 -180h-142zM64 0v644h203l145 -255q19 -31 34 -60.5t20 -43.5l6 -14h2v373h175v-644h-190l-155 266q-20 30 -36 61t-22 47l-7 16h-3v-390h-172z" horiz-adv-x="713"/>
<glyph glyph-name="Ncommaaccent.sc" d="M238 -228l26 166h185l-79 -166h-132zM64 0v644h203l145 -255q19 -31 34 -60.5t20 -43.5l6 -14h2v373h175v-644h-190l-155 266q-20 30 -36 61t-22 47l-7 16h-3v-390h-172z" horiz-adv-x="713"/>
<glyph glyph-name="Ntilde.sc" d="M160 698q0 180 125 180q33 0 75.5 -22.5t61.5 -22.5q37 0 52 45h79q0 -180 -125 -180q-33 0 -75.5 22.5t-61.5 22.5q-37 0 -50 -45h-81zM64 0v644h203l145 -255q19 -31 34 -60.5t20 -43.5l6 -14h2v373h175v-644h-190l-155 266q-20 30 -36 61t-22 47l-7 16h-3v-390h-172z " horiz-adv-x="713"/>
<glyph glyph-name="Oacute.sc" d="M300 698l49 180h189l-88 -180h-150zM373 115q60 0 88 50.5t28 154.5q0 100 -32 153.5t-84 53.5q-61 0 -88 -51t-27 -156q0 -107 25.5 -156t89.5 -49zM48 320q0 152 85 242.5t240 90.5q162 0 243.5 -88t81.5 -245q0 -153 -84.5 -243t-240.5 -90q-166 0 -245.5 87.5 t-79.5 245.5z" horiz-adv-x="746"/>
<glyph glyph-name="Obreve.sc" d="M373 693q-78 0 -126.5 46t-48.5 139h124q0 -30 14.5 -46t39.5 -16t39.5 16t14.5 46h119q0 -93 -49 -139t-127 -46zM373 115q60 0 88 50.5t28 154.5q0 100 -32 153.5t-84 53.5q-61 0 -88 -51t-27 -156q0 -107 25.5 -156t89.5 -49zM48 320q0 152 85 242.5t240 90.5 q162 0 243.5 -88t81.5 -245q0 -153 -84.5 -243t-240.5 -90q-166 0 -245.5 87.5t-79.5 245.5z" horiz-adv-x="746"/>
<glyph glyph-name="Ocircumflex.sc" d="M449 878l112 -180h-125l-63 64h-1l-60 -64h-117l112 180h142zM373 115q60 0 88 50.5t28 154.5q0 100 -32 153.5t-84 53.5q-61 0 -88 -51t-27 -156q0 -107 25.5 -156t89.5 -49zM48 320q0 152 85 242.5t240 90.5q162 0 243.5 -88t81.5 -245q0 -153 -84.5 -243t-240.5 -90 q-166 0 -245.5 87.5t-79.5 245.5z" horiz-adv-x="746"/>
<glyph glyph-name="Odieresis.sc" d="M186 721v157h160v-157h-160zM401 721v157h160v-157h-160zM373 115q60 0 88 50.5t28 154.5q0 100 -32 153.5t-84 53.5q-61 0 -88 -51t-27 -156q0 -107 25.5 -156t89.5 -49zM48 320q0 152 85 242.5t240 90.5q162 0 243.5 -88t81.5 -245q0 -153 -84.5 -243t-240.5 -90 q-166 0 -245.5 87.5t-79.5 245.5z" horiz-adv-x="746"/>
<glyph glyph-name="Ograve.sc" d="M407 878l49 -180h-150l-88 180h189zM373 115q60 0 88 50.5t28 154.5q0 100 -32 153.5t-84 53.5q-61 0 -88 -51t-27 -156q0 -107 25.5 -156t89.5 -49zM48 320q0 152 85 242.5t240 90.5q162 0 243.5 -88t81.5 -245q0 -153 -84.5 -243t-240.5 -90q-166 0 -245.5 87.5 t-79.5 245.5z" horiz-adv-x="746"/>
<glyph glyph-name="Ohungarumlaut.sc" d="M222 698l31 180h147l-65 -180h-113zM398 698l51 180h147l-85 -180h-113zM373 115q60 0 88 50.5t28 154.5q0 100 -32 153.5t-84 53.5q-61 0 -88 -51t-27 -156q0 -107 25.5 -156t89.5 -49zM48 320q0 152 85 242.5t240 90.5q162 0 243.5 -88t81.5 -245q0 -153 -84.5 -243 t-240.5 -90q-166 0 -245.5 87.5t-79.5 245.5z" horiz-adv-x="746"/>
<glyph glyph-name="Omacron.sc" d="M189 721v120h369v-120h-369zM373 115q60 0 88 50.5t28 154.5q0 100 -32 153.5t-84 53.5q-61 0 -88 -51t-27 -156q0 -107 25.5 -156t89.5 -49zM48 320q0 152 85 242.5t240 90.5q162 0 243.5 -88t81.5 -245q0 -153 -84.5 -243t-240.5 -90q-166 0 -245.5 87.5t-79.5 245.5z " horiz-adv-x="746"/>
<glyph glyph-name="Oslashacute.sc" d="M301 698l49 180h189l-88 -180h-150zM698 320q0 -153 -84.5 -243t-240.5 -90q-113 0 -191 47l-47 -55h-105l91 108q-73 85 -73 233q0 152 85 242.5t240 90.5q113 0 189 -47l52 62h105l-96 -114q75 -85 75 -234zM373 111q64 0 94.5 51.5t30.5 157.5q0 45 -6 81l-211 -250 q28 -40 92 -40zM373 531q-64 0 -94 -52t-30 -159q0 -49 4 -78l208 245q-31 44 -88 44z" horiz-adv-x="746"/>
<glyph glyph-name="Otilde.sc" d="M177 698q0 180 125 180q33 0 75.5 -22.5t61.5 -22.5q37 0 52 45h79q0 -180 -125 -180q-33 0 -75.5 22.5t-61.5 22.5q-37 0 -50 -45h-81zM373 115q60 0 88 50.5t28 154.5q0 100 -32 153.5t-84 53.5q-61 0 -88 -51t-27 -156q0 -107 25.5 -156t89.5 -49zM48 320 q0 152 85 242.5t240 90.5q162 0 243.5 -88t81.5 -245q0 -153 -84.5 -243t-240.5 -90q-166 0 -245.5 87.5t-79.5 245.5z" horiz-adv-x="746"/>
<glyph glyph-name="Racute.sc" d="M244 698l49 180h189l-88 -180h-150zM443 0l-120 235h-63v-235h-196v644h281q79 0 131 -14q60 -17 102.5 -63.5t42.5 -117.5q0 -127 -123 -176v-2l150 -271h-205zM260 347h59q43 0 72.5 21t29.5 69q0 43 -29 65.5t-71 22.5h-61v-178z" horiz-adv-x="674"/>
<glyph glyph-name="Rcaron.sc" d="M240 698l-112 180h125l63 -64h1l60 64h117l-112 -180h-142zM443 0l-120 235h-63v-235h-196v644h281q79 0 131 -14q60 -17 102.5 -63.5t42.5 -117.5q0 -127 -123 -176v-2l150 -271h-205zM260 347h59q43 0 72.5 21t29.5 69q0 43 -29 65.5t-71 22.5h-61v-178z" horiz-adv-x="674"/>
<glyph glyph-name="Rcommaaccent.sc" d="M229 -208l26 166h185l-79 -166h-132zM443 0l-120 235h-63v-235h-196v644h281q79 0 131 -14q60 -17 102.5 -63.5t42.5 -117.5q0 -127 -123 -176v-2l150 -271h-205zM260 347h59q43 0 72.5 21t29.5 69q0 43 -29 65.5t-71 22.5h-61v-178z" horiz-adv-x="664"/>
<glyph glyph-name="Sacute.sc" d="M238 698l49 180h189l-88 -180h-150zM571 468h-193q-1 25 -18.5 42t-50.5 17q-29 0 -48.5 -14.5t-19.5 -40.5q0 -47 68 -59l111 -20q81 -14 125.5 -61.5t44.5 -120.5q0 -111 -78 -168t-205 -57q-128 0 -201.5 52.5t-73.5 148.5h194q1 -35 25 -54.5t63 -19.5q40 0 61 17 t21 45q0 49 -73 62l-111 20q-70 12 -116.5 60.5t-46.5 129.5q0 89 69 147.5t194 58.5q134 0 193.5 -48t65.5 -137z" horiz-adv-x="626"/>
<glyph glyph-name="Scaron.sc" d="M234 698l-112 180h125l63 -64h1l60 64h117l-112 -180h-142zM571 468h-193q-1 25 -18.5 42t-50.5 17q-29 0 -48.5 -14.5t-19.5 -40.5q0 -47 68 -59l111 -20q81 -14 125.5 -61.5t44.5 -120.5q0 -111 -78 -168t-205 -57q-128 0 -201.5 52.5t-73.5 148.5h194q1 -35 25 -54.5 t63 -19.5q40 0 61 17t21 45q0 49 -73 62l-111 20q-70 12 -116.5 60.5t-46.5 129.5q0 89 69 147.5t194 58.5q134 0 193.5 -48t65.5 -137z" horiz-adv-x="626"/>
<glyph glyph-name="Scedilla.sc" d="M313 -242q-53 0 -84.5 25t-33.5 60h88q9 -20 32 -20q32 0 32 29t-32 29q-18 0 -28 -13h-70l52 119q-111 8 -174 59.5t-63 140.5h194q1 -35 25 -54.5t63 -19.5q40 0 61 17t21 45q0 49 -73 62l-111 20q-70 12 -116.5 60.5t-46.5 129.5q0 89 69 147.5t194 58.5 q134 0 193.5 -48t65.5 -137h-193q-1 25 -18.5 42t-50.5 17q-29 0 -48.5 -14.5t-19.5 -40.5q0 -47 68 -59l111 -20q81 -14 125.5 -61.5t44.5 -120.5q0 -106 -72.5 -163t-192.5 -62l-18 -41h2q13 9 42 9q39 0 65.5 -26t26.5 -69q0 -42 -33 -71.5t-97 -29.5z" horiz-adv-x="626"/>
<glyph glyph-name="Scircumflex.sc" d="M387 878l112 -180h-125l-63 64h-1l-60 -64h-117l112 180h142zM571 468h-193q-1 25 -18.5 42t-50.5 17q-29 0 -48.5 -14.5t-19.5 -40.5q0 -47 68 -59l111 -20q81 -14 125.5 -61.5t44.5 -120.5q0 -111 -78 -168t-205 -57q-128 0 -201.5 52.5t-73.5 148.5h194 q1 -35 25 -54.5t63 -19.5q40 0 61 17t21 45q0 49 -73 62l-111 20q-70 12 -116.5 60.5t-46.5 129.5q0 89 69 147.5t194 58.5q134 0 193.5 -48t65.5 -137z" horiz-adv-x="626"/>
<glyph glyph-name="Scommaaccent.sc" d="M193 -228l26 166h185l-79 -166h-132zM571 468h-193q-1 25 -18.5 42t-50.5 17q-29 0 -48.5 -14.5t-19.5 -40.5q0 -47 68 -59l111 -20q81 -14 125.5 -61.5t44.5 -120.5q0 -111 -78 -168t-205 -57q-128 0 -201.5 52.5t-73.5 148.5h194q1 -35 25 -54.5t63 -19.5q40 0 61 17 t21 45q0 49 -73 62l-111 20q-70 12 -116.5 60.5t-46.5 129.5q0 89 69 147.5t194 58.5q134 0 193.5 -48t65.5 -137z" horiz-adv-x="626"/>
<glyph glyph-name="Tcaron.sc" d="M217 698l-112 180h125l63 -64h1l60 64h117l-112 -180h-142zM564 644v-143h-172v-501h-196v501h-172v143h540z" horiz-adv-x="588"/>
<glyph glyph-name="Tcommaaccent.sc" d="M176 -228l26 166h185l-79 -166h-132zM564 644v-143h-172v-501h-196v501h-172v143h540z" horiz-adv-x="588"/>
<glyph glyph-name="Uacute.sc" d="M271 698l49 180h189l-88 -180h-150zM60 233v411h194v-404q0 -52 17 -78q21 -34 75 -34q57 0 77 36q16 28 16 76v404h190v-411q0 -121 -75 -184t-208 -63q-138 0 -212 61t-74 186z" horiz-adv-x="689"/>
<glyph glyph-name="Ubreve.sc" d="M344 693q-78 0 -126.5 46t-48.5 139h124q0 -30 14.5 -46t39.5 -16t39.5 16t14.5 46h119q0 -93 -49 -139t-127 -46zM60 233v411h194v-404q0 -52 17 -78q21 -34 75 -34q57 0 77 36q16 28 16 76v404h190v-411q0 -121 -75 -184t-208 -63q-138 0 -212 61t-74 186z" horiz-adv-x="689"/>
<glyph glyph-name="Ucircumflex.sc" d="M420 878l112 -180h-125l-63 64h-1l-60 -64h-117l112 180h142zM60 233v411h194v-404q0 -52 17 -78q21 -34 75 -34q57 0 77 36q16 28 16 76v404h190v-411q0 -121 -75 -184t-208 -63q-138 0 -212 61t-74 186z" horiz-adv-x="689"/>
<glyph glyph-name="Udieresis.sc" d="M157 721v157h160v-157h-160zM372 721v157h160v-157h-160zM60 233v411h194v-404q0 -52 17 -78q21 -34 75 -34q57 0 77 36q16 28 16 76v404h190v-411q0 -121 -75 -184t-208 -63q-138 0 -212 61t-74 186z" horiz-adv-x="689"/>
<glyph glyph-name="Ugrave.sc" d="M378 878l49 -180h-150l-88 180h189zM60 233v411h194v-404q0 -52 17 -78q21 -34 75 -34q57 0 77 36q16 28 16 76v404h190v-411q0 -121 -75 -184t-208 -63q-138 0 -212 61t-74 186z" horiz-adv-x="689"/>
<glyph glyph-name="Uhungarumlaut.sc" d="M193 698l31 180h147l-65 -180h-113zM369 698l51 180h147l-85 -180h-113zM60 233v411h194v-404q0 -52 17 -78q21 -34 75 -34q57 0 77 36q16 28 16 76v404h190v-411q0 -121 -75 -184t-208 -63q-138 0 -212 61t-74 186z" horiz-adv-x="689"/>
<glyph glyph-name="Umacron.sc" d="M160 721v120h369v-120h-369zM60 233v411h194v-404q0 -52 17 -78q21 -34 75 -34q57 0 77 36q16 28 16 76v404h190v-411q0 -121 -75 -184t-208 -63q-138 0 -212 61t-74 186z" horiz-adv-x="689"/>
<glyph glyph-name="Uogonek.sc" d="M60 233v411h194v-404q0 -52 17 -78q21 -34 75 -34q57 0 77 36q16 28 16 76v404h190v-411q0 -102 -50 -159t-131 -76q-52 -13 -70.5 -28t-18.5 -36q0 -29 45 -29v-104h-35q-84 0 -117 23.5t-33 65.5q0 64 80 97v1q-239 21 -239 245z" horiz-adv-x="689"/>
<glyph glyph-name="Uring.sc" d="M344 871q-25 0 -39 -16.5t-14 -44.5q0 -27 14.5 -43.5t39.5 -16.5q24 0 38 16.5t14 43.5q0 28 -14 44.5t-39 16.5zM344 680q-66 0 -104.5 36t-38.5 95q0 58 40 95t104 37q67 0 105 -36t38 -96q0 -59 -40 -95t-104 -36zM60 233v411h194v-404q0 -52 17 -78q21 -34 75 -34 q57 0 77 36q16 28 16 76v404h190v-411q0 -121 -75 -184t-208 -63q-138 0 -212 61t-74 186z" horiz-adv-x="689"/>
<glyph glyph-name="Utilde.sc" d="M148 698q0 180 125 180q33 0 75.5 -22.5t61.5 -22.5q37 0 52 45h79q0 -180 -125 -180q-33 0 -75.5 22.5t-61.5 22.5q-37 0 -50 -45h-81zM60 233v411h194v-404q0 -52 17 -78q21 -34 75 -34q57 0 77 36q16 28 16 76v404h190v-411q0 -121 -75 -184t-208 -63q-138 0 -212 61 t-74 186z" horiz-adv-x="689"/>
<glyph glyph-name="Wacute.sc" d="M402 698l49 180h189l-88 -180h-150zM360 0h-189l-163 644h204l56 -283q6 -28 10 -61t6 -52l1 -18h2q6 58 24 122l80 292h166l81 -292q8 -28 14.5 -58.5t9.5 -47.5l2 -16h2q6 65 18 129l54 285h177l-162 -644h-182l-84 312q-8 29 -13 58.5t-6 45.5l-2 15h-2 q-4 -55 -21 -119z" horiz-adv-x="923"/>
<glyph glyph-name="Wcircumflex.sc" d="M537 878l112 -180h-125l-63 64h-1l-60 -64h-117l112 180h142zM360 0h-189l-163 644h204l56 -283q6 -28 10 -61t6 -52l1 -18h2q6 58 24 122l80 292h166l81 -292q8 -28 14.5 -58.5t9.5 -47.5l2 -16h2q6 65 18 129l54 285h177l-162 -644h-182l-84 312q-8 29 -13 58.5 t-6 45.5l-2 15h-2q-4 -55 -21 -119z" horiz-adv-x="923"/>
<glyph glyph-name="Wdieresis.sc" d="M274 721v157h160v-157h-160zM489 721v157h160v-157h-160zM360 0h-189l-163 644h204l56 -283q6 -28 10 -61t6 -52l1 -18h2q6 58 24 122l80 292h166l81 -292q8 -28 14.5 -58.5t9.5 -47.5l2 -16h2q6 65 18 129l54 285h177l-162 -644h-182l-84 312q-8 29 -13 58.5t-6 45.5 l-2 15h-2q-4 -55 -21 -119z" horiz-adv-x="923"/>
<glyph glyph-name="Wgrave.sc" d="M495 878l49 -180h-150l-88 180h189zM360 0h-189l-163 644h204l56 -283q6 -28 10 -61t6 -52l1 -18h2q6 58 24 122l80 292h166l81 -292q8 -28 14.5 -58.5t9.5 -47.5l2 -16h2q6 65 18 129l54 285h177l-162 -644h-182l-84 312q-8 29 -13 58.5t-6 45.5l-2 15h-2 q-4 -55 -21 -119z" horiz-adv-x="923"/>
<glyph glyph-name="Yacute.sc" d="M238 698l49 180h189l-88 -180h-150zM214 0v272l-210 372h207l109 -227h2l104 227h193l-209 -371v-273h-196z" horiz-adv-x="623"/>
<glyph glyph-name="Ycircumflex.sc" d="M387 878l112 -180h-125l-63 64h-1l-60 -64h-117l112 180h142zM214 0v272l-210 372h207l109 -227h2l104 227h193l-209 -371v-273h-196z" horiz-adv-x="623"/>
<glyph glyph-name="Ydieresis.sc" d="M124 721v157h160v-157h-160zM339 721v157h160v-157h-160zM214 0v272l-210 372h207l109 -227h2l104 227h193l-209 -371v-273h-196z" horiz-adv-x="623"/>
<glyph glyph-name="Ygrave.sc" d="M345 878l49 -180h-150l-88 180h189zM214 0v272l-210 372h207l109 -227h2l104 227h193l-209 -371v-273h-196z" horiz-adv-x="623"/>
<glyph glyph-name="Zacute.sc" d="M225 698l49 180h189l-88 -180h-150zM54 507v137h502v-122l-292 -384h295v-138h-521v122l292 385h-276z" horiz-adv-x="601"/>
<glyph glyph-name="Zcaron.sc" d="M221 698l-112 180h125l63 -64h1l60 64h117l-112 -180h-142zM54 507v137h502v-122l-292 -384h295v-138h-521v122l292 385h-276z" horiz-adv-x="601"/>
<glyph glyph-name="Zdotaccent.sc" d="M218 721v157h160v-157h-160zM54 507v137h502v-122l-292 -384h295v-138h-521v122l292 385h-276z" horiz-adv-x="601"/>
<glyph glyph-name="Ldot.sc" d="M64 0v644h196v-504h248v-140h-444zM371 305v146h150v-146h-150z" horiz-adv-x="568"/>
<glyph glyph-name="napostrophe.sc" d="M64 0v644h203l145 -255q19 -31 34 -60.5t20 -43.5l6 -14h2v373h175v-644h-190l-155 266q-20 30 -36 61t-22 47l-7 16h-3v-390h-172z" horiz-adv-x="713"/>
<glyph glyph-name="Hbar.sc" d="M260 250v-250h-196v471h-58v96h58v77h196v-77h197v77h197v-77h59v-96h-59v-471h-197v250h-197zM457 386v85h-197v-85h197z" horiz-adv-x="718"/>
<glyph glyph-name="Idotaccent.sc" d="M81 721v157h160v-157h-160zM64 0v644h196v-644h-196z" horiz-adv-x="324"/>
<glyph glyph-name="Ebreve.sc" d="M292 693q-78 0 -126.5 46t-48.5 139h124q0 -30 14.5 -46t39.5 -16t39.5 16t14.5 46h119q0 -93 -49 -139t-127 -46zM64 0v644h459v-131h-263v-128h254v-128h-254v-128h274v-129h-470z" horiz-adv-x="584"/>
<glyph glyph-name="yen.tab" d="M204 0v130h-177v80h177v75h-179v80h176l-196 376h214l89 -211h2l89 211h196l-196 -376h176v-80h-178v-75h180v-80h-180v-130h-193z"/>
<glyph glyph-name="eight.den" d="M224 72q26 0 43 15.5t17 41.5q0 28 -16 42.5t-44 14.5q-61 0 -61 -57q0 -26 17 -41.5t44 -15.5zM224 358q-50 0 -50 -49q0 -24 13.5 -37t36.5 -13t36.5 13t13.5 37q0 49 -50 49zM45 319q0 56 45.5 87.5t133.5 31.5t133 -32t45 -88q0 -66 -64 -92v-2q82 -22 82 -100 q0 -60 -51 -96.5t-145 -36.5q-196 0 -196 133q0 75 81 100v2q-64 24 -64 93z" horiz-adv-x="448"/>
<glyph glyph-name="five.den" d="M276 140q0 24 -15 39.5t-39 15.5q-33 0 -54 -25h-120l19 261h312v-101h-209l-8 -97h2q32 49 105 49q66 0 103 -34.5t37 -97.5q0 -70 -47 -114.5t-143 -44.5q-178 0 -186 138h136q1 -20 16 -31.5t36 -11.5q25 0 40 15t15 39z" horiz-adv-x="446"/>
<glyph glyph-name="four.den" d="M438 85h-55v-85h-125v85h-230v88l192 258h163v-248h55v-98zM147 176h115v176h-3q-13 -38 -38 -73z" horiz-adv-x="466"/>
<glyph glyph-name="nine.den" d="M38 110l138 1q8 -33 47 -33q68 0 68 111h-3q-28 -44 -102 -44q-65 0 -107 34.5t-42 104.5q0 63 50.5 107.5t145.5 44.5q94 0 147 -56.5t53 -158.5q0 -109 -58 -169.5t-160 -60.5q-80 0 -127.5 34.5t-49.5 84.5zM228 347q-23 0 -41 -15t-18 -44q0 -30 17 -46t42 -16 t41 15.5t16 46.5q0 28 -17.5 43.5t-39.5 15.5z" horiz-adv-x="466"/>
<glyph glyph-name="one.den" d="M117 0v268h-96v91h15q42 0 67 15q25 17 25 57h127v-431h-138z" horiz-adv-x="317"/>
<glyph glyph-name="seven.den" d="M59 0l163 330h-193v101h353v-70l-179 -361h-144z" horiz-adv-x="405"/>
<glyph glyph-name="six.den" d="M244 79q24 0 41 16.5t17 48.5q0 30 -16 47t-42 17q-59 0 -59 -64q0 -32 17 -48.5t42 -16.5zM422 321h-133q-7 28 -42 28q-65 0 -70 -111h2q39 51 110 51q65 0 104.5 -36t39.5 -103q0 -66 -49 -112.5t-144 -46.5t-149 54t-54 161q0 111 58.5 170.5t151.5 59.5 q87 0 127 -30.5t48 -84.5z" horiz-adv-x="468"/>
<glyph glyph-name="three.den" d="M224 180h-55v77h42q23 0 38 11.5t15 33.5q0 21 -13 32.5t-33 11.5q-24 0 -35.5 -13.5t-12.5 -30.5h-133q4 56 47.5 97t143.5 41q83 0 128.5 -33.5t45.5 -83.5q0 -80 -89 -97v-2q100 -15 100 -102q0 -55 -49.5 -93t-139.5 -38q-100 0 -144 39.5t-45 98.5h137 q1 -20 14.5 -31t34.5 -11q27 0 41 13.5t14 34.5q0 20 -14 32.5t-38 12.5z" horiz-adv-x="450"/>
<glyph glyph-name="two.den" d="M166 274h-132q2 77 49.5 120.5t141.5 43.5q91 0 136 -35.5t45 -94.5q0 -47 -25 -80.5t-81 -76.5l-64 -49v-3h171v-99h-377v67l184 155q31 26 42 42t11 36q0 44 -42 44q-58 0 -59 -70z" horiz-adv-x="444"/>
<glyph glyph-name="zero.den" d="M245 88q58 0 58 127q0 129 -58 129q-57 0 -57 -129q0 -76 14.5 -101.5t42.5 -25.5zM37 213q0 111 56 168.5t152 57.5q211 0 211 -226q0 -111 -55 -167.5t-156 -56.5q-208 0 -208 224z" horiz-adv-x="493"/>
<glyph glyph-name="zero.num" d="M245 422q58 0 58 127q0 129 -58 129q-57 0 -57 -129q0 -76 14.5 -101.5t42.5 -25.5zM37 547q0 111 56 168.5t152 57.5q211 0 211 -226q0 -111 -55 -167.5t-156 -56.5q-208 0 -208 224z" horiz-adv-x="493"/>
<glyph glyph-name="one.num" d="M117 334v268h-96v91h15q42 0 67 15q25 17 25 57h127v-431h-138z" horiz-adv-x="317"/>
<glyph glyph-name="two.num" d="M166 608h-132q2 77 49.5 120.5t141.5 43.5q91 0 136 -35.5t45 -94.5q0 -47 -25 -80.5t-81 -76.5l-64 -49v-3h171v-99h-377v67l184 155q31 26 42 42t11 36q0 44 -42 44q-58 0 -59 -70z" horiz-adv-x="444"/>
<glyph glyph-name="three.num" d="M224 514h-55v77h42q23 0 38 11.5t15 33.5q0 21 -13 32.5t-33 11.5q-24 0 -35.5 -13.5t-12.5 -30.5h-133q4 56 47.5 97t143.5 41q83 0 128.5 -33.5t45.5 -83.5q0 -80 -89 -97v-2q100 -15 100 -102q0 -55 -49.5 -93t-139.5 -38q-100 0 -144 39.5t-45 98.5h137 q1 -20 14.5 -31t34.5 -11q27 0 41 13.5t14 34.5q0 20 -14 32.5t-38 12.5z" horiz-adv-x="450"/>
<glyph glyph-name="four.num" d="M438 419h-55v-85h-125v85h-230v88l192 258h163v-248h55v-98zM147 510h115v176h-3q-13 -38 -38 -73z" horiz-adv-x="466"/>
<glyph glyph-name="five.num" d="M276 474q0 24 -15 39.5t-39 15.5q-33 0 -54 -25h-120l19 261h312v-101h-209l-8 -97h2q32 49 105 49q66 0 103 -34.5t37 -97.5q0 -70 -47 -114.5t-143 -44.5q-178 0 -186 138h136q1 -20 16 -31.5t36 -11.5q25 0 40 15t15 39z" horiz-adv-x="446"/>
<glyph glyph-name="six.num" d="M244 413q24 0 41 16.5t17 48.5q0 30 -16 47t-42 17q-59 0 -59 -64q0 -32 17 -48.5t42 -16.5zM422 655h-133q-7 28 -42 28q-65 0 -70 -111h2q39 51 110 51q65 0 104.5 -36t39.5 -103q0 -66 -49 -112.5t-144 -46.5t-149 54t-54 161q0 111 58.5 170.5t151.5 59.5 q87 0 127 -30.5t48 -84.5z" horiz-adv-x="468"/>
<glyph glyph-name="seven.num" d="M59 334l163 330h-193v101h353v-70l-179 -361h-144z" horiz-adv-x="405"/>
<glyph glyph-name="eight.num" d="M224 406q26 0 43 15.5t17 41.5q0 28 -16 42.5t-44 14.5q-61 0 -61 -57q0 -26 17 -41.5t44 -15.5zM224 692q-50 0 -50 -49q0 -24 13.5 -37t36.5 -13t36.5 13t13.5 37q0 49 -50 49zM45 653q0 56 45.5 87.5t133.5 31.5t133 -32t45 -88q0 -66 -64 -92v-2q82 -22 82 -100 q0 -60 -51 -96.5t-145 -36.5q-196 0 -196 133q0 75 81 100v2q-64 24 -64 93z" horiz-adv-x="448"/>
<glyph glyph-name="nine.num" d="M38 444l138 1q8 -33 47 -33q68 0 68 111h-3q-28 -44 -102 -44q-65 0 -107 34.5t-42 104.5q0 63 50.5 107.5t145.5 44.5q94 0 147 -56.5t53 -158.5q0 -109 -58 -169.5t-160 -60.5q-80 0 -127.5 34.5t-49.5 84.5zM228 681q-23 0 -41 -15t-18 -44q0 -30 17 -46t42 -16 t41 15.5t16 46.5q0 28 -17.5 43.5t-39.5 15.5z" horiz-adv-x="466"/>
<glyph glyph-name="minus.den" d="M57 164v89h311v-89h-311z" horiz-adv-x="426"/>
<glyph glyph-name="plus.den" d="M265 164v-117h-106v117h-118v89h118v115h106v-115h119v-89h-119z" horiz-adv-x="426"/>
<glyph glyph-name="parenleft.tab" d="M346 -130h-139q-66 79 -110 197.5t-44 261.5q0 144 44 261.5t110 197.5h139q-142 -237 -142 -459q0 -220 142 -459z" horiz-adv-x="300"/>
<glyph glyph-name="parenright.tab" d="M-46 -130q142 237 142 459q0 220 -142 459h139q66 -79 110 -197.5t44 -261.5q0 -144 -44 -261.5t-110 -197.5h-139z" horiz-adv-x="300"/>
<glyph glyph-name="bracketleft.tab" d="M58 -130v918h259v-112h-112v-694h112v-112h-259z" horiz-adv-x="300"/>
<glyph glyph-name="bracketright.tab" d="M242 788v-918h-259v112h112v694h-112v112h259z" horiz-adv-x="300"/>
<glyph glyph-name="braceleft.tab" d="M36 263h-23v128h23q28 0 39.5 13t11.5 43v8l-6 126q-1 11 -1 32q0 105 50 142t188 37v-108q-60 0 -79 -14t-19 -51q0 -11 2 -47l6 -109v-10q0 -47 -22 -80t-66 -42v-4q88 -20 88 -125v-13l-6 -103q-2 -36 -2 -47q0 -37 19 -51t79 -14v-108q-138 0 -188 36t-50 135 q0 5 0.5 14t0.5 13l6 135v8q0 30 -11.5 43t-39.5 13z" horiz-adv-x="300"/>
<glyph glyph-name="braceright.tab" d="M287 395v-128h-23q-28 0 -39.5 -13t-11.5 -43v-8l6 -126q1 -11 1 -32q0 -105 -50 -142t-188 -37v108q60 0 79 14t19 51q0 11 -2 47l-6 109v10q0 47 22 80t66 42v4q-88 20 -88 125v13l6 103q2 36 2 47q0 37 -19 51t-79 14v108q138 0 188 -36t50 -135q0 -5 -0.5 -14 t-0.5 -13l-6 -135v-8q0 -30 11.5 -43t39.5 -13h23z" horiz-adv-x="300"/>
<glyph glyph-name="eight.sub" d="M224 12q26 0 43 15.5t17 41.5q0 28 -16 42.5t-44 14.5q-61 0 -61 -57q0 -26 17 -41.5t44 -15.5zM224 298q-50 0 -50 -49q0 -24 13.5 -37t36.5 -13t36.5 13t13.5 37q0 49 -50 49zM45 259q0 56 45.5 87.5t133.5 31.5t133 -32t45 -88q0 -66 -64 -92v-2q82 -22 82 -100 q0 -60 -51 -96.5t-145 -36.5q-196 0 -196 133q0 75 81 100v2q-64 24 -64 93z" horiz-adv-x="448"/>
<glyph glyph-name="eight.sup" d="M224 456q26 0 43 15.5t17 41.5q0 28 -16 42.5t-44 14.5q-61 0 -61 -57q0 -26 17 -41.5t44 -15.5zM224 742q-50 0 -50 -49q0 -24 13.5 -37t36.5 -13t36.5 13t13.5 37q0 49 -50 49zM45 703q0 56 45.5 87.5t133.5 31.5t133 -32t45 -88q0 -66 -64 -92v-2q82 -22 82 -100 q0 -60 -51 -96.5t-145 -36.5q-196 0 -196 133q0 75 81 100v2q-64 24 -64 93z" horiz-adv-x="448"/>
<glyph glyph-name="five.sub" d="M276 80q0 24 -15 39.5t-39 15.5q-33 0 -54 -25h-120l19 261h312v-101h-209l-8 -97h2q32 49 105 49q66 0 103 -34.5t37 -97.5q0 -70 -47 -114.5t-143 -44.5q-178 0 -186 138h136q1 -20 16 -31.5t36 -11.5q25 0 40 15t15 39z" horiz-adv-x="446"/>
<glyph glyph-name="five.sup" d="M276 524q0 24 -15 39.5t-39 15.5q-33 0 -54 -25h-120l19 261h312v-101h-209l-8 -97h2q32 49 105 49q66 0 103 -34.5t37 -97.5q0 -70 -47 -114.5t-143 -44.5q-178 0 -186 138h136q1 -20 16 -31.5t36 -11.5q25 0 40 15t15 39z" horiz-adv-x="446"/>
<glyph glyph-name="four.sub" d="M438 25h-55v-85h-125v85h-230v88l192 258h163v-248h55v-98zM147 116h115v176h-3q-13 -38 -38 -73z" horiz-adv-x="466"/>
<glyph glyph-name="four.sup" d="M438 469h-55v-85h-125v85h-230v88l192 258h163v-248h55v-98zM147 560h115v176h-3q-13 -38 -38 -73z" horiz-adv-x="466"/>
<glyph glyph-name="minus.sub" d="M57 104v89h311v-89h-311z" horiz-adv-x="426"/>
<glyph glyph-name="minus.sup" d="M57 548v89h311v-89h-311z" horiz-adv-x="426"/>
<glyph glyph-name="nine.sub" d="M38 50l138 1q8 -33 47 -33q68 0 68 111h-3q-28 -44 -102 -44q-65 0 -107 34.5t-42 104.5q0 63 50.5 107.5t145.5 44.5q94 0 147 -56.5t53 -158.5q0 -109 -58 -169.5t-160 -60.5q-80 0 -127.5 34.5t-49.5 84.5zM228 287q-23 0 -41 -15t-18 -44q0 -30 17 -46t42 -16 t41 15.5t16 46.5q0 28 -17.5 43.5t-39.5 15.5z" horiz-adv-x="466"/>
<glyph glyph-name="nine.sup" d="M38 494l138 1q8 -33 47 -33q68 0 68 111h-3q-28 -44 -102 -44q-65 0 -107 34.5t-42 104.5q0 63 50.5 107.5t145.5 44.5q94 0 147 -56.5t53 -158.5q0 -109 -58 -169.5t-160 -60.5q-80 0 -127.5 34.5t-49.5 84.5zM228 731q-23 0 -41 -15t-18 -44q0 -30 17 -46t42 -16 t41 15.5t16 46.5q0 28 -17.5 43.5t-39.5 15.5z" horiz-adv-x="466"/>
<glyph glyph-name="one.sub" d="M117 -60v268h-96v91h15q42 0 67 15q25 17 25 57h127v-431h-138z" horiz-adv-x="317"/>
<glyph glyph-name="one.sup" d="M117 384v268h-96v91h15q42 0 67 15q25 17 25 57h127v-431h-138z" horiz-adv-x="317"/>
<glyph glyph-name="plus.sub" d="M265 104v-117h-106v117h-118v89h118v115h106v-115h119v-89h-119z" horiz-adv-x="426"/>
<glyph glyph-name="plus.sup" d="M265 548v-117h-106v117h-118v89h118v115h106v-115h119v-89h-119z" horiz-adv-x="426"/>
<glyph glyph-name="seven.sub" d="M59 -60l163 330h-193v101h353v-70l-179 -361h-144z" horiz-adv-x="405"/>
<glyph glyph-name="seven.sup" d="M59 384l163 330h-193v101h353v-70l-179 -361h-144z" horiz-adv-x="405"/>
<glyph glyph-name="six.sub" d="M244 19q24 0 41 16.5t17 48.5q0 30 -16 47t-42 17q-59 0 -59 -64q0 -32 17 -48.5t42 -16.5zM422 261h-133q-7 28 -42 28q-65 0 -70 -111h2q39 51 110 51q65 0 104.5 -36t39.5 -103q0 -66 -49 -112.5t-144 -46.5t-149 54t-54 161q0 111 58.5 170.5t151.5 59.5 q87 0 127 -30.5t48 -84.5z" horiz-adv-x="468"/>
<glyph glyph-name="six.sup" d="M244 463q24 0 41 16.5t17 48.5q0 30 -16 47t-42 17q-59 0 -59 -64q0 -32 17 -48.5t42 -16.5zM422 705h-133q-7 28 -42 28q-65 0 -70 -111h2q39 51 110 51q65 0 104.5 -36t39.5 -103q0 -66 -49 -112.5t-144 -46.5t-149 54t-54 161q0 111 58.5 170.5t151.5 59.5 q87 0 127 -30.5t48 -84.5z" horiz-adv-x="468"/>
<glyph glyph-name="three.sub" d="M224 120h-55v77h42q23 0 38 11.5t15 33.5q0 21 -13 32.5t-33 11.5q-24 0 -35.5 -13.5t-12.5 -30.5h-133q4 56 47.5 97t143.5 41q83 0 128.5 -33.5t45.5 -83.5q0 -80 -89 -97v-2q100 -15 100 -102q0 -55 -49.5 -93t-139.5 -38q-100 0 -144 39.5t-45 98.5h137 q1 -20 14.5 -31t34.5 -11q27 0 41 13.5t14 34.5q0 20 -14 32.5t-38 12.5z" horiz-adv-x="450"/>
<glyph glyph-name="three.sup" d="M224 564h-55v77h42q23 0 38 11.5t15 33.5q0 21 -13 32.5t-33 11.5q-24 0 -35.5 -13.5t-12.5 -30.5h-133q4 56 47.5 97t143.5 41q83 0 128.5 -33.5t45.5 -83.5q0 -80 -89 -97v-2q100 -15 100 -102q0 -55 -49.5 -93t-139.5 -38q-100 0 -144 39.5t-45 98.5h137 q1 -20 14.5 -31t34.5 -11q27 0 41 13.5t14 34.5q0 20 -14 32.5t-38 12.5z" horiz-adv-x="450"/>
<glyph glyph-name="two.sub" d="M166 214h-132q2 77 49.5 120.5t141.5 43.5q91 0 136 -35.5t45 -94.5q0 -47 -25 -80.5t-81 -76.5l-64 -49v-3h171v-99h-377v67l184 155q31 26 42 42t11 36q0 44 -42 44q-58 0 -59 -70z" horiz-adv-x="444"/>
<glyph glyph-name="two.sup" d="M166 658h-132q2 77 49.5 120.5t141.5 43.5q91 0 136 -35.5t45 -94.5q0 -47 -25 -80.5t-81 -76.5l-64 -49v-3h171v-99h-377v67l184 155q31 26 42 42t11 36q0 44 -42 44q-58 0 -59 -70z" horiz-adv-x="444"/>
<glyph glyph-name="zero.sub" d="M245 28q58 0 58 127q0 129 -58 129q-57 0 -57 -129q0 -76 14.5 -101.5t42.5 -25.5zM37 153q0 111 56 168.5t152 57.5q211 0 211 -226q0 -111 -55 -167.5t-156 -56.5q-208 0 -208 224z" horiz-adv-x="493"/>
<glyph glyph-name="zero.sup" d="M245 472q58 0 58 127q0 129 -58 129q-57 0 -57 -129q0 -76 14.5 -101.5t42.5 -25.5zM37 597q0 111 56 168.5t152 57.5q211 0 211 -226q0 -111 -55 -167.5t-156 -56.5q-208 0 -208 224z" horiz-adv-x="493"/>
<glyph glyph-name="Q.old" d="M354 185l116 85l62 -78q29 59 29 188q0 123 -41 188.5t-109 65.5q-150 0 -150 -254q0 -127 34 -190.5t109 -66.5zM581 -96l-74 92q-41 -12 -95 -12q-184 0 -278 104.5t-94 291.5q0 181 99.5 288.5t272.5 107.5q180 0 274.5 -104.5t94.5 -291.5q0 -225 -140 -323l55 -69z " horiz-adv-x="821"/>
<glyph glyph-name="Q.scold" d="M255 317q0 -109 26.5 -159.5t91.5 -50.5h5l-53 69l99 67l50 -65q18 50 18 139q0 102 -32.5 156t-86.5 54q-62 0 -90 -51.5t-28 -158.5zM525 -85l-64 83q-41 -11 -88 -11q-166 0 -245.5 87.5t-79.5 245.5q0 152 85 242.5t240 90.5q162 0 243.5 -88t81.5 -245 q0 -177 -126 -268l52 -68z" horiz-adv-x="746"/>
<glyph glyph-name="Euro.tab" d="M578 220q-2 -103 -65.5 -168.5t-179.5 -65.5q-119 0 -180 66.5t-77 197.5h-62v80h57q-1 12 -1 37q0 26 1 38h-57v80h63q38 266 270 266q114 0 169.5 -67t61.5 -173h-152q-11 49 -29.5 73t-53.5 24q-34 0 -54 -29t-29 -94h124v-80h-130v-36q0 -27 1 -39h129v-80h-123 q18 -118 84 -118q33 0 51.5 22t27.5 66h154z"/>
<glyph glyph-name="dollar.tab" d="M328 -116h-66v103q-114 8 -177 65t-68 164h174q7 -80 76 -95v169l-26 6q-107 24 -160.5 75.5t-53.5 149.5q0 94 60.5 155.5t176.5 69.5v82h66v-82q116 -7 170.5 -62.5t63.5 -151.5h-176q-6 74 -63 88v-162l17 -4q122 -26 177 -78t55 -148q0 -107 -62.5 -170.5 t-183.5 -70.5v-103zM328 119h1q37 7 56 29.5t19 49.5q0 35 -19 53t-57 26v-158zM264 471v149q-69 -12 -69 -74q0 -60 69 -75z"/>
<glyph glyph-name="dieresis.uc" d="M-3 831v157h160v-157h-160zM212 831v157h160v-157h-160z" horiz-adv-x="369"/>
<glyph glyph-name="zero.tab" d="M299 136q85 0 85 232q0 126 -20.5 179t-63.5 53q-85 0 -85 -232q0 -128 20.5 -180t63.5 -52zM27 368q0 183 72 283t199 100q136 0 205 -97.5t69 -285.5q0 -185 -70.5 -284t-203.5 -99q-271 0 -271 383z"/>
<glyph glyph-name="one.tab" d="M561 0h-490v147h157v341h-154v122h11q79 0 118 27q44 30 44 104h172v-594h142v-147z"/>
<glyph glyph-name="nine.tab" d="M37 189h170q21 -61 77 -61q95 0 103 197h-2q-49 -67 -140 -67q-98 0 -160 62.5t-62 174.5q0 108 72.5 182.5t203.5 74.5q135 0 205 -92.5t70 -271.5q0 -189 -77.5 -296t-212.5 -107q-119 0 -178 55.5t-69 148.5zM291 607q-34 0 -56.5 -27t-22.5 -84q0 -54 22 -83t57 -29 q37 0 58 28t21 84q0 55 -22.5 83t-56.5 28z"/>
<glyph glyph-name="eight.tab" d="M300 112q40 0 66.5 28t26.5 72q0 46 -26 73t-67 27q-42 0 -67.5 -26.5t-25.5 -73.5q0 -44 26.5 -72t66.5 -28zM300 620q-35 0 -57 -23.5t-22 -65.5q0 -41 22.5 -66t56.5 -25q36 0 57.5 24.5t21.5 66.5q0 43 -21.5 66t-57.5 23zM43 550q0 89 66.5 145.5t190.5 56.5 t190.5 -56.5t66.5 -145.5q0 -121 -106 -161v-4q131 -36 131 -180q0 -96 -78.5 -158.5t-203.5 -62.5q-132 0 -207 60.5t-75 158.5q0 146 131 182v4q-49 17 -77.5 58.5t-28.5 102.5z"/>
<glyph glyph-name="seven.tab" d="M79 0l269 589h-321v152h543v-106l-291 -635h-200z"/>
<glyph glyph-name="six.tab" d="M309 127q35 0 57 28.5t22 84.5q0 53 -22 83t-57 30q-37 0 -58 -29t-21 -84q0 -56 21 -84.5t58 -28.5zM564 554h-180q-7 26 -26 41.5t-43 15.5q-45 0 -71 -45t-32 -154h2q55 76 155 76q93 0 149.5 -64t56.5 -171q0 -117 -67.5 -192.5t-204.5 -75.5q-130 0 -202 89t-72 265 q0 202 76.5 307.5t216.5 105.5q108 0 171.5 -57.5t70.5 -140.5z"/>
<glyph glyph-name="five.tab" d="M26 217h184q4 -45 27.5 -67.5t62.5 -22.5q42 0 67.5 30t25.5 85q0 54 -25 84.5t-66 30.5q-58 0 -89 -53h-164l23 437h461v-152h-306l-8 -154h2q53 57 143 57q95 0 153 -65t58 -173q0 -116 -67.5 -192.5t-205.5 -76.5q-74 0 -128 19.5t-84.5 53.5t-45.5 73t-18 86z"/>
<glyph glyph-name="space_uni0326.alt" d="M300 788l-29 -180h-189l88 180h130z" horiz-adv-x="369"/>
<glyph glyph-name="four.tab" d="M588 156h-79v-156h-177v156h-315v131l277 454h215v-440h79v-145zM183 299h155v288h-2q-13 -41 -44 -96z"/>
<glyph glyph-name="three.tab" d="M289 311h-64v128h51q43 0 68 22.5t25 64.5q0 37 -20 59.5t-58 22.5q-41 0 -64 -24.5t-25 -62.5h-175q2 43 17 82.5t45.5 74t84.5 55t124 20.5q123 0 189 -57.5t66 -148.5q0 -57 -29 -99t-86 -61v-3q134 -38 134 -173q0 -97 -71.5 -161.5t-201.5 -64.5q-74 0 -128.5 19 t-85 53t-46 73t-18.5 86h186q4 -41 28.5 -63t62.5 -22q41 0 67 25t26 65q0 43 -26 66.5t-76 23.5z"/>
<glyph glyph-name="uni021A.sc" d="M176 -228l26 166h185l-79 -166h-132zM564 644v-143h-172v-501h-196v501h-172v143h540z" horiz-adv-x="588"/>
<glyph glyph-name="two.tab" d="M220 488h-183q2 125 73 194.5t203 69.5q128 0 192 -59.5t64 -155.5q0 -80 -35 -138.5t-118 -134.5l-120 -110v-2h270v-152h-541v105l250 247q58 58 80.5 96.5t22.5 76.5q0 83 -72 83q-86 0 -86 -120z"/>
</font>
</defs>
</svg>
