<?xml version="1.0" encoding="utf-8"?>
<!-- Generator: Adobe Illustrator 19.0.0, SVG Export Plug-In . SVG Version: 6.00 Build 0)  -->
<svg version="1.1" id="Layer_1" xmlns="http://www.w3.org/2000/svg" xmlns:xlink="http://www.w3.org/1999/xlink" x="0px" y="0px"
	 viewBox="-273 357 64 66.5" style="enable-background:new -273 357 64 66.5;" xml:space="preserve">
<g>
	<g>
		<path d="M-215,362.5h-52c-0.3,0-0.5,0.2-0.5,0.5v52c0,0.3,0.2,0.5,0.5,0.5h52c0.3,0,0.5-0.2,0.5-0.5v-52
			C-214.5,362.7-214.7,362.5-215,362.5z M-215.5,363.5v7h-51v-7H-215.5z M-266.5,414.5v-43h51v43H-266.5z"/>
		<circle cx="-233" cy="367" r="2"/>
		<circle cx="-227" cy="367" r="2"/>
		<circle cx="-221" cy="367" r="2"/>
		<path d="M-219,374.5h-44c-0.3,0-0.5,0.2-0.5,0.5v22c0,0.3,0.2,0.5,0.5,0.5h44c0.3,0,0.5-0.2,0.5-0.5v-22
			C-218.5,374.7-218.7,374.5-219,374.5z M-219.5,396.5h-43v-21h43V396.5z"/>
		<path d="M-245,402.5h-18c-0.3,0-0.5,0.2-0.5,0.5s0.2,0.5,0.5,0.5h18c0.3,0,0.5-0.2,0.5-0.5S-244.7,402.5-245,402.5z"/>
		<path d="M-219,402.5h-18c-0.3,0-0.5,0.2-0.5,0.5s0.2,0.5,0.5,0.5h18c0.3,0,0.5-0.2,0.5-0.5S-218.7,402.5-219,402.5z"/>
		<path d="M-245,406.5h-18c-0.3,0-0.5,0.2-0.5,0.5s0.2,0.5,0.5,0.5h18c0.3,0,0.5-0.2,0.5-0.5S-244.7,406.5-245,406.5z"/>
		<path d="M-219,406.5h-18c-0.3,0-0.5,0.2-0.5,0.5s0.2,0.5,0.5,0.5h18c0.3,0,0.5-0.2,0.5-0.5S-218.7,406.5-219,406.5z"/>
		<path d="M-245,410.5h-18c-0.3,0-0.5,0.2-0.5,0.5s0.2,0.5,0.5,0.5h18c0.3,0,0.5-0.2,0.5-0.5S-244.7,410.5-245,410.5z"/>
		<path d="M-219,410.5h-18c-0.3,0-0.5,0.2-0.5,0.5s0.2,0.5,0.5,0.5h18c0.3,0,0.5-0.2,0.5-0.5S-218.7,410.5-219,410.5z"/>
	</g>
</g>
</svg>
