<?xml version="1.0" encoding="utf-8"?>
<!-- Generator: Adobe Illustrator 19.0.0, SVG Export Plug-In . SVG Version: 6.00 Build 0)  -->
<svg version="1.1" id="Layer_1" xmlns="http://www.w3.org/2000/svg" xmlns:xlink="http://www.w3.org/1999/xlink" x="0px" y="0px"
	 viewBox="-255 338 100 93" style="enable-background:new -255 338 100 93;" xml:space="preserve">
<style type="text/css">
	.st0{fill:#FFFFFF;}
</style>
<g>
	<path class="st0" d="M-201.1,376.5c-1.2-0.7-2.6-1.1-4.1-1.1c-2.9,0-5.6,1.6-7.1,4.1c-2.2,3.9-0.9,8.9,3,11.1
		c1.2,0.7,2.6,1.1,4.1,1.1c2.9,0,5.6-1.6,7.1-4.1c1.1-1.9,1.4-4.1,0.8-6.2C-197.9,379.3-199.2,377.6-201.1,376.5z M-200.7,386.1
		c-0.9,1.6-2.6,2.6-4.5,2.6c-0.9,0-1.8-0.2-2.6-0.7c-2.5-1.4-3.3-4.6-1.9-7c0.9-1.6,2.6-2.6,4.5-2.6c0.9,0,1.8,0.2,2.6,0.7
		c1.2,0.7,2,1.8,2.4,3.1C-199.8,383.5-200,384.9-200.7,386.1z"/>
	<path class="st0" d="M-162.7,384c0-6.2-8.3-10.6-19.6-13.1c3.5-11,3.8-20.4-1.6-23.5c-1-0.6-2.2-0.9-3.5-0.9
		c-4.8,0-11.2,4.2-17.7,11.3c-6.5-7-12.9-11.3-17.7-11.3c-1.3,0-2.5,0.3-3.5,0.9c-5.4,3.1-5,12.5-1.6,23.5
		c-11.2,2.5-19.6,6.9-19.6,13.1c0,6.2,8.4,10.6,19.6,13.1c-0.7,2.3-1.3,4.5-1.7,6.6c-1.7,8.7-0.5,14.6,3.3,16.8
		c1,0.6,2.2,0.9,3.5,0.9c4.8,0,11.2-4.2,17.7-11.3c6.5,7,12.9,11.3,17.7,11.3c1.3,0,2.5-0.3,3.5-0.9c3.8-2.2,5-8.2,3.3-16.8
		c-0.4-2.1-1-4.3-1.7-6.6C-171.1,394.6-162.7,390.2-162.7,384z M-187.3,349.5c0.8,0,1.4,0.2,2,0.5c3.3,1.9,3.4,9.7,0.1,20.3
		c-3.5-0.6-7.2-1.1-11-1.4c-2.2-3.2-4.5-6.2-6.7-8.9C-196.6,353.1-190.9,349.5-187.3,349.5z M-194.2,390.2c-1.2,2.1-2.5,4.1-3.7,6
		c-2.3,0.1-4.6,0.2-7,0.2c-2.4,0-4.8-0.1-7.1-0.2c-1.2-1.9-2.5-3.9-3.7-6c-1.2-2.1-2.3-4.2-3.3-6.2c1-2.1,2.1-4.1,3.3-6.2
		c1.2-2.1,2.5-4.1,3.7-6c2.3-0.1,4.6-0.2,7.1-0.2c2.4,0,4.8,0.1,7,0.2c1.2,1.9,2.5,3.9,3.7,6c1.2,2.1,2.3,4.1,3.3,6.2
		C-191.9,386-193,388.1-194.2,390.2z M-189.3,387.4c1.2,2.5,2.2,5,3.1,7.4c-2.5,0.5-5.1,0.8-8,1.1c0.9-1.4,1.7-2.8,2.5-4.2
		C-190.8,390.3-190,388.9-189.3,387.4z M-200.1,399.3c-1.7,2.3-3.3,4.4-4.9,6.4c-1.6-1.9-3.3-4-4.9-6.4c1.6,0.1,3.3,0.1,4.9,0.1
		S-201.7,399.4-200.1,399.3z M-215.8,395.9c-2.8-0.3-5.5-0.6-8-1.1c0.9-2.4,1.9-4.9,3.1-7.4c0.8,1.5,1.5,2.9,2.4,4.3
		C-217.5,393.1-216.7,394.5-215.8,395.9z M-220.7,380.6c-1.2-2.6-2.2-5.1-3-7.4c2.5-0.5,5.1-0.8,7.9-1.1c-0.9,1.4-1.7,2.8-2.5,4.2
		C-219.2,377.7-220,379.2-220.7,380.6z M-209.9,368.7c1.7-2.3,3.3-4.4,4.9-6.4c1.6,1.9,3.3,4,4.9,6.4c-1.6-0.1-3.3-0.1-4.9-0.1
		C-206.6,368.6-208.3,368.6-209.9,368.7z M-191.6,376.3c-0.8-1.4-1.7-2.8-2.5-4.2c2.8,0.3,5.5,0.6,7.9,1.1c-0.8,2.4-1.9,4.9-3,7.4
		C-190,379.2-190.8,377.7-191.6,376.3z M-224.6,350c0.6-0.3,1.2-0.5,2-0.5c3.5,0,9.3,3.6,15.6,10.5c-2.3,2.6-4.5,5.6-6.7,8.9
		c-3.8,0.3-7.5,0.7-11,1.4C-228.1,359.7-227.9,351.9-224.6,350z M-244.3,384c0-3.8,6.7-7.8,17.5-10.2c1.2,3.4,2.7,6.8,4.3,10.2
		c-1.7,3.5-3.1,6.9-4.3,10.2C-237.6,391.8-244.3,387.8-244.3,384z M-222.7,418.5c-0.8,0-1.4-0.2-2-0.5c-2.5-1.5-3.2-6.6-1.8-13.7
		c0.4-2.1,1-4.3,1.7-6.6c3.5,0.6,7.2,1.1,11,1.4c2.2,3.2,4.5,6.2,6.7,8.9C-213.4,414.9-219.1,418.5-222.7,418.5z M-183.5,404.3
		c1.4,7.1,0.7,12.2-1.8,13.7c-0.6,0.3-1.2,0.5-2,0.5c-3.5,0-9.3-3.6-15.6-10.5c2.3-2.6,4.5-5.6,6.7-8.9c3.8-0.3,7.5-0.7,11-1.4
		C-184.5,400-184,402.2-183.5,404.3z M-183.3,394.2c-1.2-3.3-2.6-6.8-4.3-10.2c1.6-3.4,3.1-6.9,4.3-10.2
		c10.9,2.4,17.5,6.5,17.5,10.2S-172.4,391.8-183.3,394.2z"/>
</g>
</svg>
