<?xml version="1.0" encoding="utf-8"?>
<!-- Generator: Adobe Illustrator 19.0.0, SVG Export Plug-In . SVG Version: 6.00 Build 0)  -->
<svg version="1.1" id="Layer_1" xmlns="http://www.w3.org/2000/svg" xmlns:xlink="http://www.w3.org/1999/xlink" x="0px" y="0px"
	 viewBox="-255 345 100 104" style="enable-background:new -255 345 100 104;" xml:space="preserve">
<g>
	<path d="M-195.5,386.6c0-2-1.6-3.6-3.6-3.6s-3.6,1.6-3.6,3.6s1.6,3.6,3.6,3.6C-197.1,390.1-195.5,388.5-195.5,386.6z M-199.1,386.7
		c-0.1,0-0.1,0-0.1-0.1s0-0.1,0.1-0.1s0.1,0,0.1,0.1C-199,386.6-199,386.7-199.1,386.7z"/>
	<path d="M-203.1,394c-0.3-0.6-0.9-0.9-1.6-0.9h-4.8c-0.7,0-1.3,0.3-1.6,0.9l-2.4,4.1c-0.3,0.6-0.3,1.3,0,1.8l2.4,4.1
		c0.3,0.6,0.9,0.9,1.6,0.9h4.8c0.7,0,1.3-0.3,1.6-0.9l2.4-4.1c0.3-0.6,0.3-1.3,0-1.8L-203.1,394z M-205.8,401.4h-2.7l-1.3-2.3
		l1.3-2.3h2.7l1.3,2.3L-205.8,401.4z"/>
	<path d="M-168.7,391.8h-4.6v-28.3c0-3.6-2.9-6.5-6.5-6.5h-28.4l-7.7-8.7c-0.7-0.8-1.8-0.8-2.6-0.2c-0.8,0.7-0.8,1.8-0.2,2.6
		l5.6,6.3h-5.3c-3.6,0-6.5,2.9-6.5,6.5v9c-3.1,2-5.2,5.4-5.2,9.4c0,3.9,2.1,7.4,5.2,9.4v23.5l-16.8,5.7c-0.6,0.2-1.1,0.7-1.2,1.3
		c-0.1,0.6,0,1.3,0.5,1.7l22.4,22.4c0.3,0.3,0.8,0.5,1.3,0.5c0.1,0,0.3,0,0.4,0c0.6-0.1,1.1-0.6,1.3-1.2l2.6-7.6h34.5
		c3.6,0,6.5-2.9,6.5-6.5v-18.2h4.6c1,0,1.8-0.8,1.8-1.8v-17.5C-166.8,392.6-167.7,391.8-168.7,391.8z M-226.4,381.8
		c0-1.7,0.6-3.2,1.5-4.5v9C-225.8,385.1-226.4,383.5-226.4,381.8z M-219.4,441.2l-18.2-18.2l12.8-4.4V431c0,3.6,2.9,6.5,6.5,6.5h0.2
		L-219.4,441.2z M-177,431c0,1.6-1.3,2.8-2.8,2.8h-38.6c-1.6,0-2.8-1.3-2.8-2.8v-67.5c0-1.6,1.3-2.8,2.8-2.8h38.6
		c1.6,0,2.8,1.3,2.8,2.8C-177,363.5-177,431-177,431z M-170.5,409.2h-2.8v-13.8h2.8V409.2z"/>
	<path d="M-180.9,365.4h-36.3c-1,0-1.8,0.8-1.8,1.8v51c0,1,0.8,1.8,1.8,1.8h36.3c1,0,1.8-0.8,1.8-1.8v-51
		C-179.1,366.3-179.9,365.4-180.9,365.4z M-215.4,375.3c2.3,1.3,3.9,3.7,3.9,6.5s-1.6,5.3-3.9,6.5V375.3z M-215.4,415.4l5.3-1.8
		l-1,2.9h-4.3V415.4L-215.4,415.4z M-207.2,416.5l1.8-5.2c0.2-0.7,0.1-1.4-0.4-1.9s-1.2-0.7-1.9-0.4l-7.7,2.6v-19.2
		c4.4-1.5,7.6-5.6,7.6-10.5s-3.2-9-7.6-10.5v-2.2h13l14,15.9c0.4,0.4,0.9,0.6,1.4,0.6c0.4,0,0.9-0.2,1.2-0.5
		c0.8-0.7,0.8-1.8,0.2-2.6l-11.9-13.5h14.7v22.7H-196c-1,0-1.8,0.8-1.8,1.8v17.5c0,1,0.8,1.8,1.8,1.8h13.2v3.6
		C-182.7,416.5-207.2,416.5-207.2,416.5z M-182.7,395.4v13.8H-194v-13.8H-182.7z"/>
	<path d="M-199.1,421.9c-2.7,0-5,2.2-5,5c0,2.7,2.2,5,5,5c2.7,0,5-2.2,5-5S-196.3,421.9-199.1,421.9z M-199.1,428.2
		c-0.7,0-1.3-0.6-1.3-1.3s0.6-1.3,1.3-1.3s1.3,0.6,1.3,1.3C-197.8,427.6-198.3,428.2-199.1,428.2z"/>
</g>
</svg>
