<?xml version="1.0" encoding="utf-8"?>
<!-- Generator: Adobe Illustrator 19.0.0, SVG Export Plug-In . SVG Version: 6.00 Build 0)  -->
<svg version="1.1" id="Layer_1" xmlns="http://www.w3.org/2000/svg" xmlns:xlink="http://www.w3.org/1999/xlink" x="0px" y="0px"
	 viewBox="-273 357 64 76" style="enable-background:new -273 357 64 76;" xml:space="preserve">
<style type="text/css">
	.st0{display:none;}
	.st1{display:inline;}
	.st2{opacity:0.2;}
</style>
<g class="st0">
	<rect x="-506" y="111.5" class="st1" width="786.5" height="405.5"/>
</g>
<g class="st0">
	<g class="st1">
		<g>
			<rect x="-265" y="357" width="48" height="64"/>
		</g>
		<g class="st2">
			<g>
				<polygon points="-265,357 -265,376 -242.1,357 				"/>
			</g>
		</g>
	</g>
	<g class="st1">
		<g>
			<path d="M-241,371.8c9.5,0,17.2,7.7,17.2,17.2c0,9.5-7.7,17.2-17.2,17.2c-9.5,0-17.2-7.7-17.2-17.2
				C-258.2,379.5-250.5,371.8-241,371.8 M-241,370.8c-10,0-18.2,8.1-18.2,18.2s8.1,18.2,18.2,18.2c10,0,18.2-8.1,18.2-18.2
				C-222.8,379-231,370.8-241,370.8L-241,370.8z"/>
		</g>
	</g>
	<g class="st1">
		<rect x="-251.7" y="378.5" width="8" height="1.3"/>
	</g>
	<g class="st1">
		<rect x="-249.1" y="386.4" width="5.3" height="1.3"/>
	</g>
	<g class="st1">
		<rect x="-247.7" y="389.1" width="2.7" height="1.3"/>
	</g>
	<g class="st1">
		<rect x="-249.1" y="399.8" width="5.3" height="1.3"/>
	</g>
	<g class="st1">
		<rect x="-241.1" y="378.5" width="5.3" height="1.3"/>
	</g>
	<g class="st1">
		<rect x="-249.1" y="381.1" width="8" height="1.3"/>
	</g>
	<g class="st1">
		<rect x="-237.1" y="381.1" width="6.7" height="1.3"/>
	</g>
	<g class="st1">
		<rect x="-234.4" y="391.8" width="6.7" height="1.3"/>
	</g>
	<g class="st1">
		<rect x="-233.1" y="394.4" width="5.3" height="1.3"/>
	</g>
	<g class="st1">
		<rect x="-244.1" y="383.8" width="11" height="1.3"/>
	</g>
	<g class="st1">
		<rect x="-239.7" y="391.8" width="2.7" height="1.3"/>
	</g>
	<g class="st1">
		<rect x="-238.4" y="394.4" width="2.7" height="1.3"/>
	</g>
	<g class="st1">
		<rect x="-237.1" y="397.1" width="2.7" height="1.3"/>
	</g>
	<g class="st1">
		<rect x="-241.1" y="399.8" width="5.3" height="1.3"/>
	</g>
	<g class="st1">
		<rect x="-239.7" y="386.4" width="8" height="1.3"/>
	</g>
	<g class="st1">
		<rect x="-242.4" y="389.1" width="8" height="1.3"/>
	</g>
	<g class="st1">
		<rect x="-249.1" y="397.1" width="8" height="1.3"/>
	</g>
	<g class="st1">
		<rect x="-250.4" y="391.8" width="8" height="1.3"/>
	</g>
	<g class="st1">
		<rect x="-251.7" y="394.4" width="8" height="1.3"/>
	</g>
</g>
<g class="st0">
	<rect x="-266" y="358" class="st1" width="50.1" height="62.1"/>
	<rect x="-263" y="361" class="st1" width="44" height="56"/>
	<path class="st1" d="M-217,359v60h-48v-60H-217 M-215,357h-52v64h52V357L-215,357z"/>
	<g class="st1">
		<circle cx="-241" cy="389" r="16.4"/>
	</g>
	<rect x="-251.7" y="378.5" class="st1" width="8" height="1.3"/>
	<rect x="-249.1" y="386.4" class="st1" width="5.3" height="1.3"/>
	<rect x="-247.7" y="389.1" class="st1" width="2.7" height="1.3"/>
	<rect x="-249.1" y="399.8" class="st1" width="5.3" height="1.3"/>
	<rect x="-241.1" y="378.5" class="st1" width="5.3" height="1.3"/>
	<rect x="-249.1" y="381.1" class="st1" width="8" height="1.3"/>
	<rect x="-237.1" y="381.1" class="st1" width="6.7" height="1.3"/>
	<rect x="-234.4" y="391.8" class="st1" width="6.7" height="1.3"/>
	<rect x="-233.1" y="394.4" class="st1" width="5.3" height="1.3"/>
	<rect x="-244.1" y="383.8" class="st1" width="11" height="1.3"/>
	<rect x="-239.7" y="391.8" class="st1" width="2.7" height="1.3"/>
	<rect x="-238.4" y="394.4" class="st1" width="2.7" height="1.3"/>
	<rect x="-237.1" y="397.1" class="st1" width="2.7" height="1.3"/>
	<rect x="-241.1" y="399.8" class="st1" width="5.3" height="1.3"/>
	<rect x="-239.7" y="386.4" class="st1" width="8" height="1.3"/>
	<rect x="-242.4" y="389.1" class="st1" width="8" height="1.3"/>
	<rect x="-249.1" y="397.1" class="st1" width="8" height="1.3"/>
	<rect x="-250.4" y="391.8" class="st1" width="8" height="1.3"/>
	<rect x="-251.7" y="394.4" class="st1" width="8" height="1.3"/>
</g>
<g>
	<path d="M-217,364v60h-48v-60H-217 M-215,362h-52v64h52V362L-215,362z"/>
	<g>
		<path d="M-241,377.6c-9.1,0-16.4,7.4-16.4,16.4c0,9.1,7.4,16.4,16.4,16.4s16.4-7.4,16.4-16.4C-224.6,384.9-231.9,377.6-241,377.6z
			 M-238.4,399.4h2.7v1.3h-2.7V399.4z M-239.7,398.1v-1.3h2.7v1.3H-239.7z M-242.4,395.4v-1.3h8v1.3H-242.4z M-243.7,391.4v1.3h-5.3
			v-1.3H-243.7z M-244.1,390.1v-1.3h11v1.3H-244.1z M-245.1,394.1v1.3h-2.7v-1.3H-245.1z M-242.4,396.8v1.3h-8v-1.3H-242.4z
			 M-241.1,402.1v1.3h-8v-1.3H-241.1z M-239.7,392.8v-1.3h8v1.3H-239.7z M-237.1,387.5v-1.3h6.7v1.3H-237.1z M-241.1,383.5h5.3v1.3
			h-5.3C-241.1,384.8-241.1,383.5-241.1,383.5z M-241.1,387.5h-8v-1.3h8V387.5z M-251.7,383.5h8v1.3h-8V383.5z M-251.7,399.4h8v1.3
			h-8V399.4z M-243.7,406.1h-5.3v-1.3h5.3V406.1z M-235.7,406.1h-5.3v-1.3h5.3V406.1z M-234.4,403.4h-2.7v-1.3h2.7V403.4z
			 M-227.7,400.8h-5.3v-1.3h5.3V400.8z M-227.7,398.1h-6.7v-1.3h6.7L-227.7,398.1L-227.7,398.1z"/>
		<path d="M-263,366v56h44v-56H-263z M-241,411.4c-9.6,0-17.4-7.8-17.4-17.4s7.8-17.4,17.4-17.4c9.6,0,17.4,7.8,17.4,17.4
			S-231.4,411.4-241,411.4z"/>
	</g>
</g>
<g class="st0">
	<path class="st1" d="M-217,359v60h-48v-60H-217 M-215,357h-52v64h52V357L-215,357z"/>
	<g class="st1">
		<g>
			<path d="M-241,372.6c9.1,0,16.4,7.4,16.4,16.4c0,9.1-7.4,16.4-16.4,16.4s-16.4-7.4-16.4-16.4C-257.4,379.9-250.1,372.6-241,372.6
				 M-241,371.1c-9.9,0-17.9,8-17.9,17.9s8,17.9,17.9,17.9c9.9,0,17.9-8,17.9-17.9C-223.1,379.1-231.1,371.1-241,371.1L-241,371.1z"
				/>
		</g>
	</g>
	<rect x="-251.7" y="378.5" class="st1" width="8" height="1.3"/>
	<rect x="-249.1" y="386.4" class="st1" width="5.3" height="1.3"/>
	<rect x="-247.7" y="389.1" class="st1" width="2.7" height="1.3"/>
	<rect x="-249.1" y="399.8" class="st1" width="5.3" height="1.3"/>
	<rect x="-241.1" y="378.5" class="st1" width="5.3" height="1.3"/>
	<rect x="-249.1" y="381.1" class="st1" width="8" height="1.3"/>
	<rect x="-237.1" y="381.1" class="st1" width="6.7" height="1.3"/>
	<rect x="-234.4" y="391.8" class="st1" width="6.7" height="1.3"/>
	<rect x="-233.1" y="394.4" class="st1" width="5.3" height="1.3"/>
	<rect x="-244.1" y="383.8" class="st1" width="11" height="1.3"/>
	<rect x="-239.7" y="391.8" class="st1" width="2.7" height="1.3"/>
	<rect x="-238.4" y="394.4" class="st1" width="2.7" height="1.3"/>
	<rect x="-237.1" y="397.1" class="st1" width="2.7" height="1.3"/>
	<rect x="-241.1" y="399.8" class="st1" width="5.3" height="1.3"/>
	<rect x="-239.7" y="386.4" class="st1" width="8" height="1.3"/>
	<rect x="-242.4" y="389.1" class="st1" width="8" height="1.3"/>
	<rect x="-249.1" y="397.1" class="st1" width="8" height="1.3"/>
	<rect x="-250.4" y="391.8" class="st1" width="8" height="1.3"/>
	<rect x="-251.7" y="394.4" class="st1" width="8" height="1.3"/>
</g>
</svg>
