<?xml version="1.0" encoding="utf-8"?>
<!-- Generator: Adobe Illustrator 19.0.0, SVG Export Plug-In . SVG Version: 6.00 Build 0)  -->
<svg version="1.1" id="Layer_1" xmlns="http://www.w3.org/2000/svg" xmlns:xlink="http://www.w3.org/1999/xlink" x="0px" y="0px"
	 viewBox="-255 334 100 101.5" style="enable-background:new -255 334 100 101.5;" xml:space="preserve">
<style type="text/css">
	.st0{display:none;}
	.st1{display:inline;}
	.st2{fill:none;}
</style>
<g class="st0">
	<g class="st1">
		<rect x="-365" y="88.5" width="1180" height="835.6"/>
		<path d="M815.5,924.6h-1181V87.9h1181V924.6z M-364.5,923.5h1179V89h-1179V923.5z"/>
	</g>
</g>
<g>
	<g>
		<path class="st2" d="M-205,373.6c-5.7,0-10.4,4.6-10.4,10.4s4.6,10.4,10.4,10.4s10.4-4.6,10.4-10.4S-199.3,373.6-205,373.6z
			 M-205,388.8c-2.7,0-4.8-2.2-4.8-4.8s2.2-4.8,4.8-4.8s4.8,2.2,4.8,4.8S-202.3,388.8-205,388.8z"/>
		<circle class="st2" cx="-205" cy="384" r="1.7"/>
		<path class="st2" d="M-232.2,379.7c-2,1.9-3.5,3.6-4.3,4.6c0.8,1,2.3,2.7,4.3,4.6c1-1.3,1.5-2.9,1.5-4.6
			C-230.7,382.6-231.3,381-232.2,379.7z"/>
		<path class="st2" d="M-177.8,379.6c-1,1.3-1.5,2.9-1.5,4.6c0,1.7,0.5,3.3,1.5,4.6c2-1.9,3.5-3.6,4.3-4.6
			C-174.3,383.3-175.8,381.6-177.8,379.6z"/>
		<path class="st2" d="M-178.6,378.9c-5.9-5.5-15.6-12.7-26.4-12.7c-10.9,0-20.6,7.2-26.5,12.7c1.1,1.5,1.8,3.4,1.8,5.3
			c0,1.9-0.6,3.8-1.8,5.3c5.9,5.5,15.6,12.7,26.5,12.7c10.8,0,20.6-7.2,26.4-12.7c-1.1-1.5-1.8-3.4-1.8-5.3
			C-180.3,382.3-179.7,380.5-178.6,378.9z M-205,397.5c-7.4,0-13.5-6-13.5-13.5s6-13.5,13.5-13.5s13.5,6,13.5,13.5
			S-197.6,397.5-205,397.5z"/>
		<path d="M-185.4,350.1c1.4,0.8,3.2,0.3,4-1.1c0.8-1.4,0.3-3.2-1.1-4c-0.5-0.3-1-0.4-1.5-0.4c-0.3,0-0.5,0-0.8,0.1
			c-0.8,0.2-1.4,0.7-1.8,1.4C-187.3,347.5-186.9,349.3-185.4,350.1z"/>
		<path d="M-224.6,417.9c-1.4-0.8-3.2-0.3-4,1.1c-0.8,1.4-0.3,3.2,1.1,4c0.7,0.4,1.5,0.5,2.2,0.3c0.8-0.2,1.4-0.7,1.8-1.4
			C-222.7,420.5-223.1,418.7-224.6,417.9z"/>
		<path d="M-167.1,365.5c0.7-0.4,1.2-1,1.4-1.8c0.2-0.8,0.1-1.6-0.3-2.2c-0.8-1.4-2.6-1.9-4-1.1c-1.4,0.8-1.9,2.6-1.1,4
			C-170.3,365.9-168.5,366.3-167.1,365.5z"/>
		<path d="M-241.4,402.1c-0.5,0-1,0.1-1.5,0.4c-0.7,0.4-1.2,1-1.4,1.8c-0.2,0.8-0.1,1.6,0.3,2.2c0.8,1.4,2.6,1.9,4,1.1
			c1.4-0.8,1.9-2.6,1.1-4C-239.4,402.6-240.4,402.1-241.4,402.1z"/>
		<circle cx="-162.9" cy="384" r="2.9"/>
		<circle cx="-247.1" cy="384" r="2.9"/>
		<path d="M-167.1,402.5c-0.5-0.3-1-0.4-1.5-0.4c-1,0-2,0.5-2.6,1.5c-0.8,1.4-0.3,3.2,1.1,4c1.4,0.8,3.2,0.3,4-1.1
			c0.4-0.7,0.5-1.5,0.3-2.2C-165.9,403.5-166.4,402.9-167.1,402.5z"/>
		<path d="M-242.9,365.5c1.4,0.8,3.2,0.3,4-1.1c0.8-1.4,0.3-3.2-1.1-4c-0.5-0.3-1-0.4-1.5-0.4c-1,0-2,0.5-2.6,1.5
			c-0.4,0.7-0.5,1.5-0.3,2.2C-244.1,364.5-243.6,365.1-242.9,365.5z"/>
		<path d="M-184,417.5c-0.5,0-1,0.1-1.5,0.4c-1.4,0.8-1.9,2.6-1.1,4c0.4,0.7,1,1.2,1.8,1.4c0.8,0.2,1.6,0.1,2.2-0.3
			c1.4-0.8,1.9-2.6,1.1-4C-182,418-183,417.5-184,417.5z"/>
		<path d="M-224.6,350.1c1.4-0.8,1.9-2.6,1.1-4c-0.4-0.7-1-1.2-1.8-1.4c-0.3-0.1-0.5-0.1-0.8-0.1c-0.5,0-1,0.1-1.5,0.4
			c-1.4,0.8-1.9,2.6-1.1,4C-227.8,350.5-226,350.9-224.6,350.1z"/>
		<circle cx="-205" cy="426.1" r="2.9"/>
		<circle cx="-205" cy="341.9" r="2.9"/>
		<path d="M-169.5,384.2l-0.7-0.9c-0.6-0.8-15.7-20.1-34.8-20.1s-34.1,19.3-34.8,20.1l-0.7,0.9l0.7,0.9c0.6,0.8,15.7,20.1,34.8,20.1
			s34.1-19.3,34.8-20.1L-169.5,384.2z M-236.5,384.2c0.8-1,2.3-2.7,4.3-4.6c1,1.3,1.5,2.9,1.5,4.6c0,1.7-0.5,3.3-1.5,4.6
			C-234.2,386.9-235.7,385.2-236.5,384.2z M-205,402.2c-10.8,0-20.6-7.2-26.5-12.7c1.1-1.5,1.8-3.4,1.8-5.3c0-1.9-0.6-3.8-1.8-5.3
			c5.9-5.5,15.6-12.7,26.5-12.7c10.8,0,20.6,7.2,26.4,12.7c-1.1,1.5-1.8,3.4-1.8,5.3c0,1.9,0.6,3.8,1.8,5.3
			C-184.4,395.1-194.2,402.2-205,402.2z M-177.8,388.9c-1-1.3-1.5-2.9-1.5-4.6c0-1.7,0.5-3.3,1.5-4.6c2,1.9,3.5,3.6,4.3,4.6
			C-174.3,385.2-175.8,386.9-177.8,388.9z"/>
		<path d="M-205,370.5c-7.4,0-13.5,6-13.5,13.5s6,13.5,13.5,13.5s13.5-6,13.5-13.5S-197.6,370.5-205,370.5z M-205,394.4
			c-5.7,0-10.4-4.6-10.4-10.4s4.6-10.4,10.4-10.4s10.4,4.6,10.4,10.4S-199.3,394.4-205,394.4z"/>
		<path d="M-205,379.2c-2.7,0-4.8,2.2-4.8,4.8s2.2,4.8,4.8,4.8s4.8-2.2,4.8-4.8S-202.3,379.2-205,379.2z M-205,385.7
			c-0.9,0-1.7-0.8-1.7-1.7s0.8-1.7,1.7-1.7s1.7,0.8,1.7,1.7S-204.1,385.7-205,385.7z"/>
	</g>
</g>
</svg>
