<?xml version="1.0" encoding="utf-8"?>
<!-- Generator: Adobe Illustrator 19.0.0, SVG Export Plug-In . SVG Version: 6.00 Build 0)  -->
<svg version="1.1" id="Layer_1" xmlns="http://www.w3.org/2000/svg" xmlns:xlink="http://www.w3.org/1999/xlink" x="0px" y="0px"
	 viewBox="-255 334 100 100.5" style="enable-background:new -255 334 100 100.5;" xml:space="preserve">
<style type="text/css">
	.st0{fill:none;stroke:#000000;stroke-linecap:round;stroke-linejoin:round;stroke-miterlimit:10;}
</style>
<path class="st0" d="M-245,344v8.2h6.2l1.6-3.2c0.3-0.5,0.9-0.9,1.5-0.9h10.3c0.6,0,1.2,0.4,1.5,0.9l1.6,3.2h47.4V344H-245z"/>
<rect x="-240" y="359" class="st0" width="8.2" height="3.1"/>
<rect x="-227.6" y="359" class="st0" width="16.5" height="3.1"/>
<rect x="-231.8" y="365.2" class="st0" width="16.5" height="3.1"/>
<rect x="-211.2" y="365.2" class="st0" width="12.4" height="3.1"/>
<rect x="-231.8" y="371.4" class="st0" width="4.1" height="3.1"/>
<rect x="-223.5" y="371.4" class="st0" width="20.6" height="3.1"/>
<rect x="-231.8" y="377.5" class="st0" width="12.4" height="3.1"/>
<rect x="-240" y="383.7" class="st0" width="4.1" height="3.1"/>
<rect x="-231.8" y="383.7" class="st0" width="20.6" height="3.1"/>
<rect x="-207.1" y="383.7" class="st0" width="4.1" height="3.1"/>
<rect x="-180.7" y="346.6" class="st0" width="3.1" height="3.1"/>
<rect x="-185.8" y="346.6" class="st0" width="3.1" height="3.1"/>
<rect x="-191" y="346.6" class="st0" width="3.1" height="3.1"/>
<path class="st0" d="M-213.7,349c-0.3-0.5-0.9-0.9-1.5-0.9h-10.3c0.6,0,1.2,0.4,1.5,0.9l1.6,3.2h2h8.2L-213.7,349z"/>
<path class="st0" d="M-179.1,372.8h-5H-179.1z"/>
<path class="st0" d="M-174.9,372.8h-1.7H-174.9z"/>
<path class="st0" d="M-179.5,419.4c0,1.1-0.9,2.1-2.1,2.1s-2.1-0.9-2.1-2.1c0-1.1,0.9-2.1,2.1-2.1S-179.5,418.3-179.5,419.4z"/>
<path class="st0" d="M-165,374.4L-165,374.4c0-2.7-2.2-5-5-5h-23.1c-2.7,0-5,2.2-5,5l0,0V419c0,2.7,2.2,5,5,5h23.1c2.7,0,5-2.2,5-5
	V374.4z"/>
<rect x="-194.5" y="377" class="st0" width="26" height="37.8"/>
<rect x="-190.3" y="389" class="st0" width="17.5" height="5"/>
<rect x="-190.3" y="397.8" class="st0" width="17.5" height="5"/>
<rect x="-209.3" y="402.2" class="st0" width="11.3" height="3.1"/>
<rect x="-209.3" y="396.1" class="st0" width="11.3" height="3.1"/>
<rect x="-231.8" y="389.9" class="st0" width="33.7" height="3.1"/>
<rect x="-215.3" y="377.5" class="st0" width="17.2" height="3.1"/>
<path class="st0" d="M-218.6,410c0,3.5-2.9,6.4-6.4,6.4c-3.5,0-6.4-2.9-6.4-6.4c0-3.5,2.9-6.4,6.4-6.4
	C-221.5,403.6-218.6,406.5-218.6,410z"/>
<path class="st0" d="M-221,419.7c1.6-0.7,3.5,0,4.3,1.5c1.1-0.8,2-1.7,2.8-2.8c-1.5-0.9-2.2-2.7-1.5-4.3c0.7-1.6,2.5-2.5,4.1-2
	c0.1-0.6,0.2-1.3,0.2-2c0-0.7-0.1-1.3-0.2-2c-1.7,0.5-3.5-0.4-4.1-2c-0.7-1.6,0-3.5,1.5-4.3c-0.8-1.1-1.7-2-2.8-2.8
	c-0.9,1.5-2.7,2.2-4.4,1.5c-1.6-0.7-2.5-2.5-2-4.1c-0.7-0.1-1.3-0.2-2-0.2c-0.7,0-1.3,0.1-2,0.2c0.4,1.7-0.4,3.5-2,4.1
	c-1.6,0.7-3.5,0-4.3-1.5c-1.1,0.8-2,1.7-2.8,2.8c1.5,0.9,2.2,2.7,1.5,4.3c-0.7,1.6-2.5,2.5-4.1,2c-0.1,0.6-0.2,1.3-0.2,2
	c0,0.7,0.1,1.3,0.2,2c1.7-0.5,3.5,0.4,4.1,2c0.7,1.6,0,3.5-1.5,4.3c0.8,1.1,1.7,2,2.8,2.8c0.9-1.5,2.7-2.2,4.3-1.5
	c1.6,0.7,2.5,2.5,2,4.1c0.7,0.1,1.3,0.2,2,0.2c0.7,0,1.3-0.1,2-0.2C-223.5,422.2-222.6,420.4-221,419.7z"/>
<path class="st0" d="M-222.4,352.2L-222.4,352.2l-1.6-3.2c-0.3-0.5-0.9-0.9-1.5-0.9h-10.3c-0.6,0-1.2,0.4-1.5,0.9l-1.6,3.2l0,0h-6.2
	V414h10.3c-0.7-1.6-2.5-2.4-4.1-2c-0.1-0.7-0.2-1.3-0.2-2c0-0.7,0.1-1.3,0.2-2c1.7,0.5,3.5-0.4,4.1-2c0.7-1.6,0-3.5-1.5-4.3
	c0.8-1.1,1.7-2,2.8-2.8c0.9,1.5,2.7,2.2,4.3,1.5c1.6-0.7,2.5-2.5,2-4.1c0.7-0.1,1.3-0.2,2-0.2c0.7,0,1.3,0.1,2,0.2
	c-0.5,1.7,0.4,3.5,2,4.1c1.6,0.7,3.5,0,4.4-1.5c1.1,0.8,2,1.7,2.8,2.8c-1.5,0.9-2.2,2.7-1.5,4.3c0.7,1.6,2.5,2.5,4.1,2
	c0.1,0.7,0.2,1.3,0.2,2c0,0.7-0.1,1.3-0.2,2c-1.7-0.4-3.4,0.4-4.1,2h17.2v-39.6l0,0c0-2.7,2.2-5,5-5h18.1v-17.2H-222.4z"/>
</svg>
