<?xml version="1.0" encoding="utf-8"?>
<!-- Generator: Adobe Illustrator 19.0.0, SVG Export Plug-In . SVG Version: 6.00 Build 0)  -->
<svg version="1.1" id="Layer_1" xmlns="http://www.w3.org/2000/svg" xmlns:xlink="http://www.w3.org/1999/xlink" x="0px" y="0px"
	 viewBox="-255 337.5 100 114.2" style="enable-background:new -255 337.5 100 114.2;" xml:space="preserve">
<style type="text/css">
	.st0{fill:#FFFFFF;}
</style>
<path class="st0" d="M-219.6,406.4l-18.7,24.2c-1.8,2.3-2.2,5.3-1,7.9c1.2,2.6,3.8,4.2,6.7,4.2h54.3c3.1,0,5.9-1.8,7.1-4.5
	s1-6-1-8.3l-18-23.2c-3-3.7-4.6-8.3-4.6-13.1l-0.1-7.8c2.5-0.7,4.4-3.1,4.4-6.3c0-3.6-2.5-6.4-5.6-6.4h-18c-3.1,0-5.6,2.9-5.6,6.4
	c0,3.3,2.2,5.9,4.9,6.3l-0.1,7.6C-214.9,398.2-216.6,402.7-219.6,406.4z M-185.6,420.9l9.6,12.3c1,1.1,0.4,2.3,0.3,2.6
	c-0.1,0.3-0.8,1.4-2.2,1.4h-54.5c-1.1,0-1.6-0.8-1.8-1.1c-0.1-0.4-0.4-1.2,0.3-2.2l10.1-13H-185.6z M-214,378.4h17.9
	c0.1,0.1,0.3,0.4,0.3,1c0,0.5-0.1,0.8-0.3,1h-1.4h-14.6h-1.9c-0.1-0.1-0.3-0.4-0.3-1C-214.2,378.8-214,378.6-214,378.4z
	 M-209.5,393.6l0.1-7.8h9.3l0.1,7.6c0,6,2.2,11.9,5.9,16.5l4.2,5.5h-29.8l4.4-5.6C-211.5,405.2-209.5,399.5-209.5,393.6z"/>
<path class="st0" d="M-213.3,343.2c-4.5,0-8.2,3.7-8.2,8.2s3.7,8.2,8.2,8.2s8.2-3.7,8.2-8.2S-208.8,343.2-213.3,343.2z
	 M-213.3,354.1c-1.5,0-2.7-1.2-2.7-2.7c0-1.5,1.2-2.7,2.7-2.7s2.7,1.2,2.7,2.7C-210.5,352.9-211.8,354.1-213.3,354.1z"/>
<path class="st0" d="M-191.3,362.9c0-3.7-3-6.6-6.6-6.6c-3.6,0-6.6,3-6.6,6.6s3,6.6,6.6,6.6C-194.3,369.4-191.3,366.4-191.3,362.9z
	 M-199.1,362.9c0-0.7,0.5-1.1,1.1-1.1s1.1,0.5,1.1,1.1s-0.5,1.1-1.1,1.1S-199.1,363.4-199.1,362.9z"/>
<path class="st0" d="M-211.8,362.3c-2.5,0-4.4,1.9-4.4,4.4c0,2.5,1.9,4.4,4.4,4.4s4.4-1.9,4.4-4.4
	C-207.4,364.2-209.3,362.3-211.8,362.3z M-211.8,367.8c-0.7,0-1.1-0.5-1.1-1.1c0-0.5,0.5-1.1,1.1-1.1c0.7,0,1.1,0.5,1.1,1.1
	C-210.7,367.2-211.1,367.8-211.8,367.8z"/>
</svg>
