<?xml version="1.0" encoding="UTF-8" standalone="no"?>
<svg width="813px" height="779px" viewBox="0 0 813 779" version="1.1" xmlns="http://www.w3.org/2000/svg" xmlns:xlink="http://www.w3.org/1999/xlink">
    <!-- Generator: Sketch 3.8.3 (29802) - http://www.bohemiancoding.com/sketch -->
    <title>HalfHelix_Circle</title>
    <desc>Created with Sketch.</desc>
    <defs></defs>
    <g id="Half-Helix" stroke="none" stroke-width="1" fill="none" fill-rule="evenodd">
        <g id="Home-2" transform="translate(-308.000000, -58.000000)" fill="#FFFFFF">
            <g id="HalfHelix_Circle" style="mix-blend-mode: soft-light;" transform="translate(308.000000, 58.000000)">
                <polygon id="H" style="mix-blend-mode: screen;" points="443.835554 0.506850062 443.835554 50.4605514 394.970058 50.4605514 394.970058 0.506850062 371.068456 0.506850062 371.068456 124.5054 394.970058 124.5054 394.970058 72.9574311 443.835554 72.9574311 443.835554 124.5054 467.737155 124.5054 467.737155 0.506850062"></polygon>
                <path d="M662.498021,77.828185 L631.337415,77.828185 L589.553875,201.826735 L615.048916,201.826735 L623.724312,174.724194 L670.111124,174.724194 L678.78652,201.826735 L704.281561,201.826735 L662.498021,77.828185 Z M630.806268,152.758737 L644.793131,109.713526 L649.042305,109.713526 L663.029168,152.758737 L630.806268,152.758737 Z" id="A" style="mix-blend-mode: screen;" transform="translate(646.917718, 139.827460) rotate(40.000000) translate(-646.917718, -139.827460) "></path>
                <polygon id="L" style="mix-blend-mode: screen;" transform="translate(755.018218, 335.410635) rotate(80.000000) translate(-755.018218, -335.410635) " points="737.224804 374.204467 737.224804 273.41136 712.437958 273.41136 712.437958 397.40991 797.598478 397.40991 797.598478 374.204467"></polygon>
                <polygon id="F" style="mix-blend-mode: screen;" transform="translate(679.449025, 565.479594) rotate(120.000000) translate(-679.449025, -565.479594) " points="720.258797 525.977199 720.258797 503.480319 638.639254 503.480319 638.639254 553.611161 638.639254 627.478869 662.363807 627.478869 662.363807 575.399478 709.635863 575.399478 709.635863 553.611161 662.363807 553.611161 662.363807 525.977199"></polygon>
                <polygon id="H" style="mix-blend-mode: screen;" transform="translate(507.529922, 703.439293) rotate(160.000000) translate(-507.529922, -703.439293) " points="531.96267 641.440019 531.96267 691.39372 483.097174 691.39372 483.097174 641.440019 459.195573 641.440019 459.195573 765.438568 483.097174 765.438568 483.097174 713.8906 531.96267 713.8906 531.96267 765.438568 555.864272 765.438568 555.864272 641.440019"></polygon>
                <polygon id="E" style="mix-blend-mode: screen;" transform="translate(263.750383, 690.830900) rotate(200.000000) translate(-263.750383, -690.830900) " points="245.248774 730.687576 245.248774 701.105065 298.363443 701.105065 298.363443 678.962467 245.248774 678.962467 245.248774 650.974223 303.67491 650.974223 303.67491 628.831625 222.055368 628.831625 222.055368 752.830174 305.445399 752.830174 305.445399 730.687576"></polygon>
                <polygon id="L" style="mix-blend-mode: screen;" transform="translate(82.941777, 538.308234) rotate(240.000000) translate(-82.941777, -538.308234) " points="65.1483628 577.102066 65.1483628 476.30896 40.3615169 476.30896 40.3615169 600.307509 125.522037 600.307509 125.522037 577.102066"></polygon>
                <polygon id="I" style="mix-blend-mode: screen;" transform="translate(63.928291, 320.379149) rotate(280.000000) translate(-63.928291, -320.379149) " points="76.2331897 258.379874 51.6233928 258.379874 51.6233928 382.378424 76.2331897 382.378424"></polygon>
                <polygon id="X" style="mix-blend-mode: screen;" transform="translate(191.903753, 132.813488) rotate(320.000000) translate(-191.903753, -132.813488) " points="222.621737 194.812763 250.772512 194.812763 211.113558 130.86494 248.293827 70.8142135 220.674199 70.8142135 193.408668 115.630832 190.929984 115.630832 163.664453 70.8142135 135.513679 70.8142135 172.693947 130.86494 133.034994 194.812763 161.893964 194.812763 191.107033 146.453329 193.585717 146.453329"></polygon>
            </g>
        </g>
    </g>
</svg>