<?xml version="1.0" encoding="utf-8"?>
<!-- Generator: Adobe Illustrator 19.0.0, SVG Export Plug-In . SVG Version: 6.00 Build 0)  -->
<svg version="1.1" id="Layer_1" xmlns="http://www.w3.org/2000/svg" xmlns:xlink="http://www.w3.org/1999/xlink" x="0px" y="0px"
	 viewBox="0 0 612 792" style="enable-background:new 0 0 612 792;" xml:space="preserve">
<style type="text/css">
	.st0{fill:none;stroke:#000000;stroke-width:5;stroke-linecap:round;stroke-linejoin:round;stroke-miterlimit:10;}
</style>
<path id="XMLID_58_" class="st0" d="M198.1,108.5v135.1 M198.1,446.9V311.8 M198.1,516.1v133.4 M269.9,682.9V549.5 M415.4,547.3
	v134.9 M415.4,479.8V345.6 M415.1,277.1V141.7 M342.7,242.1V108.7 M270.1,74.6v338.2 M342.7,716.1V379.6 M125.5,279.2v337.7
	 M486.9,513.5V175.3 M125.5,278.2l72.2,33.4 M198.2,243.8l71.5,34.1 M270.4,74.5l72.2,33.8 M415.4,141l71.5,34.1 M125.5,278.2
	l72.7-34.3 M198.2,108.3l72-33.8 M342.9,175.3l72.5-34.3 M269.7,277.4l-71,34.1 M343.1,379.2L270.8,346 M270.4,480.3L198.2,447
	 M269.9,549.1l-71.8-33.3 M415.3,345.6l-71.8-34.1 M414.8,277.1L343.3,243 M270.2,412.7l72,34.1 M343.6,311.5l-72.7,34.3
	 M269.9,412.7L198.2,447 M343.1,379.2l72.2-33.1 M270.7,480.3l71.5-34.1 M415.1,547.3l-72.2-33.1 M342.6,716.5l-72.7-33.6
	 M125.6,616.9l72.5,33.1 M415.4,479.6l71.5,33.8 M415.6,479.6l-72.7,34.3 M415.1,547.5l71.5-33.8 M342.6,716.5l72.7-34.3 M198.4,650
	l71.5-34.1"/>
<g id="XMLID_59_">
</g>
<g id="XMLID_60_">
</g>
<g id="XMLID_61_">
</g>
<g id="XMLID_62_">
</g>
<g id="XMLID_63_">
</g>
<g id="XMLID_64_">
</g>
</svg>
