<?xml version="1.0" encoding="utf-8"?>
<!-- Generator: Adobe Illustrator 19.0.0, SVG Export Plug-In . SVG Version: 6.00 Build 0)  -->
<svg version="1.1" id="Layer_1" xmlns="http://www.w3.org/2000/svg" xmlns:xlink="http://www.w3.org/1999/xlink" x="0px" y="0px"
	 viewBox="0 0 612 792" style="enable-background:new 0 0 612 792;" xml:space="preserve">
<style type="text/css">
	.st0{fill:none;stroke:#2B2B2B;stroke-width:20;stroke-linecap:round;stroke-linejoin:round;stroke-miterlimit:10;}
</style>
<line id="XMLID_39_" class="st0" x1="198.1" y1="108.5" x2="198.1" y2="243.6"/>
<line id="XMLID_38_" class="st0" x1="198.1" y1="311.8" x2="198.1" y2="446.9"/>
<line id="XMLID_37_" class="st0" x1="198.1" y1="516.1" x2="198.1" y2="649.6"/>
<line id="XMLID_36_" class="st0" x1="269.9" y1="549.5" x2="269.9" y2="682.9"/>
<line id="XMLID_35_" class="st0" x1="415.4" y1="547.3" x2="415.4" y2="682.2"/>
<line id="XMLID_34_" class="st0" x1="415.4" y1="345.6" x2="415.4" y2="479.8"/>
<line id="XMLID_33_" class="st0" x1="415.1" y1="141.7" x2="415.1" y2="277.1"/>
<line id="XMLID_32_" class="st0" x1="342.7" y1="108.7" x2="342.7" y2="242.1"/>
<line id="XMLID_31_" class="st0" x1="270.1" y1="74.6" x2="270.1" y2="412.7"/>
<line id="XMLID_30_" class="st0" x1="342.7" y1="379.6" x2="342.7" y2="716.1"/>
<line id="XMLID_29_" class="st0" x1="125.5" y1="279.2" x2="125.5" y2="616.9"/>
<line id="XMLID_28_" class="st0" x1="486.9" y1="175.3" x2="486.9" y2="513.5"/>
<line id="XMLID_27_" class="st0" x1="125.5" y1="278.2" x2="197.7" y2="311.5"/>
<line id="XMLID_26_" class="st0" x1="269.7" y1="277.9" x2="198.2" y2="243.8"/>
<line id="XMLID_25_" class="st0" x1="342.7" y1="108.3" x2="270.4" y2="74.5"/>
<line id="XMLID_24_" class="st0" x1="486.9" y1="175.1" x2="415.4" y2="141"/>
<line id="XMLID_23_" class="st0" x1="125.5" y1="278.2" x2="198.2" y2="243.8"/>
<line id="XMLID_22_" class="st0" x1="198.2" y1="108.3" x2="270.2" y2="74.5"/>
<line id="XMLID_21_" class="st0" x1="342.9" y1="175.3" x2="415.4" y2="141"/>
<line id="XMLID_20_" class="st0" x1="198.7" y1="311.5" x2="269.7" y2="277.4"/>
<line id="XMLID_19_" class="st0" x1="270.8" y1="346" x2="343.1" y2="379.2"/>
<line id="XMLID_18_" class="st0" x1="198.2" y1="447" x2="270.4" y2="480.3"/>
<line id="XMLID_17_" class="st0" x1="198.2" y1="515.8" x2="269.9" y2="549.1"/>
<line id="XMLID_16_" class="st0" x1="415.3" y1="345.6" x2="343.6" y2="311.5"/>
<line id="XMLID_15_" class="st0" x1="414.8" y1="277.1" x2="343.3" y2="243"/>
<line id="XMLID_14_" class="st0" x1="342.2" y1="446.7" x2="270.2" y2="412.7"/>
<line id="XMLID_13_" class="st0" x1="270.8" y1="345.8" x2="343.6" y2="311.5"/>
<line id="XMLID_12_" class="st0" x1="198.2" y1="447" x2="269.9" y2="412.7"/>
<line id="XMLID_11_" class="st0" x1="343.1" y1="379.2" x2="415.3" y2="346"/>
<line id="XMLID_10_" class="st0" x1="270.7" y1="480.3" x2="342.2" y2="446.3"/>
<line id="XMLID_9_" class="st0" x1="342.9" y1="514.2" x2="415.1" y2="547.3"/>
<line id="XMLID_8_" class="st0" x1="269.9" y1="682.9" x2="342.6" y2="716.5"/>
<line id="XMLID_7_" class="st0" x1="125.6" y1="616.9" x2="198.1" y2="650"/>
<line id="XMLID_6_" class="st0" x1="486.9" y1="513.5" x2="415.4" y2="479.6"/>
<line id="XMLID_5_" class="st0" x1="342.9" y1="513.9" x2="415.6" y2="479.6"/>
<line id="XMLID_4_" class="st0" x1="415.1" y1="547.5" x2="486.7" y2="513.7"/>
<line id="XMLID_3_" class="st0" x1="342.6" y1="716.5" x2="415.4" y2="682.2"/>
<line id="XMLID_1_" class="st0" x1="198.4" y1="650" x2="269.9" y2="615.9"/>
<g id="XMLID_58_">
</g>
<g id="XMLID_59_">
</g>
<g id="XMLID_60_">
</g>
<g id="XMLID_61_">
</g>
<g id="XMLID_62_">
</g>
<g id="XMLID_63_">
</g>
</svg>
