<?xml version="1.0" encoding="utf-8"?>
<!-- Generator: Adobe Illustrator 19.0.0, SVG Export Plug-In . SVG Version: 6.00 Build 0)  -->
<svg version="1.1" id="Layer_1" xmlns="http://www.w3.org/2000/svg" xmlns:xlink="http://www.w3.org/1999/xlink" x="0px" y="0px"
	 viewBox="0 0 219.6 401.3" style="enable-background:new 0 0 219.6 401.3;" xml:space="preserve">
<style type="text/css">
	.st0{fill:#FFFFFF;}
</style>
<g id="XMLID_1_">
	<path id="XMLID_42_" d="M131.8,65.6c11.8-5.9,22.7-10.9,33.2-16.6c4.2-2.3,7.4-2.1,11.6,0.1c10.2,5.5,20.7,10.6,31.1,15.6
		c3.3,1.6,4.8,3.3,4.8,7.3c-0.1,64.4,0,128.8-0.3,193.2c0,2.4-2.4,5.9-4.6,7.1c-10,5.5-20.2,10.6-30.5,15.3c-4,1.9-5.2,4.2-5.2,8.5
		c0.2,23,0,46,0.2,69c0,4-1,6.3-4.8,8.1c-10.9,5.1-21.5,10.9-32.5,15.9c-2.4,1.1-6.3,1.1-8.7-0.1c-11-5-21.6-10.8-32.5-15.9
		c-3.7-1.8-5-4.1-4.9-8.1c0.3-10.6,0.1-21.2,0.1-33.1c-12,5.9-22.8,11-33.4,16.7c-4,2.1-7,2-10.9-0.1c-10.4-5.6-21.2-10.5-31.6-16.1
		c-2.1-1.1-4.2-4.4-4.2-6.7c-0.2-64.6-0.2-129.2,0-193.9c0-2.3,2.3-5.5,4.4-6.6c10-5.5,20.2-10.5,30.5-15.3c4-1.8,5.3-4.2,5.3-8.5
		c-0.2-22.3,0.2-44.6-0.3-66.9c-0.1-6.1,1.9-9.1,7.3-11.5C66,18.5,75.7,13,85.9,8.4c2.5-1.1,6.3-1.1,8.8,0
		c10.6,4.8,20.7,10.5,31.3,15.3c4.4,2,6.2,4.4,6,9.4C131.5,43.5,131.8,53.9,131.8,65.6z M12.2,131.2c-0.5,1-0.6,1.2-0.6,1.4
		c-0.1,64.2-0.2,128.3-0.2,192.5c0,1.6,0.9,3.9,2.2,4.5c11.2,5.9,22.6,11.4,35.3,17.7c0-27.3,0-53.4,0-80.3
		c13.2,6.6,25.1,12.8,37.3,18.4c4.6,2.1,5.7,5,5.7,9.7c-0.2,22.6-0.2,45.1,0,67.7c0,2.3,0.5,6,2,6.8c11.3,6.1,22.8,11.7,34.5,17.6
		c0-52.3,0-103.5,0-155.5C116.7,237.5,106,243,95.1,248c-2.6,1.2-6.7,1.3-9.4,0.1c-10.6-4.8-20.7-10.5-31.3-15.3
		c-4.6-2.1-5.8-4.8-5.8-9.6c0.2-22.6,0.1-45.1,0-67.7c0-2.3-0.4-6-1.9-6.8C35.4,142.6,23.8,137,12.2,131.2z M172.2,130.6
		c-13.4-6.7-25.4-12.8-37.5-18.6c-4.4-2.1-5.9-4.6-5.9-9.5c0.3-22.8,0.2-45.6,0-68.3c0-2.3-0.8-5.7-2.3-6.5
		c-11.1-6-22.5-11.4-34.3-17.3c0,52.2,0,103.4,0,155.5c11.8-5.9,22.7-11.6,33.8-16.7c2.5-1.1,6.3-1.1,8.8,0
		c10.4,4.7,20.3,10.2,30.7,15c4.8,2.2,6.8,4.8,6.7,10.4c-0.4,21.1,0.2,42.3-0.4,63.5c-0.2,7.7,2,11.7,9.1,14.6
		c9.5,3.9,18.5,9,27.9,13.7c0.4-1.3,0.5-1.5,0.5-1.8c0.1-63.9,0.1-127.9,0.1-191.8c0-1.6-0.7-4.2-1.8-4.8c-11.4-6-23-11.6-35.5-17.8
		C172.2,77.4,172.2,103.4,172.2,130.6z M132.2,387.3c11.2-5.6,21.6-10.9,32.3-15.9c3.7-1.7,4.9-3.9,4.9-8
		c-0.2-18.1-1.3-36.3,0.3-54.3c1.2-14.7-3.1-23.3-17.3-27.7c-6.8-2.1-13.1-6.2-20.1-9.7C132.2,310.8,132.2,348.6,132.2,387.3z
		 M88.1,125.6c0-38.9,0-76.7,0-115.3c-11.6,5.8-22.4,11-33,16.7c-1.7,0.9-3.3,3.9-3.4,5.9c-0.2,23.3-0.2,46.5-0.1,69.8
		c0,1.9,0.6,4.7,1.8,5.4C64.7,114,76.1,119.6,88.1,125.6z M131.8,266.9c11.9-6,22.2-11.3,32.7-16.2c3.8-1.8,4.9-4,4.8-8
		c-0.2-20.2-0.1-40.4-0.1-60.6c0-3.4,0-6.7,0-11.1c-12.3,6.1-23.5,11.5-34.5,17.4c-1.6,0.9-2.7,4.1-2.8,6.2
		c-0.2,14.4-0.1,28.8-0.1,43.2C131.8,247,131.8,256.2,131.8,266.9z M51.6,226.5c11.5-5.7,21.5-11,31.8-15.7c4.3-2,5.5-4.6,5.4-9.1
		c-0.2-21.1-0.1-42.3-0.1-63.4c0-2-0.3-4-0.5-7.2c-12.2,6.1-23.5,11.7-34.8,17.6c-1.1,0.5-1.8,2.6-1.9,4
		C51.6,176.6,51.6,200.8,51.6,226.5z M168.9,125.8c0-25.8,0-50.1,0-75.3c-12,6-23.4,11.5-34.6,17.5c-1.3,0.7-2.3,3.4-2.3,5.1
		c-0.2,10-0.2,20,0,29.9c0,1.8,0.9,4.5,2.2,5.2C145.3,114.1,156.7,119.7,168.9,125.8z M52.2,271.9c0,25.4,0,49.9,0,75
		c11.5-5.8,22.3-11,32.9-16.6c1.6-0.9,3.4-3.3,3.4-5.1c0.3-10.4,0.2-20.8,0.1-31.3c0-1.6-0.9-4-2.1-4.6
		C75.4,283.4,64.1,277.8,52.2,271.9z M53.4,228.9c12.2,6.1,23.1,11.7,34,17.1c1.3,0.6,3.3,1,4.5,0.5c11.5-5.5,22.9-11.3,35.3-17.5
		c-12.2-6.1-23-11.7-34.1-17c-1.6-0.8-4.2-0.7-5.8,0C76.3,217.2,65.4,222.8,53.4,228.9z M207.7,269.1c-12.5-6.2-24-12-35.5-17.6
		c-0.7-0.4-1.9-0.5-2.6-0.1c-11.7,5.7-23.3,11.5-35.9,17.8c12,6,22.7,11.5,33.6,16.6c1.8,0.9,4.7,1.1,6.4,0.3
		C184.7,280.8,195.6,275.2,207.7,269.1z M93.5,168.6c12.2,6.1,23.3,11.8,34.5,17.2c1.4,0.7,3.7,0.5,5.2-0.2
		c11.1-5.3,22-10.9,34.2-17c-12.5-6.2-24-12-35.6-17.7c-0.8-0.4-2.3-0.2-3.2,0.2C117.2,156.7,105.9,162.4,93.5,168.6z M13.1,128.3
		c12.3,6.2,23.2,11.8,34.3,17.1c1.4,0.7,3.7,0.8,5.1,0.1c11.2-5.4,22.3-11.1,34.4-17.2c-12.2-6.1-23.4-11.8-34.8-17.3
		c-1.2-0.6-3.2-0.5-4.5,0.1C36.5,116.6,25.4,122.2,13.1,128.3z M91.8,171c0,12.4-0.1,23.5,0.1,34.6c0,1.1,1,2.7,2,3.3
		c11.2,5.8,22.6,11.4,35,17.7c0-12.5,0.1-23.6-0.1-34.7c0-1.1-1-2.7-1.9-3.2C115.6,182.8,104.2,177.2,91.8,171z"/>
	<path id="XMLID_13_" class="st0" d="M12.2,131.2c11.6,5.8,23.2,11.4,34.5,17.6c1.4,0.8,1.8,4.5,1.9,6.8c0.1,22.6,0.2,45.1,0,67.7
		c0,4.8,1.2,7.5,5.8,9.6c10.6,4.8,20.7,10.5,31.3,15.3c2.6,1.2,6.7,1.1,9.4-0.1c11-4.9,21.6-10.5,33.2-16.3c0,52,0,103.2,0,155.5
		c-11.7-5.9-23.3-11.5-34.5-17.6c-1.5-0.8-1.9-4.4-2-6.8c-0.1-22.6-0.2-45.1,0-67.7c0-4.7-1.1-7.6-5.7-9.7
		C74,279.8,62,273.6,48.9,267c0,27,0,53,0,80.3c-12.6-6.3-24-11.8-35.3-17.7c-1.2-0.6-2.2-3-2.2-4.5c0-64.2,0.1-128.3,0.2-192.5
		C11.6,132.4,11.8,132.2,12.2,131.2z"/>
	<path id="XMLID_12_" class="st0" d="M172.2,130.6c0-27.3,0-53.2,0-80.3c12.5,6.2,24.1,11.9,35.5,17.8c1.1,0.6,1.8,3.1,1.8,4.8
		c0,63.9,0,127.9-0.1,191.8c0,0.2-0.1,0.4-0.5,1.8c-9.4-4.7-18.4-9.8-27.9-13.7c-7.1-2.9-9.3-7-9.1-14.6c0.6-21.1,0-42.3,0.4-63.5
		c0.1-5.6-1.9-8.2-6.7-10.4c-10.3-4.8-20.3-10.3-30.7-15c-2.5-1.1-6.4-1.2-8.8,0c-11.1,5.1-22,10.8-33.8,16.7
		c0-52.1,0-103.3,0-155.5c11.7,5.8,23.1,11.3,34.3,17.3c1.5,0.8,2.3,4.3,2.3,6.5c0.2,22.8,0.3,45.6,0,68.3c-0.1,4.9,1.5,7.5,5.9,9.5
		C146.8,117.8,158.8,123.9,172.2,130.6z"/>
	<path id="XMLID_11_" class="st0" d="M132.2,387.3c0-38.7,0-76.5,0-115.6c7,3.5,13.3,7.5,20.1,9.7c14.1,4.4,18.5,13,17.3,27.7
		c-1.5,18-0.5,36.2-0.3,54.3c0,4-1.2,6.2-4.9,8C153.8,376.4,143.4,381.7,132.2,387.3z"/>
	<path id="XMLID_10_" class="st0" d="M131.8,266.9c0-10.7,0-19.9,0-29.1c0-14.4-0.1-28.8,0.1-43.2c0-2.2,1.2-5.4,2.8-6.2
		c11-5.9,22.2-11.3,34.5-17.4c0,4.4,0,7.8,0,11.1c0,20.2-0.1,40.4,0.1,60.6c0,4-1,6.2-4.8,8C154,255.5,143.7,260.9,131.8,266.9z"/>
	<path id="XMLID_9_" class="st0" d="M51.6,226.5c0-25.7,0-49.8,0.1-74c0-1.4,0.8-3.4,1.9-4c11.2-5.9,22.6-11.5,34.8-17.6
		c0.2,3.2,0.5,5.2,0.5,7.2c0,21.1-0.1,42.3,0.1,63.4c0,4.5-1.1,7.1-5.4,9.1C73.2,215.4,63.1,220.7,51.6,226.5z"/>
	<path id="XMLID_8_" class="st0" d="M168.9,125.8c-12.2-6.1-23.5-11.7-34.7-17.6c-1.3-0.7-2.2-3.4-2.2-5.2c-0.2-10-0.2-20,0-29.9
		c0-1.8,1-4.4,2.3-5.1c11.2-5.9,22.6-11.5,34.6-17.5C168.9,75.7,168.9,100,168.9,125.8z"/>
	<path id="XMLID_7_" class="st0" d="M52.2,271.9c11.8,5.9,23.2,11.5,34.4,17.4c1.2,0.6,2,3,2.1,4.6c0.2,10.4,0.3,20.9-0.1,31.3
		c-0.1,1.8-1.8,4.3-3.4,5.1c-10.6,5.6-21.4,10.9-32.9,16.6C52.2,321.8,52.2,297.3,52.2,271.9z"/>
	<path id="XMLID_6_" class="st0" d="M53.4,228.9c12.1-6.1,23-11.7,34-17c1.6-0.8,4.2-0.8,5.8,0c11,5.3,21.9,10.9,34.1,17
		c-12.4,6.2-23.8,12-35.3,17.5c-1.2,0.6-3.2,0.2-4.5-0.5C76.4,240.6,65.5,235,53.4,228.9z"/>
	<path id="XMLID_5_" class="st0" d="M207.7,269.1c-12.1,6.1-23,11.7-34,16.9c-1.7,0.8-4.6,0.6-6.4-0.3
		c-10.9-5.1-21.6-10.6-33.6-16.6c12.6-6.3,24.2-12.1,35.9-17.8c0.7-0.3,1.9-0.2,2.6,0.1C183.7,257.2,195.3,262.9,207.7,269.1z"/>
	<path id="XMLID_4_" class="st0" d="M93.5,168.6c12.3-6.2,23.7-11.9,35.1-17.5c0.9-0.4,2.4-0.7,3.2-0.2
		c11.6,5.7,23.1,11.5,35.6,17.7c-12.2,6.1-23.2,11.7-34.2,17c-1.5,0.7-3.8,0.8-5.2,0.2C116.9,180.3,105.8,174.7,93.5,168.6z"/>
	<path id="XMLID_3_" class="st0" d="M13.1,128.3c12.3-6.1,23.4-11.8,34.6-17.2c1.2-0.6,3.3-0.7,4.5-0.1
		c11.4,5.5,22.6,11.2,34.8,17.3c-12.1,6.1-23.2,11.8-34.4,17.2c-1.4,0.7-3.7,0.6-5.1-0.1C36.4,140.1,25.5,134.5,13.1,128.3z"/>
	<path id="XMLID_2_" class="st0" d="M91.8,171c12.4,6.2,23.8,11.8,35.1,17.6c1,0.5,1.9,2.1,1.9,3.2c0.1,11.1,0.1,22.1,0.1,34.7
		c-12.4-6.3-23.8-11.9-35-17.7c-1-0.5-2-2.1-2-3.3C91.7,194.5,91.8,183.4,91.8,171z"/>
</g>
</svg>
