<?xml version="1.0" encoding="UTF-8" standalone="no"?>
<svg width="165px" height="162px" viewBox="0 0 165 162" version="1.1" xmlns="http://www.w3.org/2000/svg" xmlns:xlink="http://www.w3.org/1999/xlink">
    <!-- Generator: sketchtool 3.7.2 (28276) - http://www.bohemiancoding.com/sketch -->
    <title>icon-embedded</title>
    <desc>Created with sketchtool.</desc>
    <defs></defs>
    <g id="Page-1" stroke="none" stroke-width="1" fill="none" fill-rule="evenodd">
        <g id="About" transform="translate(-1099.000000, -1624.000000)" fill="#4A4A4A">
            <g id="Group-11" transform="translate(1099.000000, 1624.000000)">
                <g id="icon-embedded-+-EMBEDED-SYSTEMS">
                    <g id="icon-embedded" transform="translate(0.703133, 0.000000)">
                        <g id="Group">
                            <g>
                                <path d="M131.747665,0.00618276867 L131.747665,7.46821603 L83.6491122,7.46821603 L83.6491122,0.00618276867 L13.4857693,0.00618276867 L13.4857693,17.1562592 L2.4421623,17.1562592 C1.11627949,17.1562592 0.0414390966,18.2299747 0.0414390966,19.5544699 C0.0414390966,20.8789651 1.11627949,21.9526806 2.4421623,21.9526806 L13.4857693,21.9526806 L13.4857693,27.3175045 L2.4421623,27.3175045 C1.11550547,27.3175045 0.0400376236,28.3918468 0.0400376236,29.7171152 C0.0400376236,31.0423836 1.11550547,32.1167259 2.4421623,32.1167259 L13.4857693,32.1167259 L13.4857693,37.4815498 L2.4421623,37.4815498 C1.1481947,37.525724 0.12208067,38.5863925 0.12208067,39.8797605 C0.12208067,41.1731285 1.1481947,42.233797 2.4421623,42.2779712 L13.4857693,42.2779712 L13.4857693,47.6455951 L2.4421623,47.6455951 C1.11473146,47.6455951 0.0386361507,48.7205642 0.0386361507,50.0466058 C0.0386361507,51.3726474 1.11473146,52.4476165 2.4421623,52.4476165 L13.4857693,52.4476165 L13.4857693,57.8124404 L2.4421623,57.8124404 C1.11550547,57.8124404 0.0400376236,58.8867827 0.0400376236,60.2120511 C0.0400376236,61.5373195 1.11550547,62.6116618 2.4421623,62.6116618 L13.4857693,62.6116618 L13.4857693,67.9792857 L2.4421623,67.9792857 C1.11473146,67.9792857 0.0386361507,69.0542548 0.0386361507,70.3802964 C0.0386361507,71.706338 1.11473146,72.7813071 2.4421623,72.7813071 L13.4857693,72.7813071 L13.4857693,78.1489311 L2.4421623,78.1489311 C1.1481947,78.1931052 0.12208067,79.2537738 0.12208067,80.5471417 C0.12208067,81.8405097 1.1481947,82.9011783 2.4421623,82.9453524 L13.4857693,82.9453524 L13.4857693,88.3101763 L2.4421623,88.3101763 C1.11395745,88.3101763 0.0372346777,89.3857723 0.0372346777,90.7125871 C0.0372346777,92.0394019 1.11395745,93.1149978 2.4421623,93.1149978 L13.4857693,93.1149978 L13.4857693,98.4826217 L2.4421623,98.4826217 C1.1481947,98.5267959 0.12208067,99.5874644 0.12208067,100.880832 C0.12208067,102.1742 1.1481947,103.234869 2.4421623,103.279043 L13.4857693,103.279043 L13.4857693,108.649467 L2.4421623,108.649467 C1.11627949,108.649467 0.0414390966,109.723183 0.0414390966,111.047678 C0.0414390966,112.372173 1.11627949,113.445888 2.4421623,113.445888 L13.4857693,113.445888 L13.4857693,118.813512 L2.4421623,118.813512 C1.1481947,118.857686 0.12208067,119.918355 0.12208067,121.211723 C0.12208067,122.505091 1.1481947,123.56576 2.4421623,123.609934 L13.4857693,123.609934 L13.4857693,128.980358 L2.4421623,128.980358 C1.11627949,128.980358 0.0414390966,130.054073 0.0414390966,131.378568 C0.0414390966,132.703063 1.11627949,133.776779 2.4421623,133.776779 L13.4857693,133.776779 L13.4857693,139.141603 L2.4421623,139.141603 C1.1481947,139.185777 0.12208067,140.246446 0.12208067,141.539814 C0.12208067,142.833182 1.1481947,143.89385 2.4421623,143.938024 L13.4857693,143.938024 L13.4857693,161.088101 L39.6176344,161.088101 L39.8530818,158.951691 C40.1106495,156.492018 42.1816638,154.621123 44.6573312,154.611672 C47.1239236,154.611672 49.1896948,156.47648 49.4615805,158.951691 L49.697028,161.085301 L65.0179305,161.085301 L65.253378,158.948891 C65.5110618,156.488157 67.5836899,154.616897 70.0604302,154.608872 C72.5270227,154.608872 74.5955968,156.47368 74.8674825,158.948891 L75.1001271,161.082501 L164.065631,161.082501 L164.065631,0.00618276867 L131.742059,0.00618276867 L131.747665,0.00618276867 Z M65.7663171,85.8461654 C68.4533185,85.8492436 70.6316619,88.0228031 70.6378371,90.706987 C70.6378371,93.394999 68.4515393,95.5790087 65.76912,95.5790087 C63.0782919,95.5790087 60.8919941,93.394999 60.8919941,90.706987 C60.8919941,88.0273751 63.0782919,85.8461654 65.76912,85.8461654 L65.7663171,85.8461654 Z M112.281205,75.9453212 C110.502381,76.0056266 108.832224,75.092041 107.924927,73.5624112 C107.017629,72.0327814 107.017629,70.1306177 107.924927,68.6009879 C108.832224,67.0713582 110.502381,66.1577725 112.281205,66.2180779 C114.905845,66.3070579 116.987494,68.4582966 116.987494,71.0816996 C116.987494,73.7051026 114.905845,75.8563412 112.281205,75.9453212 L112.281205,75.9453212 Z M159.266988,156.288879 L128.798965,156.288879 L128.798965,122.895931 L140.187335,111.51948 L140.187335,51.2604112 L131.65797,42.7483733 C132.546504,41.2839667 133.093079,39.5899592 133.093079,37.755951 C133.093079,32.4275273 128.748512,28.095908 123.414506,28.095908 C118.076384,28.1020799 113.750521,32.4234151 113.744343,37.755951 C113.747429,43.0911285 118.073744,47.4166741 123.414506,47.4243941 C125.171953,47.4243941 126.800465,46.9203919 128.218756,46.0971882 L135.37748,53.2484201 L135.37748,109.534271 L123.997519,120.910722 L123.997519,156.288879 L114.677724,156.288879 L114.677724,80.4085411 C118.854113,79.3305363 121.954171,75.5785196 121.954171,71.0788995 C121.946449,65.742818 117.617273,61.4194251 112.275599,61.4132565 C106.93593,61.4209738 102.610066,65.7448154 102.605436,71.0788995 C102.605436,75.5785196 105.708297,79.3305363 109.876277,80.4029411 L109.876277,156.283279 L79.1672016,156.283279 C77.8302038,152.404028 74.1758701,149.800059 70.0688391,149.800059 C65.9618081,149.800059 62.3074744,152.404028 60.9704766,156.283279 L53.7669055,156.283279 C52.4230612,152.410386 48.7703917,149.813332 44.6671415,149.813332 C40.5638913,149.813332 36.9112217,152.410386 35.5673775,156.283279 L18.3012304,156.283279 L18.3012304,4.80820417 L49.2513596,4.80820417 L49.2513596,38.8983561 L37.8629902,50.2664068 L37.8629902,110.536675 L46.3839459,119.048713 C45.4558595,120.54631 44.9610736,122.271402 44.9544434,124.032736 C44.9544434,129.363959 49.2990096,133.692779 54.6358187,133.692779 C59.9739413,133.686607 64.2998038,129.365271 64.3059822,124.032736 C64.3013513,118.698651 59.9754876,114.37481 54.6358187,114.367092 C52.8783716,114.367092 51.24986,114.871095 49.8259635,115.699898 L42.6672395,108.548667 L42.6672395,52.2516156 L54.0556089,40.883565 L54.0556089,4.79980413 L63.3613894,4.79980413 L63.3613894,81.3801455 C59.0945366,82.4701233 56.1055374,86.3046587 56.0933506,90.704187 C56.1010729,96.0402686 60.430249,100.363661 65.771923,100.36983 C71.1059291,100.36983 75.4420865,96.0298108 75.4420865,90.704187 C75.4295706,86.3038495 72.4392101,82.4690465 68.1712447,81.3801455 L68.1712447,4.80820417 L78.8448628,4.80820417 L78.8448628,12.2674374 L136.549111,12.2674374 L136.549111,4.80260415 L159.269791,4.80260415 L159.269791,156.283279 L159.266988,156.288879 Z M123.417309,42.6251727 C121.628096,42.699436 119.942043,41.7882187 119.025284,40.2515297 C118.108526,38.7148407 118.108526,36.7998613 119.025284,35.2631723 C119.942043,33.7264833 121.628096,32.815266 123.417309,32.8895293 C126.029862,32.9979663 128.091967,35.1452809 128.091967,37.757351 C128.091967,40.3694212 126.029862,42.5167358 123.417309,42.6251727 L123.417309,42.6251727 Z M54.6330158,119.160714 C57.3243886,119.163804 59.5045376,121.344178 59.5045358,124.032736 C59.4983653,126.715828 57.3217257,128.888938 54.6358187,128.893557 C51.9916359,128.830184 49.8811432,126.670711 49.8811432,124.028536 C49.8811432,121.38636 51.9916359,119.226887 54.6358187,119.163514 L54.6330158,119.160714 Z" id="Shape"></path>
                                <path d="M34.1154515,23.2322863 C32.9234641,23.199535 31.8079208,23.8167953 31.2034348,24.843584 C30.5989488,25.8703728 30.6011334,27.1442798 31.2091374,28.1689936 C31.8171415,29.1937074 32.9347952,29.8071462 34.1266632,29.7703154 C35.9347556,29.7679958 37.3986216,28.3019009 37.3962996,26.4957008 C37.3939776,24.6895008 35.9263468,23.2271667 34.1182544,23.2294863 M144.1507,29.7703154 C145.320832,29.7683148 146.401009,29.1428617 146.984341,28.1295584 C147.567672,27.1162551 147.565535,25.8690464 146.978735,24.8577438 C146.391934,23.8464412 145.30962,23.2246855 144.139489,23.2266863 C142.330622,23.2297791 140.866756,24.6971276 140.869852,26.5041009 C140.872948,28.3110741 142.341834,29.7734082 144.1507,29.7703154 M34.1154515,131.293168 C32.9458208,131.295169 31.8661059,131.920355 31.283025,132.933225 C30.6999441,133.946095 30.702081,135.19277 31.2886309,136.20364 C31.8751807,137.214509 32.9570325,137.835998 34.1266632,137.833997 C35.9355296,137.831677 37.400023,136.364956 37.397701,134.557982 C37.395379,132.751009 35.9271207,131.288048 34.1182544,131.290368 M144.1507,137.831197 C145.959567,137.828104 147.423433,136.360756 147.420337,134.553782 C147.417241,132.746809 145.948355,131.284475 144.139489,131.287568 C142.329848,131.290661 140.865355,132.758636 140.868451,134.566383 C140.871547,136.374129 142.34106,137.83709 144.1507,137.833997 M100.721856,23.2322863 C96.7073753,23.232286 93.4525618,26.4824397 93.4510142,30.4927187 C93.4510142,31.6491238 93.7397176,32.7271286 94.2218243,33.6959329 L86.3679698,41.5415679 L86.3679698,122.193127 L80.341636,128.213154 C79.3424044,127.699718 78.2362863,127.428274 77.1126422,127.420751 C73.0977974,127.422297 69.844088,130.674273 69.844604,134.684916 C69.84512,138.695559 73.0996661,141.946699 77.1145112,141.947215 C81.1293564,141.94773 84.3847389,138.697426 84.386287,134.686783 C84.386287,133.600378 84.1340218,132.578374 83.7023682,131.64877 L91.175022,124.183936 L91.175022,43.5323768 L97.6498272,37.0587479 C98.5888141,37.4955499 99.6259041,37.758751 100.724659,37.758751 C104.741782,37.7587509 107.998303,34.5056374 107.998303,30.4927187 C107.998303,26.4797999 104.741782,23.2266864 100.724659,23.2266863" id="Shape"></path>
                            </g>
                        </g>
                    </g>
                </g>
            </g>
        </g>
    </g>
</svg>