<?xml version="1.0" encoding="UTF-8" standalone="no"?>
<svg width="141px" height="162px" viewBox="0 0 141 162" version="1.1" xmlns="http://www.w3.org/2000/svg" xmlns:xlink="http://www.w3.org/1999/xlink">
    <!-- Generator: sketchtool 3.7.2 (28276) - http://www.bohemiancoding.com/sketch -->
    <title>icon-mobile</title>
    <desc>Created with sketchtool.</desc>
    <defs></defs>
    <g id="Page-1" stroke="none" stroke-width="1" fill="none" fill-rule="evenodd">
        <g id="About" transform="translate(-637.000000, -1624.000000)" fill="#4A4A4A">
            <g id="Group-12" transform="translate(637.000000, 1624.000000)">
                <g id="icon-mobile-+-MOBILE-APPS">
                    <g id="icon-mobile">
                        <g id="Group">
                            <g>
                                <path d="M97.0005888,67.3867474 L89.957097,74.3929057 C89.2405715,75.1062165 89.2405716,76.2627217 89.9570971,76.9760324 C90.6736227,77.6893432 91.8353401,77.6893432 92.5518657,76.9760325 L99.5953574,69.9641424 C100.310823,69.2508316 100.309964,68.0951819 99.5934381,67.3829263 C98.8769126,66.6706708 97.7160544,66.6715262 97.0005888,67.3848368 M85.573627,5.77000219 C84.6808887,5.77000217 83.8559646,6.24413547 83.4095955,7.01380066 C82.9632264,7.78346585 82.9632264,8.73173247 83.4095955,9.50139766 C83.8559646,10.2710628 84.6808887,10.7451961 85.573627,10.7451961 C86.9531507,10.7451961 88.0714756,9.63188871 88.0714756,8.25855446 C88.0714756,6.8852202 86.9531507,5.77191281 85.573627,5.77191278 M101.011733,6.43871105 L91.6805454,6.43871105 C90.6687312,6.43870885 89.8478998,7.25414801 89.845783,8.26142035 C89.845783,9.26639424 90.6710423,10.0860402 91.6786262,10.0860402 L101.009813,10.0860402 C101.989476,10.0413975 102.760678,9.23770907 102.760678,8.26142035 C102.760678,7.28513163 101.989476,6.48144318 101.009813,6.43680045 M92.0451949,141.747173 C88.9777023,141.748228 86.4918674,144.224621 86.4929274,147.278351 C86.4939873,150.33208 88.9815407,152.806762 92.0490333,152.805707 C95.1159958,152.804652 97.6014009,150.328687 97.6003409,147.275485 C97.599281,144.222283 95.1121574,141.748029 92.0451949,141.749084" id="Shape"></path>
                                <path d="M133.88392,0.38211935 L50.2064699,0.38211935 C46.4284475,0.388439901 43.3685254,3.43805205 43.3664142,7.19912856 L43.3664142,24.1786019 L7.23157411,24.1786019 C3.45654271,24.1838581 0.396997473,27.2279675 0.389599136,30.9860581 L0.389599136,120.042794 C0.394884696,123.802377 3.45504719,126.848809 7.23157411,126.854071 L43.3664142,126.854071 L43.3664142,154.338006 C43.3716997,158.097589 46.4318622,161.144021 50.2083891,161.149283 L133.885839,161.149283 C137.660867,161.141918 140.718696,158.0961 140.723976,154.338006 L140.723976,7.19912856 C140.721864,3.43805205 137.661942,0.388439901 133.88392,0.38211935 L133.88392,0.38211935 Z M4.05720479,120.042794 L4.05720479,30.9860581 C4.05720479,29.2474151 5.48317602,27.8278417 7.23349332,27.8278417 L54.0947845,27.8278417 C55.847021,27.8278417 57.271073,29.2455045 57.271073,30.9860581 L57.271073,120.042794 C57.271073,121.787169 55.847021,123.20101 54.0947845,123.20101 L7.23157411,123.20101 C5.48125681,123.20101 4.05528559,121.787169 4.05528559,120.042794 L4.05720479,120.042794 Z M100.190312,46.2402626 C100.532731,46.5844667 100.999158,46.7781202 101.485777,46.7781202 C101.972396,46.7781202 102.438823,46.5844667 102.781242,46.2402626 L127.742456,21.3891306 L127.742456,130.239649 C127.742456,131.978292 126.314565,133.397865 124.564248,133.397865 L59.5261419,133.397865 C57.7742983,133.395765 56.354081,131.983629 56.3498533,130.239649 L56.3498533,126.443293 C59.0117942,125.507101 60.9367594,123.00804 60.9367594,120.042794 L60.9367594,108.630799 L83.4989636,86.1755559 C84.2154892,85.4622451 84.2154892,84.3057398 83.4989636,83.5924291 C82.782438,82.8791183 81.6207205,82.8791183 80.9041949,83.5924291 L60.9348402,103.470278 L60.9348402,87.7766359 L92.5537849,56.2957333 C93.2692505,55.5824225 93.2683912,54.4267726 92.5518657,53.7145171 C91.8353401,53.0022615 90.6744819,53.0031169 89.9590162,53.7164277 L60.9348402,82.6142035 L60.9348402,30.9898793 C60.9348402,28.0284543 59.009875,25.5255726 56.3479341,24.5893802 L56.3479341,19.5071928 C56.3479341,17.7647286 57.7758246,16.3451552 59.5261419,16.3451552 L124.564248,16.3451552 C125.62557,16.3451552 126.518001,16.8992283 127.097602,17.6959471 C126.591824,17.6725522 126.099451,17.8618236 125.740722,18.21754 L100.186473,43.6571358 C99.8419107,43.9994285 99.6482761,44.4641119 99.6482761,44.9486992 C99.6482761,45.4332864 99.8419107,45.8979698 100.186473,46.2402626 L100.190312,46.2402626 Z M137.058289,154.338006 C137.058289,156.08047 135.634237,157.496222 133.887758,157.496222 L50.2103083,157.496222 C48.4638295,157.496222 47.035939,156.08238 47.035939,154.338006 L47.035939,126.854071 L52.6880053,126.854071 L52.6880053,130.239649 C52.6922408,133.999793 55.7548065,137.046053 59.5318995,137.047105 L124.570005,137.047105 C128.345162,137.042895 131.404773,133.997866 131.410061,130.239649 L131.410061,19.5071928 C131.404778,15.7483544 128.345783,12.7022291 124.570005,12.6959154 L59.5261419,12.6959154 C55.7483009,12.6980235 52.6862845,15.7463017 52.6841669,19.5071928 L52.6841669,24.1786019 L47.0340198,24.1786019 L47.0340198,7.19912856 C47.0340198,5.45093253 48.459991,4.03709093 50.2103083,4.03709093 L133.887758,4.03709093 C135.634237,4.03709093 137.062128,5.45093253 137.062128,7.19912856 L137.062128,154.338006 L137.058289,154.338006 Z" id="Shape"></path>
                                <path d="M54.8509522,104.070205 L54.8509522,43.1030627 C54.8477811,39.3419876 51.7870007,36.2932304 48.0089773,36.2879641 L13.3154621,36.2879641 C9.53519008,36.2900711 6.4709056,39.3397522 6.4677295,43.1030627 L6.4677295,104.070205 C6.47302131,107.832023 9.53668688,110.879379 13.3154621,110.881482 L48.0089773,110.881482 C51.7855042,110.876221 54.8456667,107.829788 54.8509522,104.070205 L54.8509522,104.070205 Z M10.1391736,104.070205 L10.1391736,97.6162092 L28.6326577,79.2056989 C29.0961685,78.7439265 29.2770071,78.0710605 29.1070535,77.4405632 C28.9370999,76.8100658 28.442174,76.3177246 27.8087096,76.1489997 C27.1752452,75.9802749 26.4994806,76.1607996 26.0359698,76.6225721 L10.1372544,92.4499556 L10.1372544,86.4659666 L33.4748184,63.2369313 C33.9376435,62.7755001 34.1180315,62.1033137 33.948032,61.4735781 C33.7780324,60.8438425 33.2834723,60.3522296 32.6506476,60.1839252 C32.0178229,60.0156209 31.3428748,60.1961944 30.8800497,60.6576257 L10.1372544,81.3016235 L10.1372544,43.1030627 C10.1372544,41.3548667 11.557468,39.9372039 13.3135429,39.9372039 L48.0070581,39.9372039 C49.0779759,39.9372039 49.9838419,40.5046511 50.5557657,41.3128335 C50.3478248,41.3992335 50.158781,41.5251299 49.9991955,41.6834893 L36.3401953,55.2773852 C35.6236697,55.990696 35.6236697,57.1472012 36.3401953,57.860512 C37.0567208,58.5738228 38.2184383,58.5738228 38.9349639,57.860512 L51.1795082,45.6709047 L51.1795082,104.070205 C51.1795082,105.812669 49.7592946,107.232243 48.0070581,107.232243 L13.3154621,107.232243 C11.5616851,107.231189 10.1402323,105.816113 10.1391736,104.070205 L10.1391736,104.070205 Z M24.1896922,34.4862714 C25.5686859,34.4862714 26.6865812,33.3733917 26.6865812,32.000585 C26.6865812,30.6277783 25.5686859,29.5148986 24.1896922,29.5148986 C22.8101684,29.5148986 21.6918435,30.628206 21.6918435,32.0015403 C21.6918435,33.3748746 22.8101684,34.488182 24.1896922,34.488182 L24.1896922,34.4862714 Z M30.2985298,33.8271155 L39.6316362,33.8271155 C40.6449476,33.8271155 41.4663987,33.0093499 41.4663987,32.000585 C41.4663987,30.99182 40.6449476,30.1740545 39.6316362,30.1740545 L30.2985298,30.1740545 C29.3178241,30.2187213 28.5457902,31.0232581 28.5457902,32.000585 C28.5457902,32.9779118 29.3178241,33.7824486 30.2985298,33.8271155 L30.2985298,33.8271155 Z M30.6612601,115.157398 C29.2806764,115.158981 28.1627811,116.274427 28.164371,117.648816 C28.165961,119.023206 29.286434,120.136085 30.6670177,120.134503 C32.0476014,120.132392 33.165067,119.016519 33.1629471,117.642129 C33.1608272,116.26774 32.0399245,115.155288 30.6593409,115.157398 L30.6612601,115.157398 Z" id="Shape"></path>
                                <path d="M34.6416966,67.9637476 L30.8800497,71.7085173 C30.4165389,72.1699484 30.2355173,72.842499 30.4051741,73.4728257 C30.5748308,74.1031524 31.0693909,74.5954936 31.7025584,74.7643891 C32.3357259,74.9332847 33.0113076,74.7530753 33.4748184,74.2916441 L37.2364652,70.5468744 C37.9487898,69.8318364 37.9487898,68.6787856 37.2364652,67.9637476 C36.5186582,67.2571417 35.363342,67.2571417 34.645535,67.9637476" id="Shape"></path>
                            </g>
                        </g>
                    </g>
                </g>
            </g>
        </g>
    </g>
</svg>