<?xml version="1.0" encoding="UTF-8" standalone="no"?>
<svg width="241px" height="161px" viewBox="0 0 241 161" version="1.1" xmlns="http://www.w3.org/2000/svg" xmlns:xlink="http://www.w3.org/1999/xlink">
    <!-- Generator: sketchtool 3.7.2 (28276) - http://www.bohemiancoding.com/sketch -->
    <title>icon-web</title>
    <desc>Created with sketchtool.</desc>
    <defs></defs>
    <g id="Page-1" stroke="none" stroke-width="1" fill="none" fill-rule="evenodd">
        <g id="About" transform="translate(-141.000000, -1624.000000)" fill="#4A4A4A">
            <g id="Group-13" transform="translate(141.000000, 1624.000000)">
                <g id="icon-web-+-Web-Applications">
                    <g id="icon-web">
                        <g id="Group">
                            <g>
                                <path d="M40.9171959,126.614564 L199.353426,126.614564 C204.937082,126.614564 209.473802,122.084744 209.473802,116.510919 L209.473802,24.3427085 C209.472207,18.7673364 204.944442,14.2457594 199.353426,14.2361635 L40.9171959,14.2361635 C35.3240996,14.2425559 30.7915978,18.7623694 30.7851874,24.3398085 L30.7851874,116.508019 C30.7899922,122.08546 35.3211932,126.606571 40.9142878,126.614564 L40.9171959,126.614564 Z M204.047187,24.3456085 L204.047187,116.513819 C204.047187,119.106431 201.935867,121.20314 199.350518,121.20314 L92.8364694,121.20314 L92.8364694,19.6533876 L199.353426,19.6533876 C201.941683,19.6533876 204.050095,21.752997 204.050095,24.3427085 L204.047187,24.3456085 Z M36.2088946,24.3456085 C36.2088946,21.755897 38.3173063,19.6562876 40.9113796,19.6562876 L87.4040377,19.6562876 L87.4040377,121.20314 L40.9171959,121.20314 C38.3202144,121.20314 36.2118028,119.106431 36.2118028,116.513819 L36.2118028,24.3427085 L36.2088946,24.3456085 Z" id="Shape"></path>
                                <path d="M240.329316,141.201629 L219.818106,136.300608 C221.401112,134.499472 222.277077,132.18796 222.284221,129.792979 L222.284221,11.0664493 C222.284221,5.49842451 217.7475,0.962804291 212.15512,0.962804291 L28.1096857,0.962804291 C22.5188587,0.970790518 17.9885939,5.48837323 17.9805853,11.0635493 L17.9805853,129.790078 C17.9805853,132.28409 18.9344598,134.5229 20.4466999,136.280307 L0.406610636,141.35533 L0.284468168,143.61734 C-0.247724015,147.396057 1.75890225,152.839381 4.26863916,156.145396 C6.19674526,158.685807 8.37495261,160.031413 10.5677007,160.031413 L230.383429,160.031413 C237.147796,160.031413 240.108296,149.150565 240.175184,143.408539 L240.181,143.388239 L240.326408,141.204529 L240.329316,141.201629 Z M23.4101088,11.0635493 C23.4101088,8.47673778 25.5214286,6.37422841 28.1125939,6.37422841 L212.149304,6.37422841 C214.743377,6.37422841 216.854697,8.47673778 216.854697,11.0635493 L216.854697,129.790078 C216.854697,132.37689 214.743377,134.476499 212.152212,134.476499 L28.1096857,134.476499 C25.5214286,134.476499 23.4072007,132.37979 23.4072007,129.795879 L23.4072007,11.0664493 L23.4101088,11.0635493 Z M25.5824999,139.278921 L214.461286,139.380421 L224.50605,142.274634 L156.996163,142.274634 L156.254584,143.794241 C155.766385,144.851685 154.711493,145.534542 153.544184,145.548749 L86.7206215,145.548749 C85.577717,145.548749 84.5336897,144.881746 84.0044057,143.791341 L83.2628264,142.271734 L81.5702808,142.271734 L15.8198269,142.280434 L25.5766836,139.278921 L25.5824999,139.278921 Z M230.389246,154.619989 L10.573517,154.619989 C10.4048441,154.605489 9.54984683,154.231387 8.37495261,152.58418 C7.31816802,151.051743 6.51316761,149.36108 5.99026633,147.575858 C6.85398807,147.662858 7.83694412,147.715058 9.03801173,147.715058 C9.9249987,147.715058 10.573517,147.686058 10.5880578,147.686058 L80.0696733,147.686058 C81.6569355,149.752677 84.1189198,150.964141 86.729346,150.963073 L153.547092,150.963073 C156.187696,150.963073 158.60728,149.739267 160.195132,147.686058 L230.383429,147.686058 C231.511793,147.686058 232.878626,147.671558 234.236733,147.535258 C233.34393,151.421275 231.511793,154.617089 230.383429,154.617089 L230.389246,154.619989 Z" id="Shape"></path>
                                <path d="M104.925666,70.7458153 L191.815491,70.7458153 L191.815491,28.5216271 L104.925666,28.5216271 L104.925666,70.7458153 L104.925666,70.7458153 Z M110.349373,33.9301512 L186.383059,33.9301512 L186.383059,65.3372912 L110.349373,65.3372912 L110.349373,33.9301512 L110.349373,33.9301512 Z M47.2511554,86.0346835 L75.6405548,86.0346835 C77.1353459,86.0346835 78.3538625,84.816678 78.3538625,83.3289714 C78.3522596,81.8353105 77.1384088,80.6248577 75.6405548,80.6232593 L47.2511554,80.6232593 C45.7521666,80.6248598 44.5378468,81.8370781 44.5378477,83.3318714 C44.5378477,84.8224781 45.753456,86.0375835 47.2511554,86.0375835 L47.2511554,86.0346835 Z M47.2511554,98.0581371 L75.6405548,98.0581371 C77.1353459,98.0581371 78.3538625,96.8459317 78.3538625,95.352425 C78.3506583,93.8598967 77.1372756,92.6512075 75.6405548,92.6496129 L47.2511554,92.6496129 C45.7544346,92.6512075 44.5410518,93.8598967 44.5378477,95.352425 C44.5378477,96.8459317 45.753456,98.0581371 47.2511554,98.0581371 L47.2511554,98.0581371 Z M47.2511554,110.084491 L75.6405548,110.084491 C77.1353459,110.084491 78.3538625,108.866485 78.3538625,107.378779 C78.3522596,105.885118 77.1384088,104.674665 75.6405548,104.673067 L47.2511554,104.673067 C45.7533013,104.674665 44.5394505,105.885118 44.5378477,107.378779 C44.5378477,108.869385 45.753456,110.084491 47.2511554,110.084491 L47.2511554,110.084491 Z M107.543004,86.0346835 L189.102183,86.0346835 C190.591158,86.0346835 191.815491,84.816678 191.815491,83.3289714 C191.810702,81.8366305 190.598714,80.6280349 189.102183,80.6232593 L107.543004,80.6232593 C106.822619,80.6232593 106.131739,80.9086302 105.62235,81.4165935 C105.11296,81.9245568 104.826788,82.6135028 104.826788,83.3318714 C104.826788,84.8224781 106.048213,86.0375835 107.540096,86.0375835 L107.543004,86.0346835 Z M107.543004,98.0581371 L189.102183,98.0581371 C190.591158,98.0581371 191.815491,96.8459317 191.815491,95.352425 C191.809108,93.8612167 190.597584,92.6543789 189.102183,92.6496129 L107.543004,92.6496129 C106.045148,92.6496095 104.829996,93.8587654 104.826788,95.352425 C104.826788,96.8459317 106.048213,98.0581371 107.540096,98.0581371 L107.543004,98.0581371 Z M189.102183,104.673067 L107.543004,104.673067 C106.044015,104.673066 104.828393,105.883986 104.826788,107.378779 C104.826788,108.869385 106.048213,110.084491 107.540096,110.084491 L189.099275,110.084491 C190.58825,110.084491 191.812583,108.866485 191.812583,107.378779 C191.807794,105.886438 190.595805,104.677842 189.099275,104.673067 L189.102183,104.673067 Z M48.9262521,71.7260197 C50.2483584,71.7244656 51.4692036,71.0196687 52.1289071,69.8771193 C52.7886106,68.7345698 52.7869478,67.3278481 52.1245449,66.1868528 C51.462142,65.0458574 50.239634,64.3439326 48.9175276,64.3454868 C46.8737284,64.3486901 45.2195058,66.0034754 45.2227181,68.0415533 C45.2259303,70.0796311 46.885361,71.7292229 48.9291602,71.7260197 L48.9262521,71.7260197 Z M57.7466832,68.0401033 C57.7482416,69.3585085 58.455017,70.5759361 59.6007739,71.2337928 C60.7465308,71.8916496 62.1572015,71.8899913 63.3014,71.2294428 C64.4455984,70.5688943 65.1494936,69.3498085 65.1479351,68.0314032 C65.1463289,65.9933254 63.4882002,64.3424354 61.444401,64.344037 C59.4006018,64.3456386 57.7450772,65.9991254 57.7466832,68.0372032 L57.7466832,68.0401033 Z M70.2691943,68.0401033 C70.2691943,70.0757787 71.924068,71.7260197 73.9654581,71.7260197 C76.0068482,71.7260197 77.6617218,70.0757787 77.6617218,68.0401033 C77.6617218,66.0044278 76.0068482,64.3541868 73.9654581,64.3541868 C71.924068,64.3541868 70.2691943,66.0044278 70.2691943,68.0401033 L70.2691943,68.0401033 Z M61.4487632,56.976554 C69.3237814,56.9637725 75.7036517,50.599168 75.7132586,42.7461905 C75.7020548,34.8938737 69.3231183,28.5302007 61.4487632,28.5158271 C53.5693926,28.5238099 47.182548,34.8888837 47.1697271,42.7461905 C47.1809496,50.6041593 53.5687298,56.9701655 61.4487632,56.976554 L61.4487632,56.976554 Z M61.4487632,33.9330512 C66.3287388,33.9394417 70.283143,37.8827759 70.2895514,42.7490905 C70.2863478,47.61767 66.3310069,51.5645333 61.4487632,51.5709299 C56.5671835,51.5629389 52.6127779,47.617009 52.607975,42.7490905 C52.6143834,37.8827759 56.5687876,33.9394417 61.4487632,33.9330512 L61.4487632,33.9330512 Z" id="Shape"></path>
                            </g>
                        </g>
                    </g>
                </g>
            </g>
        </g>
    </g>
</svg>