<svg width="667px" height="74px" viewBox="0 0 667 74" version="1.1" xmlns="http://www.w3.org/2000/svg" xmlns:xlink="http://www.w3.org/1999/xlink">
    <!-- Generator: Sketch 3.7.2 (28276) - http://www.bohemiancoding.com/sketch -->
    <title>WE ARE NO2</title>
    <desc>Created with Sketch.</desc>
    <defs></defs>
    <g id="Page-1" stroke="none" stroke-width="5" fill="none" fill-rule="evenodd" fill-opacity="0">
        <g id="Home" transform="translate(-385.000000, -448.000000)" stroke="#FFFFFF" stroke-width="3" fill="#000000">
            <path d="M479.05,450 L460.75,520 L443.55,520 L433.05,485.2 L422.55,520 L405.35,520 L387.05,450 L404.85,450 L414.65,493.9 L425.65,457.4 L440.45,457.4 L451.45,493.9 L461.25,450 L479.05,450 Z M541.65,450 L541.65,465.2 L511.85,465.2 L511.85,475.1 L535.25,475.1 L535.25,490.3 L511.85,490.3 L511.85,504.8 L542.65,504.8 L542.65,520 L494.05,520 L494.05,450 L541.65,450 Z M629.25,505.1 L610.65,505.1 L606.15,520 L587.75,520 L611.45,450 L628.45,450 L652.15,520 L633.75,520 L629.25,505.1 Z M615.15,489.9 L624.75,489.9 L619.95,473.5 L615.15,489.9 Z M687.45,491.2 L683.95,491.2 L683.95,520 L666.75,520 L666.75,450 L694.45,450 C697.916684,450 701.03332,450.499995 703.8,451.5 C706.566681,452.500005 708.916657,453.866658 710.85,455.6 C712.783343,457.333342 714.249995,459.433321 715.25,461.9 C716.250005,464.366679 716.75,467.033319 716.75,469.9 C716.75,474.033354 715.75001,477.799983 713.75,481.2 C711.74999,484.600017 708.883352,487.166658 705.15,488.9 L724.45,520 L705.35,520 L687.45,491.2 Z M692.45,476.4 C694.783345,476.4 696.683326,475.933338 698.15,475 C699.616674,474.066662 700.35,472.366679 700.35,469.9 C700.35,467.433321 699.616674,465.733338 698.15,464.8 C696.683326,463.866662 694.783345,463.4 692.45,463.4 L683.95,463.4 L683.95,476.4 L692.45,476.4 Z M787.25,450 L787.25,465.2 L757.45,465.2 L757.45,475.1 L780.85,475.1 L780.85,490.3 L757.45,490.3 L757.45,504.8 L788.25,504.8 L788.25,520 L739.65,520 L739.65,450 L787.25,450 Z M897.35,450 L897.35,520 L880.05,520 L856.95,478.2 L856.95,520 L840.95,520 L840.95,450 L858.25,450 L881.35,491.8 L881.35,450 L897.35,450 Z M950.85,449.2 C955.250022,449.2 959.516646,449.933326 963.65,451.4 C967.783354,452.866674 971.449984,455.066652 974.65,458 C977.850016,460.933348 980.416657,464.649977 982.35,469.15 C984.283343,473.650022 985.25,478.933303 985.25,485 C985.25,491.066697 984.283343,496.349978 982.35,500.85 C980.416657,505.350023 977.850016,509.066652 974.65,512 C971.449984,514.933348 967.783354,517.133326 963.65,518.6 C959.516646,520.066674 955.250022,520.8 950.85,520.8 C946.449978,520.8 942.183354,520.066674 938.05,518.6 C933.916646,517.133326 930.250016,514.933348 927.05,512 C923.849984,509.066652 921.283343,505.350023 919.35,500.85 C917.416657,496.349978 916.45,491.066697 916.45,485 C916.45,478.933303 917.416657,473.650022 919.35,469.15 C921.283343,464.649977 923.849984,460.933348 927.05,458 C930.250016,455.066652 933.916646,452.866674 938.05,451.4 C942.183354,449.933326 946.449978,449.2 950.85,449.2 L950.85,449.2 Z M950.85,464.4 C948.583322,464.4 946.45001,464.799996 944.45,465.6 C942.44999,466.400004 940.700008,467.649991 939.2,469.35 C937.699993,471.050008 936.500004,473.199987 935.6,475.8 C934.699995,478.400013 934.25,481.466649 934.25,485 C934.25,488.533351 934.699995,491.599987 935.6,494.2 C936.500004,496.800013 937.699993,498.949992 939.2,500.65 C940.700008,502.350009 942.44999,503.599996 944.45,504.4 C946.45001,505.200004 948.583322,505.6 950.85,505.6 C953.116678,505.6 955.24999,505.200004 957.25,504.4 C959.25001,503.599996 960.999992,502.350009 962.5,500.65 C964.000008,498.949992 965.199995,496.800013 966.1,494.2 C967.000004,491.599987 967.45,488.533351 967.45,485 C967.45,481.466649 967.000004,478.400013 966.1,475.8 C965.199995,473.199987 964.000008,471.050008 962.5,469.35 C960.999992,467.649991 959.25001,466.400004 957.25,465.6 C955.24999,464.799996 953.116678,464.4 950.85,464.4 L950.85,464.4 Z M1003.05,512.6 L1028.65,481.3 C1030.05001,479.566658 1031.18333,477.800009 1032.05,476 C1032.91667,474.199991 1033.35,472.333343 1033.35,470.4 C1033.35,468.39999 1032.73334,466.700007 1031.5,465.3 C1030.26666,463.899993 1028.58334,463.2 1026.45,463.2 C1023.98332,463.2 1022.11667,463.966659 1020.85,465.5 C1019.58333,467.033341 1018.78334,469.066654 1018.45,471.6 L1003.75,468.6 C1004.08334,466.066654 1004.79999,463.633345 1005.9,461.3 C1007.00001,458.966655 1008.49999,456.900009 1010.4,455.1 C1012.30001,453.299991 1014.58332,451.866672 1017.25,450.8 C1019.91668,449.733328 1022.98332,449.2 1026.45,449.2 C1030.05002,449.2 1033.23332,449.733328 1036,450.8 C1038.76668,451.866672 1041.09999,453.316658 1043,455.15 C1044.90001,456.983342 1046.35,459.166654 1047.35,461.7 C1048.35001,464.233346 1048.85,466.966652 1048.85,469.9 C1048.85,473.366684 1048.13334,476.566652 1046.7,479.5 C1045.26666,482.433348 1043.31668,485.433318 1040.85,488.5 L1026.95,506 L1050.35,506 L1050.35,520 L1003.05,520 L1003.05,512.6 Z" id="WE-ARE-NO2"></path>
        </g>
    </g>
</svg>