<?xml version="1.0" encoding="UTF-8" standalone="no"?>
<svg width="1057px" height="610px" viewBox="0 0 1057 610" version="1.1" xmlns="http://www.w3.org/2000/svg" xmlns:xlink="http://www.w3.org/1999/xlink" xmlns:sketch="http://www.bohemiancoding.com/sketch/ns">
    <!-- Generator: sketchtool 3.4.4 (395) - http://www.bohemiancoding.com/sketch -->
    <title>MackBook_Outline_SVG</title>
    <desc>Created with sketchtool.</desc>
    <defs></defs>
    <g id="Page-1" stroke="none" stroke-width="1" fill="none" fill-rule="evenodd" sketch:type="MSPage">
        <g id="Recent-Projects" sketch:type="MSArtboardGroup" transform="translate(-192.000000, -1978.000000)" stroke="#000000">
            <g id="Project-Copy" sketch:type="MSLayerGroup" transform="translate(24.000000, 1660.000000)">
                <g id="MackBook_Outline_SVG" transform="translate(169.000000, 319.000000)" sketch:type="MSShapeGroup">
                    <g id="Group">
                        <path d="M1053.33509,573.883212 L955.82667,573.883212 C956.936612,570.610219 957.602578,567.115328 957.602578,563.509489 L957.602578,32.0087591 C957.602578,14.3678832 943.228827,0 925.580747,0 L129.585744,0 C111.937664,0 97.5639137,14.3678832 97.5639137,32.0087591 L97.5639137,563.509489 C97.5639137,567.170803 98.1743819,570.665693 99.284324,573.883212 L1.6649132,573.883212 C0.721462388,573.883212 0,574.60438 0,575.547445 L0,591.856934 C0,592.356204 0,593.743066 1.22093635,594.630657 C1.49842188,594.852555 1.83140452,595.074453 2.16438716,595.29635 L2.16438716,595.29635 C9.43450815,600.289051 27.6375592,607.722628 48.1159916,607.722628 L1006.93951,607.722628 C1027.36244,607.722628 1045.62099,600.289051 1052.89111,595.29635 C1053.33509,595.018978 1053.72357,594.741606 1054.05655,594.408759 C1055,593.687591 1055,592.522628 1055,592.078832 L1055,575.547445 C1055,574.659854 1054.22304,573.883212 1053.33509,573.883212 L1053.33509,573.883212 Z M928.244608,537.991241 L126.755392,537.991241 L126.755392,36.9459854 L928.244608,36.9459854 L928.244608,537.991241 L928.244608,537.991241 Z" id="Shape" fill="#FFFFFF"></path>
                        <path d="M1053.33509,573.883212 L955.82667,573.883212 C956.936612,570.610219 957.54708,567.115328 957.54708,563.509489 L957.54708,32.0087591 C957.54708,14.3678832 943.17333,0 925.52525,0 L129.585744,0 C111.937664,0 97.5639137,14.3678832 97.5639137,32.0087591 L97.5639137,563.509489 C97.5639137,567.170803 98.1743819,570.665693 99.284324,573.883212 L1.6649132,573.883212 C0.721462388,573.883212 0,574.60438 0,575.547445 L0,591.912409 C0,592.411679 0,593.79854 1.22093635,594.686131 C1.49842188,594.908029 1.83140452,595.129927 2.16438716,595.351825 L2.16438716,595.351825 C9.43450815,600.344526 27.6375592,607.778102 48.1159916,607.778102 L1006.93951,607.778102 C1027.36244,607.778102 1045.62099,600.344526 1052.89111,595.351825 C1053.33509,595.074453 1053.72357,594.79708 1054.05655,594.464234 C1055,593.743066 1055,592.578102 1055,592.134307 L1055,575.60292 C1055,574.659854 1054.22304,573.883212 1053.33509,573.883212 L1053.33509,573.883212 Z" id="Shape"></path>
                        <path d="M1052.78012,592.078832 L1052.78012,576.10219 L866.809311,576.10219 L864.034456,576.10219 L602.032614,576.10219 C601.366649,580.706569 596.982378,587.973723 589.379274,587.973723 L465.565229,587.973723 C457.962125,587.973723 453.577854,580.706569 452.911888,576.10219 L343.582588,576.10219 L308.952393,576.10219 L188.523672,576.10219 L185.748816,576.10219 L2.21988427,576.10219 L2.21988427,591.856934 C2.21988427,592.467153 2.33087849,592.689051 2.55286691,592.855474 C2.71935823,593.021898 2.94134666,593.132847 3.10783798,593.29927 L1051.89216,593.29927 C1052.16965,593.132847 1052.44713,592.910949 1052.66912,592.689051 C1052.78012,592.578102 1052.78012,592.30073 1052.78012,592.078832 L1052.78012,592.078832 Z" id="Shape"></path>
                        <path d="M1048.28485,595.462774 L6.71514992,595.462774 C15.1507102,600.067153 30.7453972,605.50365 48.0604945,605.50365 L1006.88401,605.50365 C1024.19911,605.50365 1039.84929,600.067153 1048.28485,595.462774 L1048.28485,595.462774 Z" id="Shape"></path>
                        <path d="M955.327196,563.509489 L955.327196,32.0087591 C955.327196,15.5883212 941.952393,2.2189781 925.52525,2.2189781 L129.585744,2.2189781 C113.158601,2.2189781 99.783798,15.5883212 99.783798,32.0087591 L99.783798,563.509489 C99.783798,567.170803 100.449763,570.665693 101.6707,573.883212 L186.24829,573.883212 L186.359285,573.383942 L188.967649,561.789781 L113.824566,561.789781 C107.719884,561.789781 102.725145,556.79708 102.725145,550.694891 L102.725145,498.992701 L102.725145,496.218978 L102.725145,31.620438 C102.725145,17.0306569 114.601526,5.15912409 129.197265,5.15912409 L925.91373,5.15912409 C940.509469,5.15912409 952.38585,17.0306569 952.38585,31.620438 L952.38585,496.218978 L952.38585,498.992701 L952.38585,550.694891 C952.38585,556.79708 947.39111,561.789781 941.286428,561.789781 L863.590479,561.789781 L866.198843,573.383942 L866.309837,573.883212 L953.440295,573.883212 C954.661231,570.665693 955.327196,567.170803 955.327196,563.509489 L955.327196,563.509489 Z" id="Shape"></path>
                        <path d="M950.165965,550.694891 L950.165965,498.992701 L950.165965,496.218978 L950.165965,31.620438 C950.165965,18.2510949 939.288532,7.37810219 925.91373,7.37810219 L129.197265,7.37810219 C115.822462,7.37810219 104.945029,18.2510949 104.945029,31.620438 L104.945029,496.218978 L104.945029,498.992701 L104.945029,550.694891 C104.945029,555.576642 108.940821,559.570803 113.824566,559.570803 L941.286428,559.570803 C946.170174,559.570803 950.165965,555.632117 950.165965,550.694891 L950.165965,550.694891 Z" id="Shape"></path>
                        <path d="M864.034456,573.883212 L861.315097,561.90073 L343.638085,561.90073 L309.063388,561.90073 L191.24303,561.90073 L188.523672,573.883212 L309.063388,573.883212 L343.638085,573.883212 L452.856391,573.883212 L602.143609,573.883212 L864.034456,573.883212 Z" id="Shape"></path>
                        <path d="M599.81273,576.10219 L455.18727,576.10219 C455.853235,579.652555 459.349553,585.754745 465.565229,585.754745 L589.379274,585.754745 C595.650447,585.754745 599.146765,579.652555 599.81273,576.10219 L599.81273,576.10219 Z" id="Shape"></path>
                        <path d="M931.019463,36.9459854 L931.019463,537.935766 C931.019463,539.489051 929.798527,540.709489 928.244608,540.709489 L126.755392,540.709489 C125.201473,540.709489 123.980537,539.489051 123.980537,537.935766 L123.980537,36.9459854 C123.980537,35.3927007 125.201473,34.1722628 126.755392,34.1722628 L928.244608,34.1722628 C929.74303,34.1722628 931.019463,35.4481752 931.019463,36.9459854 L931.019463,36.9459854 Z M928.244608,537.991241 L928.244608,36.9459854 L126.755392,36.9459854 L126.755392,537.935766 L928.244608,537.935766 L928.244608,537.991241 Z" id="Shape"></path>
                        <path d="M697.26565,601.121168 C697.487638,601.620438 697.376644,602.230657 696.988164,602.674453 C695.711731,604.116788 691.216465,604.172263 690.328511,604.172263 L689.662546,604.172263 C686.610205,604.061314 684.778801,603.506569 684.334824,602.508029 C684.112835,602.008759 684.22383,601.39854 684.612309,600.954745 C685.888743,599.512409 690.384008,599.456934 691.271962,599.456934 L691.937927,599.456934 C694.990268,599.512409 696.821673,600.067153 697.26565,601.121168 L697.26565,601.121168 Z" id="Shape"></path>
                        <path d="M527.721988,17.8072993 C530.163861,17.8072993 532.161757,19.8043796 532.161757,22.2452555 C532.161757,24.6861314 530.163861,26.6832117 527.721988,26.6832117 C525.280116,26.6832117 523.28222,24.6861314 523.28222,22.2452555 C523.28222,19.8043796 525.280116,17.8072993 527.721988,17.8072993 L527.721988,17.8072993 Z M529.941873,22.2452555 C529.941873,21.0248175 528.942925,20.0262774 527.721988,20.0262774 C526.501052,20.0262774 525.502104,21.0248175 525.502104,22.2452555 C525.502104,23.4656934 526.501052,24.4642336 527.721988,24.4642336 C528.942925,24.4642336 529.941873,23.4656934 529.941873,22.2452555 L529.941873,22.2452555 Z" id="Shape"></path>
                        <path d="M369.111257,600.89927 C369.499737,601.343066 369.610731,601.953285 369.388743,602.452555 C368.944766,603.506569 367.168858,604.061314 364.061021,604.116788 L363.395055,604.116788 C362.507102,604.116788 357.956339,604.061314 356.735402,602.618978 C356.346923,602.175182 356.235928,601.564964 356.457917,601.065693 C356.901894,600.011679 358.677801,599.456934 361.785639,599.40146 L362.451604,599.40146 C363.339558,599.456934 367.890321,599.512409 369.111257,600.89927 L369.111257,600.89927 Z" id="Shape"></path>
                        <path d="M99.783798,563.509489 L99.783798,32.0087591 C99.783798,15.5883212 113.158601,2.2189781 129.585744,2.2189781 L925.52525,2.2189781 C941.952393,2.2189781 955.327196,15.5883212 955.327196,32.0087591 L955.327196,563.509489 C955.327196,567.170803 954.661231,570.665693 953.440295,573.883212 L866.309837,573.883212 L866.198843,573.383942 L863.590479,561.789781 L941.286428,561.789781 C947.39111,561.789781 952.38585,556.79708 952.38585,550.694891 L952.38585,498.992701 L952.38585,496.218978 L952.38585,31.620438 C952.38585,17.0306569 940.509469,5.15912409 925.91373,5.15912409 L129.197265,5.15912409 C114.601526,5.15912409 102.725145,17.0306569 102.725145,31.620438 L102.725145,496.218978 L102.725145,498.992701 L102.725145,550.694891 C102.725145,556.79708 107.719884,561.789781 113.824566,561.789781 L188.967649,561.789781 L186.359285,573.383942 L186.24829,573.883212 L101.6707,573.883212 C100.50526,570.665693 99.783798,567.170803 99.783798,563.509489 L99.783798,563.509489 Z" id="Shape"></path>
                        <path d="M113.824566,559.570803 C108.940821,559.570803 104.945029,555.576642 104.945029,550.694891 L104.945029,498.992701 L104.945029,496.218978 L104.945029,31.620438 C104.945029,18.2510949 115.822462,7.37810219 129.197265,7.37810219 L925.91373,7.37810219 C939.288532,7.37810219 950.165965,18.2510949 950.165965,31.620438 L950.165965,496.218978 L950.165965,498.992701 L950.165965,550.694891 C950.165965,555.576642 946.170174,559.570803 941.286428,559.570803 L113.824566,559.570803 L113.824566,559.570803 Z" id="Shape"></path>
                        <path d="M928.244608,34.1722628 L126.755392,34.1722628 C125.201473,34.1722628 123.980537,35.3927007 123.980537,36.9459854 L123.980537,537.935766 C123.980537,539.489051 125.201473,540.709489 126.755392,540.709489 L928.244608,540.709489 C929.798527,540.709489 931.019463,539.489051 931.019463,537.935766 L931.019463,36.9459854 C931.019463,35.4481752 929.74303,34.1722628 928.244608,34.1722628 L928.244608,34.1722628 Z" id="Shape"></path>
                        <rect id="Rectangle-path" x="126.755392" y="36.9459854" width="801.489216" height="500.989781"></rect>
                    </g>
                </g>
            </g>
        </g>
    </g>
</svg>