<?xml version="1.0" encoding="utf-8"?>
<!-- Generator: Adobe Illustrator 19.0.0, SVG Export Plug-In . SVG Version: 6.00 Build 0)  -->
<svg version="1.1"
	 id="Layer_1" xmlns:inkscape="http://www.inkscape.org/namespaces/inkscape" xmlns:sodipodi="http://sodipodi.sourceforge.net/DTD/sodipodi-0.dtd" xmlns:svg="http://www.w3.org/2000/svg" xmlns:rdf="http://www.w3.org/1999/02/22-rdf-syntax-ns#" xmlns:cc="http://creativecommons.org/ns#" xmlns:dc="http://purl.org/dc/elements/1.1/"
	 xmlns="http://www.w3.org/2000/svg" xmlns:xlink="http://www.w3.org/1999/xlink" x="0px" y="0px" viewBox="-255 334 100 103"
	 style="enable-background:new -255 334 100 103;" xml:space="preserve">
<style type="text/css">
	.st0{fill:#FFFFFF;}
</style>
<g transform="translate(0,-952.36218)">
	<path class="st0" d="M-205,1292.4c-0.5,0-1.1,0.2-1.4,0.6l-5.1,5.1l-5.8-2.5c-1-0.4-2.2,0.1-2.6,1l-2.5,5.8h-6.7c-1,0-2,1-2,2v6.7
		l-5.8,2.5c-1,0.4-1.5,1.7-1.1,2.6l2.5,5.8l-5,5c-0.4,0.4-0.6,0.9-0.6,1.4c0,0.6,0.3,1.2,0.7,1.5l4.9,4.1l-2.5,6.7
		c-0.4,1,0.2,2.1,1.1,2.5l5.8,2.5v4.3c-0.1,0.1-0.2,0.2-0.2,0.3l-9.5,16.1c-0.7,1.2,0.3,3,1.7,3h11.9l6.4,10.1
		c0.4,0.6,1,0.9,1.7,0.9c0.7,0,1.4-0.4,1.7-1l9.8-16.9l1,1.2c0.4,0.4,1,0.7,1.5,0.7s1.2-0.2,1.5-0.7l1-1.2l9.8,16.9
		c0.3,0.6,1,1,1.7,1c0.7,0,1.3-0.4,1.7-0.9l6.4-10.1h11.9c1.4,0,2.4-1.8,1.7-3l-9.5-16.1c-0.1-0.1-0.2-0.2-0.2-0.3v-4.3l5.8-2.5
		c0.9-0.4,1.4-1.6,1.1-2.5l-2.5-6.7l4.9-4.1c0.4-0.4,0.7-1,0.7-1.5c0-0.5-0.2-1.1-0.6-1.4l-5-5l2.5-5.8c0.4-1-0.1-2.2-1.1-2.6
		l-5.8-2.5v-6.7c0-1-1-2-2-2h-6.7l-2.5-5.8c-0.4-1-1.7-1.4-2.6-1l-5.8,2.5l-5.1-5.1C-203.9,1292.6-204.5,1292.4-205,1292.4z
		 M-205,1297.2l4.6,4.6c0.6,0.5,1.5,0.7,2.2,0.4l5.2-2.2l2.2,5.2c0.3,0.7,1.1,1.2,1.8,1.2h6v6c0,0.8,0.5,1.5,1.2,1.8l5.2,2.2
		l-2.2,5.2c-0.3,0.7-0.1,1.7,0.4,2.2l4.4,4.4l-4.3,3.6c-0.6,0.5-0.9,1.5-0.6,2.2l2.3,6.2l-5.2,2.2c-0.7,0.3-1.2,1.1-1.2,1.8v6h-6
		c-0.8,0-1.5,0.5-1.8,1.2l-2.2,5.3l-6.2-2.3c-0.8-0.3-1.7,0-2.2,0.6l-3.5,4.2l-3.5-4.2c-0.5-0.6-1.5-0.9-2.2-0.6l-6.2,2.3l-2.2-5.3
		c-0.3-0.7-1.1-1.2-1.8-1.2h-6v-6c0-0.8-0.5-1.5-1.2-1.8l-5.2-2.2l2.3-6.2c0.3-0.8,0-1.7-0.6-2.2l-4.3-3.6l4.4-4.4
		c0.6-0.6,0.8-1.5,0.4-2.2l-2.2-5.2l5.2-2.2c0.7-0.3,1.2-1,1.2-1.8v-6h6c0.8,0,1.5-0.5,1.8-1.2l2.2-5.2l5.2,2.2
		c0.7,0.3,1.6,0.1,2.2-0.4L-205,1297.2z M-229,1354.4C-229,1354.4-229,1354.4-229,1354.4h6.7l2.5,5.8c0.4,0.9,1.6,1.4,2.5,1.1
		l6.7-2.5l0.4,0.5l-8.8,15.3l-5.2-8.2c-0.4-0.6-1-0.9-1.7-0.9h-9.5L-229,1354.4z M-187.7,1354.4h6.7c0,0,0,0,0,0l6.5,11h-9.5
		c-0.7,0-1.3,0.3-1.7,0.9l-5.2,8.2l-8.8-15.3l0.4-0.5l6.7,2.5c1,0.4,2.1-0.2,2.5-1.1L-187.7,1354.4z"/>
</g>
</svg>
