<?xml version="1.0" encoding="utf-8"?>
<!-- Generator: Adobe Illustrator 19.0.0, SVG Export Plug-In . SVG Version: 6.00 Build 0)  -->
<svg version="1.1" id="Layer_1" xmlns="http://www.w3.org/2000/svg" xmlns:xlink="http://www.w3.org/1999/xlink" x="0px" y="0px"
	 viewBox="-255 335.2 100 97.8" style="enable-background:new -255 335.2 100 97.8;" xml:space="preserve">
<style type="text/css">
	.st0{fill:#FFFFFF;}
</style>
<path class="st0" d="M-174.1,352.3c-0.1-0.1-0.2-0.2-0.3-0.3l-48.2-13.5c-0.2-0.1-0.5,0-0.6,0.2l-24.2,46.1c-0.1,0.1-0.1,0.3,0,0.4
	l9.7,26.8c0.1,0.1,0.2,0.3,0.3,0.3l51.4,17.1c0.1,0,0.1,0,0.2,0c0.2,0,0.4-0.1,0.5-0.3l22.8-50.3c0.1-0.1,0.1-0.3,0-0.4
	L-174.1,352.3z M-186.9,363.5l-18.2,17.3l-4.8-11.8l18.7-8.4L-186.9,363.5z M-190.2,360.1l13.1-5.9l-9.1,8.6L-190.2,360.1z
	 M-210.3,368l-11.4-27.7l29.4,19.6L-210.3,368z M-211.2,368.5l-18.5,8.4l7.2-36.1L-211.2,368.5z M-210.8,369.4l5,12.1l0,0l-25.2,1.9
	l1.1-5.4L-210.8,369.4z M-232.1,383.5l-12,0.9l13-5.9L-232.1,383.5z M-232.3,384.5l-1.8,9.2l-11.4-8.2L-232.3,384.5z M-231.3,384.4
	l24.2-1.8l-18.3,17.4l-7.8-5.6L-231.3,384.4z M-226.1,400.7l-10.3,9.8l3-15L-226.1,400.7z M-225.3,401.3l4.1,2.9l-13.6,6.1
	L-225.3,401.3z M-224.6,400.6l19.1-18.1l0,0l5.1,12.4l-19.8,8.9L-224.6,400.6z M-200,395.8l13,31.8l-32.3-23.2L-200,395.8z
	 M-199.1,395.4l18.9-8.5l-5.9,40.2L-199.1,395.4z M-199.5,394.5l-5-12.1l25.2-1.9l-0.8,5.3L-199.5,394.5z M-178.2,380.4l12.3-0.9
	l-13.1,5.8L-178.2,380.4z M-178.1,379.4l1.3-9.1l12.2,8.1L-178.1,379.4z M-179.1,379.5l-25.3,1.9l18.3-17.4l8.4,5.6L-179.1,379.5z
	 M-185.3,363.3l10-9.5l-2.2,14.7L-185.3,363.3z M-191.2,359.4l-28.7-19.1l43.8,12.3L-191.2,359.4z M-230.9,377.3l-15,6.7l21.9-41.8
	L-230.9,377.3z M-234.4,394.8l-3,15.3l-8.5-23.6L-234.4,394.8z M-220.3,404.9l31.5,22.6l-47.1-15.6L-220.3,404.9z M-179.1,386.5
	l15.1-6.7l-20.8,45.8L-179.1,386.5z M-176.5,369.1l2.2-14.9l10.2,23.1L-176.5,369.1z"/>
</svg>
