<?xml version="1.0" encoding="utf-8"?>
<!-- Generator: Adobe Illustrator 19.0.0, SVG Export Plug-In . SVG Version: 6.00 Build 0)  -->
<svg version="1.1" id="Layer_1" xmlns="http://www.w3.org/2000/svg" xmlns:xlink="http://www.w3.org/1999/xlink" x="0px" y="0px"
	 viewBox="-247.5 340 87.2 85.2" style="enable-background:new -247.5 340 87.2 85.2;" xml:space="preserve">
<style type="text/css">
	.st0{fill:#FFFFFF;}
</style>
<g>
	<path class="st0" d="M-176,352.7l-28.8-8.5l-0.8-0.6l-0.2,0.9l-12.4,8.3h-0.3l-0.1,0.3l-24.2,16.2l7.6,26.5l-0.1,0.3l0.3,0.2
		l4.5,15.8l30.9,9.5l0.9,0.6l0.1-0.9l13.3-9.2h0.3l0.1-0.3l21.5-14.9l-7.4-27l0.1-0.3l-0.2-0.2l-4.3-15.7l0.5-0.9
		C-174.8,352.7-176,352.7-176,352.7z M-210.9,380.6l10.4-2.7l5.2,6.9l-9.8,2.5L-210.9,380.6z M-206.8,387.7l-10.5,2.7l5.1-9
		L-206.8,387.7z M-211.3,379.1l2.5-12.3l7.3,9.7L-211.3,379.1z M-195,386.2l-1.6,10.9l-7.4-8.6L-195,386.2z M-199,377.5l9.8-2.5
		l-5.1,8.9L-199,377.5z M-199.9,376.2l-8.5-11.3l2.2-10.7h12.5l11.5,8.6l-5.9,10.4L-199.9,376.2z M-181,363.6l7.7,5.7l-12.8,3.3
		L-181,363.6z M-181.5,361.4l-9.8-7.2h13.9L-181.5,361.4z M-181.2,352.7h-12l-8-5.9L-181.2,352.7z M-204.6,346.1l8.8,6.5h-10.2
		L-204.6,346.1z M-206.2,346.5l-1.3,6.2h-8L-206.2,346.5z M-207.8,354.2l-1.9,9.1l-6.8-9.1C-216.5,354.2-207.8,354.2-207.8,354.2z
		 M-217.8,354.9l7.7,10.3l-2.8,13.9l-12.6-4.5L-217.8,354.9z M-219.5,355.4l-7.3,18.7l-13.5-4.9L-219.5,355.4z M-240.8,370.6
		l13.5,4.9l-6.9,17.8L-240.8,370.6z M-226,376l12.6,4.5l-5.9,10.4l-13.9,3.6L-226,376z M-220.3,392.8l-4.9,8.6l-7.5-5.4
		L-220.3,392.8z M-233.1,397.5l7.2,5.1l-3.8,6.7L-233.1,397.5z M-224.7,403.5l9.6,6.9h-13.5L-224.7,403.5z M-225.4,411.9h12.4
		l9.4,6.7L-225.4,411.9z M-199.9,419.3l-10.5-7.5h11.6L-199.9,419.3z M-212.5,410.4l-11.5-8.2l5.6-10l12.6-3.3l8.8,10.1l-1.7,11.3
		C-198.6,410.4-212.5,410.4-212.5,410.4z M-198.3,419.1l1.1-7.2h9.3L-198.3,419.1z M-197.1,410.4l1.4-9.7l8.4,9.7
		C-187.2,410.4-197.1,410.4-197.1,410.4z M-185.9,409.6l-9.5-11l1.8-12.4l13.8,5.2L-185.9,409.6z M-184.1,409.2l5.8-17.3l12.4,4.6
		L-184.1,409.2z M-165.4,395.1l-12.4-4.6l6.1-18.3L-165.4,395.1z M-179.2,390l-13.8-5.2l5.9-10.4l14.3-3.7L-179.2,390z
		 M-172.9,367.7l-7.3-5.4l3.9-6.9L-172.9,367.7z"/>
</g>
</svg>
