<?xml version="1.0" encoding="utf-8"?>
<!-- Generator: Adobe Illustrator 19.0.0, SVG Export Plug-In . SVG Version: 6.00 Build 0)  -->
<svg version="1.1" id="Layer_1" xmlns="http://www.w3.org/2000/svg" xmlns:xlink="http://www.w3.org/1999/xlink" x="0px" y="0px"
	 viewBox="-255 337 100 94.5" style="enable-background:new -255 337 100 94.5;" xml:space="preserve">
<style type="text/css">
	.st0{fill:#FFFFFF;}
</style>
<path class="st0" d="M-196.8,426.8C-196.8,426.8-196.8,426.8-196.8,426.8l-13.4,0c-0.7,0-1.3-0.4-1.6-1l-5.2-11l-5.4,10.9
	c0,0.1-0.1,0.1-0.1,0.2c-0.3,0.5-0.9,0.8-1.5,0.8l-13.3,0.1c0,0,0,0,0,0c-0.7,0-1.3-0.4-1.6-1l-7.1-13.7c-0.3-0.5-0.3-1.1,0-1.6
	l12.8-26l-13-26.3c-0.2-0.5-0.3-1,0-1.5l6.5-13.8c0.3-0.6,0.9-1,1.6-1c0,0,0,0,0,0l13.8,0c0.6,0,1.2,0.3,1.5,0.8
	c0,0,0.1,0.1,0.1,0.1l5,10.2l5-10.1c0.3-0.6,0.9-1,1.6-1l13.2-0.1c0,0,0,0,0,0c0.7,0,1.3,0.4,1.6,1l5.5,10.9l5.3-10.7
	c0,0,0-0.1,0.1-0.1c0.3-0.5,0.9-0.8,1.5-0.8l13.8-0.1c0,0,0,0,0,0c0.7,0,1.3,0.4,1.6,1l6.5,13.6c0.3,0.5,0.2,1.2-0.1,1.7
	c0,0,0,0.1-0.1,0.1l-12.7,25.9l12.9,26.4c0.3,0.5,0.3,1.1,0,1.7l-7,13.6c-0.3,0.6-0.9,0.9-1.6,0.9c0,0,0,0,0,0l-13.3-0.1
	c-0.6,0-1.2-0.3-1.5-0.8c0-0.1-0.1-0.1-0.1-0.2l0,0l-4.8-10.2l-5.1,10.3C-195.5,426.4-196.1,426.8-196.8,426.8z M-207.4,423.2l9.5,0
	l31.6-64.3l-9.3,0L-207.4,423.2z M-241.4,413l5.2,10.2l9.4,0l-4.9-10.2L-241.4,413z M-181,423.2l9.4,0l5.2-10.1l-9.8-0.1L-181,423.2
	z M-215,410.7l4.8,10.2l31.5-63.7l-5.1-9.7L-215,410.7z M-228.6,411.3l4.6,9.6l31.3-63.4l-5.1-10L-228.6,411.3z M-188.2,411.4
	l4.4,9.4l4.6-9.5l-4.5-9L-188.2,411.4z M-176.1,409.5l9.8,0.1l-10.5-21.5l-5,10.2L-176.1,409.5z M-241.5,409.5l9.9,0l31-64.2
	l-9.3,0.1L-241.5,409.5z M-241.7,359.1l10.6,21.4l4.8-9.8l-6-11.6L-241.7,359.1z M-229.2,357.3l4.9,9.5l4.9-9.8l-4.7-9.5
	L-229.2,357.3z M-236.8,345.3l-4.9,10.3l9.4-0.1l5.3-10.2L-236.8,345.3z M-180.9,345.4l5.3,10.1l9.4,0l-4.9-10.1L-180.9,345.4z"/>
</svg>
