<?xml version="1.0" encoding="utf-8"?>
<!-- Generator: Adobe Illustrator 19.0.0, SVG Export Plug-In . SVG Version: 6.00 Build 0)  -->
<svg version="1.1" id="Layer_1" xmlns="http://www.w3.org/2000/svg" xmlns:xlink="http://www.w3.org/1999/xlink" x="0px" y="0px"
	 viewBox="-260 339 89.1 95" style="enable-background:new -260 339 89.1 95;" xml:space="preserve">
<style type="text/css">
	.st0{fill:#FFFFFF;}
</style>
<title>Blackspike_Dodecahedron</title>
<path class="st0" d="M-170.9,373.4l-4.6-11.2c-0.1-0.2-0.2-0.3-0.3-0.4l-26.9-20.9c-0.1-0.1-0.3-0.2-0.5-0.2l-12-1.6
	c-0.2,0-0.3,0-0.5,0.1l-31.5,12.9c-0.2,0.1-0.3,0.2-0.4,0.3l-7.4,9.6c-0.1,0.1-0.2,0.3-0.2,0.5l-4.6,33.8c0,0.2,0,0.3,0.1,0.5
	l4.6,11.2c0.1,0.2,0.2,0.3,0.3,0.4l26.9,20.9c0.1,0.1,0.3,0.2,0.5,0.2l12,1.6h0.1c0.1,0,0.3,0,0.4-0.1l31.6-12.9
	c0.2-0.1,0.3-0.2,0.4-0.3l7.4-9.6c0.1-0.1,0.2-0.3,0.2-0.5l4.6-33.8C-170.9,373.7-170.9,373.5-170.9,373.4z M-177.6,362.9l-7,25.3
	l-30.1-4.1l-11.5-28.1l22.8-13.2L-177.6,362.9z M-233.6,410.1l18.6-24l30.1,4.1v26.3l-30.3,12.4L-233.6,410.1z M-246.3,353.7
	l31-12.7l8.9,1.2l-21.4,12.4l-24,6.2L-246.3,353.7z M-253.5,363.3l25.4-6.6l11.5,28.1l-18.6,24l-22.8-13.1L-253.5,363.3z
	 M-253.6,406.9l-3.4-8.3l21.5,12.4l17.3,17.6l-8.9-1.2L-253.6,406.9z M-177.4,407.1l-5.5,7.1v-24.7l6.6-23.9l3.4,8.3L-177.4,407.1z"
	/>
</svg>
