<?xml version="1.0" encoding="utf-8"?>
<!-- Generator: Adobe Illustrator 19.0.0, SVG Export Plug-In . SVG Version: 6.00 Build 0)  -->
<svg version="1.1" id="Layer_1" xmlns="http://www.w3.org/2000/svg" xmlns:xlink="http://www.w3.org/1999/xlink" x="0px" y="0px"
	 viewBox="-255 340.5 100 87.5" style="enable-background:new -255 340.5 100 87.5;" xml:space="preserve">
<style type="text/css">
	.st0{fill:#FFFFFF;}
</style>
<path class="st0" d="M-190.3,349c-5.3,0-10.4,1.4-14.7,3.8c-4.4-2.4-9.4-3.8-14.7-3.8c-16.7,0-30.3,13.6-30.3,30.3
	c0,13.2,8.5,24.4,20.2,28.6v12l10.1-10.3c5.3,0,10.3-1.4,14.7-3.8c4.4,2.4,9.4,3.8,14.7,3.8c0.1,0,0.2,0,0.3,0l10.1,10.3v-12.1
	c11.6-4.2,19.9-15.4,19.9-28.5C-160,362.5-173.6,349-190.3,349z M-181,404.9c-1.2,0.4-2,1.6-2,2.8v4.7l-4.9-5
	c-0.6-0.6-1.3-0.9-2.1-0.9c0,0,0,0,0,0c-0.1,0-0.1,0-0.2,0l0,0c-4.6,0-9.2-1.2-13.3-3.4c-0.5-0.3-1-0.4-1.5-0.4s-1,0.1-1.5,0.4
	c-4,2.2-8.6,3.4-13.2,3.4c-0.8,0-1.6,0.3-2.1,0.9l-4.9,5v-4.6c0-1.3-0.8-2.4-2-2.8c-10.9-3.8-18.2-14.2-18.2-25.7
	c0-15,12.2-27.3,27.3-27.3c4.6,0,9.2,1.2,13.3,3.4c0.5,0.3,1,0.4,1.5,0.4s1-0.1,1.5-0.4c4-2.3,8.6-3.4,13.3-3.4
	c15,0,27.3,12.2,27.3,27.3C-163,390.7-170.2,401-181,404.9z"/>
<g>
	<path class="st0" d="M-211.9,400.9c-0.4,0-0.8-0.2-1.1-0.5c-5.2-5.8-8.1-13.3-8.1-21.1c0-7.8,2.9-15.3,8.1-21.1
		c0.6-0.6,1.5-0.7,2.1-0.1c0.6,0.6,0.7,1.5,0.1,2.1c-4.7,5.3-7.3,12.1-7.3,19.1c0,7.1,2.6,13.9,7.3,19.1c0.6,0.6,0.5,1.6-0.1,2.1
		C-211.2,400.8-211.6,400.9-211.9,400.9z"/>
</g>
</svg>
