<?xml version="1.0" encoding="utf-8"?>
<!-- Generator: Adobe Illustrator 19.0.0, SVG Export Plug-In . SVG Version: 6.00 Build 0)  -->
<svg version="1.1" id="Layer_1" xmlns="http://www.w3.org/2000/svg" xmlns:xlink="http://www.w3.org/1999/xlink" x="0px" y="0px"
	 viewBox="-265 348 79.9 98" style="enable-background:new -265 348 79.9 98;" xml:space="preserve">
<style type="text/css">
	.st0{fill:#FFFFFF;}
</style>
<title>Blackspike_Octohedron</title>
<path class="st0" d="M-194,378.8l-30.4-17.5c-0.2-0.2-0.5-0.2-0.8,0l-30.4,17.5c-0.2,0.2-0.4,0.4-0.4,0.7v35c0,0.2,0,0.2,0.1,0.4
	l0,0l0,0c0.1,0.1,0.2,0.2,0.3,0.3l0,0l30.4,17.5c0.2,0.2,0.5,0.2,0.8,0l30.4-17.5c0.2-0.2,0.4-0.4,0.4-0.7v-35
	C-193.5,379.2-193.7,378.9-194,378.8z M-195.2,411.6l-27.4-47.5l27.4,15.8V411.6z M-195.7,413.7h-58l29-50.2L-195.7,413.7z
	 M-226.8,364.1l-27.4,47.5v-31.7L-226.8,364.1z M-224.7,431.2l-27.5-15.9h54.9L-224.7,431.2z"/>
</svg>
