<?xml version="1.0" encoding="utf-8"?>
<!-- Generator: Adobe Illustrator 19.0.0, SVG Export Plug-In . SVG Version: 6.00 Build 0)  -->
<svg version="1.1" id="Layer_1" xmlns="http://www.w3.org/2000/svg" xmlns:xlink="http://www.w3.org/1999/xlink" x="0px" y="0px"
	 viewBox="-255 334 100 103.5" style="enable-background:new -255 334 100 103.5;" xml:space="preserve">
<g>
	<path d="M-182.6,359.2c6.5,0,11.7-5.3,11.7-11.7s-5.3-11.7-11.7-11.7c-6.5,0-11.7,5.3-11.7,11.7S-189.1,359.2-182.6,359.2z
		 M-182.6,337.7c5.4,0,9.8,4.4,9.8,9.8s-4.4,9.8-9.8,9.8c-5.4,0-9.8-4.4-9.8-9.8S-188,337.7-182.6,337.7z"/>
	<path d="M-185.1,349.6c-0.2-0.3-0.7-0.3-0.9-0.1c-0.3,0.2-0.3,0.7-0.1,0.9c0.1,0.1,1.4,1.6,3.4,1.7h0.1c1.2,0,2.4-0.6,3.4-1.7
		c0.3-0.3,0.2-0.7,0-0.9c-0.3-0.3-0.7-0.2-0.9,0c-0.8,0.9-1.7,1.3-2.5,1.3C-184.1,350.8-185.1,349.7-185.1,349.6z"/>
	<circle cx="-185.5" cy="345.4" r="1.5"/>
	<circle cx="-179.7" cy="345.4" r="1.5"/>
	<path d="M-241.2,409.8c-6.5,0-11.7,5.2-11.7,11.7s5.3,11.7,11.7,11.7c6.4,0,11.7-5.3,11.7-11.7S-234.8,409.8-241.2,409.8z
		 M-241.2,431.3c-5.4,0-9.8-4.4-9.8-9.8s4.4-9.8,9.8-9.8c5.4,0,9.8,4.4,9.8,9.8S-235.8,431.3-241.2,431.3z"/>
	<path d="M-238.7,423.6c-0.8,0.9-1.7,1.3-2.5,1.3c-1.4,0-2.4-1.2-2.4-1.2c-0.2-0.3-0.7-0.3-0.9-0.1c-0.3,0.2-0.3,0.7-0.1,0.9
		c0.1,0.1,1.4,1.6,3.4,1.7h0.1c1.2,0,2.4-0.6,3.4-1.7c0.3-0.3,0.2-0.7,0-0.9C-238.1,423.3-238.5,423.3-238.7,423.6z"/>
	<circle cx="-244.1" cy="419.4" r="1.5"/>
	<circle cx="-238.3" cy="419.4" r="1.5"/>
	<path d="M-202.8,411.5c-0.8-0.7-2-0.7-2.7,0l-5.3,5.5l-5.3-5.5c-0.7-0.8-1.9-0.8-2.7,0c-0.8,0.7-0.8,1.9,0,2.7l5.4,5.6l-5.4,5.6
		c-0.7,0.8-0.7,2,0,2.7c0.4,0.4,0.8,0.5,1.3,0.5s1-0.2,1.4-0.6l5.3-5.5l5.3,5.5c0.4,0.4,0.9,0.6,1.4,0.6s1-0.2,1.3-0.5
		c0.8-0.7,0.8-1.9,0-2.7l-5.4-5.6l5.4-5.6C-202,413.5-202,412.3-202.8,411.5z"/>
	<path d="M-163.1,409.4l5.4-5.6c0.7-0.8,0.7-2,0-2.7c-0.8-0.7-2-0.7-2.7,0l-5.3,5.5l-5.3-5.5c-0.7-0.8-1.9-0.8-2.7,0
		c-0.8,0.7-0.8,1.9,0,2.7l5.4,5.6l-5.5,5.6c-0.7,0.8-0.7,2,0,2.7c0.4,0.4,0.8,0.5,1.3,0.5s1-0.2,1.4-0.6l5.3-5.5l5.3,5.5
		c0.4,0.4,0.9,0.6,1.4,0.6s1-0.2,1.3-0.5c0.8-0.7,0.8-1.9,0-2.7L-163.1,409.4z"/>
	<path d="M-232.6,373.4c0.4,0.4,0.8,0.5,1.3,0.5s1-0.2,1.4-0.6l5.3-5.5l5.3,5.5c0.4,0.4,0.9,0.6,1.4,0.6s1-0.2,1.3-0.5
		c0.8-0.7,0.8-1.9,0-2.7l-5.4-5.6l5.4-5.6c0.7-0.8,0.7-2,0-2.7c-0.8-0.7-2-0.7-2.7,0l-5.3,5.5l-5.3-5.5c-0.7-0.8-1.9-0.8-2.7,0
		c-0.8,0.7-0.8,1.9,0,2.7l5.4,5.6l-5.4,5.6C-233.3,371.5-233.3,372.7-232.6,373.4z"/>
	<circle cx="-241.2" cy="404.6" r="1.9"/>
	<circle cx="-238.3" cy="396.4" r="1.9"/>
	<circle cx="-231.2" cy="391.3" r="1.9"/>
	<circle cx="-223" cy="389.4" r="1.9"/>
	<circle cx="-214.8" cy="389.4" r="1.9"/>
	<circle cx="-206" cy="389.4" r="1.9"/>
	<path d="M-173.3,371.4l-7.3-6.8c-0.7-0.6-1.7-0.7-2.4-0.1c-0.1,0-0.2,0-0.2,0c-0.3,0.1-0.6,0.3-0.8,0.5c0,0,0,0-0.1,0.1l-7.3,6.8
		c-0.8,0.7-0.8,1.9-0.1,2.7c0.4,0.4,0.9,0.6,1.4,0.6s0.9-0.2,1.3-0.5l5-4.6c0.5,3.9-0.2,7.8-2.1,10.8c-2.3,3.7-6.2,6-11.2,6.8
		c-1,0.2-1.8,1.1-1.6,2.2c0.1,0.9,1,1.6,1.9,1.6c0.1,0,0.2,0,0.3,0c6.2-1,11-3.9,13.9-8.5c2.2-3.6,3.2-8,2.8-12.5l4.1,3.8
		c0.4,0.3,0.8,0.5,1.3,0.5s1-0.2,1.4-0.6C-172.5,373.3-172.5,372.1-173.3,371.4z"/>
</g>
</svg>
