<svg xmlns="http://www.w3.org/2000/svg" viewBox="-273 357 64 66.5"><path d="M-215 362.5h-52c-.3 0-.5.2-.5.5v52c0 .3.2.5.5.5h52c.3 0 .5-.2.5-.5v-52c0-.3-.2-.5-.5-.5zm-.5 1v7h-51v-7h51zm-51 51v-43h51v43h-51z"/><circle cx="-233" cy="367" r="2"/><circle cx="-227" cy="367" r="2"/><circle cx="-221" cy="367" r="2"/><path d="M-219 374.5h-44c-.3 0-.5.2-.5.5v22c0 .3.2.5.5.5h44c.3 0 .5-.2.5-.5v-22c0-.3-.2-.5-.5-.5zm-.5 22h-43v-21h43v21zm-25.5 6h-18c-.3 0-.5.2-.5.5s.2.5.5.5h18c.3 0 .5-.2.5-.5s-.2-.5-.5-.5zm26 0h-18c-.3 0-.5.2-.5.5s.2.5.5.5h18c.3 0 .5-.2.5-.5s-.2-.5-.5-.5zm-26 4h-18c-.3 0-.5.2-.5.5s.2.5.5.5h18c.3 0 .5-.2.5-.5s-.2-.5-.5-.5zm26 0h-18c-.3 0-.5.2-.5.5s.2.5.5.5h18c.3 0 .5-.2.5-.5s-.2-.5-.5-.5zm-26 4h-18c-.3 0-.5.2-.5.5s.2.5.5.5h18c.3 0 .5-.2.5-.5s-.2-.5-.5-.5zm26 0h-18c-.3 0-.5.2-.5.5s.2.5.5.5h18c.3 0 .5-.2.5-.5s-.2-.5-.5-.5z"/></svg>