<svg id="Layer_1" xmlns="http://www.w3.org/2000/svg" viewBox="-255 338 100 93"><style>.st0{fill:#fff}</style><path class="st0" d="M-201.1 376.5c-1.2-.7-2.6-1.1-4.1-1.1-2.9 0-5.6 1.6-7.1 4.1-2.2 3.9-.9 8.9 3 11.1 1.2.7 2.6 1.1 4.1 1.1 2.9 0 5.6-1.6 7.1-4.1 1.1-1.9 1.4-4.1.8-6.2-.6-2.1-1.9-3.8-3.8-4.9zm.4 9.6c-.9 1.6-2.6 2.6-4.5 2.6-.9 0-1.8-.2-2.6-.7-2.5-1.4-3.3-4.6-1.9-7 .9-1.6 2.6-2.6 4.5-2.6.9 0 1.8.2 2.6.7 1.2.7 2 1.8 2.4 3.1.4 1.3.2 2.7-.5 3.9z"/><path class="st0" d="M-162.7 384c0-6.2-8.3-10.6-19.6-13.1 3.5-11 3.8-20.4-1.6-23.5-1-.6-2.2-.9-3.5-.9-4.8 0-11.2 4.2-17.7 11.3-6.5-7-12.9-11.3-17.7-11.3-1.3 0-2.5.3-3.5.9-5.4 3.1-5 12.5-1.6 23.5-11.2 2.5-19.6 6.9-19.6 13.1 0 6.2 8.4 10.6 19.6 13.1-.7 2.3-1.3 4.5-1.7 6.6-1.7 8.7-.5 14.6 3.3 16.8 1 .6 2.2.9 3.5.9 4.8 0 11.2-4.2 17.7-11.3 6.5 7 12.9 11.3 17.7 11.3 1.3 0 2.5-.3 3.5-.9 3.8-2.2 5-8.2 3.3-16.8-.4-2.1-1-4.3-1.7-6.6 11.2-2.5 19.6-6.9 19.6-13.1zm-24.6-34.5c.8 0 1.4.2 2 .5 3.3 1.9 3.4 9.7.1 20.3-3.5-.6-7.2-1.1-11-1.4-2.2-3.2-4.5-6.2-6.7-8.9 6.3-6.9 12-10.5 15.6-10.5zm-6.9 40.7c-1.2 2.1-2.5 4.1-3.7 6-2.3.1-4.6.2-7 .2-2.4 0-4.8-.1-7.1-.2-1.2-1.9-2.5-3.9-3.7-6-1.2-2.1-2.3-4.2-3.3-6.2 1-2.1 2.1-4.1 3.3-6.2 1.2-2.1 2.5-4.1 3.7-6 2.3-.1 4.6-.2 7.1-.2 2.4 0 4.8.1 7 .2 1.2 1.9 2.5 3.9 3.7 6 1.2 2.1 2.3 4.1 3.3 6.2-1 2-2.1 4.1-3.3 6.2zm4.9-2.8c1.2 2.5 2.2 5 3.1 7.4-2.5.5-5.1.8-8 1.1.9-1.4 1.7-2.8 2.5-4.2.9-1.4 1.7-2.8 2.4-4.3zm-10.8 11.9c-1.7 2.3-3.3 4.4-4.9 6.4-1.6-1.9-3.3-4-4.9-6.4 1.6.1 3.3.1 4.9.1s3.3 0 4.9-.1zm-15.7-3.4c-2.8-.3-5.5-.6-8-1.1.9-2.4 1.9-4.9 3.1-7.4.8 1.5 1.5 2.9 2.4 4.3.8 1.4 1.6 2.8 2.5 4.2zm-4.9-15.3c-1.2-2.6-2.2-5.1-3-7.4 2.5-.5 5.1-.8 7.9-1.1-.9 1.4-1.7 2.8-2.5 4.2-.9 1.4-1.7 2.9-2.4 4.3zm10.8-11.9c1.7-2.3 3.3-4.4 4.9-6.4 1.6 1.9 3.3 4 4.9 6.4-1.6-.1-3.3-.1-4.9-.1-1.6 0-3.3 0-4.9.1zm18.3 7.6c-.8-1.4-1.7-2.8-2.5-4.2 2.8.3 5.5.6 7.9 1.1-.8 2.4-1.9 4.9-3 7.4-.8-1.4-1.6-2.9-2.4-4.3zm-33-26.3c.6-.3 1.2-.5 2-.5 3.5 0 9.3 3.6 15.6 10.5-2.3 2.6-4.5 5.6-6.7 8.9-3.8.3-7.5.7-11 1.4-3.4-10.6-3.2-18.4.1-20.3zm-19.7 34c0-3.8 6.7-7.8 17.5-10.2 1.2 3.4 2.7 6.8 4.3 10.2-1.7 3.5-3.1 6.9-4.3 10.2-10.8-2.4-17.5-6.4-17.5-10.2zm21.6 34.5c-.8 0-1.4-.2-2-.5-2.5-1.5-3.2-6.6-1.8-13.7.4-2.1 1-4.3 1.7-6.6 3.5.6 7.2 1.1 11 1.4 2.2 3.2 4.5 6.2 6.7 8.9-6.3 6.9-12 10.5-15.6 10.5zm39.2-14.2c1.4 7.1.7 12.2-1.8 13.7-.6.3-1.2.5-2 .5-3.5 0-9.3-3.6-15.6-10.5 2.3-2.6 4.5-5.6 6.7-8.9 3.8-.3 7.5-.7 11-1.4.7 2.3 1.2 4.5 1.7 6.6zm.2-10.1c-1.2-3.3-2.6-6.8-4.3-10.2 1.6-3.4 3.1-6.9 4.3-10.2 10.9 2.4 17.5 6.5 17.5 10.2s-6.6 7.8-17.5 10.2z"/></svg>