<svg xmlns="http://www.w3.org/2000/svg" viewBox="-255 345 100 104"><path d="M-195.5 386.6c0-2-1.6-3.6-3.6-3.6s-3.6 1.6-3.6 3.6 1.6 3.6 3.6 3.6c2-.1 3.6-1.7 3.6-3.6zm-3.6.1c-.1 0-.1 0-.1-.1s0-.1.1-.1.1 0 .1.1c0 0 0 .1-.1.1zm-4 7.3c-.3-.6-.9-.9-1.6-.9h-4.8c-.7 0-1.3.3-1.6.9l-2.4 4.1c-.3.6-.3 1.3 0 1.8l2.4 4.1c.3.6.9.9 1.6.9h4.8c.7 0 1.3-.3 1.6-.9l2.4-4.1c.3-.6.3-1.3 0-1.8l-2.4-4.1zm-2.7 7.4h-2.7l-1.3-2.3 1.3-2.3h2.7l1.3 2.3-1.3 2.3z"/><path d="M-168.7 391.8h-4.6v-28.3c0-3.6-2.9-6.5-6.5-6.5h-28.4l-7.7-8.7c-.7-.8-1.8-.8-2.6-.2-.8.7-.8 1.8-.2 2.6l5.6 6.3h-5.3c-3.6 0-6.5 2.9-6.5 6.5v9c-3.1 2-5.2 5.4-5.2 9.4 0 3.9 2.1 7.4 5.2 9.4v23.5l-16.8 5.7c-.6.2-1.1.7-1.2 1.3-.1.6 0 1.3.5 1.7l22.4 22.4c.3.3.8.5 1.3.5h.4c.6-.1 1.1-.6 1.3-1.2l2.6-7.6h34.5c3.6 0 6.5-2.9 6.5-6.5v-18.2h4.6c1 0 1.8-.8 1.8-1.8v-17.5c.2-1-.7-1.8-1.7-1.8zm-57.7-10c0-1.7.6-3.2 1.5-4.5v9c-.9-1.2-1.5-2.8-1.5-4.5zm7 59.4l-18.2-18.2 12.8-4.4V431c0 3.6 2.9 6.5 6.5 6.5h.2l-1.3 3.7zM-177 431c0 1.6-1.3 2.8-2.8 2.8h-38.6c-1.6 0-2.8-1.3-2.8-2.8v-67.5c0-1.6 1.3-2.8 2.8-2.8h38.6c1.6 0 2.8 1.3 2.8 2.8V431zm6.5-21.8h-2.8v-13.8h2.8v13.8z"/><path d="M-180.9 365.4h-36.3c-1 0-1.8.8-1.8 1.8v51c0 1 .8 1.8 1.8 1.8h36.3c1 0 1.8-.8 1.8-1.8v-51c0-.9-.8-1.8-1.8-1.8zm-34.5 9.9c2.3 1.3 3.9 3.7 3.9 6.5s-1.6 5.3-3.9 6.5v-13zm0 40.1l5.3-1.8-1 2.9h-4.3v-1.1zm8.2 1.1l1.8-5.2c.2-.7.1-1.4-.4-1.9s-1.2-.7-1.9-.4l-7.7 2.6v-19.2c4.4-1.5 7.6-5.6 7.6-10.5s-3.2-9-7.6-10.5v-2.2h13l14 15.9c.4.4.9.6 1.4.6.4 0 .9-.2 1.2-.5.8-.7.8-1.8.2-2.6l-11.9-13.5h14.7v22.7H-196c-1 0-1.8.8-1.8 1.8v17.5c0 1 .8 1.8 1.8 1.8h13.2v3.6h-24.4zm24.5-21.1v13.8H-194v-13.8h11.3zm-16.4 26.5c-2.7 0-5 2.2-5 5 0 2.7 2.2 5 5 5 2.7 0 5-2.2 5-5s-2.2-5-5-5zm0 6.3c-.7 0-1.3-.6-1.3-1.3s.6-1.3 1.3-1.3 1.3.6 1.3 1.3c0 .7-.5 1.3-1.3 1.3z"/></svg>