<svg id="Layer_1" xmlns="http://www.w3.org/2000/svg" viewBox="-255 334 100 101.5"><style>.st0{display:none}.st1{display:inline}.st2{fill:none}</style><g class="st0"><g class="st1"><path d="M-365 88.5H815v835.6H-365z"/><path d="M815.5 924.6h-1181V87.9h1181v836.7zm-1180-1.1h1179V89h-1179v834.5z"/></g></g><path class="st2" d="M-205 373.6c-5.7 0-10.4 4.6-10.4 10.4s4.6 10.4 10.4 10.4 10.4-4.6 10.4-10.4-4.7-10.4-10.4-10.4zm0 15.2c-2.7 0-4.8-2.2-4.8-4.8s2.2-4.8 4.8-4.8 4.8 2.2 4.8 4.8-2.1 4.8-4.8 4.8z"/><circle class="st2" cx="-205" cy="384" r="1.7"/><path class="st2" d="M-232.2 379.7c-2 1.9-3.5 3.6-4.3 4.6.8 1 2.3 2.7 4.3 4.6 1-1.3 1.5-2.9 1.5-4.6 0-1.7-.6-3.3-1.5-4.6zm54.4-.1c-1 1.3-1.5 2.9-1.5 4.6 0 1.7.5 3.3 1.5 4.6 2-1.9 3.5-3.6 4.3-4.6-.8-.9-2.3-2.6-4.3-4.6z"/><path class="st2" d="M-178.6 378.9c-5.9-5.5-15.6-12.7-26.4-12.7-10.9 0-20.6 7.2-26.5 12.7 1.1 1.5 1.8 3.4 1.8 5.3s-.6 3.8-1.8 5.3c5.9 5.5 15.6 12.7 26.5 12.7 10.8 0 20.6-7.2 26.4-12.7-1.1-1.5-1.8-3.4-1.8-5.3.1-1.9.7-3.7 1.8-5.3zm-26.4 18.6c-7.4 0-13.5-6-13.5-13.5s6-13.5 13.5-13.5 13.5 6 13.5 13.5-6.1 13.5-13.5 13.5z"/><path d="M-185.4 350.1c1.4.8 3.2.3 4-1.1.8-1.4.3-3.2-1.1-4-.5-.3-1-.4-1.5-.4-.3 0-.5 0-.8.1-.8.2-1.4.7-1.8 1.4-.7 1.4-.3 3.2 1.2 4zm-39.2 67.8c-1.4-.8-3.2-.3-4 1.1-.8 1.4-.3 3.2 1.1 4 .7.4 1.5.5 2.2.3.8-.2 1.4-.7 1.8-1.4.8-1.4.4-3.2-1.1-4zm57.5-52.4c.7-.4 1.2-1 1.4-1.8.2-.8.1-1.6-.3-2.2-.8-1.4-2.6-1.9-4-1.1-1.4.8-1.9 2.6-1.1 4 .8 1.5 2.6 1.9 4 1.1zm-74.3 36.6c-.5 0-1 .1-1.5.4-.7.4-1.2 1-1.4 1.8-.2.8-.1 1.6.3 2.2.8 1.4 2.6 1.9 4 1.1 1.4-.8 1.9-2.6 1.1-4-.5-1-1.5-1.5-2.5-1.5z"/><circle cx="-162.9" cy="384" r="2.9"/><circle cx="-247.1" cy="384" r="2.9"/><path d="M-167.1 402.5c-.5-.3-1-.4-1.5-.4-1 0-2 .5-2.6 1.5-.8 1.4-.3 3.2 1.1 4 1.4.8 3.2.3 4-1.1.4-.7.5-1.5.3-2.2-.1-.8-.6-1.4-1.3-1.8zm-75.8-37c1.4.8 3.2.3 4-1.1.8-1.4.3-3.2-1.1-4-.5-.3-1-.4-1.5-.4-1 0-2 .5-2.6 1.5-.4.7-.5 1.5-.3 2.2.3.8.8 1.4 1.5 1.8zm58.9 52c-.5 0-1 .1-1.5.4-1.4.8-1.9 2.6-1.1 4 .4.7 1 1.2 1.8 1.4.8.2 1.6.1 2.2-.3 1.4-.8 1.9-2.6 1.1-4-.5-1-1.5-1.5-2.5-1.5zm-40.6-67.4c1.4-.8 1.9-2.6 1.1-4-.4-.7-1-1.2-1.8-1.4-.3-.1-.5-.1-.8-.1-.5 0-1 .1-1.5.4-1.4.8-1.9 2.6-1.1 4 .9 1.5 2.7 1.9 4.1 1.1z"/><circle cx="-205" cy="426.1" r="2.9"/><circle cx="-205" cy="341.9" r="2.9"/><path d="M-169.5 384.2l-.7-.9c-.6-.8-15.7-20.1-34.8-20.1s-34.1 19.3-34.8 20.1l-.7.9.7.9c.6.8 15.7 20.1 34.8 20.1s34.1-19.3 34.8-20.1l.7-.9zm-67 0c.8-1 2.3-2.7 4.3-4.6 1 1.3 1.5 2.9 1.5 4.6 0 1.7-.5 3.3-1.5 4.6-2-1.9-3.5-3.6-4.3-4.6zm31.5 18c-10.8 0-20.6-7.2-26.5-12.7 1.1-1.5 1.8-3.4 1.8-5.3s-.6-3.8-1.8-5.3c5.9-5.5 15.6-12.7 26.5-12.7 10.8 0 20.6 7.2 26.4 12.7-1.1 1.5-1.8 3.4-1.8 5.3s.6 3.8 1.8 5.3c-5.8 5.6-15.6 12.7-26.4 12.7zm27.2-13.3c-1-1.3-1.5-2.9-1.5-4.6 0-1.7.5-3.3 1.5-4.6 2 1.9 3.5 3.6 4.3 4.6-.8.9-2.3 2.6-4.3 4.6z"/><path d="M-205 370.5c-7.4 0-13.5 6-13.5 13.5s6 13.5 13.5 13.5 13.5-6 13.5-13.5-6.1-13.5-13.5-13.5zm0 23.9c-5.7 0-10.4-4.6-10.4-10.4s4.6-10.4 10.4-10.4 10.4 4.6 10.4 10.4-4.7 10.4-10.4 10.4z"/><path d="M-205 379.2c-2.7 0-4.8 2.2-4.8 4.8s2.2 4.8 4.8 4.8 4.8-2.2 4.8-4.8-2.1-4.8-4.8-4.8zm0 6.5c-.9 0-1.7-.8-1.7-1.7s.8-1.7 1.7-1.7 1.7.8 1.7 1.7-.8 1.7-1.7 1.7z"/></svg>