<svg id="Layer_1" xmlns="http://www.w3.org/2000/svg" viewBox="-255 334 100 100.5"><style>.st0{fill:none;stroke:#000;stroke-linecap:round;stroke-linejoin:round;stroke-miterlimit:10}</style><path class="st0" d="M-245 344v8.2h6.2l1.6-3.2c.3-.5.9-.9 1.5-.9h10.3c.6 0 1.2.4 1.5.9l1.6 3.2h47.4V344H-245zm5 15h8.2v3.1h-8.2zm12.4 0h16.5v3.1h-16.5zm-4.2 6.2h16.5v3.1h-16.5zm20.6 0h12.4v3.1h-12.4zm-20.6 6.2h4.1v3.1h-4.1zm8.3 0h20.6v3.1h-20.6zm-8.3 6.1h12.4v3.1h-12.4zm-8.2 6.2h4.1v3.1h-4.1zm8.2 0h20.6v3.1h-20.6zm24.7 0h4.1v3.1h-4.1z"/><path class="st0" d="M-180.7 346.6h3.1v3.1h-3.1zm-5.1 0h3.1v3.1h-3.1zm-5.2 0h3.1v3.1h-3.1zm-22.7 2.4c-.3-.5-.9-.9-1.5-.9h-10.3c.6 0 1.2.4 1.5.9l1.6 3.2h10.2l-1.5-3.2zm34.6 23.8h-5 5zm4.2 0h-1.7 1.7zm-4.6 46.6c0 1.1-.9 2.1-2.1 2.1s-2.1-.9-2.1-2.1c0-1.1.9-2.1 2.1-2.1s2.1 1 2.1 2.1z"/><path class="st0" d="M-165 374.4c0-2.7-2.2-5-5-5h-23.1c-2.7 0-5 2.2-5 5V419c0 2.7 2.2 5 5 5h23.1c2.7 0 5-2.2 5-5v-44.6z"/><path class="st0" d="M-194.5 377h26v37.8h-26z"/><path class="st0" d="M-190.3 389h17.5v5h-17.5zm0 8.8h17.5v5h-17.5zm-19 4.4h11.3v3.1h-11.3zm0-6.1h11.3v3.1h-11.3zm-22.5-6.2h33.7v3.1h-33.7zm16.5-12.4h17.2v3.1h-17.2zm-3.3 32.5c0 3.5-2.9 6.4-6.4 6.4-3.5 0-6.4-2.9-6.4-6.4 0-3.5 2.9-6.4 6.4-6.4 3.5 0 6.4 2.9 6.4 6.4z"/><path class="st0" d="M-221 419.7c1.6-.7 3.5 0 4.3 1.5 1.1-.8 2-1.7 2.8-2.8-1.5-.9-2.2-2.7-1.5-4.3.7-1.6 2.5-2.5 4.1-2 .1-.6.2-1.3.2-2s-.1-1.3-.2-2c-1.7.5-3.5-.4-4.1-2-.7-1.6 0-3.5 1.5-4.3-.8-1.1-1.7-2-2.8-2.8-.9 1.5-2.7 2.2-4.4 1.5-1.6-.7-2.5-2.5-2-4.1-.7-.1-1.3-.2-2-.2s-1.3.1-2 .2c.4 1.7-.4 3.5-2 4.1-1.6.7-3.5 0-4.3-1.5-1.1.8-2 1.7-2.8 2.8 1.5.9 2.2 2.7 1.5 4.3-.7 1.6-2.5 2.5-4.1 2-.1.6-.2 1.3-.2 2s.1 1.3.2 2c1.7-.5 3.5.4 4.1 2 .7 1.6 0 3.5-1.5 4.3.8 1.1 1.7 2 2.8 2.8.9-1.5 2.7-2.2 4.3-1.5 1.6.7 2.5 2.5 2 4.1.7.1 1.3.2 2 .2s1.3-.1 2-.2c-.4-1.6.5-3.4 2.1-4.1z"/><path class="st0" d="M-222.4 352.2l-1.6-3.2c-.3-.5-.9-.9-1.5-.9h-10.3c-.6 0-1.2.4-1.5.9l-1.6 3.2h-6.2V414h10.3c-.7-1.6-2.5-2.4-4.1-2-.1-.7-.2-1.3-.2-2s.1-1.3.2-2c1.7.5 3.5-.4 4.1-2 .7-1.6 0-3.5-1.5-4.3.8-1.1 1.7-2 2.8-2.8.9 1.5 2.7 2.2 4.3 1.5 1.6-.7 2.5-2.5 2-4.1.7-.1 1.3-.2 2-.2s1.3.1 2 .2c-.5 1.7.4 3.5 2 4.1 1.6.7 3.5 0 4.4-1.5 1.1.8 2 1.7 2.8 2.8-1.5.9-2.2 2.7-1.5 4.3.7 1.6 2.5 2.5 4.1 2 .1.7.2 1.3.2 2s-.1 1.3-.2 2c-1.7-.4-3.4.4-4.1 2h17.2v-39.6c0-2.7 2.2-5 5-5h18.1v-17.2h-47.2z"/></svg>