<svg id="Layer_1" xmlns="http://www.w3.org/2000/svg" viewBox="-255 337.5 100 114.2"><style>.st0{fill:#fff}</style><path class="st0" d="M-219.6 406.4l-18.7 24.2c-1.8 2.3-2.2 5.3-1 7.9 1.2 2.6 3.8 4.2 6.7 4.2h54.3c3.1 0 5.9-1.8 7.1-4.5s1-6-1-8.3l-18-23.2c-3-3.7-4.6-8.3-4.6-13.1l-.1-7.8c2.5-.7 4.4-3.1 4.4-6.3 0-3.6-2.5-6.4-5.6-6.4h-18c-3.1 0-5.6 2.9-5.6 6.4 0 3.3 2.2 5.9 4.9 6.3l-.1 7.6c0 4.8-1.7 9.3-4.7 13zm34 14.5l9.6 12.3c1 1.1.4 2.3.3 2.6-.1.3-.8 1.4-2.2 1.4h-54.5c-1.1 0-1.6-.8-1.8-1.1-.1-.4-.4-1.2.3-2.2l10.1-13h38.2zm-28.4-42.5h17.9c.1.1.3.4.3 1 0 .5-.1.8-.3 1H-214c-.1-.1-.3-.4-.3-1 .1-.6.3-.8.3-1zm4.5 15.2l.1-7.8h9.3l.1 7.6c0 6 2.2 11.9 5.9 16.5l4.2 5.5h-29.8l4.4-5.6c3.8-4.6 5.8-10.3 5.8-16.2zm-3.8-50.4c-4.5 0-8.2 3.7-8.2 8.2s3.7 8.2 8.2 8.2 8.2-3.7 8.2-8.2-3.7-8.2-8.2-8.2zm0 10.9c-1.5 0-2.7-1.2-2.7-2.7 0-1.5 1.2-2.7 2.7-2.7s2.7 1.2 2.7 2.7c.1 1.5-1.2 2.7-2.7 2.7zm22 8.8c0-3.7-3-6.6-6.6-6.6-3.6 0-6.6 3-6.6 6.6s3 6.6 6.6 6.6c3.6-.1 6.6-3.1 6.6-6.6zm-7.8 0c0-.7.5-1.1 1.1-1.1s1.1.5 1.1 1.1-.5 1.1-1.1 1.1-1.1-.6-1.1-1.1zm-12.7-.6c-2.5 0-4.4 1.9-4.4 4.4 0 2.5 1.9 4.4 4.4 4.4s4.4-1.9 4.4-4.4c0-2.5-1.9-4.4-4.4-4.4zm0 5.5c-.7 0-1.1-.5-1.1-1.1 0-.5.5-1.1 1.1-1.1.7 0 1.1.5 1.1 1.1 0 .5-.4 1.1-1.1 1.1z"/></svg>