<svg width="813" height="779" viewBox="0 0 813 779" xmlns="http://www.w3.org/2000/svg"><title>HalfHelix_Circle</title><desc>Created with Sketch.</desc><g style="mix-blend-mode:soft-light" fill="#fff"><path id="H" style="mix-blend-mode:screen" d="M443.836.507V50.46H394.97V.508h-23.902v123.998h23.902V72.957h48.866v51.548h23.9V.507z"/><path d="M698.718 102.354l-23.87-20.037-111.736 68.116 19.53 16.394 24.07-15.183 35.533 29.827-10.78 26.34 19.528 16.393 47.725-121.85zM553.822 90.32l38.392-23.98 3.255 2.733-16.965 41.967-24.683-20.72z" style="mix-blend-mode:screen"/><path id="L" style="mix-blend-mode:screen" d="M713.71 324.635l99.28-17.538-4.312-24.415-122.14 21.576 14.82 83.883 22.857-4.037z"/><path style="mix-blend-mode:screen" d="M693.253 620.573l19.483 11.248 40.81-70.682-43.414-25.065-63.97-36.934-11.862 20.545 45.1 26.04-23.635 40.937 18.87 10.894 23.635-40.938 23.93 13.817z"/><path style="mix-blend-mode:screen" d="M505.767 770.075l-17.085-46.957 45.934-16.712 17.084 46.957 22.468-8.175L531.76 628.63l-22.467 8.174 17.63 48.455-45.934 16.71-17.63-48.454-22.468 8.174L483.3 778.25z"/><path style="mix-blend-mode:screen" d="M294.772 659.694L284.655 687.5l-49.928-18.164-7.572 20.814 49.927 18.165-9.572 26.31-54.92-19.983-7.573 20.814 76.722 27.914 42.407-116.558-78.387-28.52-7.573 20.814z"/><path style="mix-blend-mode:screen" d="M125.434 534.32l-87.287 50.397 12.394 21.465 107.384-62-42.58-73.748-20.097 11.603z"/><path style="mix-blend-mode:screen" d="M5 297.47L.718 321.71l122.138 21.577 4.282-24.24z"/><path style="mix-blend-mode:screen" d="M255.3 160.553l21.563-18.1-71.497-23.484-10.132-69.907-21.157 17.76 7.932 51.86-1.9 1.594-49.702-16.798-21.564 18.1 67.093 22.092 10.74 74.485L208.78 199.6l-8.718-55.827 1.9-1.593z"/></g></svg>