<svg width="813" height="779" viewBox="0 0 813 779" xmlns="http://www.w3.org/2000/svg"><title>HalfHelix_Circle</title><path style="mix-blend-mode:screen" d="M443.836.507V50.46H394.97V.507h-23.902v123.998h23.902V72.957h48.866v51.548h23.901V.507zm254.869 101.841l-23.87-20.03-111.713 68.13 19.53 16.389 24.067-15.186 35.535 29.817-10.776 26.339 19.53 16.387 47.697-121.846zm-72.441 37.03l38.383-23.985 3.255 2.732-16.954 41.965-24.684-20.713zm87.46 185.246l99.262-17.503-4.304-24.41-122.115 21.532 14.788 83.867 22.853-4.03zm-20.47 295.949l19.483 11.249 40.81-70.685-43.415-25.065-63.971-36.934-11.862 20.546 45.102 26.04-23.636 40.938 18.869 10.894 23.636-40.938 23.932 13.817zM505.776 770.056l-17.086-46.941 45.919-16.713 17.085 46.941 22.46-8.175-42.41-116.52-22.46 8.175 17.63 48.439-45.918 16.713-17.63-48.44-22.46 8.175 42.41 116.52zm-211.008-110.35l-10.118 27.798-49.911-18.166-7.573 20.807 49.911 18.167-9.573 26.3-54.902-19.983-7.573 20.807 76.697 27.916 42.41-116.52-78.361-28.522-7.573 20.807zM125.435 534.32l-87.29 50.397 12.394 21.466 107.386-61.999-42.58-73.751-20.097 11.603zM5.008 297.495L.734 321.731l122.115 21.532 4.273-24.236zm250.279-136.932l21.565-18.095-71.485-23.495-10.118-69.9-21.158 17.753 7.92 51.857-1.898 1.594-49.694-16.806-21.565 18.095 67.082 22.103 10.724 74.479 22.107-18.55-8.706-55.824 1.899-1.593z" fill="#FFF" fill-rule="evenodd"/></svg>