<svg id="Layer_1" xmlns="http://www.w3.org/2000/svg" viewBox="0 0 612 792"><style>.st0{fill:none;stroke:#000;stroke-width:5;stroke-linecap:round;stroke-linejoin:round;stroke-miterlimit:10}</style><path id="XMLID_58_" class="st0" d="M198.1 108.5v135.1m0 203.3V311.8m0 204.3v133.4m71.8 33.4V549.5m145.5-2.2v134.9m0-202.4V345.6m-.3-68.5V141.7m-72.4 100.4V108.7m-72.6-34.1v338.2m72.6 303.3V379.6M125.5 279.2v337.7m361.4-103.4V175.3M125.5 278.2l72.2 33.4m.5-67.8l71.5 34.1m.7-203.4l72.2 33.8m72.8 32.7l71.5 34.1M125.5 278.2l72.7-34.3m0-135.6l72-33.8m72.7 100.8l72.5-34.3M269.7 277.4l-71 34.1m144.4 67.7L270.8 346m-.4 134.3L198.2 447m71.7 102.1l-71.8-33.3m217.2-170.2l-71.8-34.1m71.3-34.4L343.3 243m-73.1 169.7l72 34.1m1.4-135.3l-72.7 34.3m-1 66.9L198.2 447m144.9-67.8l72.2-33.1M270.7 480.3l71.5-34.1m72.9 101.1l-72.2-33.1m-.3 202.3l-72.7-33.6m-144.3-66l72.5 33.1m217.3-170.4l71.5 33.8m-71.3-33.8l-72.7 34.3m72.2 33.6l71.5-33.8m-144 202.8l72.7-34.3M198.4 650l71.5-34.1"/></svg>