<svg id="Layer_1" xmlns="http://www.w3.org/2000/svg" viewBox="0 0 612 792"><style>.st0{fill:none;stroke:#2b2b2b;stroke-width:20;stroke-linecap:round;stroke-linejoin:round;stroke-miterlimit:10}</style><path id="XMLID_39_" class="st0" d="M198.1 108.5v135.1"/><path id="XMLID_38_" class="st0" d="M198.1 311.8v135.1"/><path id="XMLID_37_" class="st0" d="M198.1 516.1v133.5"/><path id="XMLID_36_" class="st0" d="M269.9 549.5v133.4"/><path id="XMLID_35_" class="st0" d="M415.4 547.3v134.9"/><path id="XMLID_34_" class="st0" d="M415.4 345.6v134.2"/><path id="XMLID_33_" class="st0" d="M415.1 141.7v135.4"/><path id="XMLID_32_" class="st0" d="M342.7 108.7v133.4"/><path id="XMLID_31_" class="st0" d="M270.1 74.6v338.1"/><path id="XMLID_30_" class="st0" d="M342.7 379.6v336.5"/><path id="XMLID_29_" class="st0" d="M125.5 279.2v337.7"/><path id="XMLID_28_" class="st0" d="M486.9 175.3v338.2"/><path id="XMLID_27_" class="st0" d="M125.5 278.2l72.2 33.3"/><path id="XMLID_26_" class="st0" d="M269.7 277.9l-71.5-34.1"/><path id="XMLID_25_" class="st0" d="M342.7 108.3l-72.3-33.8"/><path id="XMLID_24_" class="st0" d="M486.9 175.1L415.4 141"/><path id="XMLID_23_" class="st0" d="M125.5 278.2l72.7-34.4"/><path id="XMLID_22_" class="st0" d="M198.2 108.3l72-33.8"/><path id="XMLID_21_" class="st0" d="M342.9 175.3l72.5-34.3"/><path id="XMLID_20_" class="st0" d="M198.7 311.5l71-34.1"/><path id="XMLID_19_" class="st0" d="M270.8 346l72.3 33.2"/><path id="XMLID_18_" class="st0" d="M198.2 447l72.2 33.3"/><path id="XMLID_17_" class="st0" d="M198.2 515.8l71.7 33.3"/><path id="XMLID_16_" class="st0" d="M415.3 345.6l-71.7-34.1"/><path id="XMLID_15_" class="st0" d="M414.8 277.1L343.3 243"/><path id="XMLID_14_" class="st0" d="M342.2 446.7l-72-34"/><path id="XMLID_13_" class="st0" d="M270.8 345.8l72.8-34.3"/><path id="XMLID_12_" class="st0" d="M198.2 447l71.7-34.3"/><path id="XMLID_11_" class="st0" d="M343.1 379.2l72.2-33.2"/><path id="XMLID_10_" class="st0" d="M270.7 480.3l71.5-34"/><path id="XMLID_9_" class="st0" d="M342.9 514.2l72.2 33.1"/><path id="XMLID_8_" class="st0" d="M269.9 682.9l72.7 33.6"/><path id="XMLID_7_" class="st0" d="M125.6 616.9l72.5 33.1"/><path id="XMLID_6_" class="st0" d="M486.9 513.5l-71.5-33.9"/><path id="XMLID_5_" class="st0" d="M342.9 513.9l72.7-34.3"/><path id="XMLID_4_" class="st0" d="M415.1 547.5l71.6-33.8"/><path id="XMLID_3_" class="st0" d="M342.6 716.5l72.8-34.3"/><path id="XMLID_1_" class="st0" d="M198.4 650l71.5-34.1"/></svg>