<svg xmlns="http://www.w3.org/2000/svg" viewBox="0 0 219.6 401.3" enable-background="new 0 0 219.6 401.3"><style type="text/css">.st0{fill:#FFFFFF;}</style><g id="XMLID_1_"><path id="XMLID_42_" d="M131.8 65.6c11.8-5.9 22.7-10.9 33.2-16.6 4.2-2.3 7.4-2.1 11.6.1 10.2 5.5 20.7 10.6 31.1 15.6 3.3 1.6 4.8 3.3 4.8 7.3-.1 64.4 0 128.8-.3 193.2 0 2.4-2.4 5.9-4.6 7.1-10 5.5-20.2 10.6-30.5 15.3-4 1.9-5.2 4.2-5.2 8.5.2 23 0 46 .2 69 0 4-1 6.3-4.8 8.1-10.9 5.1-21.5 10.9-32.5 15.9-2.4 1.1-6.3 1.1-8.7-.1-11-5-21.6-10.8-32.5-15.9-3.7-1.8-5-4.1-4.9-8.1.3-10.6.1-21.2.1-33.1-12 5.9-22.8 11-33.4 16.7-4 2.1-7 2-10.9-.1-10.4-5.6-21.2-10.5-31.6-16.1-2.1-1.1-4.2-4.4-4.2-6.7-.2-64.6-.2-129.2 0-193.9 0-2.3 2.3-5.5 4.4-6.6 10-5.5 20.2-10.5 30.5-15.3 4-1.8 5.3-4.2 5.3-8.5-.2-22.3.2-44.6-.3-66.9-.1-6.1 1.9-9.1 7.3-11.5 10.1-4.5 19.8-10 30-14.6 2.5-1.1 6.3-1.1 8.8 0 10.6 4.8 20.7 10.5 31.3 15.3 4.4 2 6.2 4.4 6 9.4-.5 10.4-.2 20.8-.2 32.5zM12.2 131.2c-.5 1-.6 1.2-.6 1.4-.1 64.2-.2 128.3-.2 192.5 0 1.6.9 3.9 2.2 4.5 11.2 5.9 22.6 11.4 35.3 17.7V267c13.2 6.6 25.1 12.8 37.3 18.4 4.6 2.1 5.7 5 5.7 9.7-.2 22.6-.2 45.1 0 67.7 0 2.3.5 6 2 6.8 11.3 6.1 22.8 11.7 34.5 17.6V231.7C116.7 237.5 106 243 95.1 248c-2.6 1.2-6.7 1.3-9.4.1-10.6-4.8-20.7-10.5-31.3-15.3-4.6-2.1-5.8-4.8-5.8-9.6.2-22.6.1-45.1 0-67.7 0-2.3-.4-6-1.9-6.8-11.3-6.1-22.9-11.7-34.5-17.5zm160-.6c-13.4-6.7-25.4-12.8-37.5-18.6-4.4-2.1-5.9-4.6-5.9-9.5.3-22.8.2-45.6 0-68.3 0-2.3-.8-5.7-2.3-6.5-11.1-6-22.5-11.4-34.3-17.3v155.5c11.8-5.9 22.7-11.6 33.8-16.7 2.5-1.1 6.3-1.1 8.8 0 10.4 4.7 20.3 10.2 30.7 15 4.8 2.2 6.8 4.8 6.7 10.4-.4 21.1.2 42.3-.4 63.5-.2 7.7 2 11.7 9.1 14.6 9.5 3.9 18.5 9 27.9 13.7.4-1.3.5-1.5.5-1.8.1-63.9.1-127.9.1-191.8 0-1.6-.7-4.2-1.8-4.8-11.4-6-23-11.6-35.5-17.8.1 27.2.1 53.2.1 80.4zm-40 256.7c11.2-5.6 21.6-10.9 32.3-15.9 3.7-1.7 4.9-3.9 4.9-8-.2-18.1-1.3-36.3.3-54.3 1.2-14.7-3.1-23.3-17.3-27.7-6.8-2.1-13.1-6.2-20.1-9.7-.1 39.1-.1 76.9-.1 115.6zM88.1 125.6V10.3c-11.6 5.8-22.4 11-33 16.7-1.7.9-3.3 3.9-3.4 5.9-.2 23.3-.2 46.5-.1 69.8 0 1.9.6 4.7 1.8 5.4 11.3 5.9 22.7 11.5 34.7 17.5zm43.7 141.3c11.9-6 22.2-11.3 32.7-16.2 3.8-1.8 4.9-4 4.8-8-.2-20.2-.1-40.4-.1-60.6V171c-12.3 6.1-23.5 11.5-34.5 17.4-1.6.9-2.7 4.1-2.8 6.2-.2 14.4-.1 28.8-.1 43.2v29.1zm-80.2-40.4c11.5-5.7 21.5-11 31.8-15.7 4.3-2 5.5-4.6 5.4-9.1-.2-21.1-.1-42.3-.1-63.4 0-2-.3-4-.5-7.2-12.2 6.1-23.5 11.7-34.8 17.6-1.1.5-1.8 2.6-1.9 4 .1 23.9.1 48.1.1 73.8zm117.3-100.7V50.5c-12 6-23.4 11.5-34.6 17.5-1.3.7-2.3 3.4-2.3 5.1-.2 10-.2 20 0 29.9 0 1.8.9 4.5 2.2 5.2 11.1 5.9 22.5 11.5 34.7 17.6zM52.2 271.9v75c11.5-5.8 22.3-11 32.9-16.6 1.6-.9 3.4-3.3 3.4-5.1.3-10.4.2-20.8.1-31.3 0-1.6-.9-4-2.1-4.6-11.1-5.9-22.4-11.5-34.3-17.4zm1.2-43c12.2 6.1 23.1 11.7 34 17.1 1.3.6 3.3 1 4.5.5 11.5-5.5 22.9-11.3 35.3-17.5-12.2-6.1-23-11.7-34.1-17-1.6-.8-4.2-.7-5.8 0-11 5.2-21.9 10.8-33.9 16.9zm154.3 40.2c-12.5-6.2-24-12-35.5-17.6-.7-.4-1.9-.5-2.6-.1-11.7 5.7-23.3 11.5-35.9 17.8 12 6 22.7 11.5 33.6 16.6 1.8.9 4.7 1.1 6.4.3 11-5.3 21.9-10.9 34-17zM93.5 168.6c12.2 6.1 23.3 11.8 34.5 17.2 1.4.7 3.7.5 5.2-.2 11.1-5.3 22-10.9 34.2-17-12.5-6.2-24-12-35.6-17.7-.8-.4-2.3-.2-3.2.2-11.4 5.6-22.7 11.3-35.1 17.5zm-80.4-40.3c12.3 6.2 23.2 11.8 34.3 17.1 1.4.7 3.7.8 5.1.1 11.2-5.4 22.3-11.1 34.4-17.2-12.2-6.1-23.4-11.8-34.8-17.3-1.2-.6-3.2-.5-4.5.1-11.1 5.5-22.2 11.1-34.5 17.2zM91.8 171c0 12.4-.1 23.5.1 34.6 0 1.1 1 2.7 2 3.3 11.2 5.8 22.6 11.4 35 17.7 0-12.5.1-23.6-.1-34.7 0-1.1-1-2.7-1.9-3.2-11.3-5.9-22.7-11.5-35.1-17.7z"/><path id="XMLID_13_" class="st0" d="M12.2 131.2c11.6 5.8 23.2 11.4 34.5 17.6 1.4.8 1.8 4.5 1.9 6.8.1 22.6.2 45.1 0 67.7 0 4.8 1.2 7.5 5.8 9.6 10.6 4.8 20.7 10.5 31.3 15.3 2.6 1.2 6.7 1.1 9.4-.1 11-4.9 21.6-10.5 33.2-16.3v155.5c-11.7-5.9-23.3-11.5-34.5-17.6-1.5-.8-1.9-4.4-2-6.8-.1-22.6-.2-45.1 0-67.7 0-4.7-1.1-7.6-5.7-9.7C74 279.8 62 273.6 48.9 267v80.3c-12.6-6.3-24-11.8-35.3-17.7-1.2-.6-2.2-3-2.2-4.5 0-64.2.1-128.3.2-192.5 0-.2.2-.4.6-1.4z"/><path id="XMLID_12_" class="st0" d="M172.2 130.6V50.3c12.5 6.2 24.1 11.9 35.5 17.8 1.1.6 1.8 3.1 1.8 4.8 0 63.9 0 127.9-.1 191.8 0 .2-.1.4-.5 1.8-9.4-4.7-18.4-9.8-27.9-13.7-7.1-2.9-9.3-7-9.1-14.6.6-21.1 0-42.3.4-63.5.1-5.6-1.9-8.2-6.7-10.4-10.3-4.8-20.3-10.3-30.7-15-2.5-1.1-6.4-1.2-8.8 0-11.1 5.1-22 10.8-33.8 16.7V10.5c11.7 5.8 23.1 11.3 34.3 17.3 1.5.8 2.3 4.3 2.3 6.5.2 22.8.3 45.6 0 68.3-.1 4.9 1.5 7.5 5.9 9.5 12 5.7 24 11.8 37.4 18.5z"/><path id="XMLID_11_" class="st0" d="M132.2 387.3V271.7c7 3.5 13.3 7.5 20.1 9.7 14.1 4.4 18.5 13 17.3 27.7-1.5 18-.5 36.2-.3 54.3 0 4-1.2 6.2-4.9 8-10.6 5-21 10.3-32.2 15.9z"/><path id="XMLID_10_" class="st0" d="M131.8 266.9v-29.1c0-14.4-.1-28.8.1-43.2 0-2.2 1.2-5.4 2.8-6.2 11-5.9 22.2-11.3 34.5-17.4v11.1c0 20.2-.1 40.4.1 60.6 0 4-1 6.2-4.8 8-10.5 4.8-20.8 10.2-32.7 16.2z"/><path id="XMLID_9_" class="st0" d="M51.6 226.5c0-25.7 0-49.8.1-74 0-1.4.8-3.4 1.9-4 11.2-5.9 22.6-11.5 34.8-17.6.2 3.2.5 5.2.5 7.2 0 21.1-.1 42.3.1 63.4 0 4.5-1.1 7.1-5.4 9.1-10.4 4.8-20.5 10.1-32 15.9z"/><path id="XMLID_8_" class="st0" d="M168.9 125.8c-12.2-6.1-23.5-11.7-34.7-17.6-1.3-.7-2.2-3.4-2.2-5.2-.2-10-.2-20 0-29.9 0-1.8 1-4.4 2.3-5.1 11.2-5.9 22.6-11.5 34.6-17.5v75.3z"/><path id="XMLID_7_" class="st0" d="M52.2 271.9c11.8 5.9 23.2 11.5 34.4 17.4 1.2.6 2 3 2.1 4.6.2 10.4.3 20.9-.1 31.3-.1 1.8-1.8 4.3-3.4 5.1-10.6 5.6-21.4 10.9-32.9 16.6-.1-25.1-.1-49.6-.1-75z"/><path id="XMLID_6_" class="st0" d="M53.4 228.9c12.1-6.1 23-11.7 34-17 1.6-.8 4.2-.8 5.8 0 11 5.3 21.9 10.9 34.1 17-12.4 6.2-23.8 12-35.3 17.5-1.2.6-3.2.2-4.5-.5-11.1-5.3-22-10.9-34.1-17z"/><path id="XMLID_5_" class="st0" d="M207.7 269.1c-12.1 6.1-23 11.7-34 16.9-1.7.8-4.6.6-6.4-.3-10.9-5.1-21.6-10.6-33.6-16.6 12.6-6.3 24.2-12.1 35.9-17.8.7-.3 1.9-.2 2.6.1 11.5 5.8 23.1 11.5 35.5 17.7z"/><path id="XMLID_4_" class="st0" d="M93.5 168.6c12.3-6.2 23.7-11.9 35.1-17.5.9-.4 2.4-.7 3.2-.2 11.6 5.7 23.1 11.5 35.6 17.7-12.2 6.1-23.2 11.7-34.2 17-1.5.7-3.8.8-5.2.2-11.1-5.5-22.2-11.1-34.5-17.2z"/><path id="XMLID_3_" class="st0" d="M13.1 128.3c12.3-6.1 23.4-11.8 34.6-17.2 1.2-.6 3.3-.7 4.5-.1 11.4 5.5 22.6 11.2 34.8 17.3-12.1 6.1-23.2 11.8-34.4 17.2-1.4.7-3.7.6-5.1-.1-11.1-5.3-22-10.9-34.4-17.1z"/><path id="XMLID_2_" class="st0" d="M91.8 171c12.4 6.2 23.8 11.8 35.1 17.6 1 .5 1.9 2.1 1.9 3.2.1 11.1.1 22.1.1 34.7-12.4-6.3-23.8-11.9-35-17.7-1-.5-2-2.1-2-3.3-.2-11-.1-22.1-.1-34.5z"/></g></svg>