<svg width="141" height="162" viewBox="0 0 141 162" xmlns="http://www.w3.org/2000/svg"><title>icon-mobile</title><g fill="#4A4A4A" fill-rule="evenodd"><path d="M97 67.387l-7.043 7.006a1.82 1.82 0 0 0 0 2.583 1.84 1.84 0 0 0 2.595 0l7.043-7.012a1.82 1.82 0 0 0-.002-2.581 1.84 1.84 0 0 0-2.592.002M85.574 5.77a2.5 2.5 0 0 0-2.164 1.244 2.478 2.478 0 0 0 0 2.487 2.5 2.5 0 0 0 2.164 1.244A2.492 2.492 0 0 0 88.07 8.26a2.492 2.492 0 0 0-2.497-2.487m15.438.667H91.68a1.83 1.83 0 0 0-1.835 1.822c0 1.005.825 1.825 1.833 1.825h9.33a1.83 1.83 0 0 0 1.752-1.825 1.83 1.83 0 0 0-1.751-1.824m-8.965 135.31c-3.067.001-5.553 2.478-5.552 5.531.001 3.054 2.489 5.529 5.556 5.528 3.067-.001 5.552-2.477 5.551-5.53 0-3.054-2.488-5.528-5.555-5.527"/><path d="M133.884.382H50.206c-3.778.006-6.837 3.056-6.84 6.817v16.98H7.232C3.457 24.184.397 27.228.39 30.986v89.057c.005 3.76 3.065 6.806 6.842 6.811h36.134v27.484c.006 3.76 3.066 6.806 6.842 6.811h83.678c3.775-.007 6.833-3.053 6.838-6.811V7.199c-.002-3.76-3.062-6.81-6.84-6.817zM4.057 120.042V30.987c0-1.739 1.426-3.158 3.176-3.158h46.862c1.752 0 3.176 1.418 3.176 3.158v89.057a3.168 3.168 0 0 1-3.176 3.158H7.232c-1.75 0-3.177-1.414-3.177-3.158h.002zM100.19 46.24a1.827 1.827 0 0 0 2.591 0l24.961-24.85v108.85c0 1.738-1.427 3.158-3.178 3.158H59.526a3.173 3.173 0 0 1-3.176-3.158v-3.797c2.662-.936 4.587-3.435 4.587-6.4V108.63l22.562-22.455a1.82 1.82 0 0 0 0-2.584 1.84 1.84 0 0 0-2.595 0l-19.97 19.878V87.777l31.62-31.481a1.82 1.82 0 0 0-.002-2.581 1.84 1.84 0 0 0-2.593.001L60.935 82.614V30.99c0-2.962-1.925-5.464-4.587-6.4v-5.083c0-1.742 1.428-3.162 3.178-3.162h65.038c1.062 0 1.954.554 2.534 1.35a1.809 1.809 0 0 0-1.357.523l-25.555 25.44a1.82 1.82 0 0 0 0 2.582h.004zm36.868 108.098a3.168 3.168 0 0 1-3.17 3.158H50.21c-1.746 0-3.174-1.414-3.174-3.158v-27.484h5.652v3.386c.004 3.76 3.067 6.806 6.844 6.807h65.038c3.775-.004 6.835-3.05 6.84-6.807V19.507c-.005-3.759-3.064-6.805-6.84-6.811H59.526c-3.778.002-6.84 3.05-6.842 6.811v4.672h-5.65V7.199a3.17 3.17 0 0 1 3.176-3.162h83.678a3.171 3.171 0 0 1 3.174 3.162v147.139h-.004z"/><path d="M54.851 104.07V43.103c-.003-3.761-3.064-6.81-6.842-6.815H13.315c-3.78.002-6.844 3.052-6.847 6.815v60.967c.005 3.762 3.069 6.81 6.847 6.811H48.01c3.777-.005 6.837-3.051 6.842-6.81zm-44.712 0v-6.454l18.494-18.41a1.822 1.822 0 0 0 .474-1.765 1.831 1.831 0 0 0-1.298-1.292 1.841 1.841 0 0 0-1.773.474L10.137 92.45v-5.984l23.338-23.23a1.82 1.82 0 0 0 .473-1.762 1.83 1.83 0 0 0-1.297-1.29 1.84 1.84 0 0 0-1.771.474L10.137 81.302V43.103a3.17 3.17 0 0 1 3.177-3.166h34.693c1.071 0 1.977.568 2.549 1.376a1.735 1.735 0 0 0-.557.37L36.34 55.277a1.82 1.82 0 0 0 0 2.584 1.84 1.84 0 0 0 2.595 0L51.18 45.67v58.4a3.17 3.17 0 0 1-3.173 3.161H13.315a3.171 3.171 0 0 1-3.176-3.162zm14.05-69.584a2.491 2.491 0 0 0 2.498-2.485 2.491 2.491 0 0 0-2.497-2.486 2.492 2.492 0 0 0-2.498 2.487 2.492 2.492 0 0 0 2.498 2.486v-.002zm6.11-.659h9.333a1.83 1.83 0 0 0 1.834-1.826 1.83 1.83 0 0 0-1.834-1.827h-9.333c-.981.045-1.753.85-1.753 1.827s.772 1.781 1.753 1.826zm.362 81.33a2.494 2.494 0 0 0-2.497 2.492 2.494 2.494 0 0 0 2.503 2.486 2.494 2.494 0 0 0 2.496-2.493 2.494 2.494 0 0 0-2.504-2.485h.002z"/><path d="M34.642 67.964l-3.762 3.745a1.821 1.821 0 0 0-.475 1.764 1.83 1.83 0 0 0 1.298 1.291 1.84 1.84 0 0 0 1.772-.472l3.761-3.745a1.828 1.828 0 0 0 0-2.583 1.848 1.848 0 0 0-2.59 0"/></g></svg>