<svg width="165" height="162" viewBox="0 0 165 162" xmlns="http://www.w3.org/2000/svg"><title>icon-embedded</title><g fill="#4A4A4A" fill-rule="evenodd"><path d="M132.45.006v7.462H84.353V.006H14.19v17.15H3.145a2.4 2.4 0 0 0-2.4 2.398 2.4 2.4 0 0 0 2.4 2.399H14.19v5.365H3.145a2.4 2.4 0 0 0-2.402 2.4 2.4 2.4 0 0 0 2.402 2.399H14.19v5.365H3.145a2.4 2.4 0 0 0 0 4.796H14.19v5.368H3.145a2.402 2.402 0 0 0-2.403 2.4 2.402 2.402 0 0 0 2.403 2.402H14.19v5.364H3.145a2.4 2.4 0 0 0-2.402 2.4 2.4 2.4 0 0 0 2.402 2.4H14.19v5.367H3.145A2.402 2.402 0 0 0 .742 70.38a2.402 2.402 0 0 0 2.403 2.401H14.19v5.368H3.145a2.4 2.4 0 0 0 0 4.796H14.19v5.365H3.145A2.404 2.404 0 0 0 .74 90.713a2.404 2.404 0 0 0 2.405 2.402H14.19v5.368H3.145a2.4 2.4 0 0 0 0 4.796H14.19v5.37H3.145a2.4 2.4 0 0 0-2.4 2.399 2.4 2.4 0 0 0 2.4 2.398H14.19v5.368H3.145a2.4 2.4 0 0 0 0 4.796H14.19v5.37H3.145a2.4 2.4 0 0 0-2.4 2.399 2.4 2.4 0 0 0 2.4 2.398H14.19v5.365H3.145a2.4 2.4 0 0 0 0 4.796H14.19v17.15h26.13l.235-2.136a4.847 4.847 0 0 1 4.804-4.34c2.467 0 4.533 1.864 4.805 4.34l.235 2.133H65.72l.236-2.136a4.847 4.847 0 0 1 4.807-4.34c2.466 0 4.535 1.865 4.807 4.34l.232 2.134h88.966V.006h-32.324.006zm-65.98 85.84a4.875 4.875 0 0 1 4.871 4.861 4.876 4.876 0 0 1-4.869 4.872 4.878 4.878 0 0 1-4.877-4.872c0-2.68 2.186-4.86 4.877-4.86h-.003zm46.514-9.9a4.873 4.873 0 0 1-4.356-2.384 4.862 4.862 0 0 1 0-4.961 4.873 4.873 0 0 1 9.063 2.48 4.869 4.869 0 0 1-4.707 4.864zm46.986 80.343h-30.468v-33.393l11.388-11.377V51.26l-8.529-8.512c.889-1.464 1.435-3.158 1.435-4.992 0-5.328-4.344-9.66-9.678-9.66-5.338.006-9.664 4.327-9.67 9.66.003 5.335 4.329 9.66 9.67 9.668 1.757 0 3.386-.504 4.804-1.327l7.159 7.151v56.286l-11.38 11.377v35.378h-9.32v-75.88c4.176-1.078 7.276-4.83 7.276-9.33-.007-5.336-4.337-9.66-9.678-9.666-5.34.008-9.666 4.332-9.67 9.666 0 4.5 3.102 8.252 7.27 9.324v75.88H79.87a9.622 9.622 0 0 0-9.098-6.483 9.622 9.622 0 0 0-9.098 6.483H54.47a9.63 9.63 0 0 0-9.1-6.47 9.63 9.63 0 0 0-9.1 6.47H19.005V4.808h30.95v34.09L38.566 50.266v60.27l8.521 8.513a9.53 9.53 0 0 0-1.43 4.984c0 5.331 4.345 9.66 9.682 9.66 5.338-.006 9.664-4.328 9.67-9.66-.005-5.334-4.33-9.658-9.67-9.666-1.757 0-3.386.504-4.81 1.333l-7.159-7.151V52.252l11.39-11.368V4.8h9.306v76.58a9.654 9.654 0 0 0-7.269 9.324c.008 5.336 4.337 9.66 9.68 9.666 5.333 0 9.67-4.34 9.67-9.666a9.654 9.654 0 0 0-7.272-9.324V4.808h10.674v7.46h57.704V4.802h22.72v151.48l-.002.006zM124.12 42.625a4.878 4.878 0 0 1-4.392-2.373 4.868 4.868 0 0 1 0-4.989 4.878 4.878 0 0 1 9.067 2.494 4.874 4.874 0 0 1-4.675 4.868zm-68.784 76.536a4.875 4.875 0 0 1 4.872 4.872 4.875 4.875 0 0 1-4.869 4.86 4.869 4.869 0 0 1-4.755-4.864 4.869 4.869 0 0 1 4.755-4.865l-.003-.003z"/><path d="M34.819 23.232a3.275 3.275 0 0 0-2.912 1.612 3.267 3.267 0 0 0 .005 3.325 3.275 3.275 0 0 0 2.918 1.601 3.272 3.272 0 0 0 3.27-3.274 3.272 3.272 0 0 0-3.279-3.267m110.033 6.541a3.276 3.276 0 0 0 2.833-1.64 3.269 3.269 0 0 0-.005-3.272 3.276 3.276 0 0 0-6.109 1.646 3.274 3.274 0 0 0 3.28 3.266M34.82 131.293a3.274 3.274 0 0 0-2.833 1.64 3.267 3.267 0 0 0 .006 3.27 3.274 3.274 0 0 0 2.838 1.631 3.274 3.274 0 0 0 3.27-3.276 3.274 3.274 0 0 0-3.279-3.268m110.033 6.541a3.274 3.274 0 0 0 3.27-3.277 3.274 3.274 0 0 0-3.281-3.266 3.275 3.275 0 0 0-3.271 3.278 3.275 3.275 0 0 0 3.282 3.268m-43.43-114.602c-4.014 0-7.27 3.25-7.27 7.26 0 1.157.288 2.235.77 3.204l-7.854 7.846v80.651l-6.026 6.02a7.17 7.17 0 0 0-3.23-.792 7.266 7.266 0 0 0-7.267 7.264c0 4.01 3.255 7.262 7.27 7.262 4.014 0 7.27-3.25 7.271-7.26a7.18 7.18 0 0 0-.683-3.038l7.472-7.465V43.532l6.475-6.473a7.27 7.27 0 0 0 3.075.7c4.017 0 7.273-3.253 7.273-7.266s-3.256-7.266-7.273-7.266"/></g></svg>