<svg width="241" height="161" viewBox="0 0 241 161" xmlns="http://www.w3.org/2000/svg"><title>icon-web</title><g fill="#4A4A4A" fill-rule="evenodd"><path d="M40.917 126.615h158.436c5.584 0 10.12-4.53 10.12-10.104V24.343c0-5.576-4.529-10.097-10.12-10.107H40.917c-5.593.007-10.125 4.526-10.132 10.104v92.168c.005 5.577 4.536 10.099 10.13 10.107h.002zm163.13-102.27v92.169a4.697 4.697 0 0 1-4.696 4.69H92.836V19.653h106.517a4.696 4.696 0 0 1 4.697 4.689l-.003.003zm-167.838 0a4.697 4.697 0 0 1 4.702-4.689h46.493v101.547H40.917a4.697 4.697 0 0 1-4.705-4.69v-92.17l-.003.003z"/><path d="M240.33 141.202l-20.512-4.901a9.902 9.902 0 0 0 2.466-6.508V11.066c0-5.568-4.536-10.103-10.129-10.103H28.11c-5.591.008-10.121 4.525-10.13 10.1V129.79c0 2.494.954 4.733 2.467 6.49l-20.04 5.075-.123 2.262c-.532 3.78 1.475 9.222 3.985 12.528 1.928 2.54 4.106 3.886 6.299 3.886h219.815c6.765 0 9.725-10.88 9.792-16.622l.006-.02.145-2.184.003-.003zM23.41 11.064c0-2.587 2.111-4.69 4.703-4.69h184.036c2.594 0 4.706 2.103 4.706 4.69V129.79c0 2.587-2.112 4.686-4.703 4.686H28.11c-2.589 0-4.703-2.096-4.703-4.68V11.066l.003-.002zm2.172 128.215l188.88.101 10.044 2.895h-67.51l-.741 1.52a3.025 3.025 0 0 1-2.71 1.754H86.72c-1.143 0-2.187-.667-2.717-1.758l-.741-1.52H81.57l-65.75.01 9.757-3.002h.005zM230.39 154.62H10.574c-.17-.015-1.024-.389-2.199-2.036a17.474 17.474 0 0 1-2.385-5.008c.864.087 1.847.14 3.048.14.887 0 1.536-.03 1.55-.03H80.07a8.392 8.392 0 0 0 6.66 3.277h66.817a8.37 8.37 0 0 0 6.648-3.277h70.188c1.129 0 2.496-.014 3.854-.15-.893 3.885-2.725 7.081-3.854 7.081l.006.003z"/><path d="M104.926 70.746h86.89V28.522h-86.89v42.224zm5.423-36.816h76.034v31.407H110.35V33.93zM47.251 86.035h28.39a2.716 2.716 0 0 0 2.713-2.706 2.712 2.712 0 0 0-2.713-2.706H47.25a2.712 2.712 0 0 0-2.713 2.709 2.712 2.712 0 0 0 2.713 2.706v-.003zm0 12.023h28.39a2.712 2.712 0 0 0 2.713-2.706 2.712 2.712 0 0 0-2.713-2.702H47.25a2.712 2.712 0 0 0-2.713 2.702 2.71 2.71 0 0 0 2.713 2.706zm0 12.026h28.39a2.716 2.716 0 0 0 2.713-2.705 2.712 2.712 0 0 0-2.713-2.706H47.25a2.712 2.712 0 0 0-2.713 2.706 2.712 2.712 0 0 0 2.713 2.705zm60.292-24.05h81.56a2.72 2.72 0 0 0 2.712-2.705 2.718 2.718 0 0 0-2.713-2.706h-81.559a2.72 2.72 0 0 0-1.92.794 2.705 2.705 0 0 0-.796 1.915 2.716 2.716 0 0 0 2.713 2.706l.003-.003zm0 12.024h81.56a2.716 2.716 0 0 0 2.712-2.706 2.718 2.718 0 0 0-2.713-2.702h-81.559a2.712 2.712 0 0 0-2.716 2.702 2.714 2.714 0 0 0 2.713 2.706h.003zm81.56 6.615h-81.56a2.712 2.712 0 0 0-2.716 2.706 2.716 2.716 0 0 0 2.713 2.705h81.56a2.72 2.72 0 0 0 2.713-2.705 2.718 2.718 0 0 0-2.714-2.706h.003zM48.925 71.726a3.703 3.703 0 0 0 3.203-1.849 3.681 3.681 0 0 0-.004-3.69 3.703 3.703 0 0 0-3.207-1.842 3.695 3.695 0 0 0-3.695 3.697 3.696 3.696 0 0 0 3.706 3.684h-.003zm8.82-3.686a3.688 3.688 0 0 0 1.855 3.194 3.71 3.71 0 0 0 3.7-.005 3.688 3.688 0 0 0-1.857-6.885 3.695 3.695 0 0 0-3.697 3.693v.003zm12.523 0a3.691 3.691 0 0 0 3.696 3.686 3.691 3.691 0 0 0 3.697-3.686 3.691 3.691 0 0 0-3.697-3.686 3.691 3.691 0 0 0-3.696 3.686zm-8.82-11.063c7.875-.013 14.255-6.378 14.264-14.23-.01-7.853-6.39-14.217-14.264-14.231-7.88.008-14.266 6.373-14.28 14.23.012 7.858 6.4 14.224 14.28 14.23zm0-23.044c4.88.006 8.834 3.95 8.84 8.816-.003 4.869-3.958 8.816-8.84 8.822-4.882-.008-8.836-3.954-8.841-8.822.006-4.866 3.96-8.81 8.84-8.816z"/></g></svg>