<svg width="141" height="162" viewBox="0 0 141 162" xmlns="http://www.w3.org/2000/svg"><title>icon-mobile</title><desc>Created with sketchtool.</desc><g fill="#4A4A4A"><path d="M97 67.387l-7.043 7.006c-.716.713-.716 1.87 0 2.583.717.713 1.878.713 2.595 0l7.043-7.012c.716-.713.715-1.87-.002-2.58-.716-.713-1.877-.712-2.592 0M85.575 5.77c-.893 0-1.718.474-2.164 1.244-.447.77-.447 1.718 0 2.487.446.77 1.27 1.245 2.164 1.245 1.38 0 2.497-1.113 2.497-2.486 0-1.375-1.117-2.488-2.496-2.488m15.438.667h-9.33c-1.013 0-1.834.814-1.836 1.82 0 1.006.825 1.826 1.833 1.826h9.33c.98-.045 1.75-.848 1.75-1.825 0-.975-.77-1.78-1.75-1.823m-8.965 135.31c-3.067 0-5.553 2.478-5.552 5.53 0 3.055 2.49 5.53 5.556 5.53 3.066-.002 5.55-2.478 5.55-5.532 0-3.053-2.488-5.527-5.555-5.526" id="Shape"/><path d="M133.884.382H50.206c-3.778.006-6.837 3.056-6.84 6.817v16.98H7.232C3.457 24.183.397 27.227.39 30.985v89.057c.005 3.76 3.065 6.806 6.842 6.81h36.134v27.485c.006 3.76 3.066 6.806 6.842 6.81h83.678c3.775-.006 6.833-3.052 6.838-6.81V7.198c-.002-3.76-3.062-6.81-6.84-6.816zM4.057 120.042V30.987c0-1.74 1.426-3.158 3.176-3.158h46.862c1.752 0 3.176 1.418 3.176 3.158v89.057c0 1.744-1.423 3.158-3.175 3.158H7.232c-1.75 0-3.177-1.413-3.177-3.157h.002zM100.19 46.24c.343.344.81.538 1.296.538s.953-.194 1.295-.538l24.962-24.85v108.85c0 1.738-1.427 3.158-3.178 3.158H59.526c-1.752-.002-3.172-1.414-3.176-3.158v-3.797c2.662-.936 4.587-3.435 4.587-6.4V108.63L83.5 86.177c.715-.714.715-1.87 0-2.584-.718-.713-1.88-.713-2.596 0l-19.97 19.878V87.777l31.62-31.48c.715-.715.714-1.87-.002-2.582-.717-.713-1.878-.712-2.593 0l-29.025 28.9V30.99c0-2.962-1.925-5.464-4.587-6.4v-5.083c0-1.742 1.428-3.162 3.178-3.162h65.038c1.062 0 1.954.554 2.534 1.35-.506-.022-1 .167-1.357.523l-25.554 25.44c-.344.34-.538.806-.538 1.29 0 .485.194.95.538 1.292h.004zm36.868 108.098c0 1.742-1.424 3.158-3.17 3.158H50.21c-1.746 0-3.174-1.414-3.174-3.158v-27.484h5.652v3.386c.004 3.76 3.067 6.806 6.844 6.807h65.038c3.775-.004 6.835-3.05 6.84-6.807V19.507c-.005-3.76-3.064-6.805-6.84-6.81H59.526c-3.778 0-6.84 3.05-6.842 6.81v4.672h-5.65V7.2c0-1.75 1.426-3.163 3.176-3.163h83.678c1.746 0 3.174 1.414 3.174 3.162v147.138h-.004zM54.85 104.07V43.103c-.002-3.76-3.063-6.81-6.84-6.815H13.314c-3.78.002-6.844 3.052-6.847 6.815v60.967c.005 3.762 3.07 6.81 6.847 6.81H48.01c3.776-.004 6.836-3.05 6.84-6.81zm-44.71 0v-6.454l18.493-18.41c.463-.462.644-1.135.474-1.765-.17-.63-.665-1.122-1.298-1.29-.635-.17-1.31.01-1.774.473l-15.9 15.827v-5.984l23.34-23.23c.462-.46.642-1.133.472-1.762-.17-.63-.665-1.122-1.297-1.29-.632-.168-1.307.012-1.77.474L10.137 81.302v-38.2c0-1.747 1.42-3.165 3.177-3.165h34.693c1.07 0 1.977.568 2.55 1.376-.21.086-.398.212-.558.37L36.34 55.277c-.716.714-.716 1.87 0 2.584.717.714 1.878.714 2.595 0L51.18 45.67v58.4c0 1.743-1.42 3.162-3.173 3.162H13.315c-1.753 0-3.175-1.416-3.176-3.162zm14.05-69.584c1.38 0 2.497-1.113 2.497-2.485 0-1.372-1.118-2.485-2.497-2.485-1.38 0-2.498 1.113-2.498 2.487 0 1.373 1.118 2.486 2.498 2.486v-.002zm6.11-.66h9.332c1.013 0 1.834-.817 1.834-1.825s-.82-1.826-1.834-1.826H30.3c-.982.045-1.754.85-1.754 1.827 0 .978.772 1.782 1.753 1.827zm.36 81.33c-1.38.003-2.497 1.118-2.496 2.493.002 1.373 1.122 2.486 2.503 2.485 1.38-.003 2.498-1.118 2.496-2.493-.002-1.374-1.123-2.487-2.504-2.485zM34.642 67.964L30.88 71.71c-.463.46-.644 1.132-.475 1.763.17.63.664 1.122 1.298 1.29.633.17 1.308-.01 1.772-.47l3.76-3.746c.714-.715.714-1.868 0-2.583-.716-.707-1.872-.707-2.59 0"/></g></svg>