<svg width="165" height="162" viewBox="0 0 165 162" xmlns="http://www.w3.org/2000/svg"><title>icon-embedded</title><desc>Created with sketchtool.</desc><g fill="#4A4A4A"><path d="M132.45.006v7.462H84.353V.006H14.19v17.15H3.144c-1.326 0-2.4 1.074-2.4 2.398 0 1.325 1.074 2.4 2.4 2.4H14.19v5.364H3.144c-1.326 0-2.402 1.074-2.402 2.4 0 1.324 1.076 2.4 2.402 2.4H14.19v5.364H3.144c-1.294.044-2.32 1.104-2.32 2.398 0 1.293 1.026 2.354 2.32 2.398H14.19v5.368H3.144c-1.327 0-2.403 1.075-2.403 2.4 0 1.327 1.076 2.402 2.403 2.402H14.19v5.364H3.144c-1.326 0-2.402 1.075-2.402 2.4s1.076 2.4 2.402 2.4H14.19v5.367H3.144c-1.327 0-2.403 1.074-2.403 2.4 0 1.326 1.076 2.4 2.403 2.4H14.19v5.37H3.144c-1.294.043-2.32 1.104-2.32 2.397 0 1.294 1.026 2.354 2.32 2.398H14.19v5.365H3.144C1.817 88.31.74 89.386.74 90.713c0 1.326 1.077 2.402 2.405 2.402H14.19v5.368H3.144c-1.294.044-2.32 1.104-2.32 2.398s1.026 2.355 2.32 2.4H14.19v5.37H3.144c-1.326 0-2.4 1.073-2.4 2.398 0 1.324 1.074 2.398 2.4 2.398H14.19v5.368H3.144c-1.294.044-2.32 1.104-2.32 2.398 0 1.293 1.026 2.354 2.32 2.398H14.19v5.37H3.144c-1.326 0-2.4 1.074-2.4 2.4 0 1.323 1.074 2.397 2.4 2.397H14.19v5.365H3.144c-1.294.044-2.32 1.104-2.32 2.398 0 1.293 1.026 2.354 2.32 2.398H14.19v17.15h26.13l.236-2.136c.258-2.46 2.33-4.33 4.804-4.34 2.467 0 4.533 1.864 4.805 4.34l.235 2.133h15.32l.236-2.136c.258-2.462 2.33-4.333 4.807-4.34 2.467 0 4.536 1.864 4.807 4.34l.233 2.133h88.966V.006h-32.325.006zm-66.684 85.84c2.687.003 4.866 2.177 4.872 4.86 0 2.69-2.186 4.873-4.87 4.873-2.69 0-4.876-2.185-4.876-4.873 0-2.68 2.186-4.86 4.877-4.86h-.004zm46.515-9.9c-1.778.06-3.448-.854-4.355-2.384-.907-1.53-.907-3.43 0-4.96.907-1.53 2.577-2.444 4.356-2.384 2.626.09 4.707 2.24 4.707 4.864 0 2.623-2.08 4.774-4.706 4.863zm46.987 80.343H128.8v-33.394l11.387-11.377V51.26l-8.53-8.512c.89-1.464 1.436-3.158 1.436-4.992 0-5.328-4.344-9.66-9.678-9.66-5.34.006-9.664 4.327-9.67 9.66.002 5.335 4.33 9.66 9.67 9.668 1.757 0 3.385-.504 4.804-1.327l7.157 7.15v56.287l-11.38 11.377v35.38h-9.32V80.41c4.177-1.08 7.277-4.83 7.277-9.33-.008-5.337-4.337-9.66-9.678-9.667-5.34.008-9.666 4.332-9.67 9.666 0 4.5 3.102 8.25 7.27 9.323v75.88h-30.71c-1.336-3.88-4.99-6.483-9.097-6.483-4.108 0-7.763 2.604-9.1 6.483h-7.203c-1.344-3.873-4.997-6.47-9.1-6.47s-7.756 2.597-9.1 6.47H18.3V4.808h30.95v34.09L37.864 50.266v60.27l8.52 8.513c-.927 1.496-1.422 3.22-1.43 4.983 0 5.33 4.346 9.66 9.683 9.66 5.338-.006 9.664-4.328 9.67-9.66-.005-5.334-4.33-9.658-9.67-9.666-1.758 0-3.386.504-4.81 1.333l-7.16-7.15V52.25l11.39-11.368V4.8h9.305v76.58c-4.265 1.09-7.254 4.925-7.267 9.324.008 5.336 4.337 9.66 9.68 9.666 5.333 0 9.67-4.34 9.67-9.666-.013-4.4-3.004-8.235-7.272-9.324V4.808h10.675v7.46h57.704V4.802h22.72v151.48l-.003.006zm-35.85-113.665c-1.79.074-3.475-.837-4.392-2.373-.916-1.537-.916-3.452 0-4.99.917-1.536 2.603-2.447 4.392-2.372 2.613.108 4.675 2.255 4.675 4.867s-2.062 4.76-4.675 4.868zM54.633 119.16c2.69.004 4.872 2.184 4.872 4.873-.007 2.683-2.183 4.856-4.87 4.86-2.643-.063-4.754-2.222-4.754-4.864 0-2.644 2.112-4.803 4.756-4.866l-.003-.003zM34.818 23.232c-1.192-.032-2.307.585-2.912 1.612-.604 1.026-.602 2.3.006 3.325.608 1.024 1.726 1.637 2.918 1.6 1.808-.002 3.272-1.468 3.27-3.274-.003-1.806-1.47-3.27-3.28-3.267m110.034 6.54c1.17-.002 2.25-.627 2.833-1.64.584-1.014.582-2.26-.005-3.272s-1.67-1.633-2.84-1.63c-1.808.002-3.272 1.47-3.27 3.276.004 1.807 1.473 3.27 3.282 3.266M34.818 131.293c-1.17.002-2.25.627-2.832 1.64-.583 1.013-.58 2.26.006 3.27.586 1.012 1.668 1.633 2.838 1.63 1.81 0 3.273-1.468 3.27-3.275-.002-1.807-1.47-3.27-3.28-3.268m110.034 6.54c1.81-.002 3.272-1.47 3.27-3.276-.004-1.807-1.473-3.27-3.282-3.266-1.81.003-3.274 1.47-3.27 3.278.003 1.808 1.472 3.27 3.282 3.268m-43.43-114.602c-4.014 0-7.268 3.25-7.27 7.26 0 1.157.29 2.235.77 3.204l-7.853 7.846v80.65l-6.025 6.02c-1-.512-2.106-.784-3.23-.79-4.014 0-7.268 3.252-7.267 7.263 0 4.01 3.255 7.262 7.27 7.262 4.014 0 7.27-3.25 7.27-7.26 0-1.087-.25-2.11-.683-3.038l7.473-7.466V43.532l6.475-6.473c.94.436 1.976.7 3.075.7 4.017 0 7.273-3.254 7.273-7.267s-3.255-7.266-7.272-7.266"/></g></svg>