<svg width="241" height="161" viewBox="0 0 241 161" xmlns="http://www.w3.org/2000/svg"><title>icon-web</title><desc>Created with sketchtool.</desc><g fill="#4A4A4A"><path d="M40.917 126.615h158.436c5.584 0 10.12-4.53 10.12-10.104V24.344c0-5.576-4.53-10.097-10.12-10.107H40.917c-5.593.007-10.125 4.526-10.132 10.104v92.168c.005 5.577 4.536 10.1 10.13 10.107h.002zm163.13-102.27v92.17c0 2.59-2.11 4.688-4.696 4.688H92.837V19.653h106.517c2.59 0 4.697 2.1 4.697 4.69l-.003.003zm-167.838 0c0-2.59 2.107-4.69 4.7-4.69h46.494v101.548H40.917c-2.597 0-4.705-2.097-4.705-4.69v-92.17l-.003.003zM240.33 141.202l-20.512-4.9c1.583-1.803 2.46-4.114 2.466-6.51V11.067c0-5.568-4.536-10.103-10.13-10.103H28.11c-5.59.008-10.12 4.525-10.13 10.1V129.79c0 2.494.954 4.733 2.467 6.49l-20.04 5.075-.123 2.262c-.532 3.78 1.475 9.222 3.985 12.528 1.927 2.54 4.105 3.886 6.298 3.886h219.815c6.765 0 9.725-10.88 9.792-16.62l.006-.022.146-2.183.003-.003zM23.41 11.064c0-2.587 2.11-4.69 4.703-4.69H212.15c2.593 0 4.705 2.103 4.705 4.69V129.79c0 2.587-2.112 4.686-4.703 4.686H28.11c-2.59 0-4.703-2.096-4.703-4.68V11.066l.003-.002zm2.172 128.215l188.88.1 10.044 2.895h-67.51l-.74 1.52c-.49 1.057-1.545 1.74-2.712 1.754H86.72c-1.142 0-2.186-.668-2.716-1.76l-.74-1.518H81.57l-65.75.008 9.757-3h.005zm204.807 15.34H10.573c-.17-.015-1.024-.39-2.2-2.036-1.056-1.532-1.86-3.223-2.384-5.008.864.087 1.847.14 3.048.14.887 0 1.536-.03 1.55-.03H80.07c1.587 2.067 4.05 3.278 6.66 3.277h66.817c2.64 0 5.06-1.224 6.648-3.277h70.188c1.13 0 2.496-.014 3.854-.15-.893 3.885-2.725 7.08-3.854 7.08l.006.004zM104.926 70.746h86.89V28.522h-86.89v42.224zm5.423-36.816h76.033v31.407H110.35V33.93zm-63.1 52.105h28.39c1.495 0 2.714-1.218 2.714-2.706-.002-1.495-1.216-2.705-2.713-2.707H47.25c-1.498.002-2.712 1.214-2.712 2.71 0 1.49 1.215 2.705 2.713 2.705v-.003zm0 12.023h28.39c1.495 0 2.714-1.212 2.714-2.706-.003-1.492-1.217-2.7-2.713-2.702H47.25c-1.496 0-2.71 1.21-2.712 2.702 0 1.494 1.215 2.706 2.713 2.706zm0 12.026h28.39c1.495 0 2.714-1.218 2.714-2.705-.002-1.495-1.216-2.705-2.713-2.707H47.25c-1.497.002-2.71 1.212-2.712 2.706 0 1.49 1.215 2.704 2.713 2.704zm60.293-24.05h81.56c1.488 0 2.712-1.217 2.712-2.705-.004-1.493-1.216-2.702-2.713-2.707h-81.56c-.72 0-1.41.286-1.92.794s-.795 1.197-.795 1.915c0 1.49 1.22 2.706 2.713 2.706l.003-.003zm0 12.024h81.56c1.488 0 2.712-1.212 2.712-2.706-.006-1.49-1.217-2.698-2.713-2.702h-81.56c-1.497 0-2.712 1.21-2.715 2.702 0 1.494 1.22 2.706 2.713 2.706h.003zm81.56 6.615h-81.56c-1.5 0-2.715 1.21-2.716 2.706 0 1.49 1.22 2.704 2.713 2.704h81.56c1.488 0 2.713-1.218 2.713-2.705-.005-1.494-1.217-2.702-2.714-2.707h.002zM48.925 71.726c1.322-.002 2.543-.706 3.203-1.85.66-1.14.657-2.548-.005-3.69-.663-1.14-1.885-1.842-3.207-1.84-2.044.003-3.698 1.657-3.695 3.696.003 2.038 1.662 3.687 3.706 3.684h-.004zm8.82-3.686c.002 1.32.71 2.536 1.855 3.194 1.147.658 2.557.656 3.7-.005 1.146-.66 1.85-1.88 1.848-3.2-.002-2.037-1.66-3.688-3.704-3.686-2.043.002-3.7 1.655-3.697 3.693v.003zm12.523 0c0 2.036 1.654 3.686 3.695 3.686 2.042 0 3.697-1.65 3.697-3.686s-1.655-3.686-3.697-3.686c-2.04 0-3.696 1.65-3.696 3.686zm-8.82-11.063c7.874-.013 14.254-6.378 14.263-14.23-.01-7.853-6.39-14.217-14.264-14.23-7.88.007-14.267 6.372-14.28 14.23.01 7.857 6.4 14.223 14.28 14.23zm0-23.044c4.88.006 8.833 3.95 8.84 8.816-.004 4.868-3.96 8.815-8.84 8.82-4.883-.007-8.837-3.953-8.842-8.82.006-4.867 3.96-8.81 8.84-8.817z"/></g></svg>