<svg width="667" height="74" viewBox="0 0 667 74" xmlns="http://www.w3.org/2000/svg"><title>WE ARE NO2</title><path d="M94.05 2l-18.3 70h-17.2l-10.5-34.8L37.55 72h-17.2L2.05 2h17.8l9.8 43.9 11-36.5h14.8l11 36.5L76.25 2h17.8zm62.6 0v15.2h-29.8v9.9h23.4v15.2h-23.4v14.5h30.8V72h-48.6V2h47.6zm87.6 55.1h-18.6l-4.5 14.9h-18.4l23.7-70h17l23.7 70h-18.4l-4.5-14.9zm-14.1-15.2h9.6l-4.8-16.4-4.8 16.4zm72.3 1.3h-3.5V72h-17.2V2h27.7c3.467 0 6.583.5 9.35 1.5 2.767 1 5.117 2.367 7.05 4.1 1.933 1.733 3.4 3.833 4.4 6.3 1 2.467 1.5 5.133 1.5 8 0 4.133-1 7.9-3 11.3-2 3.4-4.867 5.967-8.6 7.7l19.3 31.1h-19.1l-17.9-28.8zm5-14.8c2.333 0 4.233-.467 5.7-1.4 1.467-.933 2.2-2.633 2.2-5.1 0-2.467-.733-4.167-2.2-5.1-1.467-.933-3.367-1.4-5.7-1.4h-8.5v13h8.5zM402.25 2v15.2h-29.8v9.9h23.4v15.2h-23.4v14.5h30.8V72h-48.6V2h47.6zm110.1 0v70h-17.3l-23.1-41.8V72h-16V2h17.3l23.1 41.8V2h16zm53.5-.8c4.4 0 8.667.733 12.8 2.2 4.133 1.467 7.8 3.667 11 6.6s5.767 6.65 7.7 11.15c1.933 4.5 2.9 9.783 2.9 15.85s-.967 11.35-2.9 15.85c-1.933 4.5-4.5 8.217-7.7 11.15s-6.867 5.133-11 6.6a37.999 37.999 0 0 1-12.8 2.2c-4.4 0-8.667-.733-12.8-2.2-4.133-1.467-7.8-3.667-11-6.6s-5.767-6.65-7.7-11.15c-1.933-4.5-2.9-9.783-2.9-15.85s.967-11.35 2.9-15.85c1.933-4.5 4.5-8.217 7.7-11.15s6.867-5.133 11-6.6a37.99 37.99 0 0 1 12.8-2.2zm0 15.2c-2.267 0-4.4.4-6.4 1.2-2 .8-3.75 2.05-5.25 3.75-1.5 1.7-2.7 3.85-3.6 6.45-.9 2.6-1.35 5.667-1.35 9.2 0 3.533.45 6.6 1.35 9.2.9 2.6 2.1 4.75 3.6 6.45 1.5 1.7 3.25 2.95 5.25 3.75 2 .8 4.133 1.2 6.4 1.2 2.267 0 4.4-.4 6.4-1.2 2-.8 3.75-2.05 5.25-3.75 1.5-1.7 2.7-3.85 3.6-6.45.9-2.6 1.35-5.667 1.35-9.2 0-3.533-.45-6.6-1.35-9.2-.9-2.6-2.1-4.75-3.6-6.45-1.5-1.7-3.25-2.95-5.25-3.75-2-.8-4.133-1.2-6.4-1.2zm52.2 48.2l25.6-31.3c1.4-1.733 2.533-3.5 3.4-5.3.867-1.8 1.3-3.667 1.3-5.6 0-2-.617-3.7-1.85-5.1-1.233-1.4-2.917-2.1-5.05-2.1-2.467 0-4.333.767-5.6 2.3-1.267 1.533-2.067 3.567-2.4 6.1l-14.7-3a24.524 24.524 0 0 1 2.15-7.3c1.1-2.333 2.6-4.4 4.5-6.2 1.9-1.8 4.183-3.233 6.85-4.3 2.667-1.067 5.733-1.6 9.2-1.6 3.6 0 6.783.533 9.55 1.6 2.767 1.067 5.1 2.517 7 4.35 1.9 1.833 3.35 4.017 4.35 6.55 1 2.533 1.5 5.267 1.5 8.2 0 3.467-.717 6.667-2.15 9.6-1.433 2.933-3.383 5.933-5.85 9L641.95 58h23.4v14h-47.3v-7.4z" fill="none" stroke="#FFF" stroke-width="3"/></svg>