<svg width="1057" height="610" viewBox="0 0 1057 610" xmlns="http://www.w3.org/2000/svg"><title>MackBook_Outline_SVG</title><g stroke="#000" fill="none" fill-rule="evenodd"><path d="M1054.335 574.883h-97.508c1.11-3.273 1.776-6.768 1.776-10.374V33.01C958.603 15.368 944.229 1 926.58 1H130.586c-17.648 0-32.022 14.368-32.022 32.009v531.5c0 3.662.61 7.157 1.72 10.374H2.664c-.943 0-1.664.721-1.664 1.664v16.31c0 .5 0 1.886 1.22 2.774.278.222.611.443.944.665 7.27 4.993 25.474 12.427 45.952 12.427h958.824c20.422 0 38.681-7.434 45.951-12.427.444-.277.833-.554 1.166-.887.943-.721.943-1.886.943-2.33v-16.532c0-.887-.777-1.664-1.665-1.664zm-125.09-35.892h-801.49V37.946h801.49v501.045z" fill="#FFF"/><path d="M1054.335 574.883h-97.508a32.278 32.278 0 0 0 1.72-10.374V33.01c0-17.642-14.374-32.01-32.022-32.01h-795.94c-17.647 0-32.021 14.368-32.021 32.009v531.5c0 3.662.61 7.157 1.72 10.374H2.664c-.943 0-1.664.721-1.664 1.664v16.365c0 .5 0 1.887 1.22 2.774.278.222.611.444.944.666 7.27 4.993 25.474 12.426 45.952 12.426h958.824c20.422 0 38.681-7.433 45.951-12.426.444-.278.833-.555 1.166-.888.943-.72.943-1.886.943-2.33v-16.531c0-.943-.777-1.72-1.665-1.72z"/><path d="M1053.78 593.079v-15.977H603.033c-.666 4.605-5.05 11.872-12.654 11.872H466.565c-7.603 0-11.987-7.267-12.653-11.872H3.219v15.755c0 .61.112.832.334.998.166.167.388.278.555.444h1048.784a4.19 4.19 0 0 0 .777-.61c.111-.11.111-.388.111-.61zm-4.495 3.384H7.715c8.436 4.604 24.03 10.04 41.345 10.04h958.824c17.315 0 32.965-5.436 41.4-10.04zm-92.958-31.953V33.008c0-16.42-13.375-29.79-29.802-29.79h-795.94c-16.426 0-29.801 13.37-29.801 29.79v531.5c0 3.662.666 7.157 1.887 10.374h84.577l.111-.5 2.609-11.593h-75.143c-6.105 0-11.1-4.993-11.1-11.095V32.62c0-14.59 11.877-26.46 26.472-26.46h796.717c14.595 0 26.472 11.87 26.472 26.46v519.075c0 6.102-4.995 11.095-11.1 11.095H864.59l2.609 11.594.11.5h87.131a29.17 29.17 0 0 0 1.887-10.375z"/><path d="M951.166 551.695V32.62c0-13.369-10.877-24.242-24.252-24.242H130.197c-13.375 0-24.252 10.873-24.252 24.242v519.075c0 4.882 3.996 8.876 8.88 8.876h827.461c4.884 0 8.88-3.939 8.88-8.876zm-86.132 23.188l-2.719-11.982H192.243l-2.72 11.982h675.511zm-264.221 2.219H456.187c.666 3.55 4.163 9.653 10.378 9.653H590.38c6.271 0 9.768-6.102 10.434-9.653z"/><path d="M932.02 37.946v500.99a2.747 2.747 0 0 1-2.775 2.773h-801.49a2.747 2.747 0 0 1-2.774-2.773V37.946a2.747 2.747 0 0 1 2.774-2.774h801.49c1.498 0 2.774 1.276 2.774 2.774zm-2.775 501.045V37.946h-801.49v500.99h801.49v.055zm-230.979 63.13c.222.5.11 1.11-.278 1.553-1.276 1.443-5.772 1.498-6.66 1.498h-.665c-3.053-.11-4.884-.665-5.328-1.664-.222-.5-.111-1.11.277-1.553 1.277-1.443 5.772-1.498 6.66-1.498h.666c3.052.055 4.884.61 5.328 1.664zM528.722 18.807a4.452 4.452 0 0 1 4.44 4.438 4.452 4.452 0 0 1-4.44 4.438 4.452 4.452 0 0 1-4.44-4.438 4.452 4.452 0 0 1 4.44-4.438zm2.22 4.438c0-1.22-1-2.219-2.22-2.219-1.22 0-2.22.999-2.22 2.22 0 1.22 1 2.218 2.22 2.218 1.22 0 2.22-.998 2.22-2.219zM370.111 601.9c.389.443.5 1.053.278 1.553-.444 1.054-2.22 1.608-5.328 1.664h-.666c-.888 0-5.439-.056-6.66-1.498-.388-.444-.5-1.054-.277-1.553.444-1.054 2.22-1.61 5.328-1.665h.666c.888.056 5.438.111 6.66 1.498z"/><path d="M100.784 564.51V33.008c0-16.42 13.375-29.79 29.802-29.79h795.94c16.426 0 29.801 13.37 29.801 29.79v531.5a29.17 29.17 0 0 1-1.887 10.374h-87.13l-.111-.5-2.609-11.593h77.696c6.105 0 11.1-4.993 11.1-11.095V32.62c0-14.59-11.877-26.46-26.472-26.46H130.197c-14.595 0-26.472 11.87-26.472 26.46v519.075c0 6.102 4.995 11.095 11.1 11.095h75.143l-2.609 11.594-.11.5H102.67c-1.166-3.218-1.887-6.713-1.887-10.375z"/><path d="M114.825 560.57c-4.884 0-8.88-3.993-8.88-8.875V32.62c0-13.369 10.877-24.242 24.252-24.242h796.717c13.375 0 24.252 10.873 24.252 24.242v519.075c0 4.882-3.996 8.876-8.88 8.876H114.825z"/><path d="M929.245 35.172h-801.49a2.747 2.747 0 0 0-2.774 2.774v500.99a2.747 2.747 0 0 0 2.774 2.773h801.49a2.747 2.747 0 0 0 2.774-2.773V37.946c0-1.498-1.276-2.774-2.774-2.774z"/><path d="M127.755 37.946h801.489v500.99H127.755z"/></g></svg>