<svg width="1057" height="610" viewBox="0 0 1057 610" xmlns="http://www.w3.org/2000/svg"><title>MackBook_Outline_SVG</title><desc>Created with sketchtool.</desc><g stroke="#000" fill="none"><path d="M1054.335 574.883h-97.508c1.11-3.273 1.776-6.768 1.776-10.374V33.01C958.603 15.367 944.23 1 926.58 1H130.587c-17.648 0-32.022 14.368-32.022 32.01v531.5c0 3.66.61 7.156 1.72 10.373H2.664c-.943 0-1.664.72-1.664 1.664v16.31c0 .5 0 1.886 1.22 2.774.278.223.61.444.944.666 7.27 4.993 25.474 12.427 45.952 12.427h958.824c20.422 0 38.68-7.434 45.95-12.427.445-.277.834-.554 1.167-.887.943-.722.943-1.887.943-2.33v-16.533c0-.887-.777-1.664-1.665-1.664zm-126.09-36.892h-801.49V36.947h801.49V537.99z" id="Shape" fill="#fff"/><path d="M1054.335 574.883h-97.508c1.11-3.273 1.72-6.768 1.72-10.374V33.01c0-17.642-14.374-32.01-32.022-32.01h-795.94c-17.647 0-32.02 14.368-32.02 32.01v531.5c0 3.66.61 7.156 1.72 10.373H2.664c-.944 0-1.665.72-1.665 1.664v16.365c0 .5 0 1.887 1.22 2.774.278.222.61.444.944.666 7.27 4.993 25.474 12.426 45.952 12.426h958.824c20.422 0 38.68-7.433 45.95-12.426.445-.278.834-.555 1.167-.888.943-.72.943-1.886.943-2.33v-16.53c0-.944-.777-1.72-1.665-1.72zM1053.78 593.08V577.1H603.034c-.667 4.605-5.052 11.872-12.655 11.872H466.564c-7.603 0-11.987-7.267-12.653-11.872H3.22v15.755c0 .61.11.832.333.998.166.167.388.278.555.444h1048.784c.278-.167.555-.39.777-.61.11-.112.11-.39.11-.61zM1049.285 596.463H7.715c8.436 4.604 24.03 10.04 41.345 10.04h958.824c17.315 0 32.965-5.436 41.4-10.04zM956.327 564.51V33.01c0-16.422-13.375-29.79-29.802-29.79h-795.94c-16.426 0-29.8 13.368-29.8 29.79v531.5c0 3.66.665 7.156 1.886 10.373h84.578l.11-.5 2.61-11.593h-75.143c-6.105 0-11.1-4.993-11.1-11.095V32.62c0-14.59 11.877-26.46 26.472-26.46h796.717c14.595 0 26.472 11.87 26.472 26.46v519.075c0 6.102-4.995 11.095-11.1 11.095H864.59l2.61 11.594.11.5h87.13c1.22-3.218 1.887-6.713 1.887-10.375zM951.166 551.695V32.62c0-13.37-10.877-24.242-24.252-24.242H130.197c-13.375 0-24.252 10.873-24.252 24.242v519.075c0 4.882 3.996 8.876 8.88 8.876h827.46c4.885 0 8.88-3.938 8.88-8.875zM865.034 574.883l-2.72-11.982H192.244l-2.72 11.983h675.511zM600.813 577.102H456.187c.666 3.55 4.163 9.653 10.378 9.653H590.38c6.27 0 9.767-6.102 10.433-9.653zM932.02 37.946v500.99c0 1.553-1.22 2.773-2.775 2.773h-801.49c-1.554 0-2.774-1.22-2.774-2.774V37.946c0-1.553 1.22-2.774 2.775-2.774h801.49c1.498 0 2.774 1.276 2.774 2.774zm-3.775 500.045V36.947h-801.49v500.99h801.49v.055zM698.266 602.12c.222.5.11 1.11-.278 1.554-1.276 1.443-5.772 1.498-6.66 1.498h-.665c-3.053-.11-4.884-.665-5.328-1.664-.222-.5-.11-1.11.277-1.553 1.277-1.443 5.772-1.498 6.66-1.498h.666c3.052.055 4.884.61 5.328 1.664zM528.722 18.807c2.442 0 4.44 1.997 4.44 4.438 0 2.44-1.998 4.438-4.44 4.438s-4.44-1.997-4.44-4.438c0-2.44 1.998-4.438 4.44-4.438zm1.22 3.438c0-1.22-1-2.22-2.22-2.22-1.22 0-2.22 1-2.22 2.22 0 1.22 1 2.22 2.22 2.22 1.22 0 2.22-1 2.22-2.22zM370.11 601.9c.39.443.5 1.053.28 1.553-.445 1.054-2.22 1.608-5.33 1.664h-.665c-.888 0-5.44-.056-6.66-1.498-.388-.445-.5-1.055-.277-1.554.444-1.054 2.22-1.61 5.328-1.665h.666c.888.057 5.438.112 6.66 1.5zM100.784 564.51V33.01c0-16.422 13.375-29.79 29.802-29.79h795.94c16.426 0 29.8 13.368 29.8 29.79v531.5c0 3.66-.665 7.156-1.886 10.373h-87.13l-.11-.5-2.61-11.593h77.696c6.105 0 11.1-4.993 11.1-11.095V32.62c0-14.59-11.877-26.46-26.472-26.46H130.197c-14.595 0-26.472 11.87-26.472 26.46v519.075c0 6.102 4.995 11.095 11.1 11.095h75.143l-2.61 11.594-.11.5H102.67c-1.165-3.218-1.886-6.713-1.886-10.375zM114.825 560.57c-4.884 0-8.88-3.993-8.88-8.875V32.62c0-13.37 10.877-24.242 24.252-24.242h796.717c13.375 0 24.252 10.873 24.252 24.242v519.075c0 4.882-3.996 8.876-8.88 8.876h-827.46zM929.245 35.172h-801.49c-1.554 0-2.774 1.22-2.774 2.774v500.99c0 1.553 1.22 2.773 2.775 2.773h801.49c1.554 0 2.774-1.22 2.774-2.774V37.946c0-1.498-1.277-2.774-2.775-2.774z"/><path d="M127.755 37.946h801.49v500.99h-801.49z"/></g></svg>