<svg id="Layer_1" xmlns="http://www.w3.org/2000/svg" viewBox="-255 334 100 103"><style>.st0{fill:#fff}</style><path class="st0" d="M-205 1292.4c-.5 0-1.1.2-1.4.6l-5.1 5.1-5.8-2.5c-1-.4-2.2.1-2.6 1l-2.5 5.8h-6.7c-1 0-2 1-2 2v6.7l-5.8 2.5c-1 .4-1.5 1.7-1.1 2.6l2.5 5.8-5 5c-.4.4-.6.9-.6 1.4 0 .6.3 1.2.7 1.5l4.9 4.1-2.5 6.7c-.4 1 .2 2.1 1.1 2.5l5.8 2.5v4.3c-.1.1-.2.2-.2.3l-9.5 16.1c-.7 1.2.3 3 1.7 3h11.9l6.4 10.1c.4.6 1 .9 1.7.9s1.4-.4 1.7-1l9.8-16.9 1 1.2c.4.4 1 .7 1.5.7s1.2-.2 1.5-.7l1-1.2 9.8 16.9c.3.6 1 1 1.7 1s1.3-.4 1.7-.9l6.4-10.1h11.9c1.4 0 2.4-1.8 1.7-3l-9.5-16.1c-.1-.1-.2-.2-.2-.3v-4.3l5.8-2.5c.9-.4 1.4-1.6 1.1-2.5l-2.5-6.7 4.9-4.1c.4-.4.7-1 .7-1.5s-.2-1.1-.6-1.4l-5-5 2.5-5.8c.4-1-.1-2.2-1.1-2.6l-5.8-2.5v-6.7c0-1-1-2-2-2h-6.7l-2.5-5.8c-.4-1-1.7-1.4-2.6-1l-5.8 2.5-5.1-5.1c-.1-.4-.7-.6-1.2-.6zm0 4.8l4.6 4.6c.6.5 1.5.7 2.2.4l5.2-2.2 2.2 5.2c.3.7 1.1 1.2 1.8 1.2h6v6c0 .8.5 1.5 1.2 1.8l5.2 2.2-2.2 5.2c-.3.7-.1 1.7.4 2.2l4.4 4.4-4.3 3.6c-.6.5-.9 1.5-.6 2.2l2.3 6.2-5.2 2.2c-.7.3-1.2 1.1-1.2 1.8v6h-6c-.8 0-1.5.5-1.8 1.2l-2.2 5.3-6.2-2.3c-.8-.3-1.7 0-2.2.6l-3.5 4.2-3.5-4.2c-.5-.6-1.5-.9-2.2-.6l-6.2 2.3-2.2-5.3c-.3-.7-1.1-1.2-1.8-1.2h-6v-6c0-.8-.5-1.5-1.2-1.8l-5.2-2.2 2.3-6.2c.3-.8 0-1.7-.6-2.2l-4.3-3.6 4.4-4.4c.6-.6.8-1.5.4-2.2l-2.2-5.2 5.2-2.2c.7-.3 1.2-1 1.2-1.8v-6h6c.8 0 1.5-.5 1.8-1.2l2.2-5.2 5.2 2.2c.7.3 1.6.1 2.2-.4l4.4-4.6zm-24 57.2h6.7l2.5 5.8c.4.9 1.6 1.4 2.5 1.1l6.7-2.5.4.5-8.8 15.3-5.2-8.2c-.4-.6-1-.9-1.7-.9h-9.5l6.4-11.1zm41.3 0h6.7l6.5 11h-9.5c-.7 0-1.3.3-1.7.9l-5.2 8.2-8.8-15.3.4-.5 6.7 2.5c1 .4 2.1-.2 2.5-1.1l2.4-5.7z" transform="translate(0 -952.362)"/></svg>