<svg id="Layer_1" xmlns="http://www.w3.org/2000/svg" viewBox="-255 337 100 94.5"><style>.st0{fill:#fff}</style><path class="st0" d="M-196.8 426.8h-13.4c-.7 0-1.3-.4-1.6-1l-5.2-11-5.4 10.9c0 .1-.1.1-.1.2-.3.5-.9.8-1.5.8l-13.3.1c-.7 0-1.3-.4-1.6-1l-7.1-13.7c-.3-.5-.3-1.1 0-1.6l12.8-26-13-26.3c-.2-.5-.3-1 0-1.5l6.5-13.8c.3-.6.9-1 1.6-1h13.8c.6 0 1.2.3 1.5.8l.1.1 5 10.2 5-10.1c.3-.6.9-1 1.6-1l13.2-.1c.7 0 1.3.4 1.6 1l5.5 10.9 5.3-10.7s0-.1.1-.1c.3-.5.9-.8 1.5-.8l13.8-.1c.7 0 1.3.4 1.6 1l6.5 13.6c.3.5.2 1.2-.1 1.7 0 0 0 .1-.1.1l-12.7 25.9 12.9 26.4c.3.5.3 1.1 0 1.7l-7 13.6c-.3.6-.9.9-1.6.9l-13.3-.1c-.6 0-1.2-.3-1.5-.8 0-.1-.1-.1-.1-.2l-4.8-10.2-5.1 10.3c-.1.5-.7.9-1.4.9zm-10.6-3.6h9.5l31.6-64.3h-9.3l-31.8 64.3zm-34-10.2l5.2 10.2h9.4l-4.9-10.2h-9.7zm60.4 10.2h9.4l5.2-10.1-9.8-.1-4.8 10.2zm-34-12.5l4.8 10.2 31.5-63.7-5.1-9.7-31.2 63.2zm-13.6.6l4.6 9.6 31.3-63.4-5.1-10-30.8 63.8zm40.4.1l4.4 9.4 4.6-9.5-4.5-9-4.5 9.1zm12.1-1.9l9.8.1-10.5-21.5-5 10.2 5.7 11.2zm-65.4 0h9.9l31-64.2-9.3.1-31.6 64.1zm-.2-50.4l10.6 21.4 4.8-9.8-6-11.6h-9.4zm12.5-1.8l4.9 9.5 4.9-9.8-4.7-9.5-5.1 9.8zm-7.6-12l-4.9 10.3 9.4-.1 5.3-10.2h-9.8zm55.9.1l5.3 10.1h9.4l-4.9-10.1h-9.8z"/></svg>