<svg id="Layer_1" xmlns="http://www.w3.org/2000/svg" viewBox="-260 339 89.1 95"><style>.st0{fill:#fff}</style><title>Blackspike_Dodecahedron</title><path class="st0" d="M-170.9 373.4l-4.6-11.2c-.1-.2-.2-.3-.3-.4l-26.9-20.9c-.1-.1-.3-.2-.5-.2l-12-1.6c-.2 0-.3 0-.5.1l-31.5 12.9c-.2.1-.3.2-.4.3l-7.4 9.6c-.1.1-.2.3-.2.5l-4.6 33.8c0 .2 0 .3.1.5l4.6 11.2c.1.2.2.3.3.4l26.9 20.9c.1.1.3.2.5.2l12 1.6h.1c.1 0 .3 0 .4-.1l31.6-12.9c.2-.1.3-.2.4-.3l7.4-9.6c.1-.1.2-.3.2-.5l4.6-33.8c-.2-.2-.2-.4-.2-.5zm-6.7-10.5l-7 25.3-30.1-4.1-11.5-28.1 22.8-13.2 25.8 20.1zm-56 47.2l18.6-24 30.1 4.1v26.3l-30.3 12.4-18.4-18.8zm-12.7-56.4l31-12.7 8.9 1.2-21.4 12.4-24 6.2 5.5-7.1zm-7.2 9.6l25.4-6.6 11.5 28.1-18.6 24-22.8-13.1 4.5-32.4zm-.1 43.6l-3.4-8.3 21.5 12.4 17.3 17.6-8.9-1.2-26.5-20.5zm76.2.2l-5.5 7.1v-24.7l6.6-23.9 3.4 8.3-4.5 33.2z"/></svg>