<svg id="Layer_1" xmlns="http://www.w3.org/2000/svg" viewBox="-247.5 340 87.2 85.2"><style>.st0{fill:#fff}</style><path class="st0" d="M-176 352.7l-28.8-8.5-.8-.6-.2.9-12.4 8.3h-.3l-.1.3-24.2 16.2 7.6 26.5-.1.3.3.2 4.5 15.8 30.9 9.5.9.6.1-.9 13.3-9.2h.3l.1-.3 21.5-14.9-7.4-27 .1-.3-.2-.2-4.3-15.7.5-.9c-.1-.1-1.3-.1-1.3-.1zm-34.9 27.9l10.4-2.7 5.2 6.9-9.8 2.5-5.8-6.7zm4.1 7.1l-10.5 2.7 5.1-9 5.4 6.3zm-4.5-8.6l2.5-12.3 7.3 9.7-9.8 2.6zm16.3 7.1l-1.6 10.9-7.4-8.6 9-2.3zm-4-8.7l9.8-2.5-5.1 8.9-4.7-6.4zm-.9-1.3l-8.5-11.3 2.2-10.7h12.5l11.5 8.6-5.9 10.4-11.8 3zm18.9-12.6l7.7 5.7-12.8 3.3 5.1-9zm-.5-2.2l-9.8-7.2h13.9l-4.1 7.2zm.3-8.7h-12l-8-5.9 20 5.9zm-23.4-6.6l8.8 6.5H-206l1.4-6.5zm-1.6.4l-1.3 6.2h-8l9.3-6.2zm-1.6 7.7l-1.9 9.1-6.8-9.1h8.7zm-10 .7l7.7 10.3-2.8 13.9-12.6-4.5 7.7-19.7zm-1.7.5l-7.3 18.7-13.5-4.9 20.8-13.8zm-21.3 15.2l13.5 4.9-6.9 17.8-6.6-22.7zm14.8 5.4l12.6 4.5-5.9 10.4-13.9 3.6 7.2-18.5zm5.7 16.8l-4.9 8.6-7.5-5.4 12.4-3.2zm-12.8 4.7l7.2 5.1-3.8 6.7-3.4-11.8zm8.4 6l9.6 6.9h-13.5l3.9-6.9zm-.7 8.4h12.4l9.4 6.7-21.8-6.7zm25.5 7.4l-10.5-7.5h11.6l-1.1 7.5zm-12.6-8.9l-11.5-8.2 5.6-10 12.6-3.3 8.8 10.1-1.7 11.3c.1.1-13.8.1-13.8.1zm14.2 8.7l1.1-7.2h9.3l-10.4 7.2zm1.2-8.7l1.4-9.7 8.4 9.7h-9.8zm11.2-.8l-9.5-11 1.8-12.4 13.8 5.2-6.1 18.2zm1.8-.4l5.8-17.3 12.4 4.6-18.2 12.7zm18.7-14.1l-12.4-4.6 6.1-18.3 6.3 22.9zm-13.8-5.1l-13.8-5.2 5.9-10.4 14.3-3.7-6.4 19.3zm6.3-22.3l-7.3-5.4 3.9-6.9 3.4 12.3z"/></svg>