<svg id="Layer_1" xmlns="http://www.w3.org/2000/svg" viewBox="-255 335.2 100 97.8"><style>.st0{fill:#fff}</style><path class="st0" d="M-174.1 352.3l-.3-.3-48.2-13.5c-.2-.1-.5 0-.6.2l-24.2 46.1c-.1.1-.1.3 0 .4l9.7 26.8c.1.1.2.3.3.3l51.4 17.1h.2c.2 0 .4-.1.5-.3l22.8-50.3c.1-.1.1-.3 0-.4l-11.6-26.1zm-12.8 11.2l-18.2 17.3-4.8-11.8 18.7-8.4 4.3 2.9zm-3.3-3.4l13.1-5.9-9.1 8.6-4-2.7zm-20.1 7.9l-11.4-27.7 29.4 19.6-18 8.1zm-.9.5l-18.5 8.4 7.2-36.1 11.3 27.7zm.4.9l5 12.1-25.2 1.9 1.1-5.4 19.1-8.6zm-21.3 14.1l-12 .9 13-5.9-1 5zm-.2 1l-1.8 9.2-11.4-8.2 13.2-1zm1-.1l24.2-1.8-18.3 17.4-7.8-5.6 1.9-10zm5.2 16.3l-10.3 9.8 3-15 7.3 5.2zm.8.6l4.1 2.9-13.6 6.1 9.5-9zm.7-.7l19.1-18.1 5.1 12.4-19.8 8.9-4.4-3.2zm24.6-4.8l13 31.8-32.3-23.2 19.3-8.6zm.9-.4l18.9-8.5-5.9 40.2-13-31.7zm-.4-.9l-5-12.1 25.2-1.9-.8 5.3-19.4 8.7zm21.3-14.1l12.3-.9-13.1 5.8.8-4.9zm.1-1l1.3-9.1 12.2 8.1-13.5 1zm-1 .1l-25.3 1.9 18.3-17.4 8.4 5.6-1.4 9.9zm-6.2-16.2l10-9.5-2.2 14.7-7.8-5.2zm-5.9-3.9l-28.7-19.1 43.8 12.3-15.1 6.8zm-39.7 17.9l-15 6.7 21.9-41.8-6.9 35.1zm-3.5 17.5l-3 15.3-8.5-23.6 11.5 8.3zm14.1 10.1l31.5 22.6-47.1-15.6 15.6-7zm41.2-18.4l15.1-6.7-20.8 45.8 5.7-39.1zm2.6-17.4l2.2-14.9 10.2 23.1-12.4-8.2z"/></svg>