<svg id="Layer_1" xmlns="http://www.w3.org/2000/svg" viewBox="-255 340.5 100 87.5"><style>.st0{fill:#fff}</style><path class="st0" d="M-190.3 349c-5.3 0-10.4 1.4-14.7 3.8-4.4-2.4-9.4-3.8-14.7-3.8-16.7 0-30.3 13.6-30.3 30.3 0 13.2 8.5 24.4 20.2 28.6v12l10.1-10.3c5.3 0 10.3-1.4 14.7-3.8 4.4 2.4 9.4 3.8 14.7 3.8h.3l10.1 10.3v-12.1c11.6-4.2 19.9-15.4 19.9-28.5 0-16.8-13.6-30.3-30.3-30.3zm9.3 55.9c-1.2.4-2 1.6-2 2.8v4.7l-4.9-5c-.6-.6-1.3-.9-2.1-.9h-.2c-4.6 0-9.2-1.2-13.3-3.4-.5-.3-1-.4-1.5-.4s-1 .1-1.5.4c-4 2.2-8.6 3.4-13.2 3.4-.8 0-1.6.3-2.1.9l-4.9 5v-4.6c0-1.3-.8-2.4-2-2.8-10.9-3.8-18.2-14.2-18.2-25.7 0-15 12.2-27.3 27.3-27.3 4.6 0 9.2 1.2 13.3 3.4.5.3 1 .4 1.5.4s1-.1 1.5-.4c4-2.3 8.6-3.4 13.3-3.4 15 0 27.3 12.2 27.3 27.3-.3 11.4-7.5 21.7-18.3 25.6z"/><path class="st0" d="M-211.9 400.9c-.4 0-.8-.2-1.1-.5-5.2-5.8-8.1-13.3-8.1-21.1 0-7.8 2.9-15.3 8.1-21.1.6-.6 1.5-.7 2.1-.1.6.6.7 1.5.1 2.1-4.7 5.3-7.3 12.1-7.3 19.1 0 7.1 2.6 13.9 7.3 19.1.6.6.5 1.6-.1 2.1-.3.3-.7.4-1 .4z"/></svg>