<svg width="727" height="727" viewBox="0 0 727 727" xmlns="http://www.w3.org/2000/svg"><title>Group 3 Copy</title><g style="mix-blend-mode:screen" fill="none" fill-rule="evenodd"><path d="M363.517 697.283c184.334 0 333.766-149.432 333.766-333.766 0-184.334-149.432-333.766-333.766-333.766-184.334 0-333.766 149.432-333.766 333.766 0 184.334 149.432 333.766 333.766 333.766zm0 29.537C162.87 726.82.214 564.164.214 363.517S162.87.214 363.517.214 726.82 162.87 726.82 363.517 564.164 726.82 363.517 726.82z" fill="#313131"/><text font-family="Moderat-Bold, Moderat" font-size="165.406" font-weight="bold" letter-spacing="1.75" fill="#2B2B2B" transform="translate(.214 .214)"><tspan x="194.943" y="336.313">H</tspan></text><text font-family="Moderat-Bold, Moderat" font-size="165.406" font-weight="bold" letter-spacing="1.75" fill="#2B2B2B" transform="translate(.214 .214)"><tspan x="401.701" y="336.313">H</tspan></text><path d="M163.84 461.134c1.831 4.317 5.447 11.338 11.062 20.166 9.217 14.492 20.857 28.944 35.15 42.434 40.807 38.514 94.733 61.656 162.724 61.656 68.627 0 121.447-27.028 159.743-71.8 13.33-15.585 23.917-32.243 32.073-48.92 4.946-10.113 8.023-18.12 9.514-22.991l4.32-14.123-28.245-8.64-4.32 14.123c-.22.72-.777 2.346-1.7 4.747-1.6 4.162-3.625 8.842-6.102 13.907-7.119 14.556-16.383 29.132-27.986 42.698-32.946 38.517-77.787 61.463-137.297 61.463-60.147 0-106.932-20.079-142.45-53.6-12.42-11.722-22.537-24.283-30.501-36.805-2.76-4.34-5.045-8.341-6.874-11.893-1.045-2.03-1.678-3.387-1.92-3.958l-5.769-13.596-27.19 11.536 5.767 13.596z" fill="#313131"/></g></svg>