<svg xmlns="http://www.w3.org/2000/svg" viewBox="-255 334 100 103.5"><path d="M-182.6 359.2c6.5 0 11.7-5.3 11.7-11.7s-5.3-11.7-11.7-11.7c-6.5 0-11.7 5.3-11.7 11.7s5.2 11.7 11.7 11.7zm0-21.5c5.4 0 9.8 4.4 9.8 9.8s-4.4 9.8-9.8 9.8-9.8-4.4-9.8-9.8 4.4-9.8 9.8-9.8z"/><path d="M-185.1 349.6c-.2-.3-.7-.3-.9-.1-.3.2-.3.7-.1.9.1.1 1.4 1.6 3.4 1.7h.1c1.2 0 2.4-.6 3.4-1.7.3-.3.2-.7 0-.9-.3-.3-.7-.2-.9 0-.8.9-1.7 1.3-2.5 1.3-1.5 0-2.5-1.1-2.5-1.2z"/><circle cx="-185.5" cy="345.4" r="1.5"/><circle cx="-179.7" cy="345.4" r="1.5"/><path d="M-241.2 409.8c-6.5 0-11.7 5.2-11.7 11.7s5.3 11.7 11.7 11.7c6.4 0 11.7-5.3 11.7-11.7s-5.3-11.7-11.7-11.7zm0 21.5c-5.4 0-9.8-4.4-9.8-9.8s4.4-9.8 9.8-9.8 9.8 4.4 9.8 9.8-4.4 9.8-9.8 9.8z"/><path d="M-238.7 423.6c-.8.9-1.7 1.3-2.5 1.3-1.4 0-2.4-1.2-2.4-1.2-.2-.3-.7-.3-.9-.1-.3.2-.3.7-.1.9.1.1 1.4 1.6 3.4 1.7h.1c1.2 0 2.4-.6 3.4-1.7.3-.3.2-.7 0-.9-.4-.3-.8-.3-1 0z"/><circle cx="-244.1" cy="419.4" r="1.5"/><circle cx="-238.3" cy="419.4" r="1.5"/><path d="M-202.8 411.5c-.8-.7-2-.7-2.7 0l-5.3 5.5-5.3-5.5c-.7-.8-1.9-.8-2.7 0-.8.7-.8 1.9 0 2.7l5.4 5.6-5.4 5.6c-.7.8-.7 2 0 2.7.4.4.8.5 1.3.5s1-.2 1.4-.6l5.3-5.5 5.3 5.5c.4.4.9.6 1.4.6s1-.2 1.3-.5c.8-.7.8-1.9 0-2.7l-5.4-5.6 5.4-5.6c.8-.7.8-1.9 0-2.7zm39.7-2.1l5.4-5.6c.7-.8.7-2 0-2.7-.8-.7-2-.7-2.7 0l-5.3 5.5-5.3-5.5c-.7-.8-1.9-.8-2.7 0-.8.7-.8 1.9 0 2.7l5.4 5.6-5.5 5.6c-.7.8-.7 2 0 2.7.4.4.8.5 1.3.5s1-.2 1.4-.6l5.3-5.5 5.3 5.5c.4.4.9.6 1.4.6s1-.2 1.3-.5c.8-.7.8-1.9 0-2.7l-5.3-5.6zm-69.5-36c.4.4.8.5 1.3.5s1-.2 1.4-.6l5.3-5.5 5.3 5.5c.4.4.9.6 1.4.6s1-.2 1.3-.5c.8-.7.8-1.9 0-2.7l-5.4-5.6 5.4-5.6c.7-.8.7-2 0-2.7-.8-.7-2-.7-2.7 0l-5.3 5.5-5.3-5.5c-.7-.8-1.9-.8-2.7 0-.8.7-.8 1.9 0 2.7l5.4 5.6-5.4 5.6c-.7.8-.7 2 0 2.7z"/><circle cx="-241.2" cy="404.6" r="1.9"/><circle cx="-238.3" cy="396.4" r="1.9"/><circle cx="-231.2" cy="391.3" r="1.9"/><circle cx="-223" cy="389.4" r="1.9"/><circle cx="-214.8" cy="389.4" r="1.9"/><circle cx="-206" cy="389.4" r="1.9"/><path d="M-173.3 371.4l-7.3-6.8c-.7-.6-1.7-.7-2.4-.1h-.2c-.3.1-.6.3-.8.5l-.1.1-7.3 6.8c-.8.7-.8 1.9-.1 2.7.4.4.9.6 1.4.6s.9-.2 1.3-.5l5-4.6c.5 3.9-.2 7.8-2.1 10.8-2.3 3.7-6.2 6-11.2 6.8-1 .2-1.8 1.1-1.6 2.2.1.9 1 1.6 1.9 1.6h.3c6.2-1 11-3.9 13.9-8.5 2.2-3.6 3.2-8 2.8-12.5l4.1 3.8c.4.3.8.5 1.3.5s1-.2 1.4-.6c.5-.9.5-2.1-.3-2.8z"/></svg>